%TF.GenerationSoftware,KiCad,Pcbnew,(5.1.9-16-g1737927814)-1*%
%TF.CreationDate,2021-08-08T16:45:24+02:00*%
%TF.ProjectId,Diffprobe,44696666-7072-46f6-9265-2e6b69636164,rev?*%
%TF.SameCoordinates,Original*%
%TF.FileFunction,Copper,L2,Inr*%
%TF.FilePolarity,Positive*%
%FSLAX46Y46*%
G04 Gerber Fmt 4.6, Leading zero omitted, Abs format (unit mm)*
G04 Created by KiCad (PCBNEW (5.1.9-16-g1737927814)-1) date 2021-08-08 16:45:24*
%MOMM*%
%LPD*%
G01*
G04 APERTURE LIST*
%TA.AperFunction,ComponentPad*%
%ADD10O,2.000000X1.524000*%
%TD*%
%TA.AperFunction,ComponentPad*%
%ADD11O,2.000000X1.700000*%
%TD*%
%TA.AperFunction,ComponentPad*%
%ADD12O,3.500000X2.200000*%
%TD*%
%TA.AperFunction,ComponentPad*%
%ADD13O,2.500000X1.500000*%
%TD*%
%TA.AperFunction,ComponentPad*%
%ADD14R,2.500000X1.500000*%
%TD*%
%TA.AperFunction,ComponentPad*%
%ADD15C,2.050000*%
%TD*%
%TA.AperFunction,ComponentPad*%
%ADD16C,2.250000*%
%TD*%
%TA.AperFunction,ComponentPad*%
%ADD17O,1.600000X1.000000*%
%TD*%
%TA.AperFunction,ComponentPad*%
%ADD18O,2.100000X1.000000*%
%TD*%
%TA.AperFunction,ComponentPad*%
%ADD19C,1.400000*%
%TD*%
%TA.AperFunction,ViaPad*%
%ADD20C,0.800000*%
%TD*%
%TA.AperFunction,Conductor*%
%ADD21C,0.254000*%
%TD*%
%TA.AperFunction,Conductor*%
%ADD22C,0.100000*%
%TD*%
G04 APERTURE END LIST*
D10*
%TO.N,/IN+*%
%TO.C,J2*%
X177500000Y-43740000D03*
%TO.N,/IN-*%
X177500000Y-47700000D03*
%TD*%
D11*
%TO.N,GND*%
%TO.C,BT1*%
X128000000Y-46000000D03*
%TO.N,Battery*%
%TA.AperFunction,ComponentPad*%
G36*
G01*
X127250000Y-42650000D02*
X128750000Y-42650000D01*
G75*
G02*
X129000000Y-42900000I0J-250000D01*
G01*
X129000000Y-44100000D01*
G75*
G02*
X128750000Y-44350000I-250000J0D01*
G01*
X127250000Y-44350000D01*
G75*
G02*
X127000000Y-44100000I0J250000D01*
G01*
X127000000Y-42900000D01*
G75*
G02*
X127250000Y-42650000I250000J0D01*
G01*
G37*
%TD.AperFunction*%
%TD*%
D12*
%TO.N,*%
%TO.C,SW1*%
X83000000Y-57500000D03*
X83000000Y-49300000D03*
D13*
%TO.N,Battery*%
X83000000Y-55400000D03*
%TO.N,Net-(D4-Pad2)*%
X83000000Y-53400000D03*
D14*
%TO.N,Net-(SW1-Pad1)*%
X83000000Y-51400000D03*
%TD*%
D15*
%TO.N,/OUTPUT*%
%TO.C,J1*%
X136600000Y-37300000D03*
D16*
%TO.N,GND*%
X139140000Y-34760000D03*
X134060000Y-34760000D03*
X134060000Y-39840000D03*
X139140000Y-39840000D03*
%TD*%
D17*
%TO.N,GND*%
%TO.C,P1*%
X81325000Y-46420000D03*
X81325000Y-37780000D03*
D18*
X85505000Y-46420000D03*
X85505000Y-37780000D03*
%TD*%
D19*
%TO.N,GND*%
%TO.C,TH1*%
X111090000Y-56500000D03*
%TO.N,Net-(R28-Pad2)*%
X108550000Y-56500000D03*
%TD*%
D20*
%TO.N,GND*%
X112400000Y-38500000D03*
X102250000Y-53500000D03*
X106100000Y-53000000D03*
X99400000Y-40650000D03*
X99600000Y-39000000D03*
X101900000Y-40000000D03*
X94900000Y-52400000D03*
X92900000Y-52400000D03*
X94600000Y-54300000D03*
X94700000Y-53400000D03*
X100700000Y-51800000D03*
X101900000Y-39000000D03*
X99400000Y-44900000D03*
X106000000Y-42100000D03*
X87100000Y-45400000D03*
X86800000Y-38800000D03*
X153600000Y-41550000D03*
X152250000Y-44700000D03*
X162600000Y-46600000D03*
X160650000Y-49150000D03*
X154600000Y-40500000D03*
X141100000Y-52550000D03*
X152450000Y-41550000D03*
X119800000Y-50500000D03*
X124250000Y-55400000D03*
X123437500Y-54037500D03*
X145800000Y-41600000D03*
X110700000Y-38300000D03*
X127200000Y-52800000D03*
X94299992Y-36899996D03*
X92700000Y-53600000D03*
X102300000Y-42900000D03*
X102400000Y-45400000D03*
X99599996Y-42900000D03*
X117099992Y-57100000D03*
X115200000Y-46950000D03*
X115850008Y-43000000D03*
X111900000Y-53200000D03*
X118850000Y-50350000D03*
X169300000Y-43300000D03*
X169300000Y-48100000D03*
X168300000Y-45700000D03*
X166600000Y-43700000D03*
X166600000Y-47700000D03*
X167250000Y-51800000D03*
X167300000Y-37600000D03*
X167700000Y-43700000D03*
X165500000Y-43700000D03*
X165500000Y-47700000D03*
X167700000Y-47700000D03*
X165500000Y-45700000D03*
X167700000Y-42400000D03*
X166600000Y-42400000D03*
X165500000Y-42400000D03*
X167700000Y-49000000D03*
X166600000Y-49000000D03*
X165500000Y-49000000D03*
X162800000Y-48900000D03*
X164600000Y-46300000D03*
X164600000Y-45100000D03*
X121000004Y-41800000D03*
X121450000Y-41150018D03*
X100600000Y-39000000D03*
X100600000Y-40000000D03*
X103000000Y-39100000D03*
X103700000Y-41700000D03*
X89100000Y-32300000D03*
X137100000Y-45200000D03*
X137400000Y-46100000D03*
X134400000Y-45000000D03*
X134400000Y-45900000D03*
X136100000Y-45000000D03*
X136100000Y-45900000D03*
X134000000Y-49300000D03*
X134300000Y-42300000D03*
X136600000Y-42300000D03*
X137100000Y-48600000D03*
X138100000Y-48600000D03*
X137400000Y-47300000D03*
X131400000Y-48400000D03*
X131300000Y-45400000D03*
X131300000Y-42100000D03*
X131300000Y-38900000D03*
X131300000Y-36200000D03*
X131300000Y-33800000D03*
X144500000Y-33700000D03*
X140500000Y-42200000D03*
X138200000Y-42200000D03*
X139900000Y-53900000D03*
X137400000Y-50600000D03*
X131400000Y-50600000D03*
X134000000Y-50600000D03*
X141100000Y-53400000D03*
X142000000Y-55400000D03*
X139000000Y-55400000D03*
X139000000Y-57400000D03*
X142000000Y-57400000D03*
X136000000Y-57400000D03*
X133000000Y-57400000D03*
X130000000Y-57400000D03*
X130000000Y-55400000D03*
X133000000Y-55400000D03*
X131500000Y-56400000D03*
X134500000Y-56400000D03*
X137500000Y-56400000D03*
X140500000Y-56400000D03*
X144000000Y-57400000D03*
X140500000Y-58400000D03*
X137500000Y-58400000D03*
X134500000Y-58400000D03*
X131500000Y-58400000D03*
X128500000Y-58400000D03*
X128500000Y-56400000D03*
X127250000Y-55350000D03*
X125500000Y-58400000D03*
X122500000Y-58400000D03*
X119500000Y-58400000D03*
X116500000Y-58400000D03*
X113500000Y-58400000D03*
X110500000Y-58400000D03*
X107500000Y-58400000D03*
X104500000Y-58400000D03*
X101500000Y-58400000D03*
X98500000Y-58400000D03*
X95500000Y-58400000D03*
X92500000Y-58400000D03*
X89500000Y-58400000D03*
X86500000Y-58400000D03*
X113500000Y-54900000D03*
X110500000Y-54900000D03*
X107500000Y-54900000D03*
X104000000Y-53900000D03*
X106000000Y-53900000D03*
X119100000Y-52000000D03*
X116500000Y-54900000D03*
X81300000Y-44300000D03*
X81300000Y-42800000D03*
X81300000Y-41200000D03*
X81300000Y-39700000D03*
X84500000Y-44000000D03*
X84500000Y-40300000D03*
X87500000Y-42200000D03*
X87500000Y-41000000D03*
X88400000Y-38100000D03*
X87400000Y-37200000D03*
X85500000Y-50500000D03*
X85500000Y-49000000D03*
X83600000Y-47400000D03*
X86800000Y-49700000D03*
X86500000Y-56100000D03*
X86500000Y-54000000D03*
X85100000Y-54500000D03*
X85100000Y-56100000D03*
X142000000Y-33700000D03*
X136600000Y-33700000D03*
X152250000Y-43700000D03*
X142000000Y-39900000D03*
X144500000Y-39900000D03*
X147000000Y-39900000D03*
X147000000Y-37900000D03*
X144500000Y-37900000D03*
X142000000Y-37900000D03*
X142000000Y-35900000D03*
X144500000Y-35900000D03*
X147000000Y-35900000D03*
X149500000Y-35900000D03*
X149500000Y-37900000D03*
X147000000Y-41900000D03*
X152000000Y-35900000D03*
X167000000Y-34400000D03*
X164500000Y-34400000D03*
X162000000Y-34400000D03*
X155500000Y-34400000D03*
X160500000Y-36900000D03*
X163200000Y-36900000D03*
X165400000Y-36900000D03*
X157400000Y-36900000D03*
X136000000Y-55400000D03*
X136400000Y-50600000D03*
X129000000Y-48400000D03*
X125000000Y-46400000D03*
X125000000Y-41400000D03*
X125000000Y-36400000D03*
X125000000Y-38900000D03*
X124200000Y-43900000D03*
X127500000Y-38900000D03*
X127500000Y-36400000D03*
X127500000Y-33900000D03*
X125000000Y-33900000D03*
X122500000Y-33900000D03*
X122500000Y-36400000D03*
X127500000Y-41400000D03*
X92000000Y-32400000D03*
X96000000Y-32400000D03*
X100000000Y-32400000D03*
X104000000Y-32400000D03*
X108000000Y-32400000D03*
X112000000Y-32400000D03*
X116000000Y-32400000D03*
X120000000Y-32400000D03*
X123750000Y-32400000D03*
X81750000Y-32400000D03*
X120212500Y-43387500D03*
X92499993Y-38700000D03*
X92400000Y-37899874D03*
X85200000Y-51900000D03*
X91300000Y-53000000D03*
X111300000Y-51600000D03*
X112500000Y-51600000D03*
X82500000Y-44900000D03*
X84800000Y-36600000D03*
X88950012Y-48150012D03*
X134000000Y-47300000D03*
X123400000Y-41400000D03*
X123400000Y-38900000D03*
X125900000Y-43900000D03*
X98800000Y-39800000D03*
X85200000Y-59000000D03*
X88100000Y-56100000D03*
X93700000Y-53600000D03*
X87600000Y-53400000D03*
X127500000Y-32400000D03*
X151400000Y-38250000D03*
X151000000Y-41500000D03*
X155550000Y-38150000D03*
X157200000Y-38100000D03*
X134500000Y-37300000D03*
X138500000Y-37400000D03*
X136600000Y-35400000D03*
X135800000Y-39200000D03*
X137400000Y-39200000D03*
X137400000Y-41000000D03*
X135600000Y-40800000D03*
X148600000Y-41900000D03*
X167300000Y-36500000D03*
X166300000Y-52600000D03*
X153800000Y-43700000D03*
X143000000Y-54800000D03*
X123000000Y-57400000D03*
X123700000Y-53300000D03*
%TO.N,+5V*%
X117300000Y-52950000D03*
X146800000Y-54550000D03*
X153350000Y-44600000D03*
X161375000Y-45025000D03*
X138600000Y-44450000D03*
X118650000Y-55200000D03*
X149775000Y-39875000D03*
X148950000Y-53750000D03*
X117800000Y-53700000D03*
X161400000Y-46500000D03*
X141950000Y-42300000D03*
X151950000Y-37100000D03*
X160500000Y-47100000D03*
X160605621Y-45212265D03*
X153300000Y-46100000D03*
X139800000Y-44400000D03*
%TO.N,-5V*%
X136900000Y-53100000D03*
X157050000Y-41900000D03*
X159200000Y-50100000D03*
X139600000Y-52000000D03*
X146400000Y-51600000D03*
X156350000Y-40750000D03*
X148950000Y-51850000D03*
X134500000Y-53100000D03*
X134500000Y-52200000D03*
X136900000Y-52200000D03*
X135700000Y-52200000D03*
X155000000Y-36950000D03*
X158475000Y-50025000D03*
X139225000Y-52625000D03*
%TO.N,/Battery management/BUS*%
X100700000Y-45800000D03*
X91943750Y-48543750D03*
X100800000Y-44900000D03*
X101000000Y-42700000D03*
%TO.N,VDC*%
X120300000Y-46300000D03*
X102400000Y-55400000D03*
X103049992Y-46750000D03*
X119475000Y-48925000D03*
X104875000Y-46075000D03*
X104950000Y-43750000D03*
X101550000Y-47100000D03*
X114200000Y-56900000D03*
X108150000Y-53250000D03*
X113850006Y-44400000D03*
X119450000Y-35300000D03*
X106900000Y-46900000D03*
X105600000Y-46900000D03*
X118112500Y-49087500D03*
X106000000Y-43950000D03*
%TO.N,-VDC*%
X122700000Y-51400000D03*
X122700000Y-50500000D03*
%TO.N,Net-(C38-Pad2)*%
X159337500Y-48187500D03*
X155750000Y-49300000D03*
%TO.N,Net-(C38-Pad1)*%
X160250000Y-42100000D03*
X150600000Y-43000000D03*
%TO.N,/Battery management/VUSB*%
X102800000Y-50900000D03*
X103000000Y-48500000D03*
X87100000Y-44400000D03*
X87250000Y-39650000D03*
X89200000Y-36200000D03*
X82600000Y-33600000D03*
X105000000Y-48500000D03*
X106500000Y-48800000D03*
X89600000Y-52800000D03*
X104000000Y-48500000D03*
X102000000Y-48300000D03*
X104950000Y-50050000D03*
%TO.N,Battery*%
X112050000Y-35250000D03*
X110700000Y-34600000D03*
X109900000Y-34600000D03*
X109100000Y-34600000D03*
X112200000Y-34400000D03*
X114000000Y-34399992D03*
X116074999Y-50824995D03*
%TD*%
D21*
%TO.N,GND*%
X129673000Y-53600000D02*
X129675440Y-53624776D01*
X129682667Y-53648601D01*
X129694403Y-53670557D01*
X129710197Y-53689803D01*
X129729443Y-53705597D01*
X129751399Y-53717333D01*
X129775224Y-53724560D01*
X129800000Y-53727000D01*
X130000000Y-53727000D01*
X130024776Y-53724560D01*
X130048601Y-53717333D01*
X130070557Y-53705597D01*
X130089803Y-53689803D01*
X130105597Y-53670557D01*
X130117333Y-53648601D01*
X130124560Y-53624776D01*
X130127000Y-53600000D01*
X130127000Y-52118548D01*
X133673000Y-52118548D01*
X133673000Y-52281452D01*
X133704782Y-52441227D01*
X133767123Y-52591731D01*
X133806057Y-52650000D01*
X133767123Y-52708269D01*
X133704782Y-52858773D01*
X133673000Y-53018548D01*
X133673000Y-53181452D01*
X133704782Y-53341227D01*
X133767123Y-53491731D01*
X133857628Y-53627181D01*
X133972819Y-53742372D01*
X134108269Y-53832877D01*
X134258773Y-53895218D01*
X134418548Y-53927000D01*
X134581452Y-53927000D01*
X134741227Y-53895218D01*
X134891731Y-53832877D01*
X135027181Y-53742372D01*
X135142372Y-53627181D01*
X135232877Y-53491731D01*
X135295218Y-53341227D01*
X135327000Y-53181452D01*
X135327000Y-53018548D01*
X135310110Y-52933640D01*
X135458773Y-52995218D01*
X135618548Y-53027000D01*
X135781452Y-53027000D01*
X135941227Y-52995218D01*
X136089890Y-52933640D01*
X136073000Y-53018548D01*
X136073000Y-53181452D01*
X136104782Y-53341227D01*
X136167123Y-53491731D01*
X136257628Y-53627181D01*
X136372819Y-53742372D01*
X136508269Y-53832877D01*
X136658773Y-53895218D01*
X136818548Y-53927000D01*
X136981452Y-53927000D01*
X137141227Y-53895218D01*
X137291731Y-53832877D01*
X137427181Y-53742372D01*
X137501005Y-53668548D01*
X148123000Y-53668548D01*
X148123000Y-53831452D01*
X148154782Y-53991227D01*
X148217123Y-54141731D01*
X148307628Y-54277181D01*
X148422819Y-54392372D01*
X148558269Y-54482877D01*
X148708773Y-54545218D01*
X148868548Y-54577000D01*
X149031452Y-54577000D01*
X149191227Y-54545218D01*
X149341731Y-54482877D01*
X149477181Y-54392372D01*
X149592372Y-54277181D01*
X149682877Y-54141731D01*
X149745218Y-53991227D01*
X149777000Y-53831452D01*
X149777000Y-53668548D01*
X149745218Y-53508773D01*
X149682877Y-53358269D01*
X149592372Y-53222819D01*
X149477181Y-53107628D01*
X149341731Y-53017123D01*
X149191227Y-52954782D01*
X149031452Y-52923000D01*
X148868548Y-52923000D01*
X148708773Y-52954782D01*
X148558269Y-53017123D01*
X148422819Y-53107628D01*
X148307628Y-53222819D01*
X148217123Y-53358269D01*
X148154782Y-53508773D01*
X148123000Y-53668548D01*
X137501005Y-53668548D01*
X137542372Y-53627181D01*
X137632877Y-53491731D01*
X137695218Y-53341227D01*
X137727000Y-53181452D01*
X137727000Y-53018548D01*
X137695218Y-52858773D01*
X137632877Y-52708269D01*
X137593943Y-52650000D01*
X137632877Y-52591731D01*
X137652835Y-52543548D01*
X138398000Y-52543548D01*
X138398000Y-52706452D01*
X138429782Y-52866227D01*
X138492123Y-53016731D01*
X138582628Y-53152181D01*
X138697819Y-53267372D01*
X138833269Y-53357877D01*
X138983773Y-53420218D01*
X139143548Y-53452000D01*
X139306452Y-53452000D01*
X139466227Y-53420218D01*
X139616731Y-53357877D01*
X139752181Y-53267372D01*
X139867372Y-53152181D01*
X139957877Y-53016731D01*
X140020218Y-52866227D01*
X140052000Y-52706452D01*
X140052000Y-52692606D01*
X140127181Y-52642372D01*
X140242372Y-52527181D01*
X140332877Y-52391731D01*
X140395218Y-52241227D01*
X140427000Y-52081452D01*
X140427000Y-51918548D01*
X140395218Y-51758773D01*
X140332877Y-51608269D01*
X140272928Y-51518548D01*
X145573000Y-51518548D01*
X145573000Y-51681452D01*
X145604782Y-51841227D01*
X145667123Y-51991731D01*
X145757628Y-52127181D01*
X145872819Y-52242372D01*
X146008269Y-52332877D01*
X146158773Y-52395218D01*
X146318548Y-52427000D01*
X146481452Y-52427000D01*
X146641227Y-52395218D01*
X146791731Y-52332877D01*
X146927181Y-52242372D01*
X147042372Y-52127181D01*
X147132877Y-51991731D01*
X147195218Y-51841227D01*
X147209675Y-51768548D01*
X148123000Y-51768548D01*
X148123000Y-51931452D01*
X148154782Y-52091227D01*
X148217123Y-52241731D01*
X148307628Y-52377181D01*
X148422819Y-52492372D01*
X148558269Y-52582877D01*
X148708773Y-52645218D01*
X148868548Y-52677000D01*
X149031452Y-52677000D01*
X149191227Y-52645218D01*
X149341731Y-52582877D01*
X149477181Y-52492372D01*
X149592372Y-52377181D01*
X149682877Y-52241731D01*
X149745218Y-52091227D01*
X149777000Y-51931452D01*
X149777000Y-51768548D01*
X149745218Y-51608773D01*
X149682877Y-51458269D01*
X149592372Y-51322819D01*
X149477181Y-51207628D01*
X149341731Y-51117123D01*
X149191227Y-51054782D01*
X149031452Y-51023000D01*
X148868548Y-51023000D01*
X148708773Y-51054782D01*
X148558269Y-51117123D01*
X148422819Y-51207628D01*
X148307628Y-51322819D01*
X148217123Y-51458269D01*
X148154782Y-51608773D01*
X148123000Y-51768548D01*
X147209675Y-51768548D01*
X147227000Y-51681452D01*
X147227000Y-51518548D01*
X147195218Y-51358773D01*
X147132877Y-51208269D01*
X147042372Y-51072819D01*
X146927181Y-50957628D01*
X146791731Y-50867123D01*
X146641227Y-50804782D01*
X146481452Y-50773000D01*
X146318548Y-50773000D01*
X146158773Y-50804782D01*
X146008269Y-50867123D01*
X145872819Y-50957628D01*
X145757628Y-51072819D01*
X145667123Y-51208269D01*
X145604782Y-51358773D01*
X145573000Y-51518548D01*
X140272928Y-51518548D01*
X140242372Y-51472819D01*
X140127181Y-51357628D01*
X139991731Y-51267123D01*
X139841227Y-51204782D01*
X139681452Y-51173000D01*
X139518548Y-51173000D01*
X139358773Y-51204782D01*
X139208269Y-51267123D01*
X139072819Y-51357628D01*
X138957628Y-51472819D01*
X138867123Y-51608269D01*
X138804782Y-51758773D01*
X138773000Y-51918548D01*
X138773000Y-51932394D01*
X138697819Y-51982628D01*
X138582628Y-52097819D01*
X138492123Y-52233269D01*
X138429782Y-52383773D01*
X138398000Y-52543548D01*
X137652835Y-52543548D01*
X137695218Y-52441227D01*
X137727000Y-52281452D01*
X137727000Y-52118548D01*
X137695218Y-51958773D01*
X137632877Y-51808269D01*
X137542372Y-51672819D01*
X137427181Y-51557628D01*
X137291731Y-51467123D01*
X137141227Y-51404782D01*
X136981452Y-51373000D01*
X136818548Y-51373000D01*
X136658773Y-51404782D01*
X136508269Y-51467123D01*
X136372819Y-51557628D01*
X136300000Y-51630447D01*
X136227181Y-51557628D01*
X136091731Y-51467123D01*
X135941227Y-51404782D01*
X135781452Y-51373000D01*
X135618548Y-51373000D01*
X135458773Y-51404782D01*
X135308269Y-51467123D01*
X135172819Y-51557628D01*
X135100000Y-51630447D01*
X135027181Y-51557628D01*
X134891731Y-51467123D01*
X134741227Y-51404782D01*
X134581452Y-51373000D01*
X134418548Y-51373000D01*
X134258773Y-51404782D01*
X134108269Y-51467123D01*
X133972819Y-51557628D01*
X133857628Y-51672819D01*
X133767123Y-51808269D01*
X133704782Y-51958773D01*
X133673000Y-52118548D01*
X130127000Y-52118548D01*
X130127000Y-48739932D01*
X138673000Y-48739932D01*
X138673000Y-50139932D01*
X138675440Y-50164708D01*
X138682667Y-50188533D01*
X138694403Y-50210489D01*
X138710197Y-50229735D01*
X138729443Y-50245529D01*
X138751399Y-50257265D01*
X138775224Y-50264492D01*
X138800000Y-50266932D01*
X139700000Y-50266932D01*
X139724776Y-50264492D01*
X139748601Y-50257265D01*
X139770557Y-50245529D01*
X139789803Y-50229735D01*
X139805597Y-50210489D01*
X139817333Y-50188533D01*
X139824560Y-50164708D01*
X139827000Y-50139932D01*
X139827000Y-48739932D01*
X139824560Y-48715156D01*
X139824282Y-48714237D01*
X140573000Y-48714237D01*
X140573000Y-50114237D01*
X140575440Y-50139013D01*
X140582667Y-50162838D01*
X140594403Y-50184794D01*
X140610197Y-50204040D01*
X140629443Y-50219834D01*
X140651399Y-50231570D01*
X140675224Y-50238797D01*
X140700000Y-50241237D01*
X141600000Y-50241237D01*
X141624776Y-50238797D01*
X141648601Y-50231570D01*
X141670557Y-50219834D01*
X141689803Y-50204040D01*
X141705597Y-50184794D01*
X141717333Y-50162838D01*
X141724560Y-50139013D01*
X141727000Y-50114237D01*
X141727000Y-49218548D01*
X154923000Y-49218548D01*
X154923000Y-49381452D01*
X154954782Y-49541227D01*
X155017123Y-49691731D01*
X155107628Y-49827181D01*
X155222819Y-49942372D01*
X155358269Y-50032877D01*
X155508773Y-50095218D01*
X155668548Y-50127000D01*
X155831452Y-50127000D01*
X155991227Y-50095218D01*
X156141731Y-50032877D01*
X156275420Y-49943548D01*
X157648000Y-49943548D01*
X157648000Y-50106452D01*
X157679782Y-50266227D01*
X157742123Y-50416731D01*
X157832628Y-50552181D01*
X157947819Y-50667372D01*
X158083269Y-50757877D01*
X158233773Y-50820218D01*
X158393548Y-50852000D01*
X158556452Y-50852000D01*
X158716227Y-50820218D01*
X158761351Y-50801527D01*
X158808269Y-50832877D01*
X158958773Y-50895218D01*
X159118548Y-50927000D01*
X159281452Y-50927000D01*
X159441227Y-50895218D01*
X159591731Y-50832877D01*
X159727181Y-50742372D01*
X159842372Y-50627181D01*
X159932877Y-50491731D01*
X159995218Y-50341227D01*
X160027000Y-50181452D01*
X160027000Y-50018548D01*
X159995218Y-49858773D01*
X159932877Y-49708269D01*
X159842372Y-49572819D01*
X159727181Y-49457628D01*
X159591731Y-49367123D01*
X159441227Y-49304782D01*
X159281452Y-49273000D01*
X159118548Y-49273000D01*
X158958773Y-49304782D01*
X158913649Y-49323473D01*
X158866731Y-49292123D01*
X158716227Y-49229782D01*
X158556452Y-49198000D01*
X158393548Y-49198000D01*
X158233773Y-49229782D01*
X158083269Y-49292123D01*
X157947819Y-49382628D01*
X157832628Y-49497819D01*
X157742123Y-49633269D01*
X157679782Y-49783773D01*
X157648000Y-49943548D01*
X156275420Y-49943548D01*
X156277181Y-49942372D01*
X156392372Y-49827181D01*
X156482877Y-49691731D01*
X156545218Y-49541227D01*
X156577000Y-49381452D01*
X156577000Y-49218548D01*
X156545218Y-49058773D01*
X156482877Y-48908269D01*
X156392372Y-48772819D01*
X156277181Y-48657628D01*
X156141731Y-48567123D01*
X155991227Y-48504782D01*
X155831452Y-48473000D01*
X155668548Y-48473000D01*
X155508773Y-48504782D01*
X155358269Y-48567123D01*
X155222819Y-48657628D01*
X155107628Y-48772819D01*
X155017123Y-48908269D01*
X154954782Y-49058773D01*
X154923000Y-49218548D01*
X141727000Y-49218548D01*
X141727000Y-48714237D01*
X141724560Y-48689461D01*
X141717333Y-48665636D01*
X141705597Y-48643680D01*
X141689803Y-48624434D01*
X141670557Y-48608640D01*
X141648601Y-48596904D01*
X141624776Y-48589677D01*
X141600000Y-48587237D01*
X140700000Y-48587237D01*
X140675224Y-48589677D01*
X140651399Y-48596904D01*
X140629443Y-48608640D01*
X140610197Y-48624434D01*
X140594403Y-48643680D01*
X140582667Y-48665636D01*
X140575440Y-48689461D01*
X140573000Y-48714237D01*
X139824282Y-48714237D01*
X139817333Y-48691331D01*
X139805597Y-48669375D01*
X139789803Y-48650129D01*
X139770557Y-48634335D01*
X139748601Y-48622599D01*
X139724776Y-48615372D01*
X139700000Y-48612932D01*
X138800000Y-48612932D01*
X138775224Y-48615372D01*
X138751399Y-48622599D01*
X138729443Y-48634335D01*
X138710197Y-48650129D01*
X138694403Y-48669375D01*
X138682667Y-48691331D01*
X138675440Y-48715156D01*
X138673000Y-48739932D01*
X130127000Y-48739932D01*
X130127000Y-46140764D01*
X140573000Y-46140764D01*
X140573000Y-47540764D01*
X140575440Y-47565540D01*
X140582667Y-47589365D01*
X140594403Y-47611321D01*
X140610197Y-47630567D01*
X140629443Y-47646361D01*
X140651399Y-47658097D01*
X140675224Y-47665324D01*
X140700000Y-47667764D01*
X141600000Y-47667764D01*
X141624776Y-47665324D01*
X141648601Y-47658097D01*
X141670557Y-47646361D01*
X141689803Y-47630567D01*
X141705597Y-47611321D01*
X141717333Y-47589365D01*
X141724560Y-47565540D01*
X141727000Y-47540764D01*
X141727000Y-46140764D01*
X141724560Y-46115988D01*
X141717333Y-46092163D01*
X141705597Y-46070207D01*
X141689803Y-46050961D01*
X141670557Y-46035167D01*
X141648601Y-46023431D01*
X141632504Y-46018548D01*
X152473000Y-46018548D01*
X152473000Y-46181452D01*
X152504782Y-46341227D01*
X152567123Y-46491731D01*
X152657628Y-46627181D01*
X152772819Y-46742372D01*
X152908269Y-46832877D01*
X153058773Y-46895218D01*
X153218548Y-46927000D01*
X153381452Y-46927000D01*
X153541227Y-46895218D01*
X153691731Y-46832877D01*
X153827181Y-46742372D01*
X153942372Y-46627181D01*
X154027351Y-46500000D01*
X154923000Y-46500000D01*
X154923000Y-47300000D01*
X154925440Y-47324776D01*
X154932667Y-47348601D01*
X154944403Y-47370557D01*
X154960197Y-47389803D01*
X154979443Y-47405597D01*
X155001399Y-47417333D01*
X155025224Y-47424560D01*
X155050000Y-47427000D01*
X156123000Y-47427000D01*
X156123000Y-48100000D01*
X156125440Y-48124776D01*
X156132667Y-48148601D01*
X156144403Y-48170557D01*
X156160197Y-48189803D01*
X156179443Y-48205597D01*
X156201399Y-48217333D01*
X156225224Y-48224560D01*
X156250000Y-48227000D01*
X157350000Y-48227000D01*
X157374776Y-48224560D01*
X157398601Y-48217333D01*
X157420557Y-48205597D01*
X157439803Y-48189803D01*
X157455597Y-48170557D01*
X157467333Y-48148601D01*
X157474560Y-48124776D01*
X157477000Y-48100000D01*
X157477000Y-47100000D01*
X157474560Y-47075224D01*
X157467333Y-47051399D01*
X157455597Y-47029443D01*
X157439803Y-47010197D01*
X157420557Y-46994403D01*
X157398601Y-46982667D01*
X157374776Y-46975440D01*
X157350000Y-46973000D01*
X156477000Y-46973000D01*
X156477000Y-46800000D01*
X156474560Y-46775224D01*
X156467333Y-46751399D01*
X156455597Y-46729443D01*
X156439803Y-46710197D01*
X156420557Y-46694403D01*
X156398601Y-46682667D01*
X156374776Y-46675440D01*
X156350000Y-46673000D01*
X156177000Y-46673000D01*
X156177000Y-46500000D01*
X156174560Y-46475224D01*
X156167333Y-46451399D01*
X156155597Y-46429443D01*
X156139803Y-46410197D01*
X156120557Y-46394403D01*
X156098601Y-46382667D01*
X156074776Y-46375440D01*
X156050000Y-46373000D01*
X155050000Y-46373000D01*
X155025224Y-46375440D01*
X155001399Y-46382667D01*
X154979443Y-46394403D01*
X154960197Y-46410197D01*
X154944403Y-46429443D01*
X154932667Y-46451399D01*
X154925440Y-46475224D01*
X154923000Y-46500000D01*
X154027351Y-46500000D01*
X154032877Y-46491731D01*
X154095218Y-46341227D01*
X154127000Y-46181452D01*
X154127000Y-46018548D01*
X154095218Y-45858773D01*
X154032877Y-45708269D01*
X153942372Y-45572819D01*
X153827181Y-45457628D01*
X153691731Y-45367123D01*
X153675393Y-45360355D01*
X153741731Y-45332877D01*
X153877181Y-45242372D01*
X153992372Y-45127181D01*
X154082877Y-44991731D01*
X154145218Y-44841227D01*
X154177000Y-44681452D01*
X154177000Y-44518548D01*
X154173311Y-44500000D01*
X154923000Y-44500000D01*
X154923000Y-44950000D01*
X154925440Y-44974776D01*
X154932667Y-44998601D01*
X154944403Y-45020557D01*
X154960197Y-45039803D01*
X154979443Y-45055597D01*
X155001399Y-45067333D01*
X155025224Y-45074560D01*
X155050000Y-45077000D01*
X156100000Y-45077000D01*
X156124776Y-45074560D01*
X156148601Y-45067333D01*
X156170557Y-45055597D01*
X156189803Y-45039803D01*
X156205597Y-45020557D01*
X156217333Y-44998601D01*
X156224560Y-44974776D01*
X156227000Y-44950000D01*
X156227000Y-44500000D01*
X156224560Y-44475224D01*
X156217333Y-44451399D01*
X156205597Y-44429443D01*
X156189803Y-44410197D01*
X156170557Y-44394403D01*
X156148601Y-44382667D01*
X156124776Y-44375440D01*
X156100000Y-44373000D01*
X155050000Y-44373000D01*
X155025224Y-44375440D01*
X155001399Y-44382667D01*
X154979443Y-44394403D01*
X154960197Y-44410197D01*
X154944403Y-44429443D01*
X154932667Y-44451399D01*
X154925440Y-44475224D01*
X154923000Y-44500000D01*
X154173311Y-44500000D01*
X154145218Y-44358773D01*
X154082877Y-44208269D01*
X153992372Y-44072819D01*
X153877181Y-43957628D01*
X153741731Y-43867123D01*
X153591227Y-43804782D01*
X153431452Y-43773000D01*
X153268548Y-43773000D01*
X153108773Y-43804782D01*
X152958269Y-43867123D01*
X152822819Y-43957628D01*
X152707628Y-44072819D01*
X152617123Y-44208269D01*
X152554782Y-44358773D01*
X152523000Y-44518548D01*
X152523000Y-44681452D01*
X152554782Y-44841227D01*
X152617123Y-44991731D01*
X152707628Y-45127181D01*
X152822819Y-45242372D01*
X152958269Y-45332877D01*
X152974607Y-45339645D01*
X152908269Y-45367123D01*
X152772819Y-45457628D01*
X152657628Y-45572819D01*
X152567123Y-45708269D01*
X152504782Y-45858773D01*
X152473000Y-46018548D01*
X141632504Y-46018548D01*
X141624776Y-46016204D01*
X141600000Y-46013764D01*
X140700000Y-46013764D01*
X140675224Y-46016204D01*
X140651399Y-46023431D01*
X140629443Y-46035167D01*
X140610197Y-46050961D01*
X140594403Y-46070207D01*
X140582667Y-46092163D01*
X140575440Y-46115988D01*
X140573000Y-46140764D01*
X130127000Y-46140764D01*
X130127000Y-44368548D01*
X137773000Y-44368548D01*
X137773000Y-44531452D01*
X137804782Y-44691227D01*
X137867123Y-44841731D01*
X137957628Y-44977181D01*
X138072819Y-45092372D01*
X138208269Y-45182877D01*
X138358773Y-45245218D01*
X138518548Y-45277000D01*
X138681452Y-45277000D01*
X138841227Y-45245218D01*
X138991731Y-45182877D01*
X139127181Y-45092372D01*
X139225000Y-44994553D01*
X139272819Y-45042372D01*
X139408269Y-45132877D01*
X139558773Y-45195218D01*
X139718548Y-45227000D01*
X139881452Y-45227000D01*
X140041227Y-45195218D01*
X140191731Y-45132877D01*
X140327181Y-45042372D01*
X140442372Y-44927181D01*
X140532877Y-44791731D01*
X140595218Y-44641227D01*
X140627000Y-44481452D01*
X140627000Y-44318548D01*
X140595218Y-44158773D01*
X140532877Y-44008269D01*
X140442372Y-43872819D01*
X140327181Y-43757628D01*
X140191731Y-43667123D01*
X140041227Y-43604782D01*
X139881452Y-43573000D01*
X139718548Y-43573000D01*
X139558773Y-43604782D01*
X139408269Y-43667123D01*
X139272819Y-43757628D01*
X139175000Y-43855447D01*
X139127181Y-43807628D01*
X138991731Y-43717123D01*
X138841227Y-43654782D01*
X138681452Y-43623000D01*
X138518548Y-43623000D01*
X138358773Y-43654782D01*
X138208269Y-43717123D01*
X138072819Y-43807628D01*
X137957628Y-43922819D01*
X137867123Y-44058269D01*
X137804782Y-44208773D01*
X137773000Y-44368548D01*
X130127000Y-44368548D01*
X130127000Y-42218548D01*
X141123000Y-42218548D01*
X141123000Y-42381452D01*
X141154782Y-42541227D01*
X141217123Y-42691731D01*
X141307628Y-42827181D01*
X141422819Y-42942372D01*
X141558269Y-43032877D01*
X141708773Y-43095218D01*
X141868548Y-43127000D01*
X142031452Y-43127000D01*
X142191227Y-43095218D01*
X142341731Y-43032877D01*
X142477181Y-42942372D01*
X142501005Y-42918548D01*
X149773000Y-42918548D01*
X149773000Y-43081452D01*
X149804782Y-43241227D01*
X149867123Y-43391731D01*
X149957628Y-43527181D01*
X150072819Y-43642372D01*
X150208269Y-43732877D01*
X150358773Y-43795218D01*
X150518548Y-43827000D01*
X150681452Y-43827000D01*
X150841227Y-43795218D01*
X150991731Y-43732877D01*
X151127181Y-43642372D01*
X151242372Y-43527181D01*
X151332877Y-43391731D01*
X151370873Y-43300000D01*
X157423000Y-43300000D01*
X157423000Y-44400000D01*
X157425440Y-44424776D01*
X157432667Y-44448601D01*
X157444403Y-44470557D01*
X157460197Y-44489803D01*
X157479443Y-44505597D01*
X157501399Y-44517333D01*
X157525224Y-44524560D01*
X157550000Y-44527000D01*
X158426115Y-44527000D01*
X158432667Y-44548601D01*
X158444403Y-44570557D01*
X158460197Y-44589803D01*
X158479443Y-44605597D01*
X158501399Y-44617333D01*
X158525224Y-44624560D01*
X158525421Y-44624579D01*
X158525440Y-44624776D01*
X158532667Y-44648601D01*
X158544403Y-44670557D01*
X158560197Y-44689803D01*
X158579443Y-44705597D01*
X158601399Y-44717333D01*
X158625224Y-44724560D01*
X158650000Y-44727000D01*
X158723000Y-44727000D01*
X158723000Y-44900000D01*
X158725440Y-44924776D01*
X158732667Y-44948601D01*
X158744403Y-44970557D01*
X158760197Y-44989803D01*
X158779443Y-45005597D01*
X158801399Y-45017333D01*
X158825224Y-45024560D01*
X158850000Y-45027000D01*
X159799271Y-45027000D01*
X159778621Y-45130813D01*
X159778621Y-45293717D01*
X159810403Y-45453492D01*
X159872744Y-45603996D01*
X159963249Y-45739446D01*
X160078440Y-45854637D01*
X160213890Y-45945142D01*
X160364394Y-46007483D01*
X160524169Y-46039265D01*
X160687073Y-46039265D01*
X160717240Y-46033264D01*
X160667123Y-46108269D01*
X160604782Y-46258773D01*
X160601172Y-46276923D01*
X160581452Y-46273000D01*
X160418548Y-46273000D01*
X160258773Y-46304782D01*
X160108269Y-46367123D01*
X159977000Y-46454834D01*
X159977000Y-46450000D01*
X159974560Y-46425224D01*
X159967333Y-46401399D01*
X159955597Y-46379443D01*
X159939803Y-46360197D01*
X159920557Y-46344403D01*
X159898601Y-46332667D01*
X159874776Y-46325440D01*
X159850000Y-46323000D01*
X158800000Y-46323000D01*
X158775224Y-46325440D01*
X158751399Y-46332667D01*
X158729443Y-46344403D01*
X158710197Y-46360197D01*
X158694403Y-46379443D01*
X158682667Y-46401399D01*
X158675440Y-46425224D01*
X158673000Y-46450000D01*
X158673000Y-46900000D01*
X158675440Y-46924776D01*
X158682667Y-46948601D01*
X158694403Y-46970557D01*
X158710197Y-46989803D01*
X158729443Y-47005597D01*
X158751399Y-47017333D01*
X158775224Y-47024560D01*
X158800000Y-47027000D01*
X159673000Y-47027000D01*
X159673000Y-47181452D01*
X159704782Y-47341227D01*
X159760371Y-47475430D01*
X159729231Y-47454623D01*
X159578727Y-47392282D01*
X159418952Y-47360500D01*
X159256048Y-47360500D01*
X159096273Y-47392282D01*
X158945769Y-47454623D01*
X158810319Y-47545128D01*
X158695128Y-47660319D01*
X158604623Y-47795769D01*
X158542282Y-47946273D01*
X158510500Y-48106048D01*
X158510500Y-48268952D01*
X158542282Y-48428727D01*
X158604623Y-48579231D01*
X158695128Y-48714681D01*
X158810319Y-48829872D01*
X158945769Y-48920377D01*
X159096273Y-48982718D01*
X159256048Y-49014500D01*
X159418952Y-49014500D01*
X159578727Y-48982718D01*
X159729231Y-48920377D01*
X159864681Y-48829872D01*
X159979872Y-48714681D01*
X160070377Y-48579231D01*
X160132718Y-48428727D01*
X160164500Y-48268952D01*
X160164500Y-48106048D01*
X160132718Y-47946273D01*
X160077129Y-47812070D01*
X160108269Y-47832877D01*
X160258773Y-47895218D01*
X160418548Y-47927000D01*
X160581452Y-47927000D01*
X160741227Y-47895218D01*
X160891731Y-47832877D01*
X161027181Y-47742372D01*
X161142372Y-47627181D01*
X161232877Y-47491731D01*
X161295218Y-47341227D01*
X161298828Y-47323077D01*
X161318548Y-47327000D01*
X161481452Y-47327000D01*
X161641227Y-47295218D01*
X161791731Y-47232877D01*
X161927181Y-47142372D01*
X162042372Y-47027181D01*
X162132877Y-46891731D01*
X162195218Y-46741227D01*
X162227000Y-46581452D01*
X162227000Y-46418548D01*
X162195218Y-46258773D01*
X162132877Y-46108269D01*
X162042372Y-45972819D01*
X161927181Y-45857628D01*
X161791731Y-45767123D01*
X161767756Y-45757192D01*
X161902181Y-45667372D01*
X162017372Y-45552181D01*
X162107877Y-45416731D01*
X162170218Y-45266227D01*
X162202000Y-45106452D01*
X162202000Y-44943548D01*
X162170218Y-44783773D01*
X162107877Y-44633269D01*
X162017372Y-44497819D01*
X161902181Y-44382628D01*
X161766731Y-44292123D01*
X161616227Y-44229782D01*
X161456452Y-44198000D01*
X161293548Y-44198000D01*
X161133773Y-44229782D01*
X160983269Y-44292123D01*
X160847819Y-44382628D01*
X160818949Y-44411498D01*
X160687073Y-44385265D01*
X160524169Y-44385265D01*
X160364394Y-44417047D01*
X160213890Y-44479388D01*
X160078440Y-44569893D01*
X160027000Y-44621333D01*
X160027000Y-44400000D01*
X160024560Y-44375224D01*
X160017333Y-44351399D01*
X160005597Y-44329443D01*
X159989803Y-44310197D01*
X159970557Y-44294403D01*
X159948601Y-44282667D01*
X159924776Y-44275440D01*
X159900000Y-44273000D01*
X158777000Y-44273000D01*
X158777000Y-43300000D01*
X158774560Y-43275224D01*
X158767333Y-43251399D01*
X158755597Y-43229443D01*
X158739803Y-43210197D01*
X158720557Y-43194403D01*
X158698601Y-43182667D01*
X158674776Y-43175440D01*
X158650000Y-43173000D01*
X157550000Y-43173000D01*
X157525224Y-43175440D01*
X157501399Y-43182667D01*
X157479443Y-43194403D01*
X157460197Y-43210197D01*
X157444403Y-43229443D01*
X157432667Y-43251399D01*
X157425440Y-43275224D01*
X157423000Y-43300000D01*
X151370873Y-43300000D01*
X151395218Y-43241227D01*
X151427000Y-43081452D01*
X151427000Y-42918548D01*
X151395218Y-42758773D01*
X151332877Y-42608269D01*
X151242372Y-42472819D01*
X151127181Y-42357628D01*
X150991731Y-42267123D01*
X150841227Y-42204782D01*
X150681452Y-42173000D01*
X150518548Y-42173000D01*
X150358773Y-42204782D01*
X150208269Y-42267123D01*
X150072819Y-42357628D01*
X149957628Y-42472819D01*
X149867123Y-42608269D01*
X149804782Y-42758773D01*
X149773000Y-42918548D01*
X142501005Y-42918548D01*
X142592372Y-42827181D01*
X142682877Y-42691731D01*
X142745218Y-42541227D01*
X142777000Y-42381452D01*
X142777000Y-42218548D01*
X142745218Y-42058773D01*
X142682877Y-41908269D01*
X142592372Y-41772819D01*
X142477181Y-41657628D01*
X142341731Y-41567123D01*
X142191227Y-41504782D01*
X142031452Y-41473000D01*
X141868548Y-41473000D01*
X141708773Y-41504782D01*
X141558269Y-41567123D01*
X141422819Y-41657628D01*
X141307628Y-41772819D01*
X141217123Y-41908269D01*
X141154782Y-42058773D01*
X141123000Y-42218548D01*
X130127000Y-42218548D01*
X130127000Y-40883391D01*
X133049136Y-40883391D01*
X133162051Y-41115051D01*
X133428054Y-41265732D01*
X133718344Y-41361624D01*
X134021762Y-41399040D01*
X134326651Y-41376544D01*
X134621292Y-41294999D01*
X134894363Y-41157539D01*
X134957949Y-41115051D01*
X135070864Y-40883391D01*
X138129136Y-40883391D01*
X138242051Y-41115051D01*
X138508054Y-41265732D01*
X138798344Y-41361624D01*
X139101762Y-41399040D01*
X139406651Y-41376544D01*
X139701292Y-41294999D01*
X139974363Y-41157539D01*
X140037949Y-41115051D01*
X140150864Y-40883391D01*
X139140000Y-39872527D01*
X138129136Y-40883391D01*
X135070864Y-40883391D01*
X134060000Y-39872527D01*
X133049136Y-40883391D01*
X130127000Y-40883391D01*
X130127000Y-39801762D01*
X132500960Y-39801762D01*
X132523456Y-40106651D01*
X132605001Y-40401292D01*
X132742461Y-40674363D01*
X132784949Y-40737949D01*
X133016609Y-40850864D01*
X134027473Y-39840000D01*
X134092527Y-39840000D01*
X135103391Y-40850864D01*
X135335051Y-40737949D01*
X135485732Y-40471946D01*
X135581624Y-40181656D01*
X135619040Y-39878238D01*
X135613398Y-39801762D01*
X137580960Y-39801762D01*
X137603456Y-40106651D01*
X137685001Y-40401292D01*
X137822461Y-40674363D01*
X137864949Y-40737949D01*
X138096609Y-40850864D01*
X139107473Y-39840000D01*
X139172527Y-39840000D01*
X140183391Y-40850864D01*
X140415051Y-40737949D01*
X140565732Y-40471946D01*
X140661624Y-40181656D01*
X140699040Y-39878238D01*
X140692792Y-39793548D01*
X148948000Y-39793548D01*
X148948000Y-39956452D01*
X148979782Y-40116227D01*
X149042123Y-40266731D01*
X149132628Y-40402181D01*
X149247819Y-40517372D01*
X149383269Y-40607877D01*
X149533773Y-40670218D01*
X149693548Y-40702000D01*
X149856452Y-40702000D01*
X150016227Y-40670218D01*
X150020258Y-40668548D01*
X155523000Y-40668548D01*
X155523000Y-40831452D01*
X155554782Y-40991227D01*
X155617123Y-41141731D01*
X155707628Y-41277181D01*
X155822819Y-41392372D01*
X155958269Y-41482877D01*
X156108773Y-41545218D01*
X156268548Y-41577000D01*
X156288654Y-41577000D01*
X156254782Y-41658773D01*
X156223000Y-41818548D01*
X156223000Y-41981452D01*
X156254782Y-42141227D01*
X156317123Y-42291731D01*
X156407628Y-42427181D01*
X156522819Y-42542372D01*
X156658269Y-42632877D01*
X156808773Y-42695218D01*
X156968548Y-42727000D01*
X157131452Y-42727000D01*
X157291227Y-42695218D01*
X157441731Y-42632877D01*
X157577181Y-42542372D01*
X157692372Y-42427181D01*
X157782877Y-42291731D01*
X157845218Y-42141227D01*
X157869620Y-42018548D01*
X159423000Y-42018548D01*
X159423000Y-42181452D01*
X159454782Y-42341227D01*
X159517123Y-42491731D01*
X159607628Y-42627181D01*
X159722819Y-42742372D01*
X159858269Y-42832877D01*
X160008773Y-42895218D01*
X160168548Y-42927000D01*
X160331452Y-42927000D01*
X160491227Y-42895218D01*
X160641731Y-42832877D01*
X160777181Y-42742372D01*
X160892372Y-42627181D01*
X160982877Y-42491731D01*
X161045218Y-42341227D01*
X161077000Y-42181452D01*
X161077000Y-42018548D01*
X161045218Y-41858773D01*
X160982877Y-41708269D01*
X160892372Y-41572819D01*
X160777181Y-41457628D01*
X160641731Y-41367123D01*
X160491227Y-41304782D01*
X160331452Y-41273000D01*
X160168548Y-41273000D01*
X160008773Y-41304782D01*
X159858269Y-41367123D01*
X159722819Y-41457628D01*
X159607628Y-41572819D01*
X159517123Y-41708269D01*
X159454782Y-41858773D01*
X159423000Y-42018548D01*
X157869620Y-42018548D01*
X157877000Y-41981452D01*
X157877000Y-41818548D01*
X157845218Y-41658773D01*
X157782877Y-41508269D01*
X157692372Y-41372819D01*
X157577181Y-41257628D01*
X157441731Y-41167123D01*
X157291227Y-41104782D01*
X157131452Y-41073000D01*
X157111346Y-41073000D01*
X157145218Y-40991227D01*
X157177000Y-40831452D01*
X157177000Y-40668548D01*
X157145218Y-40508773D01*
X157082877Y-40358269D01*
X156992372Y-40222819D01*
X156877181Y-40107628D01*
X156741731Y-40017123D01*
X156591227Y-39954782D01*
X156431452Y-39923000D01*
X156268548Y-39923000D01*
X156108773Y-39954782D01*
X155958269Y-40017123D01*
X155822819Y-40107628D01*
X155707628Y-40222819D01*
X155617123Y-40358269D01*
X155554782Y-40508773D01*
X155523000Y-40668548D01*
X150020258Y-40668548D01*
X150166731Y-40607877D01*
X150302181Y-40517372D01*
X150417372Y-40402181D01*
X150507877Y-40266731D01*
X150570218Y-40116227D01*
X150602000Y-39956452D01*
X150602000Y-39793548D01*
X150570218Y-39633773D01*
X150507877Y-39483269D01*
X150417372Y-39347819D01*
X150302181Y-39232628D01*
X150166731Y-39142123D01*
X150016227Y-39079782D01*
X149856452Y-39048000D01*
X149693548Y-39048000D01*
X149533773Y-39079782D01*
X149383269Y-39142123D01*
X149247819Y-39232628D01*
X149132628Y-39347819D01*
X149042123Y-39483269D01*
X148979782Y-39633773D01*
X148948000Y-39793548D01*
X140692792Y-39793548D01*
X140676544Y-39573349D01*
X140594999Y-39278708D01*
X140457539Y-39005637D01*
X140415051Y-38942051D01*
X140183391Y-38829136D01*
X139172527Y-39840000D01*
X139107473Y-39840000D01*
X138096609Y-38829136D01*
X137864949Y-38942051D01*
X137714268Y-39208054D01*
X137618376Y-39498344D01*
X137580960Y-39801762D01*
X135613398Y-39801762D01*
X135596544Y-39573349D01*
X135514999Y-39278708D01*
X135377539Y-39005637D01*
X135335051Y-38942051D01*
X135103391Y-38829136D01*
X134092527Y-39840000D01*
X134027473Y-39840000D01*
X133016609Y-38829136D01*
X132784949Y-38942051D01*
X132634268Y-39208054D01*
X132538376Y-39498344D01*
X132500960Y-39801762D01*
X130127000Y-39801762D01*
X130127000Y-38796609D01*
X133049136Y-38796609D01*
X134060000Y-39807473D01*
X135070864Y-38796609D01*
X138129136Y-38796609D01*
X139140000Y-39807473D01*
X140150864Y-38796609D01*
X140037949Y-38564949D01*
X139771946Y-38414268D01*
X139481656Y-38318376D01*
X139178238Y-38280960D01*
X138873349Y-38303456D01*
X138578708Y-38385001D01*
X138305637Y-38522461D01*
X138242051Y-38564949D01*
X138129136Y-38796609D01*
X135070864Y-38796609D01*
X134957949Y-38564949D01*
X134691946Y-38414268D01*
X134401656Y-38318376D01*
X134098238Y-38280960D01*
X133793349Y-38303456D01*
X133498708Y-38385001D01*
X133225637Y-38522461D01*
X133162051Y-38564949D01*
X133049136Y-38796609D01*
X130127000Y-38796609D01*
X130127000Y-37156990D01*
X135148000Y-37156990D01*
X135148000Y-37443010D01*
X135203799Y-37723533D01*
X135313254Y-37987780D01*
X135472158Y-38225596D01*
X135674404Y-38427842D01*
X135912220Y-38586746D01*
X136176467Y-38696201D01*
X136456990Y-38752000D01*
X136743010Y-38752000D01*
X137023533Y-38696201D01*
X137287780Y-38586746D01*
X137525596Y-38427842D01*
X137727842Y-38225596D01*
X137886746Y-37987780D01*
X137996201Y-37723533D01*
X138052000Y-37443010D01*
X138052000Y-37156990D01*
X138024463Y-37018548D01*
X151123000Y-37018548D01*
X151123000Y-37181452D01*
X151154782Y-37341227D01*
X151217123Y-37491731D01*
X151307628Y-37627181D01*
X151422819Y-37742372D01*
X151558269Y-37832877D01*
X151708773Y-37895218D01*
X151868548Y-37927000D01*
X152031452Y-37927000D01*
X152191227Y-37895218D01*
X152341731Y-37832877D01*
X152477181Y-37742372D01*
X152592372Y-37627181D01*
X152682877Y-37491731D01*
X152745218Y-37341227D01*
X152777000Y-37181452D01*
X152777000Y-37018548D01*
X152747163Y-36868548D01*
X154173000Y-36868548D01*
X154173000Y-37031452D01*
X154204782Y-37191227D01*
X154267123Y-37341731D01*
X154357628Y-37477181D01*
X154472819Y-37592372D01*
X154608269Y-37682877D01*
X154758773Y-37745218D01*
X154918548Y-37777000D01*
X155081452Y-37777000D01*
X155241227Y-37745218D01*
X155391731Y-37682877D01*
X155527181Y-37592372D01*
X155642372Y-37477181D01*
X155732877Y-37341731D01*
X155795218Y-37191227D01*
X155827000Y-37031452D01*
X155827000Y-36868548D01*
X155795218Y-36708773D01*
X155732877Y-36558269D01*
X155642372Y-36422819D01*
X155527181Y-36307628D01*
X155391731Y-36217123D01*
X155241227Y-36154782D01*
X155081452Y-36123000D01*
X154918548Y-36123000D01*
X154758773Y-36154782D01*
X154608269Y-36217123D01*
X154472819Y-36307628D01*
X154357628Y-36422819D01*
X154267123Y-36558269D01*
X154204782Y-36708773D01*
X154173000Y-36868548D01*
X152747163Y-36868548D01*
X152745218Y-36858773D01*
X152682877Y-36708269D01*
X152592372Y-36572819D01*
X152477181Y-36457628D01*
X152341731Y-36367123D01*
X152191227Y-36304782D01*
X152031452Y-36273000D01*
X151868548Y-36273000D01*
X151708773Y-36304782D01*
X151558269Y-36367123D01*
X151422819Y-36457628D01*
X151307628Y-36572819D01*
X151217123Y-36708269D01*
X151154782Y-36858773D01*
X151123000Y-37018548D01*
X138024463Y-37018548D01*
X137996201Y-36876467D01*
X137886746Y-36612220D01*
X137727842Y-36374404D01*
X137525596Y-36172158D01*
X137287780Y-36013254D01*
X137023533Y-35903799D01*
X136743010Y-35848000D01*
X136456990Y-35848000D01*
X136176467Y-35903799D01*
X135912220Y-36013254D01*
X135674404Y-36172158D01*
X135472158Y-36374404D01*
X135313254Y-36612220D01*
X135203799Y-36876467D01*
X135148000Y-37156990D01*
X130127000Y-37156990D01*
X130127000Y-35803391D01*
X133049136Y-35803391D01*
X133162051Y-36035051D01*
X133428054Y-36185732D01*
X133718344Y-36281624D01*
X134021762Y-36319040D01*
X134326651Y-36296544D01*
X134621292Y-36214999D01*
X134894363Y-36077539D01*
X134957949Y-36035051D01*
X135070864Y-35803391D01*
X138129136Y-35803391D01*
X138242051Y-36035051D01*
X138508054Y-36185732D01*
X138798344Y-36281624D01*
X139101762Y-36319040D01*
X139406651Y-36296544D01*
X139701292Y-36214999D01*
X139974363Y-36077539D01*
X140037949Y-36035051D01*
X140150864Y-35803391D01*
X139140000Y-34792527D01*
X138129136Y-35803391D01*
X135070864Y-35803391D01*
X134060000Y-34792527D01*
X133049136Y-35803391D01*
X130127000Y-35803391D01*
X130127000Y-34721762D01*
X132500960Y-34721762D01*
X132523456Y-35026651D01*
X132605001Y-35321292D01*
X132742461Y-35594363D01*
X132784949Y-35657949D01*
X133016609Y-35770864D01*
X134027473Y-34760000D01*
X134092527Y-34760000D01*
X135103391Y-35770864D01*
X135335051Y-35657949D01*
X135485732Y-35391946D01*
X135581624Y-35101656D01*
X135619040Y-34798238D01*
X135613398Y-34721762D01*
X137580960Y-34721762D01*
X137603456Y-35026651D01*
X137685001Y-35321292D01*
X137822461Y-35594363D01*
X137864949Y-35657949D01*
X138096609Y-35770864D01*
X139107473Y-34760000D01*
X139172527Y-34760000D01*
X140183391Y-35770864D01*
X140415051Y-35657949D01*
X140565732Y-35391946D01*
X140661624Y-35101656D01*
X140699040Y-34798238D01*
X140676544Y-34493349D01*
X140594999Y-34198708D01*
X140457539Y-33925637D01*
X140415051Y-33862051D01*
X140183391Y-33749136D01*
X139172527Y-34760000D01*
X139107473Y-34760000D01*
X138096609Y-33749136D01*
X137864949Y-33862051D01*
X137714268Y-34128054D01*
X137618376Y-34418344D01*
X137580960Y-34721762D01*
X135613398Y-34721762D01*
X135596544Y-34493349D01*
X135514999Y-34198708D01*
X135377539Y-33925637D01*
X135335051Y-33862051D01*
X135103391Y-33749136D01*
X134092527Y-34760000D01*
X134027473Y-34760000D01*
X133016609Y-33749136D01*
X132784949Y-33862051D01*
X132634268Y-34128054D01*
X132538376Y-34418344D01*
X132500960Y-34721762D01*
X130127000Y-34721762D01*
X130127000Y-33716609D01*
X133049136Y-33716609D01*
X134060000Y-34727473D01*
X135070864Y-33716609D01*
X138129136Y-33716609D01*
X139140000Y-34727473D01*
X140150864Y-33716609D01*
X140037949Y-33484949D01*
X139771946Y-33334268D01*
X139481656Y-33238376D01*
X139178238Y-33200960D01*
X138873349Y-33223456D01*
X138578708Y-33305001D01*
X138305637Y-33442461D01*
X138242051Y-33484949D01*
X138129136Y-33716609D01*
X135070864Y-33716609D01*
X134957949Y-33484949D01*
X134691946Y-33334268D01*
X134401656Y-33238376D01*
X134098238Y-33200960D01*
X133793349Y-33223456D01*
X133498708Y-33305001D01*
X133225637Y-33442461D01*
X133162051Y-33484949D01*
X133049136Y-33716609D01*
X130127000Y-33716609D01*
X130127000Y-31852000D01*
X167873000Y-31852000D01*
X167873000Y-39673000D01*
X164400000Y-39673000D01*
X164375224Y-39675440D01*
X164351399Y-39682667D01*
X164329443Y-39694403D01*
X164310197Y-39710197D01*
X164294403Y-39729443D01*
X164282667Y-39751399D01*
X164275440Y-39775224D01*
X164273000Y-39800000D01*
X164273000Y-51500000D01*
X164275440Y-51524776D01*
X164282667Y-51548601D01*
X164294403Y-51570557D01*
X164310197Y-51589803D01*
X164329443Y-51605597D01*
X164351399Y-51617333D01*
X164375224Y-51624560D01*
X164400000Y-51627000D01*
X167873000Y-51627000D01*
X167873000Y-59548000D01*
X80452000Y-59548000D01*
X80452000Y-49300000D01*
X80815612Y-49300000D01*
X80845095Y-49599344D01*
X80932410Y-49887185D01*
X81074203Y-50152460D01*
X81265024Y-50384976D01*
X81364050Y-50466244D01*
X81353595Y-50485804D01*
X81329178Y-50566293D01*
X81320934Y-50650000D01*
X81320934Y-52150000D01*
X81329178Y-52233707D01*
X81353595Y-52314196D01*
X81393245Y-52388376D01*
X81446605Y-52453395D01*
X81511624Y-52506755D01*
X81585804Y-52546405D01*
X81659550Y-52568777D01*
X81516626Y-52742930D01*
X81407333Y-52947403D01*
X81340031Y-53169268D01*
X81317306Y-53400000D01*
X81340031Y-53630732D01*
X81407333Y-53852597D01*
X81516626Y-54057070D01*
X81663709Y-54236291D01*
X81842930Y-54383374D01*
X81874035Y-54400000D01*
X81842930Y-54416626D01*
X81663709Y-54563709D01*
X81516626Y-54742930D01*
X81407333Y-54947403D01*
X81340031Y-55169268D01*
X81317306Y-55400000D01*
X81340031Y-55630732D01*
X81407333Y-55852597D01*
X81516626Y-56057070D01*
X81606147Y-56166151D01*
X81497540Y-56224203D01*
X81265024Y-56415024D01*
X81074203Y-56647540D01*
X80932410Y-56912815D01*
X80845095Y-57200656D01*
X80815612Y-57500000D01*
X80845095Y-57799344D01*
X80932410Y-58087185D01*
X81074203Y-58352460D01*
X81265024Y-58584976D01*
X81497540Y-58775797D01*
X81762815Y-58917590D01*
X82050656Y-59004905D01*
X82274989Y-59027000D01*
X83725011Y-59027000D01*
X83949344Y-59004905D01*
X84237185Y-58917590D01*
X84502460Y-58775797D01*
X84734976Y-58584976D01*
X84925797Y-58352460D01*
X85067590Y-58087185D01*
X85154905Y-57799344D01*
X85184388Y-57500000D01*
X85154905Y-57200656D01*
X85067590Y-56912815D01*
X84925797Y-56647540D01*
X84734976Y-56415024D01*
X84703266Y-56389000D01*
X107423000Y-56389000D01*
X107423000Y-56611000D01*
X107466310Y-56828734D01*
X107551266Y-57033835D01*
X107674602Y-57218421D01*
X107831579Y-57375398D01*
X108016165Y-57498734D01*
X108221266Y-57583690D01*
X108439000Y-57627000D01*
X108661000Y-57627000D01*
X108878734Y-57583690D01*
X109083835Y-57498734D01*
X109268421Y-57375398D01*
X109402456Y-57241363D01*
X110381164Y-57241363D01*
X110443105Y-57429504D01*
X110636873Y-57537847D01*
X110848054Y-57606305D01*
X111068532Y-57632249D01*
X111289835Y-57614682D01*
X111503459Y-57554278D01*
X111701195Y-57453358D01*
X111736895Y-57429504D01*
X111798836Y-57241363D01*
X111090000Y-56532527D01*
X110381164Y-57241363D01*
X109402456Y-57241363D01*
X109425398Y-57218421D01*
X109548734Y-57033835D01*
X109633690Y-56828734D01*
X109677000Y-56611000D01*
X109677000Y-56478532D01*
X109957751Y-56478532D01*
X109975318Y-56699835D01*
X110035722Y-56913459D01*
X110136642Y-57111195D01*
X110160496Y-57146895D01*
X110348637Y-57208836D01*
X111057473Y-56500000D01*
X111122527Y-56500000D01*
X111831363Y-57208836D01*
X112019504Y-57146895D01*
X112127847Y-56953127D01*
X112171473Y-56818548D01*
X113373000Y-56818548D01*
X113373000Y-56981452D01*
X113404782Y-57141227D01*
X113467123Y-57291731D01*
X113557628Y-57427181D01*
X113672819Y-57542372D01*
X113808269Y-57632877D01*
X113958773Y-57695218D01*
X114118548Y-57727000D01*
X114281452Y-57727000D01*
X114441227Y-57695218D01*
X114591731Y-57632877D01*
X114727181Y-57542372D01*
X114842372Y-57427181D01*
X114932877Y-57291731D01*
X114995218Y-57141227D01*
X115027000Y-56981452D01*
X115027000Y-56818548D01*
X114995218Y-56658773D01*
X114932877Y-56508269D01*
X114842372Y-56372819D01*
X114727181Y-56257628D01*
X114591731Y-56167123D01*
X114441227Y-56104782D01*
X114281452Y-56073000D01*
X114118548Y-56073000D01*
X113958773Y-56104782D01*
X113808269Y-56167123D01*
X113672819Y-56257628D01*
X113557628Y-56372819D01*
X113467123Y-56508269D01*
X113404782Y-56658773D01*
X113373000Y-56818548D01*
X112171473Y-56818548D01*
X112196305Y-56741946D01*
X112222249Y-56521468D01*
X112204682Y-56300165D01*
X112144278Y-56086541D01*
X112043358Y-55888805D01*
X112019504Y-55853105D01*
X111831363Y-55791164D01*
X111122527Y-56500000D01*
X111057473Y-56500000D01*
X110348637Y-55791164D01*
X110160496Y-55853105D01*
X110052153Y-56046873D01*
X109983695Y-56258054D01*
X109957751Y-56478532D01*
X109677000Y-56478532D01*
X109677000Y-56389000D01*
X109633690Y-56171266D01*
X109548734Y-55966165D01*
X109425398Y-55781579D01*
X109402456Y-55758637D01*
X110381164Y-55758637D01*
X111090000Y-56467473D01*
X111798836Y-55758637D01*
X111736895Y-55570496D01*
X111543127Y-55462153D01*
X111331946Y-55393695D01*
X111111468Y-55367751D01*
X110890165Y-55385318D01*
X110676541Y-55445722D01*
X110478805Y-55546642D01*
X110443105Y-55570496D01*
X110381164Y-55758637D01*
X109402456Y-55758637D01*
X109268421Y-55624602D01*
X109083835Y-55501266D01*
X108878734Y-55416310D01*
X108661000Y-55373000D01*
X108439000Y-55373000D01*
X108221266Y-55416310D01*
X108016165Y-55501266D01*
X107831579Y-55624602D01*
X107674602Y-55781579D01*
X107551266Y-55966165D01*
X107466310Y-56171266D01*
X107423000Y-56389000D01*
X84703266Y-56389000D01*
X84502460Y-56224203D01*
X84393853Y-56166151D01*
X84483374Y-56057070D01*
X84592667Y-55852597D01*
X84659969Y-55630732D01*
X84682694Y-55400000D01*
X84674672Y-55318548D01*
X101573000Y-55318548D01*
X101573000Y-55481452D01*
X101604782Y-55641227D01*
X101667123Y-55791731D01*
X101757628Y-55927181D01*
X101872819Y-56042372D01*
X102008269Y-56132877D01*
X102158773Y-56195218D01*
X102318548Y-56227000D01*
X102481452Y-56227000D01*
X102641227Y-56195218D01*
X102791731Y-56132877D01*
X102927181Y-56042372D01*
X103042372Y-55927181D01*
X103132877Y-55791731D01*
X103195218Y-55641227D01*
X103227000Y-55481452D01*
X103227000Y-55318548D01*
X103195218Y-55158773D01*
X103178557Y-55118548D01*
X117823000Y-55118548D01*
X117823000Y-55281452D01*
X117854782Y-55441227D01*
X117917123Y-55591731D01*
X118007628Y-55727181D01*
X118122819Y-55842372D01*
X118258269Y-55932877D01*
X118408773Y-55995218D01*
X118568548Y-56027000D01*
X118731452Y-56027000D01*
X118891227Y-55995218D01*
X119041731Y-55932877D01*
X119177181Y-55842372D01*
X119292372Y-55727181D01*
X119382877Y-55591731D01*
X119445218Y-55441227D01*
X119477000Y-55281452D01*
X119477000Y-55118548D01*
X119445218Y-54958773D01*
X119382877Y-54808269D01*
X119292372Y-54672819D01*
X119177181Y-54557628D01*
X119043864Y-54468548D01*
X145973000Y-54468548D01*
X145973000Y-54631452D01*
X146004782Y-54791227D01*
X146067123Y-54941731D01*
X146157628Y-55077181D01*
X146272819Y-55192372D01*
X146408269Y-55282877D01*
X146558773Y-55345218D01*
X146718548Y-55377000D01*
X146881452Y-55377000D01*
X147041227Y-55345218D01*
X147191731Y-55282877D01*
X147327181Y-55192372D01*
X147442372Y-55077181D01*
X147532877Y-54941731D01*
X147595218Y-54791227D01*
X147627000Y-54631452D01*
X147627000Y-54468548D01*
X147595218Y-54308773D01*
X147532877Y-54158269D01*
X147442372Y-54022819D01*
X147327181Y-53907628D01*
X147191731Y-53817123D01*
X147041227Y-53754782D01*
X146881452Y-53723000D01*
X146718548Y-53723000D01*
X146558773Y-53754782D01*
X146408269Y-53817123D01*
X146272819Y-53907628D01*
X146157628Y-54022819D01*
X146067123Y-54158269D01*
X146004782Y-54308773D01*
X145973000Y-54468548D01*
X119043864Y-54468548D01*
X119041731Y-54467123D01*
X118891227Y-54404782D01*
X118731452Y-54373000D01*
X118568548Y-54373000D01*
X118408773Y-54404782D01*
X118258269Y-54467123D01*
X118122819Y-54557628D01*
X118007628Y-54672819D01*
X117917123Y-54808269D01*
X117854782Y-54958773D01*
X117823000Y-55118548D01*
X103178557Y-55118548D01*
X103132877Y-55008269D01*
X103042372Y-54872819D01*
X102927181Y-54757628D01*
X102791731Y-54667123D01*
X102641227Y-54604782D01*
X102481452Y-54573000D01*
X102318548Y-54573000D01*
X102158773Y-54604782D01*
X102008269Y-54667123D01*
X101872819Y-54757628D01*
X101757628Y-54872819D01*
X101667123Y-55008269D01*
X101604782Y-55158773D01*
X101573000Y-55318548D01*
X84674672Y-55318548D01*
X84659969Y-55169268D01*
X84592667Y-54947403D01*
X84483374Y-54742930D01*
X84336291Y-54563709D01*
X84157070Y-54416626D01*
X84125965Y-54400000D01*
X84157070Y-54383374D01*
X84336291Y-54236291D01*
X84483374Y-54057070D01*
X84592667Y-53852597D01*
X84659969Y-53630732D01*
X84682694Y-53400000D01*
X84659969Y-53169268D01*
X84592667Y-52947403D01*
X84483374Y-52742930D01*
X84463365Y-52718548D01*
X88773000Y-52718548D01*
X88773000Y-52881452D01*
X88804782Y-53041227D01*
X88867123Y-53191731D01*
X88957628Y-53327181D01*
X89072819Y-53442372D01*
X89208269Y-53532877D01*
X89358773Y-53595218D01*
X89518548Y-53627000D01*
X89681452Y-53627000D01*
X89841227Y-53595218D01*
X89991731Y-53532877D01*
X90127181Y-53442372D01*
X90242372Y-53327181D01*
X90332877Y-53191731D01*
X90342479Y-53168548D01*
X107323000Y-53168548D01*
X107323000Y-53331452D01*
X107354782Y-53491227D01*
X107417123Y-53641731D01*
X107507628Y-53777181D01*
X107622819Y-53892372D01*
X107758269Y-53982877D01*
X107908773Y-54045218D01*
X108068548Y-54077000D01*
X108231452Y-54077000D01*
X108391227Y-54045218D01*
X108541731Y-53982877D01*
X108677181Y-53892372D01*
X108792372Y-53777181D01*
X108882877Y-53641731D01*
X108945218Y-53491227D01*
X108977000Y-53331452D01*
X108977000Y-53168548D01*
X108945218Y-53008773D01*
X108887135Y-52868548D01*
X116473000Y-52868548D01*
X116473000Y-53031452D01*
X116504782Y-53191227D01*
X116567123Y-53341731D01*
X116657628Y-53477181D01*
X116772819Y-53592372D01*
X116908269Y-53682877D01*
X116973000Y-53709690D01*
X116973000Y-53781452D01*
X117004782Y-53941227D01*
X117067123Y-54091731D01*
X117157628Y-54227181D01*
X117272819Y-54342372D01*
X117408269Y-54432877D01*
X117558773Y-54495218D01*
X117718548Y-54527000D01*
X117881452Y-54527000D01*
X118041227Y-54495218D01*
X118191731Y-54432877D01*
X118327181Y-54342372D01*
X118442372Y-54227181D01*
X118532877Y-54091731D01*
X118595218Y-53941227D01*
X118627000Y-53781452D01*
X118627000Y-53618548D01*
X118595218Y-53458773D01*
X118532877Y-53308269D01*
X118442372Y-53172819D01*
X118327181Y-53057628D01*
X118191731Y-52967123D01*
X118127000Y-52940310D01*
X118127000Y-52868548D01*
X118095218Y-52708773D01*
X118032877Y-52558269D01*
X117942372Y-52422819D01*
X117827181Y-52307628D01*
X117691731Y-52217123D01*
X117541227Y-52154782D01*
X117381452Y-52123000D01*
X117218548Y-52123000D01*
X117058773Y-52154782D01*
X116908269Y-52217123D01*
X116772819Y-52307628D01*
X116657628Y-52422819D01*
X116567123Y-52558269D01*
X116504782Y-52708773D01*
X116473000Y-52868548D01*
X108887135Y-52868548D01*
X108882877Y-52858269D01*
X108792372Y-52722819D01*
X108677181Y-52607628D01*
X108541731Y-52517123D01*
X108391227Y-52454782D01*
X108231452Y-52423000D01*
X108068548Y-52423000D01*
X107908773Y-52454782D01*
X107758269Y-52517123D01*
X107622819Y-52607628D01*
X107507628Y-52722819D01*
X107417123Y-52858269D01*
X107354782Y-53008773D01*
X107323000Y-53168548D01*
X90342479Y-53168548D01*
X90395218Y-53041227D01*
X90427000Y-52881452D01*
X90427000Y-52718548D01*
X90395218Y-52558773D01*
X90332877Y-52408269D01*
X90242372Y-52272819D01*
X90127181Y-52157628D01*
X89991731Y-52067123D01*
X89841227Y-52004782D01*
X89681452Y-51973000D01*
X89518548Y-51973000D01*
X89358773Y-52004782D01*
X89208269Y-52067123D01*
X89072819Y-52157628D01*
X88957628Y-52272819D01*
X88867123Y-52408269D01*
X88804782Y-52558773D01*
X88773000Y-52718548D01*
X84463365Y-52718548D01*
X84340450Y-52568777D01*
X84414196Y-52546405D01*
X84488376Y-52506755D01*
X84553395Y-52453395D01*
X84606755Y-52388376D01*
X84646405Y-52314196D01*
X84670822Y-52233707D01*
X84679066Y-52150000D01*
X84679066Y-50818548D01*
X101973000Y-50818548D01*
X101973000Y-50981452D01*
X102004782Y-51141227D01*
X102067123Y-51291731D01*
X102157628Y-51427181D01*
X102272819Y-51542372D01*
X102408269Y-51632877D01*
X102558773Y-51695218D01*
X102718548Y-51727000D01*
X102881452Y-51727000D01*
X103041227Y-51695218D01*
X103191731Y-51632877D01*
X103327181Y-51542372D01*
X103442372Y-51427181D01*
X103532877Y-51291731D01*
X103595218Y-51141227D01*
X103627000Y-50981452D01*
X103627000Y-50818548D01*
X103595218Y-50658773D01*
X103532877Y-50508269D01*
X103442372Y-50372819D01*
X103327181Y-50257628D01*
X103191731Y-50167123D01*
X103041227Y-50104782D01*
X102881452Y-50073000D01*
X102718548Y-50073000D01*
X102558773Y-50104782D01*
X102408269Y-50167123D01*
X102272819Y-50257628D01*
X102157628Y-50372819D01*
X102067123Y-50508269D01*
X102004782Y-50658773D01*
X101973000Y-50818548D01*
X84679066Y-50818548D01*
X84679066Y-50650000D01*
X84670822Y-50566293D01*
X84646405Y-50485804D01*
X84635950Y-50466244D01*
X84734976Y-50384976D01*
X84925797Y-50152460D01*
X85067590Y-49887185D01*
X85154905Y-49599344D01*
X85184388Y-49300000D01*
X85154905Y-49000656D01*
X85067590Y-48712815D01*
X84933686Y-48462298D01*
X91116750Y-48462298D01*
X91116750Y-48625202D01*
X91148532Y-48784977D01*
X91210873Y-48935481D01*
X91301378Y-49070931D01*
X91416569Y-49186122D01*
X91552019Y-49276627D01*
X91702523Y-49338968D01*
X91862298Y-49370750D01*
X92025202Y-49370750D01*
X92184977Y-49338968D01*
X92335481Y-49276627D01*
X92470931Y-49186122D01*
X92586122Y-49070931D01*
X92676627Y-48935481D01*
X92738968Y-48784977D01*
X92770750Y-48625202D01*
X92770750Y-48462298D01*
X92738968Y-48302523D01*
X92676627Y-48152019D01*
X92586122Y-48016569D01*
X92470931Y-47901378D01*
X92335481Y-47810873D01*
X92184977Y-47748532D01*
X92025202Y-47716750D01*
X91862298Y-47716750D01*
X91702523Y-47748532D01*
X91552019Y-47810873D01*
X91416569Y-47901378D01*
X91301378Y-48016569D01*
X91210873Y-48152019D01*
X91148532Y-48302523D01*
X91116750Y-48462298D01*
X84933686Y-48462298D01*
X84925797Y-48447540D01*
X84734976Y-48215024D01*
X84502460Y-48024203D01*
X84237185Y-47882410D01*
X83949344Y-47795095D01*
X83725011Y-47773000D01*
X82274989Y-47773000D01*
X82050656Y-47795095D01*
X81762815Y-47882410D01*
X81497540Y-48024203D01*
X81265024Y-48215024D01*
X81074203Y-48447540D01*
X80932410Y-48712815D01*
X80845095Y-49000656D01*
X80815612Y-49300000D01*
X80452000Y-49300000D01*
X80452000Y-47144455D01*
X80490862Y-47177995D01*
X80649003Y-47267635D01*
X80821593Y-47324701D01*
X81002000Y-47347000D01*
X81302000Y-47347000D01*
X81302000Y-46443000D01*
X81348000Y-46443000D01*
X81348000Y-47347000D01*
X81648000Y-47347000D01*
X81828407Y-47324701D01*
X82000997Y-47267635D01*
X82159138Y-47177995D01*
X82296752Y-47059225D01*
X82408551Y-46915890D01*
X82490239Y-46753498D01*
X82536708Y-46587687D01*
X84043292Y-46587687D01*
X84089761Y-46753498D01*
X84171449Y-46915890D01*
X84283248Y-47059225D01*
X84420862Y-47177995D01*
X84579003Y-47267635D01*
X84751593Y-47324701D01*
X84932000Y-47347000D01*
X85482000Y-47347000D01*
X85482000Y-46443000D01*
X85528000Y-46443000D01*
X85528000Y-47347000D01*
X86078000Y-47347000D01*
X86258407Y-47324701D01*
X86430997Y-47267635D01*
X86589138Y-47177995D01*
X86726752Y-47059225D01*
X86838551Y-46915890D01*
X86920239Y-46753498D01*
X86966708Y-46587687D01*
X86874927Y-46443000D01*
X85528000Y-46443000D01*
X85482000Y-46443000D01*
X84135073Y-46443000D01*
X84043292Y-46587687D01*
X82536708Y-46587687D01*
X82444927Y-46443000D01*
X81348000Y-46443000D01*
X81302000Y-46443000D01*
X81282000Y-46443000D01*
X81282000Y-46397000D01*
X81302000Y-46397000D01*
X81302000Y-45493000D01*
X81348000Y-45493000D01*
X81348000Y-46397000D01*
X82444927Y-46397000D01*
X82536708Y-46252313D01*
X84043292Y-46252313D01*
X84135073Y-46397000D01*
X85482000Y-46397000D01*
X85482000Y-46377000D01*
X85528000Y-46377000D01*
X85528000Y-46397000D01*
X86874927Y-46397000D01*
X86966708Y-46252313D01*
X86920239Y-46086502D01*
X86838551Y-45924110D01*
X86726752Y-45780775D01*
X86654653Y-45718548D01*
X99873000Y-45718548D01*
X99873000Y-45881452D01*
X99904782Y-46041227D01*
X99967123Y-46191731D01*
X100057628Y-46327181D01*
X100172819Y-46442372D01*
X100308269Y-46532877D01*
X100458773Y-46595218D01*
X100618548Y-46627000D01*
X100781452Y-46627000D01*
X100885217Y-46606359D01*
X100817123Y-46708269D01*
X100754782Y-46858773D01*
X100723000Y-47018548D01*
X100723000Y-47181452D01*
X100754782Y-47341227D01*
X100817123Y-47491731D01*
X100907628Y-47627181D01*
X101022819Y-47742372D01*
X101158269Y-47832877D01*
X101282982Y-47884535D01*
X101267123Y-47908269D01*
X101204782Y-48058773D01*
X101173000Y-48218548D01*
X101173000Y-48381452D01*
X101204782Y-48541227D01*
X101267123Y-48691731D01*
X101357628Y-48827181D01*
X101472819Y-48942372D01*
X101608269Y-49032877D01*
X101758773Y-49095218D01*
X101918548Y-49127000D01*
X102081452Y-49127000D01*
X102241227Y-49095218D01*
X102371644Y-49041197D01*
X102472819Y-49142372D01*
X102608269Y-49232877D01*
X102758773Y-49295218D01*
X102918548Y-49327000D01*
X103081452Y-49327000D01*
X103241227Y-49295218D01*
X103391731Y-49232877D01*
X103500000Y-49160534D01*
X103608269Y-49232877D01*
X103758773Y-49295218D01*
X103918548Y-49327000D01*
X104081452Y-49327000D01*
X104241227Y-49295218D01*
X104391731Y-49232877D01*
X104500000Y-49160534D01*
X104608269Y-49232877D01*
X104684963Y-49264645D01*
X104558269Y-49317123D01*
X104422819Y-49407628D01*
X104307628Y-49522819D01*
X104217123Y-49658269D01*
X104154782Y-49808773D01*
X104123000Y-49968548D01*
X104123000Y-50131452D01*
X104154782Y-50291227D01*
X104217123Y-50441731D01*
X104307628Y-50577181D01*
X104422819Y-50692372D01*
X104558269Y-50782877D01*
X104708773Y-50845218D01*
X104868548Y-50877000D01*
X105031452Y-50877000D01*
X105191227Y-50845218D01*
X105341731Y-50782877D01*
X105400598Y-50743543D01*
X115247999Y-50743543D01*
X115247999Y-50906447D01*
X115279781Y-51066222D01*
X115342122Y-51216726D01*
X115432627Y-51352176D01*
X115547818Y-51467367D01*
X115683268Y-51557872D01*
X115833772Y-51620213D01*
X115993547Y-51651995D01*
X116156451Y-51651995D01*
X116316226Y-51620213D01*
X116466730Y-51557872D01*
X116602180Y-51467367D01*
X116717371Y-51352176D01*
X116807876Y-51216726D01*
X116870217Y-51066222D01*
X116901999Y-50906447D01*
X116901999Y-50743543D01*
X116870217Y-50583768D01*
X116807876Y-50433264D01*
X116798044Y-50418548D01*
X121873000Y-50418548D01*
X121873000Y-50581452D01*
X121904782Y-50741227D01*
X121967123Y-50891731D01*
X122006057Y-50950000D01*
X121967123Y-51008269D01*
X121904782Y-51158773D01*
X121873000Y-51318548D01*
X121873000Y-51481452D01*
X121904782Y-51641227D01*
X121967123Y-51791731D01*
X122057628Y-51927181D01*
X122172819Y-52042372D01*
X122308269Y-52132877D01*
X122458773Y-52195218D01*
X122618548Y-52227000D01*
X122781452Y-52227000D01*
X122941227Y-52195218D01*
X123091731Y-52132877D01*
X123227181Y-52042372D01*
X123342372Y-51927181D01*
X123432877Y-51791731D01*
X123495218Y-51641227D01*
X123527000Y-51481452D01*
X123527000Y-51318548D01*
X123495218Y-51158773D01*
X123432877Y-51008269D01*
X123393943Y-50950000D01*
X123432877Y-50891731D01*
X123495218Y-50741227D01*
X123527000Y-50581452D01*
X123527000Y-50418548D01*
X123495218Y-50258773D01*
X123432877Y-50108269D01*
X123342372Y-49972819D01*
X123227181Y-49857628D01*
X123091731Y-49767123D01*
X122941227Y-49704782D01*
X122781452Y-49673000D01*
X122618548Y-49673000D01*
X122458773Y-49704782D01*
X122308269Y-49767123D01*
X122172819Y-49857628D01*
X122057628Y-49972819D01*
X121967123Y-50108269D01*
X121904782Y-50258773D01*
X121873000Y-50418548D01*
X116798044Y-50418548D01*
X116717371Y-50297814D01*
X116602180Y-50182623D01*
X116466730Y-50092118D01*
X116316226Y-50029777D01*
X116156451Y-49997995D01*
X115993547Y-49997995D01*
X115833772Y-50029777D01*
X115683268Y-50092118D01*
X115547818Y-50182623D01*
X115432627Y-50297814D01*
X115342122Y-50433264D01*
X115279781Y-50583768D01*
X115247999Y-50743543D01*
X105400598Y-50743543D01*
X105477181Y-50692372D01*
X105592372Y-50577181D01*
X105682877Y-50441731D01*
X105745218Y-50291227D01*
X105777000Y-50131452D01*
X105777000Y-49968548D01*
X105745218Y-49808773D01*
X105682877Y-49658269D01*
X105592372Y-49522819D01*
X105477181Y-49407628D01*
X105341731Y-49317123D01*
X105265037Y-49285355D01*
X105391731Y-49232877D01*
X105527181Y-49142372D01*
X105642372Y-49027181D01*
X105688312Y-48958427D01*
X105704782Y-49041227D01*
X105767123Y-49191731D01*
X105857628Y-49327181D01*
X105972819Y-49442372D01*
X106108269Y-49532877D01*
X106258773Y-49595218D01*
X106418548Y-49627000D01*
X106581452Y-49627000D01*
X106741227Y-49595218D01*
X106891731Y-49532877D01*
X107027181Y-49442372D01*
X107142372Y-49327181D01*
X107232877Y-49191731D01*
X107295218Y-49041227D01*
X107302215Y-49006048D01*
X117285500Y-49006048D01*
X117285500Y-49168952D01*
X117317282Y-49328727D01*
X117379623Y-49479231D01*
X117470128Y-49614681D01*
X117585319Y-49729872D01*
X117720769Y-49820377D01*
X117871273Y-49882718D01*
X118031048Y-49914500D01*
X118193952Y-49914500D01*
X118353727Y-49882718D01*
X118504231Y-49820377D01*
X118639681Y-49729872D01*
X118754872Y-49614681D01*
X118845377Y-49479231D01*
X118849566Y-49469119D01*
X118947819Y-49567372D01*
X119083269Y-49657877D01*
X119233773Y-49720218D01*
X119393548Y-49752000D01*
X119556452Y-49752000D01*
X119716227Y-49720218D01*
X119866731Y-49657877D01*
X120002181Y-49567372D01*
X120117372Y-49452181D01*
X120207877Y-49316731D01*
X120270218Y-49166227D01*
X120302000Y-49006452D01*
X120302000Y-48843548D01*
X120270218Y-48683773D01*
X120207877Y-48533269D01*
X120117372Y-48397819D01*
X120002181Y-48282628D01*
X119866731Y-48192123D01*
X119716227Y-48129782D01*
X119556452Y-48098000D01*
X119393548Y-48098000D01*
X119233773Y-48129782D01*
X119083269Y-48192123D01*
X118947819Y-48282628D01*
X118832628Y-48397819D01*
X118742123Y-48533269D01*
X118737934Y-48543381D01*
X118639681Y-48445128D01*
X118504231Y-48354623D01*
X118353727Y-48292282D01*
X118193952Y-48260500D01*
X118031048Y-48260500D01*
X117871273Y-48292282D01*
X117720769Y-48354623D01*
X117585319Y-48445128D01*
X117470128Y-48560319D01*
X117379623Y-48695769D01*
X117317282Y-48846273D01*
X117285500Y-49006048D01*
X107302215Y-49006048D01*
X107327000Y-48881452D01*
X107327000Y-48718548D01*
X107295218Y-48558773D01*
X107232877Y-48408269D01*
X107142372Y-48272819D01*
X107027181Y-48157628D01*
X106891731Y-48067123D01*
X106741227Y-48004782D01*
X106581452Y-47973000D01*
X106418548Y-47973000D01*
X106258773Y-48004782D01*
X106108269Y-48067123D01*
X105972819Y-48157628D01*
X105857628Y-48272819D01*
X105811688Y-48341573D01*
X105795218Y-48258773D01*
X105732877Y-48108269D01*
X105642372Y-47972819D01*
X105527181Y-47857628D01*
X105391731Y-47767123D01*
X105241227Y-47704782D01*
X105081452Y-47673000D01*
X104918548Y-47673000D01*
X104758773Y-47704782D01*
X104608269Y-47767123D01*
X104500000Y-47839466D01*
X104391731Y-47767123D01*
X104241227Y-47704782D01*
X104081452Y-47673000D01*
X103918548Y-47673000D01*
X103758773Y-47704782D01*
X103608269Y-47767123D01*
X103500000Y-47839466D01*
X103391731Y-47767123D01*
X103241227Y-47704782D01*
X103081452Y-47673000D01*
X102918548Y-47673000D01*
X102758773Y-47704782D01*
X102628356Y-47758803D01*
X102527181Y-47657628D01*
X102391731Y-47567123D01*
X102267018Y-47515465D01*
X102282877Y-47491731D01*
X102345218Y-47341227D01*
X102369351Y-47219907D01*
X102407620Y-47277181D01*
X102522811Y-47392372D01*
X102658261Y-47482877D01*
X102808765Y-47545218D01*
X102968540Y-47577000D01*
X103131444Y-47577000D01*
X103291219Y-47545218D01*
X103441723Y-47482877D01*
X103577173Y-47392372D01*
X103692364Y-47277181D01*
X103782869Y-47141731D01*
X103845210Y-46991227D01*
X103876992Y-46831452D01*
X103876992Y-46668548D01*
X103845210Y-46508773D01*
X103782869Y-46358269D01*
X103692364Y-46222819D01*
X103577173Y-46107628D01*
X103441723Y-46017123D01*
X103384809Y-45993548D01*
X104048000Y-45993548D01*
X104048000Y-46156452D01*
X104079782Y-46316227D01*
X104142123Y-46466731D01*
X104232628Y-46602181D01*
X104347819Y-46717372D01*
X104483269Y-46807877D01*
X104633773Y-46870218D01*
X104773000Y-46897913D01*
X104773000Y-46981452D01*
X104804782Y-47141227D01*
X104867123Y-47291731D01*
X104957628Y-47427181D01*
X105072819Y-47542372D01*
X105208269Y-47632877D01*
X105358773Y-47695218D01*
X105518548Y-47727000D01*
X105681452Y-47727000D01*
X105841227Y-47695218D01*
X105991731Y-47632877D01*
X106127181Y-47542372D01*
X106242372Y-47427181D01*
X106250000Y-47415765D01*
X106257628Y-47427181D01*
X106372819Y-47542372D01*
X106508269Y-47632877D01*
X106658773Y-47695218D01*
X106818548Y-47727000D01*
X106981452Y-47727000D01*
X107141227Y-47695218D01*
X107291731Y-47632877D01*
X107427181Y-47542372D01*
X107542372Y-47427181D01*
X107632877Y-47291731D01*
X107695218Y-47141227D01*
X107727000Y-46981452D01*
X107727000Y-46818548D01*
X107695218Y-46658773D01*
X107632877Y-46508269D01*
X107542372Y-46372819D01*
X107427181Y-46257628D01*
X107368694Y-46218548D01*
X119473000Y-46218548D01*
X119473000Y-46381452D01*
X119504782Y-46541227D01*
X119567123Y-46691731D01*
X119657628Y-46827181D01*
X119772819Y-46942372D01*
X119908269Y-47032877D01*
X120058773Y-47095218D01*
X120218548Y-47127000D01*
X120381452Y-47127000D01*
X120541227Y-47095218D01*
X120691731Y-47032877D01*
X120827181Y-46942372D01*
X120942372Y-46827181D01*
X121032877Y-46691731D01*
X121095218Y-46541227D01*
X121127000Y-46381452D01*
X121127000Y-46222451D01*
X126592524Y-46222451D01*
X126593050Y-46226572D01*
X126661404Y-46467437D01*
X126775435Y-46690339D01*
X126930761Y-46886712D01*
X127121413Y-47049009D01*
X127340064Y-47170993D01*
X127578312Y-47247976D01*
X127827000Y-47277000D01*
X127977000Y-47277000D01*
X127977000Y-46023000D01*
X128023000Y-46023000D01*
X128023000Y-47277000D01*
X128173000Y-47277000D01*
X128421688Y-47247976D01*
X128659936Y-47170993D01*
X128878587Y-47049009D01*
X129069239Y-46886712D01*
X129224565Y-46690339D01*
X129338596Y-46467437D01*
X129406950Y-46226572D01*
X129407476Y-46222451D01*
X129320024Y-46023000D01*
X128023000Y-46023000D01*
X127977000Y-46023000D01*
X126679976Y-46023000D01*
X126592524Y-46222451D01*
X121127000Y-46222451D01*
X121127000Y-46218548D01*
X121095218Y-46058773D01*
X121032877Y-45908269D01*
X120942372Y-45772819D01*
X120827181Y-45657628D01*
X120691731Y-45567123D01*
X120541227Y-45504782D01*
X120381452Y-45473000D01*
X120218548Y-45473000D01*
X120058773Y-45504782D01*
X119908269Y-45567123D01*
X119772819Y-45657628D01*
X119657628Y-45772819D01*
X119567123Y-45908269D01*
X119504782Y-46058773D01*
X119473000Y-46218548D01*
X107368694Y-46218548D01*
X107291731Y-46167123D01*
X107141227Y-46104782D01*
X106981452Y-46073000D01*
X106818548Y-46073000D01*
X106658773Y-46104782D01*
X106508269Y-46167123D01*
X106372819Y-46257628D01*
X106257628Y-46372819D01*
X106250000Y-46384235D01*
X106242372Y-46372819D01*
X106127181Y-46257628D01*
X105991731Y-46167123D01*
X105841227Y-46104782D01*
X105702000Y-46077087D01*
X105702000Y-45993548D01*
X105670218Y-45833773D01*
X105607877Y-45683269D01*
X105517372Y-45547819D01*
X105402181Y-45432628D01*
X105266731Y-45342123D01*
X105116227Y-45279782D01*
X104956452Y-45248000D01*
X104793548Y-45248000D01*
X104633773Y-45279782D01*
X104483269Y-45342123D01*
X104347819Y-45432628D01*
X104232628Y-45547819D01*
X104142123Y-45683269D01*
X104079782Y-45833773D01*
X104048000Y-45993548D01*
X103384809Y-45993548D01*
X103291219Y-45954782D01*
X103131444Y-45923000D01*
X102968540Y-45923000D01*
X102808765Y-45954782D01*
X102658261Y-46017123D01*
X102522811Y-46107628D01*
X102407620Y-46222819D01*
X102317115Y-46358269D01*
X102254774Y-46508773D01*
X102230641Y-46630093D01*
X102192372Y-46572819D01*
X102077181Y-46457628D01*
X101941731Y-46367123D01*
X101791227Y-46304782D01*
X101631452Y-46273000D01*
X101468548Y-46273000D01*
X101364783Y-46293641D01*
X101432877Y-46191731D01*
X101495218Y-46041227D01*
X101527000Y-45881452D01*
X101527000Y-45718548D01*
X101495218Y-45558773D01*
X101441197Y-45428356D01*
X101442372Y-45427181D01*
X101532877Y-45291731D01*
X101595218Y-45141227D01*
X101627000Y-44981452D01*
X101627000Y-44818548D01*
X101595218Y-44658773D01*
X101532877Y-44508269D01*
X101442372Y-44372819D01*
X101327181Y-44257628D01*
X101191731Y-44167123D01*
X101041227Y-44104782D01*
X100881452Y-44073000D01*
X100718548Y-44073000D01*
X100558773Y-44104782D01*
X100408269Y-44167123D01*
X100272819Y-44257628D01*
X100157628Y-44372819D01*
X100067123Y-44508269D01*
X100004782Y-44658773D01*
X99973000Y-44818548D01*
X99973000Y-44981452D01*
X100004782Y-45141227D01*
X100058803Y-45271644D01*
X100057628Y-45272819D01*
X99967123Y-45408269D01*
X99904782Y-45558773D01*
X99873000Y-45718548D01*
X86654653Y-45718548D01*
X86589138Y-45662005D01*
X86430997Y-45572365D01*
X86258407Y-45515299D01*
X86078000Y-45493000D01*
X85565489Y-45493000D01*
X85589117Y-45469372D01*
X85671414Y-45346206D01*
X85728101Y-45209350D01*
X85757000Y-45064066D01*
X85757000Y-44915934D01*
X85728101Y-44770650D01*
X85671414Y-44633794D01*
X85589117Y-44510628D01*
X85484372Y-44405883D01*
X85361206Y-44323586D01*
X85349044Y-44318548D01*
X86273000Y-44318548D01*
X86273000Y-44481452D01*
X86304782Y-44641227D01*
X86367123Y-44791731D01*
X86457628Y-44927181D01*
X86572819Y-45042372D01*
X86708269Y-45132877D01*
X86858773Y-45195218D01*
X87018548Y-45227000D01*
X87181452Y-45227000D01*
X87341227Y-45195218D01*
X87491731Y-45132877D01*
X87627181Y-45042372D01*
X87742372Y-44927181D01*
X87832877Y-44791731D01*
X87895218Y-44641227D01*
X87927000Y-44481452D01*
X87927000Y-44318548D01*
X87895218Y-44158773D01*
X87832877Y-44008269D01*
X87742372Y-43872819D01*
X87627181Y-43757628D01*
X87493864Y-43668548D01*
X104123000Y-43668548D01*
X104123000Y-43831452D01*
X104154782Y-43991227D01*
X104217123Y-44141731D01*
X104307628Y-44277181D01*
X104422819Y-44392372D01*
X104558269Y-44482877D01*
X104708773Y-44545218D01*
X104868548Y-44577000D01*
X105031452Y-44577000D01*
X105191227Y-44545218D01*
X105341731Y-44482877D01*
X105355352Y-44473775D01*
X105357628Y-44477181D01*
X105472819Y-44592372D01*
X105608269Y-44682877D01*
X105758773Y-44745218D01*
X105918548Y-44777000D01*
X106081452Y-44777000D01*
X106241227Y-44745218D01*
X106391731Y-44682877D01*
X106527181Y-44592372D01*
X106642372Y-44477181D01*
X106732877Y-44341731D01*
X106742479Y-44318548D01*
X113023006Y-44318548D01*
X113023006Y-44481452D01*
X113054788Y-44641227D01*
X113117129Y-44791731D01*
X113207634Y-44927181D01*
X113322825Y-45042372D01*
X113458275Y-45132877D01*
X113608779Y-45195218D01*
X113768554Y-45227000D01*
X113931458Y-45227000D01*
X114091233Y-45195218D01*
X114241737Y-45132877D01*
X114377187Y-45042372D01*
X114492378Y-44927181D01*
X114582883Y-44791731D01*
X114645224Y-44641227D01*
X114677006Y-44481452D01*
X114677006Y-44318548D01*
X114645224Y-44158773D01*
X114582883Y-44008269D01*
X114492378Y-43872819D01*
X114377187Y-43757628D01*
X114241737Y-43667123D01*
X114091233Y-43604782D01*
X113931458Y-43573000D01*
X113768554Y-43573000D01*
X113608779Y-43604782D01*
X113458275Y-43667123D01*
X113322825Y-43757628D01*
X113207634Y-43872819D01*
X113117129Y-44008269D01*
X113054788Y-44158773D01*
X113023006Y-44318548D01*
X106742479Y-44318548D01*
X106795218Y-44191227D01*
X106827000Y-44031452D01*
X106827000Y-43868548D01*
X106795218Y-43708773D01*
X106732877Y-43558269D01*
X106642372Y-43422819D01*
X106527181Y-43307628D01*
X106391731Y-43217123D01*
X106241227Y-43154782D01*
X106081452Y-43123000D01*
X105918548Y-43123000D01*
X105758773Y-43154782D01*
X105608269Y-43217123D01*
X105594648Y-43226225D01*
X105592372Y-43222819D01*
X105477181Y-43107628D01*
X105341731Y-43017123D01*
X105191227Y-42954782D01*
X105031452Y-42923000D01*
X104868548Y-42923000D01*
X104708773Y-42954782D01*
X104558269Y-43017123D01*
X104422819Y-43107628D01*
X104307628Y-43222819D01*
X104217123Y-43358269D01*
X104154782Y-43508773D01*
X104123000Y-43668548D01*
X87493864Y-43668548D01*
X87491731Y-43667123D01*
X87341227Y-43604782D01*
X87181452Y-43573000D01*
X87018548Y-43573000D01*
X86858773Y-43604782D01*
X86708269Y-43667123D01*
X86572819Y-43757628D01*
X86457628Y-43872819D01*
X86367123Y-44008269D01*
X86304782Y-44158773D01*
X86273000Y-44318548D01*
X85349044Y-44318548D01*
X85224350Y-44266899D01*
X85079066Y-44238000D01*
X84930934Y-44238000D01*
X84785650Y-44266899D01*
X84648794Y-44323586D01*
X84525628Y-44405883D01*
X84420883Y-44510628D01*
X84338586Y-44633794D01*
X84281899Y-44770650D01*
X84253000Y-44915934D01*
X84253000Y-45064066D01*
X84281899Y-45209350D01*
X84338586Y-45346206D01*
X84420883Y-45469372D01*
X84525628Y-45574117D01*
X84548707Y-45589538D01*
X84420862Y-45662005D01*
X84283248Y-45780775D01*
X84171449Y-45924110D01*
X84089761Y-46086502D01*
X84043292Y-46252313D01*
X82536708Y-46252313D01*
X82490239Y-46086502D01*
X82408551Y-45924110D01*
X82296752Y-45780775D01*
X82159138Y-45662005D01*
X82000997Y-45572365D01*
X81828407Y-45515299D01*
X81648000Y-45493000D01*
X81348000Y-45493000D01*
X81302000Y-45493000D01*
X81002000Y-45493000D01*
X80821593Y-45515299D01*
X80649003Y-45572365D01*
X80490862Y-45662005D01*
X80452000Y-45695545D01*
X80452000Y-42618548D01*
X100173000Y-42618548D01*
X100173000Y-42781452D01*
X100204782Y-42941227D01*
X100267123Y-43091731D01*
X100357628Y-43227181D01*
X100472819Y-43342372D01*
X100608269Y-43432877D01*
X100758773Y-43495218D01*
X100918548Y-43527000D01*
X101081452Y-43527000D01*
X101241227Y-43495218D01*
X101391731Y-43432877D01*
X101527181Y-43342372D01*
X101642372Y-43227181D01*
X101732877Y-43091731D01*
X101795218Y-42941227D01*
X101803418Y-42900000D01*
X126570934Y-42900000D01*
X126570934Y-44100000D01*
X126583982Y-44232479D01*
X126622625Y-44359867D01*
X126685377Y-44477269D01*
X126769828Y-44580172D01*
X126872731Y-44664623D01*
X126990133Y-44727375D01*
X127117521Y-44766018D01*
X127250000Y-44779066D01*
X127494622Y-44779066D01*
X127340064Y-44829007D01*
X127121413Y-44950991D01*
X126930761Y-45113288D01*
X126775435Y-45309661D01*
X126661404Y-45532563D01*
X126593050Y-45773428D01*
X126592524Y-45777549D01*
X126679976Y-45977000D01*
X127977000Y-45977000D01*
X127977000Y-45957000D01*
X128023000Y-45957000D01*
X128023000Y-45977000D01*
X129320024Y-45977000D01*
X129407476Y-45777549D01*
X129406950Y-45773428D01*
X129338596Y-45532563D01*
X129224565Y-45309661D01*
X129069239Y-45113288D01*
X128878587Y-44950991D01*
X128659936Y-44829007D01*
X128505378Y-44779066D01*
X128750000Y-44779066D01*
X128882479Y-44766018D01*
X129009867Y-44727375D01*
X129127269Y-44664623D01*
X129230172Y-44580172D01*
X129314623Y-44477269D01*
X129377375Y-44359867D01*
X129416018Y-44232479D01*
X129429066Y-44100000D01*
X129429066Y-42900000D01*
X129416018Y-42767521D01*
X129377375Y-42640133D01*
X129314623Y-42522731D01*
X129230172Y-42419828D01*
X129127269Y-42335377D01*
X129009867Y-42272625D01*
X128882479Y-42233982D01*
X128750000Y-42220934D01*
X127250000Y-42220934D01*
X127117521Y-42233982D01*
X126990133Y-42272625D01*
X126872731Y-42335377D01*
X126769828Y-42419828D01*
X126685377Y-42522731D01*
X126622625Y-42640133D01*
X126583982Y-42767521D01*
X126570934Y-42900000D01*
X101803418Y-42900000D01*
X101827000Y-42781452D01*
X101827000Y-42618548D01*
X101795218Y-42458773D01*
X101732877Y-42308269D01*
X101642372Y-42172819D01*
X101527181Y-42057628D01*
X101391731Y-41967123D01*
X101241227Y-41904782D01*
X101081452Y-41873000D01*
X100918548Y-41873000D01*
X100758773Y-41904782D01*
X100608269Y-41967123D01*
X100472819Y-42057628D01*
X100357628Y-42172819D01*
X100267123Y-42308269D01*
X100204782Y-42458773D01*
X100173000Y-42618548D01*
X80452000Y-42618548D01*
X80452000Y-38504455D01*
X80490862Y-38537995D01*
X80649003Y-38627635D01*
X80821593Y-38684701D01*
X81002000Y-38707000D01*
X81302000Y-38707000D01*
X81302000Y-37803000D01*
X81348000Y-37803000D01*
X81348000Y-38707000D01*
X81648000Y-38707000D01*
X81828407Y-38684701D01*
X82000997Y-38627635D01*
X82159138Y-38537995D01*
X82296752Y-38419225D01*
X82408551Y-38275890D01*
X82490239Y-38113498D01*
X82536708Y-37947687D01*
X84043292Y-37947687D01*
X84089761Y-38113498D01*
X84171449Y-38275890D01*
X84283248Y-38419225D01*
X84420862Y-38537995D01*
X84548707Y-38610462D01*
X84525628Y-38625883D01*
X84420883Y-38730628D01*
X84338586Y-38853794D01*
X84281899Y-38990650D01*
X84253000Y-39135934D01*
X84253000Y-39284066D01*
X84281899Y-39429350D01*
X84338586Y-39566206D01*
X84420883Y-39689372D01*
X84525628Y-39794117D01*
X84648794Y-39876414D01*
X84785650Y-39933101D01*
X84930934Y-39962000D01*
X85079066Y-39962000D01*
X85224350Y-39933101D01*
X85361206Y-39876414D01*
X85484372Y-39794117D01*
X85589117Y-39689372D01*
X85669849Y-39568548D01*
X86423000Y-39568548D01*
X86423000Y-39731452D01*
X86454782Y-39891227D01*
X86517123Y-40041731D01*
X86607628Y-40177181D01*
X86722819Y-40292372D01*
X86858269Y-40382877D01*
X87008773Y-40445218D01*
X87168548Y-40477000D01*
X87331452Y-40477000D01*
X87491227Y-40445218D01*
X87641731Y-40382877D01*
X87777181Y-40292372D01*
X87892372Y-40177181D01*
X87982877Y-40041731D01*
X88045218Y-39891227D01*
X88077000Y-39731452D01*
X88077000Y-39568548D01*
X88045218Y-39408773D01*
X87982877Y-39258269D01*
X87892372Y-39122819D01*
X87777181Y-39007628D01*
X87641731Y-38917123D01*
X87491227Y-38854782D01*
X87331452Y-38823000D01*
X87168548Y-38823000D01*
X87008773Y-38854782D01*
X86858269Y-38917123D01*
X86722819Y-39007628D01*
X86607628Y-39122819D01*
X86517123Y-39258269D01*
X86454782Y-39408773D01*
X86423000Y-39568548D01*
X85669849Y-39568548D01*
X85671414Y-39566206D01*
X85728101Y-39429350D01*
X85757000Y-39284066D01*
X85757000Y-39135934D01*
X85728101Y-38990650D01*
X85671414Y-38853794D01*
X85589117Y-38730628D01*
X85565489Y-38707000D01*
X86078000Y-38707000D01*
X86258407Y-38684701D01*
X86430997Y-38627635D01*
X86589138Y-38537995D01*
X86726752Y-38419225D01*
X86838551Y-38275890D01*
X86920239Y-38113498D01*
X86966708Y-37947687D01*
X86874927Y-37803000D01*
X85528000Y-37803000D01*
X85528000Y-37823000D01*
X85482000Y-37823000D01*
X85482000Y-37803000D01*
X84135073Y-37803000D01*
X84043292Y-37947687D01*
X82536708Y-37947687D01*
X82444927Y-37803000D01*
X81348000Y-37803000D01*
X81302000Y-37803000D01*
X81282000Y-37803000D01*
X81282000Y-37757000D01*
X81302000Y-37757000D01*
X81302000Y-36853000D01*
X81348000Y-36853000D01*
X81348000Y-37757000D01*
X82444927Y-37757000D01*
X82536708Y-37612313D01*
X84043292Y-37612313D01*
X84135073Y-37757000D01*
X85482000Y-37757000D01*
X85482000Y-36853000D01*
X85528000Y-36853000D01*
X85528000Y-37757000D01*
X86874927Y-37757000D01*
X86966708Y-37612313D01*
X86920239Y-37446502D01*
X86838551Y-37284110D01*
X86726752Y-37140775D01*
X86589138Y-37022005D01*
X86430997Y-36932365D01*
X86258407Y-36875299D01*
X86078000Y-36853000D01*
X85528000Y-36853000D01*
X85482000Y-36853000D01*
X84932000Y-36853000D01*
X84751593Y-36875299D01*
X84579003Y-36932365D01*
X84420862Y-37022005D01*
X84283248Y-37140775D01*
X84171449Y-37284110D01*
X84089761Y-37446502D01*
X84043292Y-37612313D01*
X82536708Y-37612313D01*
X82490239Y-37446502D01*
X82408551Y-37284110D01*
X82296752Y-37140775D01*
X82159138Y-37022005D01*
X82000997Y-36932365D01*
X81828407Y-36875299D01*
X81648000Y-36853000D01*
X81348000Y-36853000D01*
X81302000Y-36853000D01*
X81002000Y-36853000D01*
X80821593Y-36875299D01*
X80649003Y-36932365D01*
X80490862Y-37022005D01*
X80452000Y-37055545D01*
X80452000Y-36118548D01*
X88373000Y-36118548D01*
X88373000Y-36281452D01*
X88404782Y-36441227D01*
X88467123Y-36591731D01*
X88557628Y-36727181D01*
X88672819Y-36842372D01*
X88808269Y-36932877D01*
X88958773Y-36995218D01*
X89118548Y-37027000D01*
X89281452Y-37027000D01*
X89441227Y-36995218D01*
X89591731Y-36932877D01*
X89727181Y-36842372D01*
X89842372Y-36727181D01*
X89932877Y-36591731D01*
X89995218Y-36441227D01*
X90027000Y-36281452D01*
X90027000Y-36118548D01*
X89995218Y-35958773D01*
X89932877Y-35808269D01*
X89842372Y-35672819D01*
X89727181Y-35557628D01*
X89591731Y-35467123D01*
X89441227Y-35404782D01*
X89281452Y-35373000D01*
X89118548Y-35373000D01*
X88958773Y-35404782D01*
X88808269Y-35467123D01*
X88672819Y-35557628D01*
X88557628Y-35672819D01*
X88467123Y-35808269D01*
X88404782Y-35958773D01*
X88373000Y-36118548D01*
X80452000Y-36118548D01*
X80452000Y-34518548D01*
X108273000Y-34518548D01*
X108273000Y-34681452D01*
X108304782Y-34841227D01*
X108367123Y-34991731D01*
X108457628Y-35127181D01*
X108572819Y-35242372D01*
X108708269Y-35332877D01*
X108858773Y-35395218D01*
X109018548Y-35427000D01*
X109181452Y-35427000D01*
X109341227Y-35395218D01*
X109491731Y-35332877D01*
X109500000Y-35327352D01*
X109508269Y-35332877D01*
X109658773Y-35395218D01*
X109818548Y-35427000D01*
X109981452Y-35427000D01*
X110141227Y-35395218D01*
X110291731Y-35332877D01*
X110300000Y-35327352D01*
X110308269Y-35332877D01*
X110458773Y-35395218D01*
X110618548Y-35427000D01*
X110781452Y-35427000D01*
X110941227Y-35395218D01*
X111091731Y-35332877D01*
X111223000Y-35245166D01*
X111223000Y-35331452D01*
X111254782Y-35491227D01*
X111317123Y-35641731D01*
X111407628Y-35777181D01*
X111522819Y-35892372D01*
X111658269Y-35982877D01*
X111808773Y-36045218D01*
X111968548Y-36077000D01*
X112131452Y-36077000D01*
X112291227Y-36045218D01*
X112441731Y-35982877D01*
X112577181Y-35892372D01*
X112692372Y-35777181D01*
X112782877Y-35641731D01*
X112845218Y-35491227D01*
X112877000Y-35331452D01*
X112877000Y-35168548D01*
X112845218Y-35008773D01*
X112820487Y-34949066D01*
X112842372Y-34927181D01*
X112932877Y-34791731D01*
X112995218Y-34641227D01*
X113027000Y-34481452D01*
X113027000Y-34318548D01*
X113026999Y-34318540D01*
X113173000Y-34318540D01*
X113173000Y-34481444D01*
X113204782Y-34641219D01*
X113267123Y-34791723D01*
X113357628Y-34927173D01*
X113472819Y-35042364D01*
X113608269Y-35132869D01*
X113758773Y-35195210D01*
X113918548Y-35226992D01*
X114081452Y-35226992D01*
X114123901Y-35218548D01*
X118623000Y-35218548D01*
X118623000Y-35381452D01*
X118654782Y-35541227D01*
X118717123Y-35691731D01*
X118807628Y-35827181D01*
X118922819Y-35942372D01*
X119058269Y-36032877D01*
X119208773Y-36095218D01*
X119368548Y-36127000D01*
X119531452Y-36127000D01*
X119691227Y-36095218D01*
X119841731Y-36032877D01*
X119977181Y-35942372D01*
X120092372Y-35827181D01*
X120182877Y-35691731D01*
X120245218Y-35541227D01*
X120277000Y-35381452D01*
X120277000Y-35218548D01*
X120245218Y-35058773D01*
X120182877Y-34908269D01*
X120092372Y-34772819D01*
X119977181Y-34657628D01*
X119841731Y-34567123D01*
X119691227Y-34504782D01*
X119531452Y-34473000D01*
X119368548Y-34473000D01*
X119208773Y-34504782D01*
X119058269Y-34567123D01*
X118922819Y-34657628D01*
X118807628Y-34772819D01*
X118717123Y-34908269D01*
X118654782Y-35058773D01*
X118623000Y-35218548D01*
X114123901Y-35218548D01*
X114241227Y-35195210D01*
X114391731Y-35132869D01*
X114527181Y-35042364D01*
X114642372Y-34927173D01*
X114732877Y-34791723D01*
X114795218Y-34641219D01*
X114827000Y-34481444D01*
X114827000Y-34318540D01*
X114795218Y-34158765D01*
X114732877Y-34008261D01*
X114642372Y-33872811D01*
X114527181Y-33757620D01*
X114391731Y-33667115D01*
X114241227Y-33604774D01*
X114081452Y-33572992D01*
X113918548Y-33572992D01*
X113758773Y-33604774D01*
X113608269Y-33667115D01*
X113472819Y-33757620D01*
X113357628Y-33872811D01*
X113267123Y-34008261D01*
X113204782Y-34158765D01*
X113173000Y-34318540D01*
X113026999Y-34318540D01*
X112995218Y-34158773D01*
X112932877Y-34008269D01*
X112842372Y-33872819D01*
X112727181Y-33757628D01*
X112591731Y-33667123D01*
X112441227Y-33604782D01*
X112281452Y-33573000D01*
X112118548Y-33573000D01*
X111958773Y-33604782D01*
X111808269Y-33667123D01*
X111672819Y-33757628D01*
X111557628Y-33872819D01*
X111467123Y-34008269D01*
X111404782Y-34158773D01*
X111403640Y-34164513D01*
X111342372Y-34072819D01*
X111227181Y-33957628D01*
X111091731Y-33867123D01*
X110941227Y-33804782D01*
X110781452Y-33773000D01*
X110618548Y-33773000D01*
X110458773Y-33804782D01*
X110308269Y-33867123D01*
X110300000Y-33872648D01*
X110291731Y-33867123D01*
X110141227Y-33804782D01*
X109981452Y-33773000D01*
X109818548Y-33773000D01*
X109658773Y-33804782D01*
X109508269Y-33867123D01*
X109500000Y-33872648D01*
X109491731Y-33867123D01*
X109341227Y-33804782D01*
X109181452Y-33773000D01*
X109018548Y-33773000D01*
X108858773Y-33804782D01*
X108708269Y-33867123D01*
X108572819Y-33957628D01*
X108457628Y-34072819D01*
X108367123Y-34208269D01*
X108304782Y-34358773D01*
X108273000Y-34518548D01*
X80452000Y-34518548D01*
X80452000Y-33518548D01*
X81773000Y-33518548D01*
X81773000Y-33681452D01*
X81804782Y-33841227D01*
X81867123Y-33991731D01*
X81957628Y-34127181D01*
X82072819Y-34242372D01*
X82208269Y-34332877D01*
X82358773Y-34395218D01*
X82518548Y-34427000D01*
X82681452Y-34427000D01*
X82841227Y-34395218D01*
X82991731Y-34332877D01*
X83127181Y-34242372D01*
X83242372Y-34127181D01*
X83332877Y-33991731D01*
X83395218Y-33841227D01*
X83427000Y-33681452D01*
X83427000Y-33518548D01*
X83395218Y-33358773D01*
X83332877Y-33208269D01*
X83242372Y-33072819D01*
X83127181Y-32957628D01*
X82991731Y-32867123D01*
X82841227Y-32804782D01*
X82681452Y-32773000D01*
X82518548Y-32773000D01*
X82358773Y-32804782D01*
X82208269Y-32867123D01*
X82072819Y-32957628D01*
X81957628Y-33072819D01*
X81867123Y-33208269D01*
X81804782Y-33358773D01*
X81773000Y-33518548D01*
X80452000Y-33518548D01*
X80452000Y-31852000D01*
X129673000Y-31852000D01*
X129673000Y-53600000D01*
%TA.AperFunction,Conductor*%
D22*
G36*
X129673000Y-53600000D02*
G01*
X129675440Y-53624776D01*
X129682667Y-53648601D01*
X129694403Y-53670557D01*
X129710197Y-53689803D01*
X129729443Y-53705597D01*
X129751399Y-53717333D01*
X129775224Y-53724560D01*
X129800000Y-53727000D01*
X130000000Y-53727000D01*
X130024776Y-53724560D01*
X130048601Y-53717333D01*
X130070557Y-53705597D01*
X130089803Y-53689803D01*
X130105597Y-53670557D01*
X130117333Y-53648601D01*
X130124560Y-53624776D01*
X130127000Y-53600000D01*
X130127000Y-52118548D01*
X133673000Y-52118548D01*
X133673000Y-52281452D01*
X133704782Y-52441227D01*
X133767123Y-52591731D01*
X133806057Y-52650000D01*
X133767123Y-52708269D01*
X133704782Y-52858773D01*
X133673000Y-53018548D01*
X133673000Y-53181452D01*
X133704782Y-53341227D01*
X133767123Y-53491731D01*
X133857628Y-53627181D01*
X133972819Y-53742372D01*
X134108269Y-53832877D01*
X134258773Y-53895218D01*
X134418548Y-53927000D01*
X134581452Y-53927000D01*
X134741227Y-53895218D01*
X134891731Y-53832877D01*
X135027181Y-53742372D01*
X135142372Y-53627181D01*
X135232877Y-53491731D01*
X135295218Y-53341227D01*
X135327000Y-53181452D01*
X135327000Y-53018548D01*
X135310110Y-52933640D01*
X135458773Y-52995218D01*
X135618548Y-53027000D01*
X135781452Y-53027000D01*
X135941227Y-52995218D01*
X136089890Y-52933640D01*
X136073000Y-53018548D01*
X136073000Y-53181452D01*
X136104782Y-53341227D01*
X136167123Y-53491731D01*
X136257628Y-53627181D01*
X136372819Y-53742372D01*
X136508269Y-53832877D01*
X136658773Y-53895218D01*
X136818548Y-53927000D01*
X136981452Y-53927000D01*
X137141227Y-53895218D01*
X137291731Y-53832877D01*
X137427181Y-53742372D01*
X137501005Y-53668548D01*
X148123000Y-53668548D01*
X148123000Y-53831452D01*
X148154782Y-53991227D01*
X148217123Y-54141731D01*
X148307628Y-54277181D01*
X148422819Y-54392372D01*
X148558269Y-54482877D01*
X148708773Y-54545218D01*
X148868548Y-54577000D01*
X149031452Y-54577000D01*
X149191227Y-54545218D01*
X149341731Y-54482877D01*
X149477181Y-54392372D01*
X149592372Y-54277181D01*
X149682877Y-54141731D01*
X149745218Y-53991227D01*
X149777000Y-53831452D01*
X149777000Y-53668548D01*
X149745218Y-53508773D01*
X149682877Y-53358269D01*
X149592372Y-53222819D01*
X149477181Y-53107628D01*
X149341731Y-53017123D01*
X149191227Y-52954782D01*
X149031452Y-52923000D01*
X148868548Y-52923000D01*
X148708773Y-52954782D01*
X148558269Y-53017123D01*
X148422819Y-53107628D01*
X148307628Y-53222819D01*
X148217123Y-53358269D01*
X148154782Y-53508773D01*
X148123000Y-53668548D01*
X137501005Y-53668548D01*
X137542372Y-53627181D01*
X137632877Y-53491731D01*
X137695218Y-53341227D01*
X137727000Y-53181452D01*
X137727000Y-53018548D01*
X137695218Y-52858773D01*
X137632877Y-52708269D01*
X137593943Y-52650000D01*
X137632877Y-52591731D01*
X137652835Y-52543548D01*
X138398000Y-52543548D01*
X138398000Y-52706452D01*
X138429782Y-52866227D01*
X138492123Y-53016731D01*
X138582628Y-53152181D01*
X138697819Y-53267372D01*
X138833269Y-53357877D01*
X138983773Y-53420218D01*
X139143548Y-53452000D01*
X139306452Y-53452000D01*
X139466227Y-53420218D01*
X139616731Y-53357877D01*
X139752181Y-53267372D01*
X139867372Y-53152181D01*
X139957877Y-53016731D01*
X140020218Y-52866227D01*
X140052000Y-52706452D01*
X140052000Y-52692606D01*
X140127181Y-52642372D01*
X140242372Y-52527181D01*
X140332877Y-52391731D01*
X140395218Y-52241227D01*
X140427000Y-52081452D01*
X140427000Y-51918548D01*
X140395218Y-51758773D01*
X140332877Y-51608269D01*
X140272928Y-51518548D01*
X145573000Y-51518548D01*
X145573000Y-51681452D01*
X145604782Y-51841227D01*
X145667123Y-51991731D01*
X145757628Y-52127181D01*
X145872819Y-52242372D01*
X146008269Y-52332877D01*
X146158773Y-52395218D01*
X146318548Y-52427000D01*
X146481452Y-52427000D01*
X146641227Y-52395218D01*
X146791731Y-52332877D01*
X146927181Y-52242372D01*
X147042372Y-52127181D01*
X147132877Y-51991731D01*
X147195218Y-51841227D01*
X147209675Y-51768548D01*
X148123000Y-51768548D01*
X148123000Y-51931452D01*
X148154782Y-52091227D01*
X148217123Y-52241731D01*
X148307628Y-52377181D01*
X148422819Y-52492372D01*
X148558269Y-52582877D01*
X148708773Y-52645218D01*
X148868548Y-52677000D01*
X149031452Y-52677000D01*
X149191227Y-52645218D01*
X149341731Y-52582877D01*
X149477181Y-52492372D01*
X149592372Y-52377181D01*
X149682877Y-52241731D01*
X149745218Y-52091227D01*
X149777000Y-51931452D01*
X149777000Y-51768548D01*
X149745218Y-51608773D01*
X149682877Y-51458269D01*
X149592372Y-51322819D01*
X149477181Y-51207628D01*
X149341731Y-51117123D01*
X149191227Y-51054782D01*
X149031452Y-51023000D01*
X148868548Y-51023000D01*
X148708773Y-51054782D01*
X148558269Y-51117123D01*
X148422819Y-51207628D01*
X148307628Y-51322819D01*
X148217123Y-51458269D01*
X148154782Y-51608773D01*
X148123000Y-51768548D01*
X147209675Y-51768548D01*
X147227000Y-51681452D01*
X147227000Y-51518548D01*
X147195218Y-51358773D01*
X147132877Y-51208269D01*
X147042372Y-51072819D01*
X146927181Y-50957628D01*
X146791731Y-50867123D01*
X146641227Y-50804782D01*
X146481452Y-50773000D01*
X146318548Y-50773000D01*
X146158773Y-50804782D01*
X146008269Y-50867123D01*
X145872819Y-50957628D01*
X145757628Y-51072819D01*
X145667123Y-51208269D01*
X145604782Y-51358773D01*
X145573000Y-51518548D01*
X140272928Y-51518548D01*
X140242372Y-51472819D01*
X140127181Y-51357628D01*
X139991731Y-51267123D01*
X139841227Y-51204782D01*
X139681452Y-51173000D01*
X139518548Y-51173000D01*
X139358773Y-51204782D01*
X139208269Y-51267123D01*
X139072819Y-51357628D01*
X138957628Y-51472819D01*
X138867123Y-51608269D01*
X138804782Y-51758773D01*
X138773000Y-51918548D01*
X138773000Y-51932394D01*
X138697819Y-51982628D01*
X138582628Y-52097819D01*
X138492123Y-52233269D01*
X138429782Y-52383773D01*
X138398000Y-52543548D01*
X137652835Y-52543548D01*
X137695218Y-52441227D01*
X137727000Y-52281452D01*
X137727000Y-52118548D01*
X137695218Y-51958773D01*
X137632877Y-51808269D01*
X137542372Y-51672819D01*
X137427181Y-51557628D01*
X137291731Y-51467123D01*
X137141227Y-51404782D01*
X136981452Y-51373000D01*
X136818548Y-51373000D01*
X136658773Y-51404782D01*
X136508269Y-51467123D01*
X136372819Y-51557628D01*
X136300000Y-51630447D01*
X136227181Y-51557628D01*
X136091731Y-51467123D01*
X135941227Y-51404782D01*
X135781452Y-51373000D01*
X135618548Y-51373000D01*
X135458773Y-51404782D01*
X135308269Y-51467123D01*
X135172819Y-51557628D01*
X135100000Y-51630447D01*
X135027181Y-51557628D01*
X134891731Y-51467123D01*
X134741227Y-51404782D01*
X134581452Y-51373000D01*
X134418548Y-51373000D01*
X134258773Y-51404782D01*
X134108269Y-51467123D01*
X133972819Y-51557628D01*
X133857628Y-51672819D01*
X133767123Y-51808269D01*
X133704782Y-51958773D01*
X133673000Y-52118548D01*
X130127000Y-52118548D01*
X130127000Y-48739932D01*
X138673000Y-48739932D01*
X138673000Y-50139932D01*
X138675440Y-50164708D01*
X138682667Y-50188533D01*
X138694403Y-50210489D01*
X138710197Y-50229735D01*
X138729443Y-50245529D01*
X138751399Y-50257265D01*
X138775224Y-50264492D01*
X138800000Y-50266932D01*
X139700000Y-50266932D01*
X139724776Y-50264492D01*
X139748601Y-50257265D01*
X139770557Y-50245529D01*
X139789803Y-50229735D01*
X139805597Y-50210489D01*
X139817333Y-50188533D01*
X139824560Y-50164708D01*
X139827000Y-50139932D01*
X139827000Y-48739932D01*
X139824560Y-48715156D01*
X139824282Y-48714237D01*
X140573000Y-48714237D01*
X140573000Y-50114237D01*
X140575440Y-50139013D01*
X140582667Y-50162838D01*
X140594403Y-50184794D01*
X140610197Y-50204040D01*
X140629443Y-50219834D01*
X140651399Y-50231570D01*
X140675224Y-50238797D01*
X140700000Y-50241237D01*
X141600000Y-50241237D01*
X141624776Y-50238797D01*
X141648601Y-50231570D01*
X141670557Y-50219834D01*
X141689803Y-50204040D01*
X141705597Y-50184794D01*
X141717333Y-50162838D01*
X141724560Y-50139013D01*
X141727000Y-50114237D01*
X141727000Y-49218548D01*
X154923000Y-49218548D01*
X154923000Y-49381452D01*
X154954782Y-49541227D01*
X155017123Y-49691731D01*
X155107628Y-49827181D01*
X155222819Y-49942372D01*
X155358269Y-50032877D01*
X155508773Y-50095218D01*
X155668548Y-50127000D01*
X155831452Y-50127000D01*
X155991227Y-50095218D01*
X156141731Y-50032877D01*
X156275420Y-49943548D01*
X157648000Y-49943548D01*
X157648000Y-50106452D01*
X157679782Y-50266227D01*
X157742123Y-50416731D01*
X157832628Y-50552181D01*
X157947819Y-50667372D01*
X158083269Y-50757877D01*
X158233773Y-50820218D01*
X158393548Y-50852000D01*
X158556452Y-50852000D01*
X158716227Y-50820218D01*
X158761351Y-50801527D01*
X158808269Y-50832877D01*
X158958773Y-50895218D01*
X159118548Y-50927000D01*
X159281452Y-50927000D01*
X159441227Y-50895218D01*
X159591731Y-50832877D01*
X159727181Y-50742372D01*
X159842372Y-50627181D01*
X159932877Y-50491731D01*
X159995218Y-50341227D01*
X160027000Y-50181452D01*
X160027000Y-50018548D01*
X159995218Y-49858773D01*
X159932877Y-49708269D01*
X159842372Y-49572819D01*
X159727181Y-49457628D01*
X159591731Y-49367123D01*
X159441227Y-49304782D01*
X159281452Y-49273000D01*
X159118548Y-49273000D01*
X158958773Y-49304782D01*
X158913649Y-49323473D01*
X158866731Y-49292123D01*
X158716227Y-49229782D01*
X158556452Y-49198000D01*
X158393548Y-49198000D01*
X158233773Y-49229782D01*
X158083269Y-49292123D01*
X157947819Y-49382628D01*
X157832628Y-49497819D01*
X157742123Y-49633269D01*
X157679782Y-49783773D01*
X157648000Y-49943548D01*
X156275420Y-49943548D01*
X156277181Y-49942372D01*
X156392372Y-49827181D01*
X156482877Y-49691731D01*
X156545218Y-49541227D01*
X156577000Y-49381452D01*
X156577000Y-49218548D01*
X156545218Y-49058773D01*
X156482877Y-48908269D01*
X156392372Y-48772819D01*
X156277181Y-48657628D01*
X156141731Y-48567123D01*
X155991227Y-48504782D01*
X155831452Y-48473000D01*
X155668548Y-48473000D01*
X155508773Y-48504782D01*
X155358269Y-48567123D01*
X155222819Y-48657628D01*
X155107628Y-48772819D01*
X155017123Y-48908269D01*
X154954782Y-49058773D01*
X154923000Y-49218548D01*
X141727000Y-49218548D01*
X141727000Y-48714237D01*
X141724560Y-48689461D01*
X141717333Y-48665636D01*
X141705597Y-48643680D01*
X141689803Y-48624434D01*
X141670557Y-48608640D01*
X141648601Y-48596904D01*
X141624776Y-48589677D01*
X141600000Y-48587237D01*
X140700000Y-48587237D01*
X140675224Y-48589677D01*
X140651399Y-48596904D01*
X140629443Y-48608640D01*
X140610197Y-48624434D01*
X140594403Y-48643680D01*
X140582667Y-48665636D01*
X140575440Y-48689461D01*
X140573000Y-48714237D01*
X139824282Y-48714237D01*
X139817333Y-48691331D01*
X139805597Y-48669375D01*
X139789803Y-48650129D01*
X139770557Y-48634335D01*
X139748601Y-48622599D01*
X139724776Y-48615372D01*
X139700000Y-48612932D01*
X138800000Y-48612932D01*
X138775224Y-48615372D01*
X138751399Y-48622599D01*
X138729443Y-48634335D01*
X138710197Y-48650129D01*
X138694403Y-48669375D01*
X138682667Y-48691331D01*
X138675440Y-48715156D01*
X138673000Y-48739932D01*
X130127000Y-48739932D01*
X130127000Y-46140764D01*
X140573000Y-46140764D01*
X140573000Y-47540764D01*
X140575440Y-47565540D01*
X140582667Y-47589365D01*
X140594403Y-47611321D01*
X140610197Y-47630567D01*
X140629443Y-47646361D01*
X140651399Y-47658097D01*
X140675224Y-47665324D01*
X140700000Y-47667764D01*
X141600000Y-47667764D01*
X141624776Y-47665324D01*
X141648601Y-47658097D01*
X141670557Y-47646361D01*
X141689803Y-47630567D01*
X141705597Y-47611321D01*
X141717333Y-47589365D01*
X141724560Y-47565540D01*
X141727000Y-47540764D01*
X141727000Y-46140764D01*
X141724560Y-46115988D01*
X141717333Y-46092163D01*
X141705597Y-46070207D01*
X141689803Y-46050961D01*
X141670557Y-46035167D01*
X141648601Y-46023431D01*
X141632504Y-46018548D01*
X152473000Y-46018548D01*
X152473000Y-46181452D01*
X152504782Y-46341227D01*
X152567123Y-46491731D01*
X152657628Y-46627181D01*
X152772819Y-46742372D01*
X152908269Y-46832877D01*
X153058773Y-46895218D01*
X153218548Y-46927000D01*
X153381452Y-46927000D01*
X153541227Y-46895218D01*
X153691731Y-46832877D01*
X153827181Y-46742372D01*
X153942372Y-46627181D01*
X154027351Y-46500000D01*
X154923000Y-46500000D01*
X154923000Y-47300000D01*
X154925440Y-47324776D01*
X154932667Y-47348601D01*
X154944403Y-47370557D01*
X154960197Y-47389803D01*
X154979443Y-47405597D01*
X155001399Y-47417333D01*
X155025224Y-47424560D01*
X155050000Y-47427000D01*
X156123000Y-47427000D01*
X156123000Y-48100000D01*
X156125440Y-48124776D01*
X156132667Y-48148601D01*
X156144403Y-48170557D01*
X156160197Y-48189803D01*
X156179443Y-48205597D01*
X156201399Y-48217333D01*
X156225224Y-48224560D01*
X156250000Y-48227000D01*
X157350000Y-48227000D01*
X157374776Y-48224560D01*
X157398601Y-48217333D01*
X157420557Y-48205597D01*
X157439803Y-48189803D01*
X157455597Y-48170557D01*
X157467333Y-48148601D01*
X157474560Y-48124776D01*
X157477000Y-48100000D01*
X157477000Y-47100000D01*
X157474560Y-47075224D01*
X157467333Y-47051399D01*
X157455597Y-47029443D01*
X157439803Y-47010197D01*
X157420557Y-46994403D01*
X157398601Y-46982667D01*
X157374776Y-46975440D01*
X157350000Y-46973000D01*
X156477000Y-46973000D01*
X156477000Y-46800000D01*
X156474560Y-46775224D01*
X156467333Y-46751399D01*
X156455597Y-46729443D01*
X156439803Y-46710197D01*
X156420557Y-46694403D01*
X156398601Y-46682667D01*
X156374776Y-46675440D01*
X156350000Y-46673000D01*
X156177000Y-46673000D01*
X156177000Y-46500000D01*
X156174560Y-46475224D01*
X156167333Y-46451399D01*
X156155597Y-46429443D01*
X156139803Y-46410197D01*
X156120557Y-46394403D01*
X156098601Y-46382667D01*
X156074776Y-46375440D01*
X156050000Y-46373000D01*
X155050000Y-46373000D01*
X155025224Y-46375440D01*
X155001399Y-46382667D01*
X154979443Y-46394403D01*
X154960197Y-46410197D01*
X154944403Y-46429443D01*
X154932667Y-46451399D01*
X154925440Y-46475224D01*
X154923000Y-46500000D01*
X154027351Y-46500000D01*
X154032877Y-46491731D01*
X154095218Y-46341227D01*
X154127000Y-46181452D01*
X154127000Y-46018548D01*
X154095218Y-45858773D01*
X154032877Y-45708269D01*
X153942372Y-45572819D01*
X153827181Y-45457628D01*
X153691731Y-45367123D01*
X153675393Y-45360355D01*
X153741731Y-45332877D01*
X153877181Y-45242372D01*
X153992372Y-45127181D01*
X154082877Y-44991731D01*
X154145218Y-44841227D01*
X154177000Y-44681452D01*
X154177000Y-44518548D01*
X154173311Y-44500000D01*
X154923000Y-44500000D01*
X154923000Y-44950000D01*
X154925440Y-44974776D01*
X154932667Y-44998601D01*
X154944403Y-45020557D01*
X154960197Y-45039803D01*
X154979443Y-45055597D01*
X155001399Y-45067333D01*
X155025224Y-45074560D01*
X155050000Y-45077000D01*
X156100000Y-45077000D01*
X156124776Y-45074560D01*
X156148601Y-45067333D01*
X156170557Y-45055597D01*
X156189803Y-45039803D01*
X156205597Y-45020557D01*
X156217333Y-44998601D01*
X156224560Y-44974776D01*
X156227000Y-44950000D01*
X156227000Y-44500000D01*
X156224560Y-44475224D01*
X156217333Y-44451399D01*
X156205597Y-44429443D01*
X156189803Y-44410197D01*
X156170557Y-44394403D01*
X156148601Y-44382667D01*
X156124776Y-44375440D01*
X156100000Y-44373000D01*
X155050000Y-44373000D01*
X155025224Y-44375440D01*
X155001399Y-44382667D01*
X154979443Y-44394403D01*
X154960197Y-44410197D01*
X154944403Y-44429443D01*
X154932667Y-44451399D01*
X154925440Y-44475224D01*
X154923000Y-44500000D01*
X154173311Y-44500000D01*
X154145218Y-44358773D01*
X154082877Y-44208269D01*
X153992372Y-44072819D01*
X153877181Y-43957628D01*
X153741731Y-43867123D01*
X153591227Y-43804782D01*
X153431452Y-43773000D01*
X153268548Y-43773000D01*
X153108773Y-43804782D01*
X152958269Y-43867123D01*
X152822819Y-43957628D01*
X152707628Y-44072819D01*
X152617123Y-44208269D01*
X152554782Y-44358773D01*
X152523000Y-44518548D01*
X152523000Y-44681452D01*
X152554782Y-44841227D01*
X152617123Y-44991731D01*
X152707628Y-45127181D01*
X152822819Y-45242372D01*
X152958269Y-45332877D01*
X152974607Y-45339645D01*
X152908269Y-45367123D01*
X152772819Y-45457628D01*
X152657628Y-45572819D01*
X152567123Y-45708269D01*
X152504782Y-45858773D01*
X152473000Y-46018548D01*
X141632504Y-46018548D01*
X141624776Y-46016204D01*
X141600000Y-46013764D01*
X140700000Y-46013764D01*
X140675224Y-46016204D01*
X140651399Y-46023431D01*
X140629443Y-46035167D01*
X140610197Y-46050961D01*
X140594403Y-46070207D01*
X140582667Y-46092163D01*
X140575440Y-46115988D01*
X140573000Y-46140764D01*
X130127000Y-46140764D01*
X130127000Y-44368548D01*
X137773000Y-44368548D01*
X137773000Y-44531452D01*
X137804782Y-44691227D01*
X137867123Y-44841731D01*
X137957628Y-44977181D01*
X138072819Y-45092372D01*
X138208269Y-45182877D01*
X138358773Y-45245218D01*
X138518548Y-45277000D01*
X138681452Y-45277000D01*
X138841227Y-45245218D01*
X138991731Y-45182877D01*
X139127181Y-45092372D01*
X139225000Y-44994553D01*
X139272819Y-45042372D01*
X139408269Y-45132877D01*
X139558773Y-45195218D01*
X139718548Y-45227000D01*
X139881452Y-45227000D01*
X140041227Y-45195218D01*
X140191731Y-45132877D01*
X140327181Y-45042372D01*
X140442372Y-44927181D01*
X140532877Y-44791731D01*
X140595218Y-44641227D01*
X140627000Y-44481452D01*
X140627000Y-44318548D01*
X140595218Y-44158773D01*
X140532877Y-44008269D01*
X140442372Y-43872819D01*
X140327181Y-43757628D01*
X140191731Y-43667123D01*
X140041227Y-43604782D01*
X139881452Y-43573000D01*
X139718548Y-43573000D01*
X139558773Y-43604782D01*
X139408269Y-43667123D01*
X139272819Y-43757628D01*
X139175000Y-43855447D01*
X139127181Y-43807628D01*
X138991731Y-43717123D01*
X138841227Y-43654782D01*
X138681452Y-43623000D01*
X138518548Y-43623000D01*
X138358773Y-43654782D01*
X138208269Y-43717123D01*
X138072819Y-43807628D01*
X137957628Y-43922819D01*
X137867123Y-44058269D01*
X137804782Y-44208773D01*
X137773000Y-44368548D01*
X130127000Y-44368548D01*
X130127000Y-42218548D01*
X141123000Y-42218548D01*
X141123000Y-42381452D01*
X141154782Y-42541227D01*
X141217123Y-42691731D01*
X141307628Y-42827181D01*
X141422819Y-42942372D01*
X141558269Y-43032877D01*
X141708773Y-43095218D01*
X141868548Y-43127000D01*
X142031452Y-43127000D01*
X142191227Y-43095218D01*
X142341731Y-43032877D01*
X142477181Y-42942372D01*
X142501005Y-42918548D01*
X149773000Y-42918548D01*
X149773000Y-43081452D01*
X149804782Y-43241227D01*
X149867123Y-43391731D01*
X149957628Y-43527181D01*
X150072819Y-43642372D01*
X150208269Y-43732877D01*
X150358773Y-43795218D01*
X150518548Y-43827000D01*
X150681452Y-43827000D01*
X150841227Y-43795218D01*
X150991731Y-43732877D01*
X151127181Y-43642372D01*
X151242372Y-43527181D01*
X151332877Y-43391731D01*
X151370873Y-43300000D01*
X157423000Y-43300000D01*
X157423000Y-44400000D01*
X157425440Y-44424776D01*
X157432667Y-44448601D01*
X157444403Y-44470557D01*
X157460197Y-44489803D01*
X157479443Y-44505597D01*
X157501399Y-44517333D01*
X157525224Y-44524560D01*
X157550000Y-44527000D01*
X158426115Y-44527000D01*
X158432667Y-44548601D01*
X158444403Y-44570557D01*
X158460197Y-44589803D01*
X158479443Y-44605597D01*
X158501399Y-44617333D01*
X158525224Y-44624560D01*
X158525421Y-44624579D01*
X158525440Y-44624776D01*
X158532667Y-44648601D01*
X158544403Y-44670557D01*
X158560197Y-44689803D01*
X158579443Y-44705597D01*
X158601399Y-44717333D01*
X158625224Y-44724560D01*
X158650000Y-44727000D01*
X158723000Y-44727000D01*
X158723000Y-44900000D01*
X158725440Y-44924776D01*
X158732667Y-44948601D01*
X158744403Y-44970557D01*
X158760197Y-44989803D01*
X158779443Y-45005597D01*
X158801399Y-45017333D01*
X158825224Y-45024560D01*
X158850000Y-45027000D01*
X159799271Y-45027000D01*
X159778621Y-45130813D01*
X159778621Y-45293717D01*
X159810403Y-45453492D01*
X159872744Y-45603996D01*
X159963249Y-45739446D01*
X160078440Y-45854637D01*
X160213890Y-45945142D01*
X160364394Y-46007483D01*
X160524169Y-46039265D01*
X160687073Y-46039265D01*
X160717240Y-46033264D01*
X160667123Y-46108269D01*
X160604782Y-46258773D01*
X160601172Y-46276923D01*
X160581452Y-46273000D01*
X160418548Y-46273000D01*
X160258773Y-46304782D01*
X160108269Y-46367123D01*
X159977000Y-46454834D01*
X159977000Y-46450000D01*
X159974560Y-46425224D01*
X159967333Y-46401399D01*
X159955597Y-46379443D01*
X159939803Y-46360197D01*
X159920557Y-46344403D01*
X159898601Y-46332667D01*
X159874776Y-46325440D01*
X159850000Y-46323000D01*
X158800000Y-46323000D01*
X158775224Y-46325440D01*
X158751399Y-46332667D01*
X158729443Y-46344403D01*
X158710197Y-46360197D01*
X158694403Y-46379443D01*
X158682667Y-46401399D01*
X158675440Y-46425224D01*
X158673000Y-46450000D01*
X158673000Y-46900000D01*
X158675440Y-46924776D01*
X158682667Y-46948601D01*
X158694403Y-46970557D01*
X158710197Y-46989803D01*
X158729443Y-47005597D01*
X158751399Y-47017333D01*
X158775224Y-47024560D01*
X158800000Y-47027000D01*
X159673000Y-47027000D01*
X159673000Y-47181452D01*
X159704782Y-47341227D01*
X159760371Y-47475430D01*
X159729231Y-47454623D01*
X159578727Y-47392282D01*
X159418952Y-47360500D01*
X159256048Y-47360500D01*
X159096273Y-47392282D01*
X158945769Y-47454623D01*
X158810319Y-47545128D01*
X158695128Y-47660319D01*
X158604623Y-47795769D01*
X158542282Y-47946273D01*
X158510500Y-48106048D01*
X158510500Y-48268952D01*
X158542282Y-48428727D01*
X158604623Y-48579231D01*
X158695128Y-48714681D01*
X158810319Y-48829872D01*
X158945769Y-48920377D01*
X159096273Y-48982718D01*
X159256048Y-49014500D01*
X159418952Y-49014500D01*
X159578727Y-48982718D01*
X159729231Y-48920377D01*
X159864681Y-48829872D01*
X159979872Y-48714681D01*
X160070377Y-48579231D01*
X160132718Y-48428727D01*
X160164500Y-48268952D01*
X160164500Y-48106048D01*
X160132718Y-47946273D01*
X160077129Y-47812070D01*
X160108269Y-47832877D01*
X160258773Y-47895218D01*
X160418548Y-47927000D01*
X160581452Y-47927000D01*
X160741227Y-47895218D01*
X160891731Y-47832877D01*
X161027181Y-47742372D01*
X161142372Y-47627181D01*
X161232877Y-47491731D01*
X161295218Y-47341227D01*
X161298828Y-47323077D01*
X161318548Y-47327000D01*
X161481452Y-47327000D01*
X161641227Y-47295218D01*
X161791731Y-47232877D01*
X161927181Y-47142372D01*
X162042372Y-47027181D01*
X162132877Y-46891731D01*
X162195218Y-46741227D01*
X162227000Y-46581452D01*
X162227000Y-46418548D01*
X162195218Y-46258773D01*
X162132877Y-46108269D01*
X162042372Y-45972819D01*
X161927181Y-45857628D01*
X161791731Y-45767123D01*
X161767756Y-45757192D01*
X161902181Y-45667372D01*
X162017372Y-45552181D01*
X162107877Y-45416731D01*
X162170218Y-45266227D01*
X162202000Y-45106452D01*
X162202000Y-44943548D01*
X162170218Y-44783773D01*
X162107877Y-44633269D01*
X162017372Y-44497819D01*
X161902181Y-44382628D01*
X161766731Y-44292123D01*
X161616227Y-44229782D01*
X161456452Y-44198000D01*
X161293548Y-44198000D01*
X161133773Y-44229782D01*
X160983269Y-44292123D01*
X160847819Y-44382628D01*
X160818949Y-44411498D01*
X160687073Y-44385265D01*
X160524169Y-44385265D01*
X160364394Y-44417047D01*
X160213890Y-44479388D01*
X160078440Y-44569893D01*
X160027000Y-44621333D01*
X160027000Y-44400000D01*
X160024560Y-44375224D01*
X160017333Y-44351399D01*
X160005597Y-44329443D01*
X159989803Y-44310197D01*
X159970557Y-44294403D01*
X159948601Y-44282667D01*
X159924776Y-44275440D01*
X159900000Y-44273000D01*
X158777000Y-44273000D01*
X158777000Y-43300000D01*
X158774560Y-43275224D01*
X158767333Y-43251399D01*
X158755597Y-43229443D01*
X158739803Y-43210197D01*
X158720557Y-43194403D01*
X158698601Y-43182667D01*
X158674776Y-43175440D01*
X158650000Y-43173000D01*
X157550000Y-43173000D01*
X157525224Y-43175440D01*
X157501399Y-43182667D01*
X157479443Y-43194403D01*
X157460197Y-43210197D01*
X157444403Y-43229443D01*
X157432667Y-43251399D01*
X157425440Y-43275224D01*
X157423000Y-43300000D01*
X151370873Y-43300000D01*
X151395218Y-43241227D01*
X151427000Y-43081452D01*
X151427000Y-42918548D01*
X151395218Y-42758773D01*
X151332877Y-42608269D01*
X151242372Y-42472819D01*
X151127181Y-42357628D01*
X150991731Y-42267123D01*
X150841227Y-42204782D01*
X150681452Y-42173000D01*
X150518548Y-42173000D01*
X150358773Y-42204782D01*
X150208269Y-42267123D01*
X150072819Y-42357628D01*
X149957628Y-42472819D01*
X149867123Y-42608269D01*
X149804782Y-42758773D01*
X149773000Y-42918548D01*
X142501005Y-42918548D01*
X142592372Y-42827181D01*
X142682877Y-42691731D01*
X142745218Y-42541227D01*
X142777000Y-42381452D01*
X142777000Y-42218548D01*
X142745218Y-42058773D01*
X142682877Y-41908269D01*
X142592372Y-41772819D01*
X142477181Y-41657628D01*
X142341731Y-41567123D01*
X142191227Y-41504782D01*
X142031452Y-41473000D01*
X141868548Y-41473000D01*
X141708773Y-41504782D01*
X141558269Y-41567123D01*
X141422819Y-41657628D01*
X141307628Y-41772819D01*
X141217123Y-41908269D01*
X141154782Y-42058773D01*
X141123000Y-42218548D01*
X130127000Y-42218548D01*
X130127000Y-40883391D01*
X133049136Y-40883391D01*
X133162051Y-41115051D01*
X133428054Y-41265732D01*
X133718344Y-41361624D01*
X134021762Y-41399040D01*
X134326651Y-41376544D01*
X134621292Y-41294999D01*
X134894363Y-41157539D01*
X134957949Y-41115051D01*
X135070864Y-40883391D01*
X138129136Y-40883391D01*
X138242051Y-41115051D01*
X138508054Y-41265732D01*
X138798344Y-41361624D01*
X139101762Y-41399040D01*
X139406651Y-41376544D01*
X139701292Y-41294999D01*
X139974363Y-41157539D01*
X140037949Y-41115051D01*
X140150864Y-40883391D01*
X139140000Y-39872527D01*
X138129136Y-40883391D01*
X135070864Y-40883391D01*
X134060000Y-39872527D01*
X133049136Y-40883391D01*
X130127000Y-40883391D01*
X130127000Y-39801762D01*
X132500960Y-39801762D01*
X132523456Y-40106651D01*
X132605001Y-40401292D01*
X132742461Y-40674363D01*
X132784949Y-40737949D01*
X133016609Y-40850864D01*
X134027473Y-39840000D01*
X134092527Y-39840000D01*
X135103391Y-40850864D01*
X135335051Y-40737949D01*
X135485732Y-40471946D01*
X135581624Y-40181656D01*
X135619040Y-39878238D01*
X135613398Y-39801762D01*
X137580960Y-39801762D01*
X137603456Y-40106651D01*
X137685001Y-40401292D01*
X137822461Y-40674363D01*
X137864949Y-40737949D01*
X138096609Y-40850864D01*
X139107473Y-39840000D01*
X139172527Y-39840000D01*
X140183391Y-40850864D01*
X140415051Y-40737949D01*
X140565732Y-40471946D01*
X140661624Y-40181656D01*
X140699040Y-39878238D01*
X140692792Y-39793548D01*
X148948000Y-39793548D01*
X148948000Y-39956452D01*
X148979782Y-40116227D01*
X149042123Y-40266731D01*
X149132628Y-40402181D01*
X149247819Y-40517372D01*
X149383269Y-40607877D01*
X149533773Y-40670218D01*
X149693548Y-40702000D01*
X149856452Y-40702000D01*
X150016227Y-40670218D01*
X150020258Y-40668548D01*
X155523000Y-40668548D01*
X155523000Y-40831452D01*
X155554782Y-40991227D01*
X155617123Y-41141731D01*
X155707628Y-41277181D01*
X155822819Y-41392372D01*
X155958269Y-41482877D01*
X156108773Y-41545218D01*
X156268548Y-41577000D01*
X156288654Y-41577000D01*
X156254782Y-41658773D01*
X156223000Y-41818548D01*
X156223000Y-41981452D01*
X156254782Y-42141227D01*
X156317123Y-42291731D01*
X156407628Y-42427181D01*
X156522819Y-42542372D01*
X156658269Y-42632877D01*
X156808773Y-42695218D01*
X156968548Y-42727000D01*
X157131452Y-42727000D01*
X157291227Y-42695218D01*
X157441731Y-42632877D01*
X157577181Y-42542372D01*
X157692372Y-42427181D01*
X157782877Y-42291731D01*
X157845218Y-42141227D01*
X157869620Y-42018548D01*
X159423000Y-42018548D01*
X159423000Y-42181452D01*
X159454782Y-42341227D01*
X159517123Y-42491731D01*
X159607628Y-42627181D01*
X159722819Y-42742372D01*
X159858269Y-42832877D01*
X160008773Y-42895218D01*
X160168548Y-42927000D01*
X160331452Y-42927000D01*
X160491227Y-42895218D01*
X160641731Y-42832877D01*
X160777181Y-42742372D01*
X160892372Y-42627181D01*
X160982877Y-42491731D01*
X161045218Y-42341227D01*
X161077000Y-42181452D01*
X161077000Y-42018548D01*
X161045218Y-41858773D01*
X160982877Y-41708269D01*
X160892372Y-41572819D01*
X160777181Y-41457628D01*
X160641731Y-41367123D01*
X160491227Y-41304782D01*
X160331452Y-41273000D01*
X160168548Y-41273000D01*
X160008773Y-41304782D01*
X159858269Y-41367123D01*
X159722819Y-41457628D01*
X159607628Y-41572819D01*
X159517123Y-41708269D01*
X159454782Y-41858773D01*
X159423000Y-42018548D01*
X157869620Y-42018548D01*
X157877000Y-41981452D01*
X157877000Y-41818548D01*
X157845218Y-41658773D01*
X157782877Y-41508269D01*
X157692372Y-41372819D01*
X157577181Y-41257628D01*
X157441731Y-41167123D01*
X157291227Y-41104782D01*
X157131452Y-41073000D01*
X157111346Y-41073000D01*
X157145218Y-40991227D01*
X157177000Y-40831452D01*
X157177000Y-40668548D01*
X157145218Y-40508773D01*
X157082877Y-40358269D01*
X156992372Y-40222819D01*
X156877181Y-40107628D01*
X156741731Y-40017123D01*
X156591227Y-39954782D01*
X156431452Y-39923000D01*
X156268548Y-39923000D01*
X156108773Y-39954782D01*
X155958269Y-40017123D01*
X155822819Y-40107628D01*
X155707628Y-40222819D01*
X155617123Y-40358269D01*
X155554782Y-40508773D01*
X155523000Y-40668548D01*
X150020258Y-40668548D01*
X150166731Y-40607877D01*
X150302181Y-40517372D01*
X150417372Y-40402181D01*
X150507877Y-40266731D01*
X150570218Y-40116227D01*
X150602000Y-39956452D01*
X150602000Y-39793548D01*
X150570218Y-39633773D01*
X150507877Y-39483269D01*
X150417372Y-39347819D01*
X150302181Y-39232628D01*
X150166731Y-39142123D01*
X150016227Y-39079782D01*
X149856452Y-39048000D01*
X149693548Y-39048000D01*
X149533773Y-39079782D01*
X149383269Y-39142123D01*
X149247819Y-39232628D01*
X149132628Y-39347819D01*
X149042123Y-39483269D01*
X148979782Y-39633773D01*
X148948000Y-39793548D01*
X140692792Y-39793548D01*
X140676544Y-39573349D01*
X140594999Y-39278708D01*
X140457539Y-39005637D01*
X140415051Y-38942051D01*
X140183391Y-38829136D01*
X139172527Y-39840000D01*
X139107473Y-39840000D01*
X138096609Y-38829136D01*
X137864949Y-38942051D01*
X137714268Y-39208054D01*
X137618376Y-39498344D01*
X137580960Y-39801762D01*
X135613398Y-39801762D01*
X135596544Y-39573349D01*
X135514999Y-39278708D01*
X135377539Y-39005637D01*
X135335051Y-38942051D01*
X135103391Y-38829136D01*
X134092527Y-39840000D01*
X134027473Y-39840000D01*
X133016609Y-38829136D01*
X132784949Y-38942051D01*
X132634268Y-39208054D01*
X132538376Y-39498344D01*
X132500960Y-39801762D01*
X130127000Y-39801762D01*
X130127000Y-38796609D01*
X133049136Y-38796609D01*
X134060000Y-39807473D01*
X135070864Y-38796609D01*
X138129136Y-38796609D01*
X139140000Y-39807473D01*
X140150864Y-38796609D01*
X140037949Y-38564949D01*
X139771946Y-38414268D01*
X139481656Y-38318376D01*
X139178238Y-38280960D01*
X138873349Y-38303456D01*
X138578708Y-38385001D01*
X138305637Y-38522461D01*
X138242051Y-38564949D01*
X138129136Y-38796609D01*
X135070864Y-38796609D01*
X134957949Y-38564949D01*
X134691946Y-38414268D01*
X134401656Y-38318376D01*
X134098238Y-38280960D01*
X133793349Y-38303456D01*
X133498708Y-38385001D01*
X133225637Y-38522461D01*
X133162051Y-38564949D01*
X133049136Y-38796609D01*
X130127000Y-38796609D01*
X130127000Y-37156990D01*
X135148000Y-37156990D01*
X135148000Y-37443010D01*
X135203799Y-37723533D01*
X135313254Y-37987780D01*
X135472158Y-38225596D01*
X135674404Y-38427842D01*
X135912220Y-38586746D01*
X136176467Y-38696201D01*
X136456990Y-38752000D01*
X136743010Y-38752000D01*
X137023533Y-38696201D01*
X137287780Y-38586746D01*
X137525596Y-38427842D01*
X137727842Y-38225596D01*
X137886746Y-37987780D01*
X137996201Y-37723533D01*
X138052000Y-37443010D01*
X138052000Y-37156990D01*
X138024463Y-37018548D01*
X151123000Y-37018548D01*
X151123000Y-37181452D01*
X151154782Y-37341227D01*
X151217123Y-37491731D01*
X151307628Y-37627181D01*
X151422819Y-37742372D01*
X151558269Y-37832877D01*
X151708773Y-37895218D01*
X151868548Y-37927000D01*
X152031452Y-37927000D01*
X152191227Y-37895218D01*
X152341731Y-37832877D01*
X152477181Y-37742372D01*
X152592372Y-37627181D01*
X152682877Y-37491731D01*
X152745218Y-37341227D01*
X152777000Y-37181452D01*
X152777000Y-37018548D01*
X152747163Y-36868548D01*
X154173000Y-36868548D01*
X154173000Y-37031452D01*
X154204782Y-37191227D01*
X154267123Y-37341731D01*
X154357628Y-37477181D01*
X154472819Y-37592372D01*
X154608269Y-37682877D01*
X154758773Y-37745218D01*
X154918548Y-37777000D01*
X155081452Y-37777000D01*
X155241227Y-37745218D01*
X155391731Y-37682877D01*
X155527181Y-37592372D01*
X155642372Y-37477181D01*
X155732877Y-37341731D01*
X155795218Y-37191227D01*
X155827000Y-37031452D01*
X155827000Y-36868548D01*
X155795218Y-36708773D01*
X155732877Y-36558269D01*
X155642372Y-36422819D01*
X155527181Y-36307628D01*
X155391731Y-36217123D01*
X155241227Y-36154782D01*
X155081452Y-36123000D01*
X154918548Y-36123000D01*
X154758773Y-36154782D01*
X154608269Y-36217123D01*
X154472819Y-36307628D01*
X154357628Y-36422819D01*
X154267123Y-36558269D01*
X154204782Y-36708773D01*
X154173000Y-36868548D01*
X152747163Y-36868548D01*
X152745218Y-36858773D01*
X152682877Y-36708269D01*
X152592372Y-36572819D01*
X152477181Y-36457628D01*
X152341731Y-36367123D01*
X152191227Y-36304782D01*
X152031452Y-36273000D01*
X151868548Y-36273000D01*
X151708773Y-36304782D01*
X151558269Y-36367123D01*
X151422819Y-36457628D01*
X151307628Y-36572819D01*
X151217123Y-36708269D01*
X151154782Y-36858773D01*
X151123000Y-37018548D01*
X138024463Y-37018548D01*
X137996201Y-36876467D01*
X137886746Y-36612220D01*
X137727842Y-36374404D01*
X137525596Y-36172158D01*
X137287780Y-36013254D01*
X137023533Y-35903799D01*
X136743010Y-35848000D01*
X136456990Y-35848000D01*
X136176467Y-35903799D01*
X135912220Y-36013254D01*
X135674404Y-36172158D01*
X135472158Y-36374404D01*
X135313254Y-36612220D01*
X135203799Y-36876467D01*
X135148000Y-37156990D01*
X130127000Y-37156990D01*
X130127000Y-35803391D01*
X133049136Y-35803391D01*
X133162051Y-36035051D01*
X133428054Y-36185732D01*
X133718344Y-36281624D01*
X134021762Y-36319040D01*
X134326651Y-36296544D01*
X134621292Y-36214999D01*
X134894363Y-36077539D01*
X134957949Y-36035051D01*
X135070864Y-35803391D01*
X138129136Y-35803391D01*
X138242051Y-36035051D01*
X138508054Y-36185732D01*
X138798344Y-36281624D01*
X139101762Y-36319040D01*
X139406651Y-36296544D01*
X139701292Y-36214999D01*
X139974363Y-36077539D01*
X140037949Y-36035051D01*
X140150864Y-35803391D01*
X139140000Y-34792527D01*
X138129136Y-35803391D01*
X135070864Y-35803391D01*
X134060000Y-34792527D01*
X133049136Y-35803391D01*
X130127000Y-35803391D01*
X130127000Y-34721762D01*
X132500960Y-34721762D01*
X132523456Y-35026651D01*
X132605001Y-35321292D01*
X132742461Y-35594363D01*
X132784949Y-35657949D01*
X133016609Y-35770864D01*
X134027473Y-34760000D01*
X134092527Y-34760000D01*
X135103391Y-35770864D01*
X135335051Y-35657949D01*
X135485732Y-35391946D01*
X135581624Y-35101656D01*
X135619040Y-34798238D01*
X135613398Y-34721762D01*
X137580960Y-34721762D01*
X137603456Y-35026651D01*
X137685001Y-35321292D01*
X137822461Y-35594363D01*
X137864949Y-35657949D01*
X138096609Y-35770864D01*
X139107473Y-34760000D01*
X139172527Y-34760000D01*
X140183391Y-35770864D01*
X140415051Y-35657949D01*
X140565732Y-35391946D01*
X140661624Y-35101656D01*
X140699040Y-34798238D01*
X140676544Y-34493349D01*
X140594999Y-34198708D01*
X140457539Y-33925637D01*
X140415051Y-33862051D01*
X140183391Y-33749136D01*
X139172527Y-34760000D01*
X139107473Y-34760000D01*
X138096609Y-33749136D01*
X137864949Y-33862051D01*
X137714268Y-34128054D01*
X137618376Y-34418344D01*
X137580960Y-34721762D01*
X135613398Y-34721762D01*
X135596544Y-34493349D01*
X135514999Y-34198708D01*
X135377539Y-33925637D01*
X135335051Y-33862051D01*
X135103391Y-33749136D01*
X134092527Y-34760000D01*
X134027473Y-34760000D01*
X133016609Y-33749136D01*
X132784949Y-33862051D01*
X132634268Y-34128054D01*
X132538376Y-34418344D01*
X132500960Y-34721762D01*
X130127000Y-34721762D01*
X130127000Y-33716609D01*
X133049136Y-33716609D01*
X134060000Y-34727473D01*
X135070864Y-33716609D01*
X138129136Y-33716609D01*
X139140000Y-34727473D01*
X140150864Y-33716609D01*
X140037949Y-33484949D01*
X139771946Y-33334268D01*
X139481656Y-33238376D01*
X139178238Y-33200960D01*
X138873349Y-33223456D01*
X138578708Y-33305001D01*
X138305637Y-33442461D01*
X138242051Y-33484949D01*
X138129136Y-33716609D01*
X135070864Y-33716609D01*
X134957949Y-33484949D01*
X134691946Y-33334268D01*
X134401656Y-33238376D01*
X134098238Y-33200960D01*
X133793349Y-33223456D01*
X133498708Y-33305001D01*
X133225637Y-33442461D01*
X133162051Y-33484949D01*
X133049136Y-33716609D01*
X130127000Y-33716609D01*
X130127000Y-31852000D01*
X167873000Y-31852000D01*
X167873000Y-39673000D01*
X164400000Y-39673000D01*
X164375224Y-39675440D01*
X164351399Y-39682667D01*
X164329443Y-39694403D01*
X164310197Y-39710197D01*
X164294403Y-39729443D01*
X164282667Y-39751399D01*
X164275440Y-39775224D01*
X164273000Y-39800000D01*
X164273000Y-51500000D01*
X164275440Y-51524776D01*
X164282667Y-51548601D01*
X164294403Y-51570557D01*
X164310197Y-51589803D01*
X164329443Y-51605597D01*
X164351399Y-51617333D01*
X164375224Y-51624560D01*
X164400000Y-51627000D01*
X167873000Y-51627000D01*
X167873000Y-59548000D01*
X80452000Y-59548000D01*
X80452000Y-49300000D01*
X80815612Y-49300000D01*
X80845095Y-49599344D01*
X80932410Y-49887185D01*
X81074203Y-50152460D01*
X81265024Y-50384976D01*
X81364050Y-50466244D01*
X81353595Y-50485804D01*
X81329178Y-50566293D01*
X81320934Y-50650000D01*
X81320934Y-52150000D01*
X81329178Y-52233707D01*
X81353595Y-52314196D01*
X81393245Y-52388376D01*
X81446605Y-52453395D01*
X81511624Y-52506755D01*
X81585804Y-52546405D01*
X81659550Y-52568777D01*
X81516626Y-52742930D01*
X81407333Y-52947403D01*
X81340031Y-53169268D01*
X81317306Y-53400000D01*
X81340031Y-53630732D01*
X81407333Y-53852597D01*
X81516626Y-54057070D01*
X81663709Y-54236291D01*
X81842930Y-54383374D01*
X81874035Y-54400000D01*
X81842930Y-54416626D01*
X81663709Y-54563709D01*
X81516626Y-54742930D01*
X81407333Y-54947403D01*
X81340031Y-55169268D01*
X81317306Y-55400000D01*
X81340031Y-55630732D01*
X81407333Y-55852597D01*
X81516626Y-56057070D01*
X81606147Y-56166151D01*
X81497540Y-56224203D01*
X81265024Y-56415024D01*
X81074203Y-56647540D01*
X80932410Y-56912815D01*
X80845095Y-57200656D01*
X80815612Y-57500000D01*
X80845095Y-57799344D01*
X80932410Y-58087185D01*
X81074203Y-58352460D01*
X81265024Y-58584976D01*
X81497540Y-58775797D01*
X81762815Y-58917590D01*
X82050656Y-59004905D01*
X82274989Y-59027000D01*
X83725011Y-59027000D01*
X83949344Y-59004905D01*
X84237185Y-58917590D01*
X84502460Y-58775797D01*
X84734976Y-58584976D01*
X84925797Y-58352460D01*
X85067590Y-58087185D01*
X85154905Y-57799344D01*
X85184388Y-57500000D01*
X85154905Y-57200656D01*
X85067590Y-56912815D01*
X84925797Y-56647540D01*
X84734976Y-56415024D01*
X84703266Y-56389000D01*
X107423000Y-56389000D01*
X107423000Y-56611000D01*
X107466310Y-56828734D01*
X107551266Y-57033835D01*
X107674602Y-57218421D01*
X107831579Y-57375398D01*
X108016165Y-57498734D01*
X108221266Y-57583690D01*
X108439000Y-57627000D01*
X108661000Y-57627000D01*
X108878734Y-57583690D01*
X109083835Y-57498734D01*
X109268421Y-57375398D01*
X109402456Y-57241363D01*
X110381164Y-57241363D01*
X110443105Y-57429504D01*
X110636873Y-57537847D01*
X110848054Y-57606305D01*
X111068532Y-57632249D01*
X111289835Y-57614682D01*
X111503459Y-57554278D01*
X111701195Y-57453358D01*
X111736895Y-57429504D01*
X111798836Y-57241363D01*
X111090000Y-56532527D01*
X110381164Y-57241363D01*
X109402456Y-57241363D01*
X109425398Y-57218421D01*
X109548734Y-57033835D01*
X109633690Y-56828734D01*
X109677000Y-56611000D01*
X109677000Y-56478532D01*
X109957751Y-56478532D01*
X109975318Y-56699835D01*
X110035722Y-56913459D01*
X110136642Y-57111195D01*
X110160496Y-57146895D01*
X110348637Y-57208836D01*
X111057473Y-56500000D01*
X111122527Y-56500000D01*
X111831363Y-57208836D01*
X112019504Y-57146895D01*
X112127847Y-56953127D01*
X112171473Y-56818548D01*
X113373000Y-56818548D01*
X113373000Y-56981452D01*
X113404782Y-57141227D01*
X113467123Y-57291731D01*
X113557628Y-57427181D01*
X113672819Y-57542372D01*
X113808269Y-57632877D01*
X113958773Y-57695218D01*
X114118548Y-57727000D01*
X114281452Y-57727000D01*
X114441227Y-57695218D01*
X114591731Y-57632877D01*
X114727181Y-57542372D01*
X114842372Y-57427181D01*
X114932877Y-57291731D01*
X114995218Y-57141227D01*
X115027000Y-56981452D01*
X115027000Y-56818548D01*
X114995218Y-56658773D01*
X114932877Y-56508269D01*
X114842372Y-56372819D01*
X114727181Y-56257628D01*
X114591731Y-56167123D01*
X114441227Y-56104782D01*
X114281452Y-56073000D01*
X114118548Y-56073000D01*
X113958773Y-56104782D01*
X113808269Y-56167123D01*
X113672819Y-56257628D01*
X113557628Y-56372819D01*
X113467123Y-56508269D01*
X113404782Y-56658773D01*
X113373000Y-56818548D01*
X112171473Y-56818548D01*
X112196305Y-56741946D01*
X112222249Y-56521468D01*
X112204682Y-56300165D01*
X112144278Y-56086541D01*
X112043358Y-55888805D01*
X112019504Y-55853105D01*
X111831363Y-55791164D01*
X111122527Y-56500000D01*
X111057473Y-56500000D01*
X110348637Y-55791164D01*
X110160496Y-55853105D01*
X110052153Y-56046873D01*
X109983695Y-56258054D01*
X109957751Y-56478532D01*
X109677000Y-56478532D01*
X109677000Y-56389000D01*
X109633690Y-56171266D01*
X109548734Y-55966165D01*
X109425398Y-55781579D01*
X109402456Y-55758637D01*
X110381164Y-55758637D01*
X111090000Y-56467473D01*
X111798836Y-55758637D01*
X111736895Y-55570496D01*
X111543127Y-55462153D01*
X111331946Y-55393695D01*
X111111468Y-55367751D01*
X110890165Y-55385318D01*
X110676541Y-55445722D01*
X110478805Y-55546642D01*
X110443105Y-55570496D01*
X110381164Y-55758637D01*
X109402456Y-55758637D01*
X109268421Y-55624602D01*
X109083835Y-55501266D01*
X108878734Y-55416310D01*
X108661000Y-55373000D01*
X108439000Y-55373000D01*
X108221266Y-55416310D01*
X108016165Y-55501266D01*
X107831579Y-55624602D01*
X107674602Y-55781579D01*
X107551266Y-55966165D01*
X107466310Y-56171266D01*
X107423000Y-56389000D01*
X84703266Y-56389000D01*
X84502460Y-56224203D01*
X84393853Y-56166151D01*
X84483374Y-56057070D01*
X84592667Y-55852597D01*
X84659969Y-55630732D01*
X84682694Y-55400000D01*
X84674672Y-55318548D01*
X101573000Y-55318548D01*
X101573000Y-55481452D01*
X101604782Y-55641227D01*
X101667123Y-55791731D01*
X101757628Y-55927181D01*
X101872819Y-56042372D01*
X102008269Y-56132877D01*
X102158773Y-56195218D01*
X102318548Y-56227000D01*
X102481452Y-56227000D01*
X102641227Y-56195218D01*
X102791731Y-56132877D01*
X102927181Y-56042372D01*
X103042372Y-55927181D01*
X103132877Y-55791731D01*
X103195218Y-55641227D01*
X103227000Y-55481452D01*
X103227000Y-55318548D01*
X103195218Y-55158773D01*
X103178557Y-55118548D01*
X117823000Y-55118548D01*
X117823000Y-55281452D01*
X117854782Y-55441227D01*
X117917123Y-55591731D01*
X118007628Y-55727181D01*
X118122819Y-55842372D01*
X118258269Y-55932877D01*
X118408773Y-55995218D01*
X118568548Y-56027000D01*
X118731452Y-56027000D01*
X118891227Y-55995218D01*
X119041731Y-55932877D01*
X119177181Y-55842372D01*
X119292372Y-55727181D01*
X119382877Y-55591731D01*
X119445218Y-55441227D01*
X119477000Y-55281452D01*
X119477000Y-55118548D01*
X119445218Y-54958773D01*
X119382877Y-54808269D01*
X119292372Y-54672819D01*
X119177181Y-54557628D01*
X119043864Y-54468548D01*
X145973000Y-54468548D01*
X145973000Y-54631452D01*
X146004782Y-54791227D01*
X146067123Y-54941731D01*
X146157628Y-55077181D01*
X146272819Y-55192372D01*
X146408269Y-55282877D01*
X146558773Y-55345218D01*
X146718548Y-55377000D01*
X146881452Y-55377000D01*
X147041227Y-55345218D01*
X147191731Y-55282877D01*
X147327181Y-55192372D01*
X147442372Y-55077181D01*
X147532877Y-54941731D01*
X147595218Y-54791227D01*
X147627000Y-54631452D01*
X147627000Y-54468548D01*
X147595218Y-54308773D01*
X147532877Y-54158269D01*
X147442372Y-54022819D01*
X147327181Y-53907628D01*
X147191731Y-53817123D01*
X147041227Y-53754782D01*
X146881452Y-53723000D01*
X146718548Y-53723000D01*
X146558773Y-53754782D01*
X146408269Y-53817123D01*
X146272819Y-53907628D01*
X146157628Y-54022819D01*
X146067123Y-54158269D01*
X146004782Y-54308773D01*
X145973000Y-54468548D01*
X119043864Y-54468548D01*
X119041731Y-54467123D01*
X118891227Y-54404782D01*
X118731452Y-54373000D01*
X118568548Y-54373000D01*
X118408773Y-54404782D01*
X118258269Y-54467123D01*
X118122819Y-54557628D01*
X118007628Y-54672819D01*
X117917123Y-54808269D01*
X117854782Y-54958773D01*
X117823000Y-55118548D01*
X103178557Y-55118548D01*
X103132877Y-55008269D01*
X103042372Y-54872819D01*
X102927181Y-54757628D01*
X102791731Y-54667123D01*
X102641227Y-54604782D01*
X102481452Y-54573000D01*
X102318548Y-54573000D01*
X102158773Y-54604782D01*
X102008269Y-54667123D01*
X101872819Y-54757628D01*
X101757628Y-54872819D01*
X101667123Y-55008269D01*
X101604782Y-55158773D01*
X101573000Y-55318548D01*
X84674672Y-55318548D01*
X84659969Y-55169268D01*
X84592667Y-54947403D01*
X84483374Y-54742930D01*
X84336291Y-54563709D01*
X84157070Y-54416626D01*
X84125965Y-54400000D01*
X84157070Y-54383374D01*
X84336291Y-54236291D01*
X84483374Y-54057070D01*
X84592667Y-53852597D01*
X84659969Y-53630732D01*
X84682694Y-53400000D01*
X84659969Y-53169268D01*
X84592667Y-52947403D01*
X84483374Y-52742930D01*
X84463365Y-52718548D01*
X88773000Y-52718548D01*
X88773000Y-52881452D01*
X88804782Y-53041227D01*
X88867123Y-53191731D01*
X88957628Y-53327181D01*
X89072819Y-53442372D01*
X89208269Y-53532877D01*
X89358773Y-53595218D01*
X89518548Y-53627000D01*
X89681452Y-53627000D01*
X89841227Y-53595218D01*
X89991731Y-53532877D01*
X90127181Y-53442372D01*
X90242372Y-53327181D01*
X90332877Y-53191731D01*
X90342479Y-53168548D01*
X107323000Y-53168548D01*
X107323000Y-53331452D01*
X107354782Y-53491227D01*
X107417123Y-53641731D01*
X107507628Y-53777181D01*
X107622819Y-53892372D01*
X107758269Y-53982877D01*
X107908773Y-54045218D01*
X108068548Y-54077000D01*
X108231452Y-54077000D01*
X108391227Y-54045218D01*
X108541731Y-53982877D01*
X108677181Y-53892372D01*
X108792372Y-53777181D01*
X108882877Y-53641731D01*
X108945218Y-53491227D01*
X108977000Y-53331452D01*
X108977000Y-53168548D01*
X108945218Y-53008773D01*
X108887135Y-52868548D01*
X116473000Y-52868548D01*
X116473000Y-53031452D01*
X116504782Y-53191227D01*
X116567123Y-53341731D01*
X116657628Y-53477181D01*
X116772819Y-53592372D01*
X116908269Y-53682877D01*
X116973000Y-53709690D01*
X116973000Y-53781452D01*
X117004782Y-53941227D01*
X117067123Y-54091731D01*
X117157628Y-54227181D01*
X117272819Y-54342372D01*
X117408269Y-54432877D01*
X117558773Y-54495218D01*
X117718548Y-54527000D01*
X117881452Y-54527000D01*
X118041227Y-54495218D01*
X118191731Y-54432877D01*
X118327181Y-54342372D01*
X118442372Y-54227181D01*
X118532877Y-54091731D01*
X118595218Y-53941227D01*
X118627000Y-53781452D01*
X118627000Y-53618548D01*
X118595218Y-53458773D01*
X118532877Y-53308269D01*
X118442372Y-53172819D01*
X118327181Y-53057628D01*
X118191731Y-52967123D01*
X118127000Y-52940310D01*
X118127000Y-52868548D01*
X118095218Y-52708773D01*
X118032877Y-52558269D01*
X117942372Y-52422819D01*
X117827181Y-52307628D01*
X117691731Y-52217123D01*
X117541227Y-52154782D01*
X117381452Y-52123000D01*
X117218548Y-52123000D01*
X117058773Y-52154782D01*
X116908269Y-52217123D01*
X116772819Y-52307628D01*
X116657628Y-52422819D01*
X116567123Y-52558269D01*
X116504782Y-52708773D01*
X116473000Y-52868548D01*
X108887135Y-52868548D01*
X108882877Y-52858269D01*
X108792372Y-52722819D01*
X108677181Y-52607628D01*
X108541731Y-52517123D01*
X108391227Y-52454782D01*
X108231452Y-52423000D01*
X108068548Y-52423000D01*
X107908773Y-52454782D01*
X107758269Y-52517123D01*
X107622819Y-52607628D01*
X107507628Y-52722819D01*
X107417123Y-52858269D01*
X107354782Y-53008773D01*
X107323000Y-53168548D01*
X90342479Y-53168548D01*
X90395218Y-53041227D01*
X90427000Y-52881452D01*
X90427000Y-52718548D01*
X90395218Y-52558773D01*
X90332877Y-52408269D01*
X90242372Y-52272819D01*
X90127181Y-52157628D01*
X89991731Y-52067123D01*
X89841227Y-52004782D01*
X89681452Y-51973000D01*
X89518548Y-51973000D01*
X89358773Y-52004782D01*
X89208269Y-52067123D01*
X89072819Y-52157628D01*
X88957628Y-52272819D01*
X88867123Y-52408269D01*
X88804782Y-52558773D01*
X88773000Y-52718548D01*
X84463365Y-52718548D01*
X84340450Y-52568777D01*
X84414196Y-52546405D01*
X84488376Y-52506755D01*
X84553395Y-52453395D01*
X84606755Y-52388376D01*
X84646405Y-52314196D01*
X84670822Y-52233707D01*
X84679066Y-52150000D01*
X84679066Y-50818548D01*
X101973000Y-50818548D01*
X101973000Y-50981452D01*
X102004782Y-51141227D01*
X102067123Y-51291731D01*
X102157628Y-51427181D01*
X102272819Y-51542372D01*
X102408269Y-51632877D01*
X102558773Y-51695218D01*
X102718548Y-51727000D01*
X102881452Y-51727000D01*
X103041227Y-51695218D01*
X103191731Y-51632877D01*
X103327181Y-51542372D01*
X103442372Y-51427181D01*
X103532877Y-51291731D01*
X103595218Y-51141227D01*
X103627000Y-50981452D01*
X103627000Y-50818548D01*
X103595218Y-50658773D01*
X103532877Y-50508269D01*
X103442372Y-50372819D01*
X103327181Y-50257628D01*
X103191731Y-50167123D01*
X103041227Y-50104782D01*
X102881452Y-50073000D01*
X102718548Y-50073000D01*
X102558773Y-50104782D01*
X102408269Y-50167123D01*
X102272819Y-50257628D01*
X102157628Y-50372819D01*
X102067123Y-50508269D01*
X102004782Y-50658773D01*
X101973000Y-50818548D01*
X84679066Y-50818548D01*
X84679066Y-50650000D01*
X84670822Y-50566293D01*
X84646405Y-50485804D01*
X84635950Y-50466244D01*
X84734976Y-50384976D01*
X84925797Y-50152460D01*
X85067590Y-49887185D01*
X85154905Y-49599344D01*
X85184388Y-49300000D01*
X85154905Y-49000656D01*
X85067590Y-48712815D01*
X84933686Y-48462298D01*
X91116750Y-48462298D01*
X91116750Y-48625202D01*
X91148532Y-48784977D01*
X91210873Y-48935481D01*
X91301378Y-49070931D01*
X91416569Y-49186122D01*
X91552019Y-49276627D01*
X91702523Y-49338968D01*
X91862298Y-49370750D01*
X92025202Y-49370750D01*
X92184977Y-49338968D01*
X92335481Y-49276627D01*
X92470931Y-49186122D01*
X92586122Y-49070931D01*
X92676627Y-48935481D01*
X92738968Y-48784977D01*
X92770750Y-48625202D01*
X92770750Y-48462298D01*
X92738968Y-48302523D01*
X92676627Y-48152019D01*
X92586122Y-48016569D01*
X92470931Y-47901378D01*
X92335481Y-47810873D01*
X92184977Y-47748532D01*
X92025202Y-47716750D01*
X91862298Y-47716750D01*
X91702523Y-47748532D01*
X91552019Y-47810873D01*
X91416569Y-47901378D01*
X91301378Y-48016569D01*
X91210873Y-48152019D01*
X91148532Y-48302523D01*
X91116750Y-48462298D01*
X84933686Y-48462298D01*
X84925797Y-48447540D01*
X84734976Y-48215024D01*
X84502460Y-48024203D01*
X84237185Y-47882410D01*
X83949344Y-47795095D01*
X83725011Y-47773000D01*
X82274989Y-47773000D01*
X82050656Y-47795095D01*
X81762815Y-47882410D01*
X81497540Y-48024203D01*
X81265024Y-48215024D01*
X81074203Y-48447540D01*
X80932410Y-48712815D01*
X80845095Y-49000656D01*
X80815612Y-49300000D01*
X80452000Y-49300000D01*
X80452000Y-47144455D01*
X80490862Y-47177995D01*
X80649003Y-47267635D01*
X80821593Y-47324701D01*
X81002000Y-47347000D01*
X81302000Y-47347000D01*
X81302000Y-46443000D01*
X81348000Y-46443000D01*
X81348000Y-47347000D01*
X81648000Y-47347000D01*
X81828407Y-47324701D01*
X82000997Y-47267635D01*
X82159138Y-47177995D01*
X82296752Y-47059225D01*
X82408551Y-46915890D01*
X82490239Y-46753498D01*
X82536708Y-46587687D01*
X84043292Y-46587687D01*
X84089761Y-46753498D01*
X84171449Y-46915890D01*
X84283248Y-47059225D01*
X84420862Y-47177995D01*
X84579003Y-47267635D01*
X84751593Y-47324701D01*
X84932000Y-47347000D01*
X85482000Y-47347000D01*
X85482000Y-46443000D01*
X85528000Y-46443000D01*
X85528000Y-47347000D01*
X86078000Y-47347000D01*
X86258407Y-47324701D01*
X86430997Y-47267635D01*
X86589138Y-47177995D01*
X86726752Y-47059225D01*
X86838551Y-46915890D01*
X86920239Y-46753498D01*
X86966708Y-46587687D01*
X86874927Y-46443000D01*
X85528000Y-46443000D01*
X85482000Y-46443000D01*
X84135073Y-46443000D01*
X84043292Y-46587687D01*
X82536708Y-46587687D01*
X82444927Y-46443000D01*
X81348000Y-46443000D01*
X81302000Y-46443000D01*
X81282000Y-46443000D01*
X81282000Y-46397000D01*
X81302000Y-46397000D01*
X81302000Y-45493000D01*
X81348000Y-45493000D01*
X81348000Y-46397000D01*
X82444927Y-46397000D01*
X82536708Y-46252313D01*
X84043292Y-46252313D01*
X84135073Y-46397000D01*
X85482000Y-46397000D01*
X85482000Y-46377000D01*
X85528000Y-46377000D01*
X85528000Y-46397000D01*
X86874927Y-46397000D01*
X86966708Y-46252313D01*
X86920239Y-46086502D01*
X86838551Y-45924110D01*
X86726752Y-45780775D01*
X86654653Y-45718548D01*
X99873000Y-45718548D01*
X99873000Y-45881452D01*
X99904782Y-46041227D01*
X99967123Y-46191731D01*
X100057628Y-46327181D01*
X100172819Y-46442372D01*
X100308269Y-46532877D01*
X100458773Y-46595218D01*
X100618548Y-46627000D01*
X100781452Y-46627000D01*
X100885217Y-46606359D01*
X100817123Y-46708269D01*
X100754782Y-46858773D01*
X100723000Y-47018548D01*
X100723000Y-47181452D01*
X100754782Y-47341227D01*
X100817123Y-47491731D01*
X100907628Y-47627181D01*
X101022819Y-47742372D01*
X101158269Y-47832877D01*
X101282982Y-47884535D01*
X101267123Y-47908269D01*
X101204782Y-48058773D01*
X101173000Y-48218548D01*
X101173000Y-48381452D01*
X101204782Y-48541227D01*
X101267123Y-48691731D01*
X101357628Y-48827181D01*
X101472819Y-48942372D01*
X101608269Y-49032877D01*
X101758773Y-49095218D01*
X101918548Y-49127000D01*
X102081452Y-49127000D01*
X102241227Y-49095218D01*
X102371644Y-49041197D01*
X102472819Y-49142372D01*
X102608269Y-49232877D01*
X102758773Y-49295218D01*
X102918548Y-49327000D01*
X103081452Y-49327000D01*
X103241227Y-49295218D01*
X103391731Y-49232877D01*
X103500000Y-49160534D01*
X103608269Y-49232877D01*
X103758773Y-49295218D01*
X103918548Y-49327000D01*
X104081452Y-49327000D01*
X104241227Y-49295218D01*
X104391731Y-49232877D01*
X104500000Y-49160534D01*
X104608269Y-49232877D01*
X104684963Y-49264645D01*
X104558269Y-49317123D01*
X104422819Y-49407628D01*
X104307628Y-49522819D01*
X104217123Y-49658269D01*
X104154782Y-49808773D01*
X104123000Y-49968548D01*
X104123000Y-50131452D01*
X104154782Y-50291227D01*
X104217123Y-50441731D01*
X104307628Y-50577181D01*
X104422819Y-50692372D01*
X104558269Y-50782877D01*
X104708773Y-50845218D01*
X104868548Y-50877000D01*
X105031452Y-50877000D01*
X105191227Y-50845218D01*
X105341731Y-50782877D01*
X105400598Y-50743543D01*
X115247999Y-50743543D01*
X115247999Y-50906447D01*
X115279781Y-51066222D01*
X115342122Y-51216726D01*
X115432627Y-51352176D01*
X115547818Y-51467367D01*
X115683268Y-51557872D01*
X115833772Y-51620213D01*
X115993547Y-51651995D01*
X116156451Y-51651995D01*
X116316226Y-51620213D01*
X116466730Y-51557872D01*
X116602180Y-51467367D01*
X116717371Y-51352176D01*
X116807876Y-51216726D01*
X116870217Y-51066222D01*
X116901999Y-50906447D01*
X116901999Y-50743543D01*
X116870217Y-50583768D01*
X116807876Y-50433264D01*
X116798044Y-50418548D01*
X121873000Y-50418548D01*
X121873000Y-50581452D01*
X121904782Y-50741227D01*
X121967123Y-50891731D01*
X122006057Y-50950000D01*
X121967123Y-51008269D01*
X121904782Y-51158773D01*
X121873000Y-51318548D01*
X121873000Y-51481452D01*
X121904782Y-51641227D01*
X121967123Y-51791731D01*
X122057628Y-51927181D01*
X122172819Y-52042372D01*
X122308269Y-52132877D01*
X122458773Y-52195218D01*
X122618548Y-52227000D01*
X122781452Y-52227000D01*
X122941227Y-52195218D01*
X123091731Y-52132877D01*
X123227181Y-52042372D01*
X123342372Y-51927181D01*
X123432877Y-51791731D01*
X123495218Y-51641227D01*
X123527000Y-51481452D01*
X123527000Y-51318548D01*
X123495218Y-51158773D01*
X123432877Y-51008269D01*
X123393943Y-50950000D01*
X123432877Y-50891731D01*
X123495218Y-50741227D01*
X123527000Y-50581452D01*
X123527000Y-50418548D01*
X123495218Y-50258773D01*
X123432877Y-50108269D01*
X123342372Y-49972819D01*
X123227181Y-49857628D01*
X123091731Y-49767123D01*
X122941227Y-49704782D01*
X122781452Y-49673000D01*
X122618548Y-49673000D01*
X122458773Y-49704782D01*
X122308269Y-49767123D01*
X122172819Y-49857628D01*
X122057628Y-49972819D01*
X121967123Y-50108269D01*
X121904782Y-50258773D01*
X121873000Y-50418548D01*
X116798044Y-50418548D01*
X116717371Y-50297814D01*
X116602180Y-50182623D01*
X116466730Y-50092118D01*
X116316226Y-50029777D01*
X116156451Y-49997995D01*
X115993547Y-49997995D01*
X115833772Y-50029777D01*
X115683268Y-50092118D01*
X115547818Y-50182623D01*
X115432627Y-50297814D01*
X115342122Y-50433264D01*
X115279781Y-50583768D01*
X115247999Y-50743543D01*
X105400598Y-50743543D01*
X105477181Y-50692372D01*
X105592372Y-50577181D01*
X105682877Y-50441731D01*
X105745218Y-50291227D01*
X105777000Y-50131452D01*
X105777000Y-49968548D01*
X105745218Y-49808773D01*
X105682877Y-49658269D01*
X105592372Y-49522819D01*
X105477181Y-49407628D01*
X105341731Y-49317123D01*
X105265037Y-49285355D01*
X105391731Y-49232877D01*
X105527181Y-49142372D01*
X105642372Y-49027181D01*
X105688312Y-48958427D01*
X105704782Y-49041227D01*
X105767123Y-49191731D01*
X105857628Y-49327181D01*
X105972819Y-49442372D01*
X106108269Y-49532877D01*
X106258773Y-49595218D01*
X106418548Y-49627000D01*
X106581452Y-49627000D01*
X106741227Y-49595218D01*
X106891731Y-49532877D01*
X107027181Y-49442372D01*
X107142372Y-49327181D01*
X107232877Y-49191731D01*
X107295218Y-49041227D01*
X107302215Y-49006048D01*
X117285500Y-49006048D01*
X117285500Y-49168952D01*
X117317282Y-49328727D01*
X117379623Y-49479231D01*
X117470128Y-49614681D01*
X117585319Y-49729872D01*
X117720769Y-49820377D01*
X117871273Y-49882718D01*
X118031048Y-49914500D01*
X118193952Y-49914500D01*
X118353727Y-49882718D01*
X118504231Y-49820377D01*
X118639681Y-49729872D01*
X118754872Y-49614681D01*
X118845377Y-49479231D01*
X118849566Y-49469119D01*
X118947819Y-49567372D01*
X119083269Y-49657877D01*
X119233773Y-49720218D01*
X119393548Y-49752000D01*
X119556452Y-49752000D01*
X119716227Y-49720218D01*
X119866731Y-49657877D01*
X120002181Y-49567372D01*
X120117372Y-49452181D01*
X120207877Y-49316731D01*
X120270218Y-49166227D01*
X120302000Y-49006452D01*
X120302000Y-48843548D01*
X120270218Y-48683773D01*
X120207877Y-48533269D01*
X120117372Y-48397819D01*
X120002181Y-48282628D01*
X119866731Y-48192123D01*
X119716227Y-48129782D01*
X119556452Y-48098000D01*
X119393548Y-48098000D01*
X119233773Y-48129782D01*
X119083269Y-48192123D01*
X118947819Y-48282628D01*
X118832628Y-48397819D01*
X118742123Y-48533269D01*
X118737934Y-48543381D01*
X118639681Y-48445128D01*
X118504231Y-48354623D01*
X118353727Y-48292282D01*
X118193952Y-48260500D01*
X118031048Y-48260500D01*
X117871273Y-48292282D01*
X117720769Y-48354623D01*
X117585319Y-48445128D01*
X117470128Y-48560319D01*
X117379623Y-48695769D01*
X117317282Y-48846273D01*
X117285500Y-49006048D01*
X107302215Y-49006048D01*
X107327000Y-48881452D01*
X107327000Y-48718548D01*
X107295218Y-48558773D01*
X107232877Y-48408269D01*
X107142372Y-48272819D01*
X107027181Y-48157628D01*
X106891731Y-48067123D01*
X106741227Y-48004782D01*
X106581452Y-47973000D01*
X106418548Y-47973000D01*
X106258773Y-48004782D01*
X106108269Y-48067123D01*
X105972819Y-48157628D01*
X105857628Y-48272819D01*
X105811688Y-48341573D01*
X105795218Y-48258773D01*
X105732877Y-48108269D01*
X105642372Y-47972819D01*
X105527181Y-47857628D01*
X105391731Y-47767123D01*
X105241227Y-47704782D01*
X105081452Y-47673000D01*
X104918548Y-47673000D01*
X104758773Y-47704782D01*
X104608269Y-47767123D01*
X104500000Y-47839466D01*
X104391731Y-47767123D01*
X104241227Y-47704782D01*
X104081452Y-47673000D01*
X103918548Y-47673000D01*
X103758773Y-47704782D01*
X103608269Y-47767123D01*
X103500000Y-47839466D01*
X103391731Y-47767123D01*
X103241227Y-47704782D01*
X103081452Y-47673000D01*
X102918548Y-47673000D01*
X102758773Y-47704782D01*
X102628356Y-47758803D01*
X102527181Y-47657628D01*
X102391731Y-47567123D01*
X102267018Y-47515465D01*
X102282877Y-47491731D01*
X102345218Y-47341227D01*
X102369351Y-47219907D01*
X102407620Y-47277181D01*
X102522811Y-47392372D01*
X102658261Y-47482877D01*
X102808765Y-47545218D01*
X102968540Y-47577000D01*
X103131444Y-47577000D01*
X103291219Y-47545218D01*
X103441723Y-47482877D01*
X103577173Y-47392372D01*
X103692364Y-47277181D01*
X103782869Y-47141731D01*
X103845210Y-46991227D01*
X103876992Y-46831452D01*
X103876992Y-46668548D01*
X103845210Y-46508773D01*
X103782869Y-46358269D01*
X103692364Y-46222819D01*
X103577173Y-46107628D01*
X103441723Y-46017123D01*
X103384809Y-45993548D01*
X104048000Y-45993548D01*
X104048000Y-46156452D01*
X104079782Y-46316227D01*
X104142123Y-46466731D01*
X104232628Y-46602181D01*
X104347819Y-46717372D01*
X104483269Y-46807877D01*
X104633773Y-46870218D01*
X104773000Y-46897913D01*
X104773000Y-46981452D01*
X104804782Y-47141227D01*
X104867123Y-47291731D01*
X104957628Y-47427181D01*
X105072819Y-47542372D01*
X105208269Y-47632877D01*
X105358773Y-47695218D01*
X105518548Y-47727000D01*
X105681452Y-47727000D01*
X105841227Y-47695218D01*
X105991731Y-47632877D01*
X106127181Y-47542372D01*
X106242372Y-47427181D01*
X106250000Y-47415765D01*
X106257628Y-47427181D01*
X106372819Y-47542372D01*
X106508269Y-47632877D01*
X106658773Y-47695218D01*
X106818548Y-47727000D01*
X106981452Y-47727000D01*
X107141227Y-47695218D01*
X107291731Y-47632877D01*
X107427181Y-47542372D01*
X107542372Y-47427181D01*
X107632877Y-47291731D01*
X107695218Y-47141227D01*
X107727000Y-46981452D01*
X107727000Y-46818548D01*
X107695218Y-46658773D01*
X107632877Y-46508269D01*
X107542372Y-46372819D01*
X107427181Y-46257628D01*
X107368694Y-46218548D01*
X119473000Y-46218548D01*
X119473000Y-46381452D01*
X119504782Y-46541227D01*
X119567123Y-46691731D01*
X119657628Y-46827181D01*
X119772819Y-46942372D01*
X119908269Y-47032877D01*
X120058773Y-47095218D01*
X120218548Y-47127000D01*
X120381452Y-47127000D01*
X120541227Y-47095218D01*
X120691731Y-47032877D01*
X120827181Y-46942372D01*
X120942372Y-46827181D01*
X121032877Y-46691731D01*
X121095218Y-46541227D01*
X121127000Y-46381452D01*
X121127000Y-46222451D01*
X126592524Y-46222451D01*
X126593050Y-46226572D01*
X126661404Y-46467437D01*
X126775435Y-46690339D01*
X126930761Y-46886712D01*
X127121413Y-47049009D01*
X127340064Y-47170993D01*
X127578312Y-47247976D01*
X127827000Y-47277000D01*
X127977000Y-47277000D01*
X127977000Y-46023000D01*
X128023000Y-46023000D01*
X128023000Y-47277000D01*
X128173000Y-47277000D01*
X128421688Y-47247976D01*
X128659936Y-47170993D01*
X128878587Y-47049009D01*
X129069239Y-46886712D01*
X129224565Y-46690339D01*
X129338596Y-46467437D01*
X129406950Y-46226572D01*
X129407476Y-46222451D01*
X129320024Y-46023000D01*
X128023000Y-46023000D01*
X127977000Y-46023000D01*
X126679976Y-46023000D01*
X126592524Y-46222451D01*
X121127000Y-46222451D01*
X121127000Y-46218548D01*
X121095218Y-46058773D01*
X121032877Y-45908269D01*
X120942372Y-45772819D01*
X120827181Y-45657628D01*
X120691731Y-45567123D01*
X120541227Y-45504782D01*
X120381452Y-45473000D01*
X120218548Y-45473000D01*
X120058773Y-45504782D01*
X119908269Y-45567123D01*
X119772819Y-45657628D01*
X119657628Y-45772819D01*
X119567123Y-45908269D01*
X119504782Y-46058773D01*
X119473000Y-46218548D01*
X107368694Y-46218548D01*
X107291731Y-46167123D01*
X107141227Y-46104782D01*
X106981452Y-46073000D01*
X106818548Y-46073000D01*
X106658773Y-46104782D01*
X106508269Y-46167123D01*
X106372819Y-46257628D01*
X106257628Y-46372819D01*
X106250000Y-46384235D01*
X106242372Y-46372819D01*
X106127181Y-46257628D01*
X105991731Y-46167123D01*
X105841227Y-46104782D01*
X105702000Y-46077087D01*
X105702000Y-45993548D01*
X105670218Y-45833773D01*
X105607877Y-45683269D01*
X105517372Y-45547819D01*
X105402181Y-45432628D01*
X105266731Y-45342123D01*
X105116227Y-45279782D01*
X104956452Y-45248000D01*
X104793548Y-45248000D01*
X104633773Y-45279782D01*
X104483269Y-45342123D01*
X104347819Y-45432628D01*
X104232628Y-45547819D01*
X104142123Y-45683269D01*
X104079782Y-45833773D01*
X104048000Y-45993548D01*
X103384809Y-45993548D01*
X103291219Y-45954782D01*
X103131444Y-45923000D01*
X102968540Y-45923000D01*
X102808765Y-45954782D01*
X102658261Y-46017123D01*
X102522811Y-46107628D01*
X102407620Y-46222819D01*
X102317115Y-46358269D01*
X102254774Y-46508773D01*
X102230641Y-46630093D01*
X102192372Y-46572819D01*
X102077181Y-46457628D01*
X101941731Y-46367123D01*
X101791227Y-46304782D01*
X101631452Y-46273000D01*
X101468548Y-46273000D01*
X101364783Y-46293641D01*
X101432877Y-46191731D01*
X101495218Y-46041227D01*
X101527000Y-45881452D01*
X101527000Y-45718548D01*
X101495218Y-45558773D01*
X101441197Y-45428356D01*
X101442372Y-45427181D01*
X101532877Y-45291731D01*
X101595218Y-45141227D01*
X101627000Y-44981452D01*
X101627000Y-44818548D01*
X101595218Y-44658773D01*
X101532877Y-44508269D01*
X101442372Y-44372819D01*
X101327181Y-44257628D01*
X101191731Y-44167123D01*
X101041227Y-44104782D01*
X100881452Y-44073000D01*
X100718548Y-44073000D01*
X100558773Y-44104782D01*
X100408269Y-44167123D01*
X100272819Y-44257628D01*
X100157628Y-44372819D01*
X100067123Y-44508269D01*
X100004782Y-44658773D01*
X99973000Y-44818548D01*
X99973000Y-44981452D01*
X100004782Y-45141227D01*
X100058803Y-45271644D01*
X100057628Y-45272819D01*
X99967123Y-45408269D01*
X99904782Y-45558773D01*
X99873000Y-45718548D01*
X86654653Y-45718548D01*
X86589138Y-45662005D01*
X86430997Y-45572365D01*
X86258407Y-45515299D01*
X86078000Y-45493000D01*
X85565489Y-45493000D01*
X85589117Y-45469372D01*
X85671414Y-45346206D01*
X85728101Y-45209350D01*
X85757000Y-45064066D01*
X85757000Y-44915934D01*
X85728101Y-44770650D01*
X85671414Y-44633794D01*
X85589117Y-44510628D01*
X85484372Y-44405883D01*
X85361206Y-44323586D01*
X85349044Y-44318548D01*
X86273000Y-44318548D01*
X86273000Y-44481452D01*
X86304782Y-44641227D01*
X86367123Y-44791731D01*
X86457628Y-44927181D01*
X86572819Y-45042372D01*
X86708269Y-45132877D01*
X86858773Y-45195218D01*
X87018548Y-45227000D01*
X87181452Y-45227000D01*
X87341227Y-45195218D01*
X87491731Y-45132877D01*
X87627181Y-45042372D01*
X87742372Y-44927181D01*
X87832877Y-44791731D01*
X87895218Y-44641227D01*
X87927000Y-44481452D01*
X87927000Y-44318548D01*
X87895218Y-44158773D01*
X87832877Y-44008269D01*
X87742372Y-43872819D01*
X87627181Y-43757628D01*
X87493864Y-43668548D01*
X104123000Y-43668548D01*
X104123000Y-43831452D01*
X104154782Y-43991227D01*
X104217123Y-44141731D01*
X104307628Y-44277181D01*
X104422819Y-44392372D01*
X104558269Y-44482877D01*
X104708773Y-44545218D01*
X104868548Y-44577000D01*
X105031452Y-44577000D01*
X105191227Y-44545218D01*
X105341731Y-44482877D01*
X105355352Y-44473775D01*
X105357628Y-44477181D01*
X105472819Y-44592372D01*
X105608269Y-44682877D01*
X105758773Y-44745218D01*
X105918548Y-44777000D01*
X106081452Y-44777000D01*
X106241227Y-44745218D01*
X106391731Y-44682877D01*
X106527181Y-44592372D01*
X106642372Y-44477181D01*
X106732877Y-44341731D01*
X106742479Y-44318548D01*
X113023006Y-44318548D01*
X113023006Y-44481452D01*
X113054788Y-44641227D01*
X113117129Y-44791731D01*
X113207634Y-44927181D01*
X113322825Y-45042372D01*
X113458275Y-45132877D01*
X113608779Y-45195218D01*
X113768554Y-45227000D01*
X113931458Y-45227000D01*
X114091233Y-45195218D01*
X114241737Y-45132877D01*
X114377187Y-45042372D01*
X114492378Y-44927181D01*
X114582883Y-44791731D01*
X114645224Y-44641227D01*
X114677006Y-44481452D01*
X114677006Y-44318548D01*
X114645224Y-44158773D01*
X114582883Y-44008269D01*
X114492378Y-43872819D01*
X114377187Y-43757628D01*
X114241737Y-43667123D01*
X114091233Y-43604782D01*
X113931458Y-43573000D01*
X113768554Y-43573000D01*
X113608779Y-43604782D01*
X113458275Y-43667123D01*
X113322825Y-43757628D01*
X113207634Y-43872819D01*
X113117129Y-44008269D01*
X113054788Y-44158773D01*
X113023006Y-44318548D01*
X106742479Y-44318548D01*
X106795218Y-44191227D01*
X106827000Y-44031452D01*
X106827000Y-43868548D01*
X106795218Y-43708773D01*
X106732877Y-43558269D01*
X106642372Y-43422819D01*
X106527181Y-43307628D01*
X106391731Y-43217123D01*
X106241227Y-43154782D01*
X106081452Y-43123000D01*
X105918548Y-43123000D01*
X105758773Y-43154782D01*
X105608269Y-43217123D01*
X105594648Y-43226225D01*
X105592372Y-43222819D01*
X105477181Y-43107628D01*
X105341731Y-43017123D01*
X105191227Y-42954782D01*
X105031452Y-42923000D01*
X104868548Y-42923000D01*
X104708773Y-42954782D01*
X104558269Y-43017123D01*
X104422819Y-43107628D01*
X104307628Y-43222819D01*
X104217123Y-43358269D01*
X104154782Y-43508773D01*
X104123000Y-43668548D01*
X87493864Y-43668548D01*
X87491731Y-43667123D01*
X87341227Y-43604782D01*
X87181452Y-43573000D01*
X87018548Y-43573000D01*
X86858773Y-43604782D01*
X86708269Y-43667123D01*
X86572819Y-43757628D01*
X86457628Y-43872819D01*
X86367123Y-44008269D01*
X86304782Y-44158773D01*
X86273000Y-44318548D01*
X85349044Y-44318548D01*
X85224350Y-44266899D01*
X85079066Y-44238000D01*
X84930934Y-44238000D01*
X84785650Y-44266899D01*
X84648794Y-44323586D01*
X84525628Y-44405883D01*
X84420883Y-44510628D01*
X84338586Y-44633794D01*
X84281899Y-44770650D01*
X84253000Y-44915934D01*
X84253000Y-45064066D01*
X84281899Y-45209350D01*
X84338586Y-45346206D01*
X84420883Y-45469372D01*
X84525628Y-45574117D01*
X84548707Y-45589538D01*
X84420862Y-45662005D01*
X84283248Y-45780775D01*
X84171449Y-45924110D01*
X84089761Y-46086502D01*
X84043292Y-46252313D01*
X82536708Y-46252313D01*
X82490239Y-46086502D01*
X82408551Y-45924110D01*
X82296752Y-45780775D01*
X82159138Y-45662005D01*
X82000997Y-45572365D01*
X81828407Y-45515299D01*
X81648000Y-45493000D01*
X81348000Y-45493000D01*
X81302000Y-45493000D01*
X81002000Y-45493000D01*
X80821593Y-45515299D01*
X80649003Y-45572365D01*
X80490862Y-45662005D01*
X80452000Y-45695545D01*
X80452000Y-42618548D01*
X100173000Y-42618548D01*
X100173000Y-42781452D01*
X100204782Y-42941227D01*
X100267123Y-43091731D01*
X100357628Y-43227181D01*
X100472819Y-43342372D01*
X100608269Y-43432877D01*
X100758773Y-43495218D01*
X100918548Y-43527000D01*
X101081452Y-43527000D01*
X101241227Y-43495218D01*
X101391731Y-43432877D01*
X101527181Y-43342372D01*
X101642372Y-43227181D01*
X101732877Y-43091731D01*
X101795218Y-42941227D01*
X101803418Y-42900000D01*
X126570934Y-42900000D01*
X126570934Y-44100000D01*
X126583982Y-44232479D01*
X126622625Y-44359867D01*
X126685377Y-44477269D01*
X126769828Y-44580172D01*
X126872731Y-44664623D01*
X126990133Y-44727375D01*
X127117521Y-44766018D01*
X127250000Y-44779066D01*
X127494622Y-44779066D01*
X127340064Y-44829007D01*
X127121413Y-44950991D01*
X126930761Y-45113288D01*
X126775435Y-45309661D01*
X126661404Y-45532563D01*
X126593050Y-45773428D01*
X126592524Y-45777549D01*
X126679976Y-45977000D01*
X127977000Y-45977000D01*
X127977000Y-45957000D01*
X128023000Y-45957000D01*
X128023000Y-45977000D01*
X129320024Y-45977000D01*
X129407476Y-45777549D01*
X129406950Y-45773428D01*
X129338596Y-45532563D01*
X129224565Y-45309661D01*
X129069239Y-45113288D01*
X128878587Y-44950991D01*
X128659936Y-44829007D01*
X128505378Y-44779066D01*
X128750000Y-44779066D01*
X128882479Y-44766018D01*
X129009867Y-44727375D01*
X129127269Y-44664623D01*
X129230172Y-44580172D01*
X129314623Y-44477269D01*
X129377375Y-44359867D01*
X129416018Y-44232479D01*
X129429066Y-44100000D01*
X129429066Y-42900000D01*
X129416018Y-42767521D01*
X129377375Y-42640133D01*
X129314623Y-42522731D01*
X129230172Y-42419828D01*
X129127269Y-42335377D01*
X129009867Y-42272625D01*
X128882479Y-42233982D01*
X128750000Y-42220934D01*
X127250000Y-42220934D01*
X127117521Y-42233982D01*
X126990133Y-42272625D01*
X126872731Y-42335377D01*
X126769828Y-42419828D01*
X126685377Y-42522731D01*
X126622625Y-42640133D01*
X126583982Y-42767521D01*
X126570934Y-42900000D01*
X101803418Y-42900000D01*
X101827000Y-42781452D01*
X101827000Y-42618548D01*
X101795218Y-42458773D01*
X101732877Y-42308269D01*
X101642372Y-42172819D01*
X101527181Y-42057628D01*
X101391731Y-41967123D01*
X101241227Y-41904782D01*
X101081452Y-41873000D01*
X100918548Y-41873000D01*
X100758773Y-41904782D01*
X100608269Y-41967123D01*
X100472819Y-42057628D01*
X100357628Y-42172819D01*
X100267123Y-42308269D01*
X100204782Y-42458773D01*
X100173000Y-42618548D01*
X80452000Y-42618548D01*
X80452000Y-38504455D01*
X80490862Y-38537995D01*
X80649003Y-38627635D01*
X80821593Y-38684701D01*
X81002000Y-38707000D01*
X81302000Y-38707000D01*
X81302000Y-37803000D01*
X81348000Y-37803000D01*
X81348000Y-38707000D01*
X81648000Y-38707000D01*
X81828407Y-38684701D01*
X82000997Y-38627635D01*
X82159138Y-38537995D01*
X82296752Y-38419225D01*
X82408551Y-38275890D01*
X82490239Y-38113498D01*
X82536708Y-37947687D01*
X84043292Y-37947687D01*
X84089761Y-38113498D01*
X84171449Y-38275890D01*
X84283248Y-38419225D01*
X84420862Y-38537995D01*
X84548707Y-38610462D01*
X84525628Y-38625883D01*
X84420883Y-38730628D01*
X84338586Y-38853794D01*
X84281899Y-38990650D01*
X84253000Y-39135934D01*
X84253000Y-39284066D01*
X84281899Y-39429350D01*
X84338586Y-39566206D01*
X84420883Y-39689372D01*
X84525628Y-39794117D01*
X84648794Y-39876414D01*
X84785650Y-39933101D01*
X84930934Y-39962000D01*
X85079066Y-39962000D01*
X85224350Y-39933101D01*
X85361206Y-39876414D01*
X85484372Y-39794117D01*
X85589117Y-39689372D01*
X85669849Y-39568548D01*
X86423000Y-39568548D01*
X86423000Y-39731452D01*
X86454782Y-39891227D01*
X86517123Y-40041731D01*
X86607628Y-40177181D01*
X86722819Y-40292372D01*
X86858269Y-40382877D01*
X87008773Y-40445218D01*
X87168548Y-40477000D01*
X87331452Y-40477000D01*
X87491227Y-40445218D01*
X87641731Y-40382877D01*
X87777181Y-40292372D01*
X87892372Y-40177181D01*
X87982877Y-40041731D01*
X88045218Y-39891227D01*
X88077000Y-39731452D01*
X88077000Y-39568548D01*
X88045218Y-39408773D01*
X87982877Y-39258269D01*
X87892372Y-39122819D01*
X87777181Y-39007628D01*
X87641731Y-38917123D01*
X87491227Y-38854782D01*
X87331452Y-38823000D01*
X87168548Y-38823000D01*
X87008773Y-38854782D01*
X86858269Y-38917123D01*
X86722819Y-39007628D01*
X86607628Y-39122819D01*
X86517123Y-39258269D01*
X86454782Y-39408773D01*
X86423000Y-39568548D01*
X85669849Y-39568548D01*
X85671414Y-39566206D01*
X85728101Y-39429350D01*
X85757000Y-39284066D01*
X85757000Y-39135934D01*
X85728101Y-38990650D01*
X85671414Y-38853794D01*
X85589117Y-38730628D01*
X85565489Y-38707000D01*
X86078000Y-38707000D01*
X86258407Y-38684701D01*
X86430997Y-38627635D01*
X86589138Y-38537995D01*
X86726752Y-38419225D01*
X86838551Y-38275890D01*
X86920239Y-38113498D01*
X86966708Y-37947687D01*
X86874927Y-37803000D01*
X85528000Y-37803000D01*
X85528000Y-37823000D01*
X85482000Y-37823000D01*
X85482000Y-37803000D01*
X84135073Y-37803000D01*
X84043292Y-37947687D01*
X82536708Y-37947687D01*
X82444927Y-37803000D01*
X81348000Y-37803000D01*
X81302000Y-37803000D01*
X81282000Y-37803000D01*
X81282000Y-37757000D01*
X81302000Y-37757000D01*
X81302000Y-36853000D01*
X81348000Y-36853000D01*
X81348000Y-37757000D01*
X82444927Y-37757000D01*
X82536708Y-37612313D01*
X84043292Y-37612313D01*
X84135073Y-37757000D01*
X85482000Y-37757000D01*
X85482000Y-36853000D01*
X85528000Y-36853000D01*
X85528000Y-37757000D01*
X86874927Y-37757000D01*
X86966708Y-37612313D01*
X86920239Y-37446502D01*
X86838551Y-37284110D01*
X86726752Y-37140775D01*
X86589138Y-37022005D01*
X86430997Y-36932365D01*
X86258407Y-36875299D01*
X86078000Y-36853000D01*
X85528000Y-36853000D01*
X85482000Y-36853000D01*
X84932000Y-36853000D01*
X84751593Y-36875299D01*
X84579003Y-36932365D01*
X84420862Y-37022005D01*
X84283248Y-37140775D01*
X84171449Y-37284110D01*
X84089761Y-37446502D01*
X84043292Y-37612313D01*
X82536708Y-37612313D01*
X82490239Y-37446502D01*
X82408551Y-37284110D01*
X82296752Y-37140775D01*
X82159138Y-37022005D01*
X82000997Y-36932365D01*
X81828407Y-36875299D01*
X81648000Y-36853000D01*
X81348000Y-36853000D01*
X81302000Y-36853000D01*
X81002000Y-36853000D01*
X80821593Y-36875299D01*
X80649003Y-36932365D01*
X80490862Y-37022005D01*
X80452000Y-37055545D01*
X80452000Y-36118548D01*
X88373000Y-36118548D01*
X88373000Y-36281452D01*
X88404782Y-36441227D01*
X88467123Y-36591731D01*
X88557628Y-36727181D01*
X88672819Y-36842372D01*
X88808269Y-36932877D01*
X88958773Y-36995218D01*
X89118548Y-37027000D01*
X89281452Y-37027000D01*
X89441227Y-36995218D01*
X89591731Y-36932877D01*
X89727181Y-36842372D01*
X89842372Y-36727181D01*
X89932877Y-36591731D01*
X89995218Y-36441227D01*
X90027000Y-36281452D01*
X90027000Y-36118548D01*
X89995218Y-35958773D01*
X89932877Y-35808269D01*
X89842372Y-35672819D01*
X89727181Y-35557628D01*
X89591731Y-35467123D01*
X89441227Y-35404782D01*
X89281452Y-35373000D01*
X89118548Y-35373000D01*
X88958773Y-35404782D01*
X88808269Y-35467123D01*
X88672819Y-35557628D01*
X88557628Y-35672819D01*
X88467123Y-35808269D01*
X88404782Y-35958773D01*
X88373000Y-36118548D01*
X80452000Y-36118548D01*
X80452000Y-34518548D01*
X108273000Y-34518548D01*
X108273000Y-34681452D01*
X108304782Y-34841227D01*
X108367123Y-34991731D01*
X108457628Y-35127181D01*
X108572819Y-35242372D01*
X108708269Y-35332877D01*
X108858773Y-35395218D01*
X109018548Y-35427000D01*
X109181452Y-35427000D01*
X109341227Y-35395218D01*
X109491731Y-35332877D01*
X109500000Y-35327352D01*
X109508269Y-35332877D01*
X109658773Y-35395218D01*
X109818548Y-35427000D01*
X109981452Y-35427000D01*
X110141227Y-35395218D01*
X110291731Y-35332877D01*
X110300000Y-35327352D01*
X110308269Y-35332877D01*
X110458773Y-35395218D01*
X110618548Y-35427000D01*
X110781452Y-35427000D01*
X110941227Y-35395218D01*
X111091731Y-35332877D01*
X111223000Y-35245166D01*
X111223000Y-35331452D01*
X111254782Y-35491227D01*
X111317123Y-35641731D01*
X111407628Y-35777181D01*
X111522819Y-35892372D01*
X111658269Y-35982877D01*
X111808773Y-36045218D01*
X111968548Y-36077000D01*
X112131452Y-36077000D01*
X112291227Y-36045218D01*
X112441731Y-35982877D01*
X112577181Y-35892372D01*
X112692372Y-35777181D01*
X112782877Y-35641731D01*
X112845218Y-35491227D01*
X112877000Y-35331452D01*
X112877000Y-35168548D01*
X112845218Y-35008773D01*
X112820487Y-34949066D01*
X112842372Y-34927181D01*
X112932877Y-34791731D01*
X112995218Y-34641227D01*
X113027000Y-34481452D01*
X113027000Y-34318548D01*
X113026999Y-34318540D01*
X113173000Y-34318540D01*
X113173000Y-34481444D01*
X113204782Y-34641219D01*
X113267123Y-34791723D01*
X113357628Y-34927173D01*
X113472819Y-35042364D01*
X113608269Y-35132869D01*
X113758773Y-35195210D01*
X113918548Y-35226992D01*
X114081452Y-35226992D01*
X114123901Y-35218548D01*
X118623000Y-35218548D01*
X118623000Y-35381452D01*
X118654782Y-35541227D01*
X118717123Y-35691731D01*
X118807628Y-35827181D01*
X118922819Y-35942372D01*
X119058269Y-36032877D01*
X119208773Y-36095218D01*
X119368548Y-36127000D01*
X119531452Y-36127000D01*
X119691227Y-36095218D01*
X119841731Y-36032877D01*
X119977181Y-35942372D01*
X120092372Y-35827181D01*
X120182877Y-35691731D01*
X120245218Y-35541227D01*
X120277000Y-35381452D01*
X120277000Y-35218548D01*
X120245218Y-35058773D01*
X120182877Y-34908269D01*
X120092372Y-34772819D01*
X119977181Y-34657628D01*
X119841731Y-34567123D01*
X119691227Y-34504782D01*
X119531452Y-34473000D01*
X119368548Y-34473000D01*
X119208773Y-34504782D01*
X119058269Y-34567123D01*
X118922819Y-34657628D01*
X118807628Y-34772819D01*
X118717123Y-34908269D01*
X118654782Y-35058773D01*
X118623000Y-35218548D01*
X114123901Y-35218548D01*
X114241227Y-35195210D01*
X114391731Y-35132869D01*
X114527181Y-35042364D01*
X114642372Y-34927173D01*
X114732877Y-34791723D01*
X114795218Y-34641219D01*
X114827000Y-34481444D01*
X114827000Y-34318540D01*
X114795218Y-34158765D01*
X114732877Y-34008261D01*
X114642372Y-33872811D01*
X114527181Y-33757620D01*
X114391731Y-33667115D01*
X114241227Y-33604774D01*
X114081452Y-33572992D01*
X113918548Y-33572992D01*
X113758773Y-33604774D01*
X113608269Y-33667115D01*
X113472819Y-33757620D01*
X113357628Y-33872811D01*
X113267123Y-34008261D01*
X113204782Y-34158765D01*
X113173000Y-34318540D01*
X113026999Y-34318540D01*
X112995218Y-34158773D01*
X112932877Y-34008269D01*
X112842372Y-33872819D01*
X112727181Y-33757628D01*
X112591731Y-33667123D01*
X112441227Y-33604782D01*
X112281452Y-33573000D01*
X112118548Y-33573000D01*
X111958773Y-33604782D01*
X111808269Y-33667123D01*
X111672819Y-33757628D01*
X111557628Y-33872819D01*
X111467123Y-34008269D01*
X111404782Y-34158773D01*
X111403640Y-34164513D01*
X111342372Y-34072819D01*
X111227181Y-33957628D01*
X111091731Y-33867123D01*
X110941227Y-33804782D01*
X110781452Y-33773000D01*
X110618548Y-33773000D01*
X110458773Y-33804782D01*
X110308269Y-33867123D01*
X110300000Y-33872648D01*
X110291731Y-33867123D01*
X110141227Y-33804782D01*
X109981452Y-33773000D01*
X109818548Y-33773000D01*
X109658773Y-33804782D01*
X109508269Y-33867123D01*
X109500000Y-33872648D01*
X109491731Y-33867123D01*
X109341227Y-33804782D01*
X109181452Y-33773000D01*
X109018548Y-33773000D01*
X108858773Y-33804782D01*
X108708269Y-33867123D01*
X108572819Y-33957628D01*
X108457628Y-34072819D01*
X108367123Y-34208269D01*
X108304782Y-34358773D01*
X108273000Y-34518548D01*
X80452000Y-34518548D01*
X80452000Y-33518548D01*
X81773000Y-33518548D01*
X81773000Y-33681452D01*
X81804782Y-33841227D01*
X81867123Y-33991731D01*
X81957628Y-34127181D01*
X82072819Y-34242372D01*
X82208269Y-34332877D01*
X82358773Y-34395218D01*
X82518548Y-34427000D01*
X82681452Y-34427000D01*
X82841227Y-34395218D01*
X82991731Y-34332877D01*
X83127181Y-34242372D01*
X83242372Y-34127181D01*
X83332877Y-33991731D01*
X83395218Y-33841227D01*
X83427000Y-33681452D01*
X83427000Y-33518548D01*
X83395218Y-33358773D01*
X83332877Y-33208269D01*
X83242372Y-33072819D01*
X83127181Y-32957628D01*
X82991731Y-32867123D01*
X82841227Y-32804782D01*
X82681452Y-32773000D01*
X82518548Y-32773000D01*
X82358773Y-32804782D01*
X82208269Y-32867123D01*
X82072819Y-32957628D01*
X81957628Y-33072819D01*
X81867123Y-33208269D01*
X81804782Y-33358773D01*
X81773000Y-33518548D01*
X80452000Y-33518548D01*
X80452000Y-31852000D01*
X129673000Y-31852000D01*
X129673000Y-53600000D01*
G37*
%TD.AperFunction*%
%TD*%
M02*
