%TF.GenerationSoftware,KiCad,Pcbnew,(5.1.9-16-g1737927814)-1*%
%TF.CreationDate,2021-07-23T22:07:44+02:00*%
%TF.ProjectId,Diffprobe,44696666-7072-46f6-9265-2e6b69636164,rev?*%
%TF.SameCoordinates,Original*%
%TF.FileFunction,Legend,Top*%
%TF.FilePolarity,Positive*%
%FSLAX46Y46*%
G04 Gerber Fmt 4.6, Leading zero omitted, Abs format (unit mm)*
G04 Created by KiCad (PCBNEW (5.1.9-16-g1737927814)-1) date 2021-07-23 22:07:44*
%MOMM*%
%LPD*%
G01*
G04 APERTURE LIST*
%ADD10C,0.120000*%
%ADD11C,0.200000*%
%ADD12C,0.127000*%
%ADD13C,0.254000*%
%ADD14C,0.150000*%
%ADD15C,0.100000*%
G04 APERTURE END LIST*
D10*
%TO.C,C38*%
X167661163Y-37094413D02*
X167996696Y-37429946D01*
X168400090Y-36355486D02*
X168735623Y-36691019D01*
%TO.C,C37*%
X163277101Y-48690964D02*
X163612634Y-49026497D01*
X164016028Y-47952037D02*
X164351561Y-48287570D01*
%TO.C,R3*%
X166388371Y-38367205D02*
X166723904Y-38702738D01*
X167127298Y-37628278D02*
X167462831Y-37963811D01*
%TO.C,R2*%
X162937348Y-49701784D02*
X162601815Y-49366251D01*
X162198421Y-50440711D02*
X161862888Y-50105178D01*
%TO.C,R1*%
X164549894Y-47418172D02*
X164885427Y-47753705D01*
X165288821Y-46679245D02*
X165624354Y-47014778D01*
D11*
%TO.C,RV1*%
X160944483Y-58176630D02*
G75*
G03*
X160944483Y-58176630I-100000J0D01*
G01*
D12*
X157782711Y-56712919D02*
X158122122Y-56373507D01*
X155859380Y-58636249D02*
X156198792Y-58296838D01*
X157334759Y-60111627D02*
X155859380Y-58636249D01*
X159668211Y-59777166D02*
X159263039Y-60182338D01*
X158122122Y-56373507D02*
X159597500Y-57848886D01*
D10*
%TO.C,J1*%
X148908520Y-71173252D02*
X146362936Y-68627668D01*
X153419862Y-65954804D02*
X151581384Y-64116326D01*
X146560926Y-65884093D02*
X148823667Y-63621352D01*
X151652095Y-70975262D02*
X153914836Y-68712521D01*
%TO.C,C36*%
X129007886Y-73765685D02*
X128638419Y-73396218D01*
X130047333Y-72726238D02*
X129677866Y-72356771D01*
%TO.C,C35*%
X129451592Y-77744924D02*
X129821059Y-78114391D01*
X130491039Y-76705477D02*
X130860506Y-77074944D01*
%TO.C,C22*%
X169917073Y-43786596D02*
X169718262Y-43985407D01*
X170638322Y-44507845D02*
X170439511Y-44706656D01*
%TO.C,C7*%
X169767760Y-39933686D02*
X169966571Y-39734875D01*
X169046511Y-39212437D02*
X169245322Y-39013626D01*
%TO.C,C2*%
X162519915Y-41878229D02*
X162718726Y-41679418D01*
X161798666Y-41156980D02*
X161997477Y-40958169D01*
%TO.C,C1*%
X162404064Y-45430620D02*
X162205253Y-45629431D01*
X163125313Y-46151869D02*
X162926502Y-46350680D01*
%TO.C,L1*%
X111240942Y-87061942D02*
X114847187Y-90668187D01*
X114917897Y-83384987D02*
X118524142Y-86991232D01*
%TO.C,C20*%
X117041868Y-80608707D02*
X117411335Y-80978174D01*
X118081315Y-79569260D02*
X118450782Y-79938727D01*
%TO.C,C19*%
X118542705Y-82680530D02*
X118173238Y-83049997D01*
X119582152Y-83719977D02*
X119212685Y-84089444D01*
D13*
%TO.C,U5*%
X125248946Y-88829709D02*
G75*
G03*
X125248946Y-88829709I-78000J0D01*
G01*
D12*
X124626474Y-88995172D02*
X124721226Y-88900420D01*
X121847544Y-91774102D02*
X121942296Y-91679350D01*
X121342670Y-91269228D02*
X121847544Y-91774102D01*
X118973862Y-88900420D02*
X119620158Y-89546716D01*
X119019117Y-88855165D02*
X118973862Y-88900420D01*
X119549447Y-88324835D02*
X119539547Y-88334735D01*
X120327264Y-87547018D02*
X120211299Y-87662983D01*
X121069727Y-86804556D02*
X120989116Y-86885166D01*
X121847544Y-86026738D02*
X121731578Y-86142704D01*
X122329791Y-86508985D02*
X121847544Y-86026738D01*
X123072253Y-87251447D02*
X123014270Y-87193464D01*
X123789259Y-87968453D02*
X123708649Y-87887843D01*
X124721226Y-88900420D02*
X124216352Y-88395546D01*
D10*
%TO.C,R40*%
X131015354Y-74326777D02*
X131350887Y-73991244D01*
X131754281Y-75065704D02*
X132089814Y-74730171D01*
%TO.C,R32*%
X132129048Y-75475826D02*
X132464581Y-75140293D01*
X132867975Y-76214753D02*
X133203508Y-75879220D01*
D14*
%TO.C,BT1*%
X110272206Y-88313521D02*
X110272206Y-89020628D01*
X109706520Y-87747835D02*
X110272206Y-88313521D01*
X108999413Y-87747835D02*
X109706520Y-87747835D01*
X106453829Y-90293420D02*
X108999413Y-87747835D01*
X106453829Y-91000526D02*
X106453829Y-90293420D01*
X107019515Y-91566212D02*
X106453829Y-91000526D01*
X107726621Y-91566212D02*
X107019515Y-91566212D01*
X110272206Y-89020628D02*
X107726621Y-91566212D01*
D10*
%TO.C,R39*%
X127511641Y-79591188D02*
X127847174Y-79255655D01*
X126772714Y-78852261D02*
X127108247Y-78516728D01*
%TO.C,R31*%
X148954311Y-50709411D02*
X148618778Y-50373878D01*
X148215384Y-51448338D02*
X147879851Y-51112805D01*
%TO.C,R30*%
X127423252Y-91983234D02*
X127758785Y-91647701D01*
X126684325Y-91244307D02*
X127019858Y-90908774D01*
%TO.C,R23*%
X118393156Y-91333038D02*
X118057623Y-91668571D01*
X119132083Y-92071965D02*
X118796550Y-92407498D01*
%TO.C,R22*%
X117261785Y-90201667D02*
X116926252Y-90537200D01*
X118000712Y-90940594D02*
X117665179Y-91276127D01*
%TO.C,R15*%
X177698545Y-29008304D02*
X178034078Y-28672771D01*
X176959618Y-28269377D02*
X177295151Y-27933844D01*
%TO.C,R14*%
X180491616Y-31801376D02*
X180827149Y-31465843D01*
X179752689Y-31062449D02*
X180088222Y-30726916D01*
%TO.C,P1*%
X142611734Y-81408623D02*
X136134636Y-87885721D01*
X136134636Y-87885721D02*
X134929019Y-86680104D01*
X141406117Y-80203006D02*
X142611734Y-81408623D01*
X139984833Y-78781721D02*
X138627188Y-77424076D01*
X132150089Y-83901175D02*
X133507734Y-85258820D01*
%TO.C,C24*%
X154268800Y-56890106D02*
X154069989Y-56691295D01*
X153547551Y-57611355D02*
X153348740Y-57412544D01*
%TO.C,C23*%
X147692707Y-51798937D02*
X147493896Y-51600126D01*
X146971458Y-52520186D02*
X146772647Y-52321375D01*
%TO.C,C4*%
X175566036Y-31094851D02*
X175764847Y-30896040D01*
X174844787Y-30373602D02*
X175043598Y-30174791D01*
%TO.C,C3*%
X178394463Y-33923278D02*
X178593274Y-33724467D01*
X177673214Y-33202029D02*
X177872025Y-33003218D01*
%TO.C,U4*%
X124881032Y-75246188D02*
X123148621Y-76978600D01*
X125885124Y-78795864D02*
X127157916Y-77523072D01*
%TO.C,U3*%
X138966599Y-70946978D02*
X136668502Y-73245075D01*
X135805832Y-68139765D02*
X133684512Y-70261085D01*
%TO.C,U2*%
X149113582Y-54733020D02*
X150831851Y-56451290D01*
X152528908Y-53806710D02*
X151284400Y-52562202D01*
%TO.C,U1*%
X165723519Y-45321429D02*
X166218494Y-45816404D01*
X166218494Y-39848422D02*
X165723519Y-40343397D01*
X166713469Y-40343397D02*
X166218494Y-39848422D01*
X169202485Y-42832413D02*
X168707510Y-43327388D01*
X168707510Y-42337438D02*
X169202485Y-42832413D01*
X163234503Y-42832413D02*
X163729478Y-42337438D01*
X163729478Y-43327388D02*
X163234503Y-42832413D01*
D14*
%TO.C,TH1*%
X111544998Y-97265493D02*
X110837891Y-97265493D01*
X112110684Y-96699807D02*
X111544998Y-97265493D01*
X112110684Y-95992700D02*
X112110684Y-96699807D01*
X109565099Y-93447116D02*
X112110684Y-95992700D01*
X108857993Y-93447116D02*
X109565099Y-93447116D01*
X108292307Y-94012802D02*
X108857993Y-93447116D01*
X108292307Y-94719908D02*
X108292307Y-94012802D01*
X110837891Y-97265493D02*
X108292307Y-94719908D01*
D10*
%TO.C,R38*%
X113226453Y-92267707D02*
X113547570Y-91946590D01*
X112187006Y-91228260D02*
X112508123Y-90907143D01*
%TO.C,R37*%
X117670002Y-99958110D02*
X117348885Y-100279227D01*
X118709449Y-100997557D02*
X118388332Y-101318674D01*
%TO.C,R36*%
X131402016Y-70627321D02*
X131080899Y-70948438D01*
X130362569Y-69587874D02*
X130041452Y-69908991D01*
%TO.C,R35*%
X133947600Y-68081737D02*
X133626483Y-68402854D01*
X132908153Y-67042290D02*
X132587036Y-67363407D01*
%TO.C,R34*%
X139180191Y-67657472D02*
X138859074Y-67978589D01*
X138140744Y-66618025D02*
X137819627Y-66939142D01*
%TO.C,R33*%
X141110592Y-68968539D02*
X140789475Y-68647422D01*
X142150039Y-67929092D02*
X141828922Y-67607975D01*
%TO.C,R29*%
X128418025Y-92038514D02*
X128096908Y-92359631D01*
X129457472Y-93077961D02*
X129136355Y-93399078D01*
%TO.C,R28*%
X114183966Y-95188058D02*
X113862849Y-94866941D01*
X113144519Y-96227505D02*
X112823402Y-95906388D01*
%TO.C,R27*%
X115972946Y-93735571D02*
X115651829Y-94056688D01*
X117012393Y-94775018D02*
X116691276Y-95096135D01*
%TO.C,R26*%
X125035136Y-94954713D02*
X125356253Y-94633596D01*
X123995689Y-93915266D02*
X124316806Y-93594149D01*
%TO.C,R25*%
X119894470Y-94492175D02*
X120215587Y-94813292D01*
X120933917Y-93452728D02*
X121255034Y-93773845D01*
%TO.C,R24*%
X125731020Y-95008363D02*
X125409903Y-95329480D01*
X126770467Y-96047810D02*
X126449350Y-96368927D01*
%TO.C,R21*%
X122902592Y-92179936D02*
X122581475Y-92501053D01*
X123942039Y-93219383D02*
X123620922Y-93540500D01*
%TO.C,R20*%
X118480256Y-95906388D02*
X118801373Y-96227505D01*
X119519703Y-94866941D02*
X119840820Y-95188058D01*
%TO.C,R19*%
X118426607Y-96602272D02*
X118105490Y-96281155D01*
X117387160Y-97641719D02*
X117066043Y-97320602D01*
%TO.C,R18*%
X156292175Y-54211220D02*
X155971058Y-53890103D01*
X155252728Y-55250667D02*
X154931611Y-54929550D01*
%TO.C,R13*%
X174288042Y-32538398D02*
X173966925Y-32217281D01*
X173248595Y-33577845D02*
X172927478Y-33256728D01*
%TO.C,R12*%
X176692205Y-34942561D02*
X176371088Y-34621444D01*
X175652758Y-35982008D02*
X175331641Y-35660891D01*
%TO.C,R11*%
X176371088Y-28062412D02*
X176692205Y-27741295D01*
X175331641Y-27022965D02*
X175652758Y-26701848D01*
%TO.C,R10*%
X181745100Y-33436423D02*
X182066217Y-33115306D01*
X180705653Y-32396976D02*
X181026770Y-32075859D01*
%TO.C,R9*%
X144943111Y-54812261D02*
X144621994Y-54491144D01*
X143903664Y-55851708D02*
X143582547Y-55530591D01*
%TO.C,R8*%
X148320162Y-57156937D02*
X148641279Y-57478054D01*
X149359609Y-56117490D02*
X149680726Y-56438607D01*
%TO.C,R7*%
X153605169Y-51524215D02*
X153284052Y-51203098D01*
X152565722Y-52563662D02*
X152244605Y-52242545D01*
%TO.C,R6*%
X157455982Y-49452392D02*
X157777099Y-49131275D01*
X156416535Y-48412945D02*
X156737652Y-48091828D01*
%TO.C,R5*%
X156487246Y-53373916D02*
X156808363Y-53695033D01*
X157526693Y-52334469D02*
X157847810Y-52655586D01*
%TO.C,R4*%
X151445574Y-49876656D02*
X151766691Y-49555539D01*
X150406127Y-48837209D02*
X150727244Y-48516092D01*
%TO.C,FB1*%
X124209014Y-73160490D02*
X123643863Y-73725641D01*
X125000973Y-73952449D02*
X124435822Y-74517600D01*
%TO.C,D3*%
X112340494Y-98570105D02*
X114239075Y-100468686D01*
X113698139Y-97212460D02*
X112340494Y-98570105D01*
X115596720Y-99111041D02*
X113698139Y-97212460D01*
D15*
%TO.C,D2*%
X175312391Y-32657146D02*
G75*
G03*
X175312391Y-32657146I-50001J0D01*
G01*
%TO.C,D1*%
X177518564Y-32430872D02*
G75*
G03*
X177518564Y-32430872I-50001J0D01*
G01*
D10*
%TO.C,CV4*%
X170178293Y-31165151D02*
X169824739Y-31518705D01*
X170178293Y-31165151D02*
X170531846Y-31518705D01*
X167632708Y-33710736D02*
X167986262Y-33357182D01*
X167632708Y-33710736D02*
X167986262Y-34064289D01*
X173289562Y-34983528D02*
X173289562Y-34276421D01*
X171451085Y-36822005D02*
X170743978Y-36822005D01*
%TO.C,CV3*%
X175198750Y-41276778D02*
X175552304Y-40923224D01*
X175198750Y-41276778D02*
X174845197Y-40923224D01*
X177744335Y-38731193D02*
X177390781Y-39084747D01*
X177744335Y-38731193D02*
X177390781Y-38377640D01*
X172087481Y-37458401D02*
X172087481Y-38165508D01*
X173925958Y-35619924D02*
X174633065Y-35619924D01*
%TO.C,C34*%
X121088290Y-78155046D02*
X120718823Y-78524513D01*
X122127737Y-79194493D02*
X121758270Y-79563960D01*
%TO.C,C33*%
X128279566Y-74494005D02*
X127910099Y-74124538D01*
X127240119Y-75533452D02*
X126870652Y-75163985D01*
%TO.C,C32*%
X124390479Y-83615682D02*
X124021012Y-83246215D01*
X123351032Y-84655129D02*
X122981565Y-84285662D01*
%TO.C,C31*%
X111717354Y-90806958D02*
X112086821Y-90437491D01*
X110677907Y-89767511D02*
X111047374Y-89398044D01*
%TO.C,C30*%
X115627654Y-82022920D02*
X115997121Y-82392387D01*
X116667101Y-80983473D02*
X117036568Y-81352940D01*
%TO.C,C29*%
X136289314Y-65179637D02*
X136658781Y-65549104D01*
X135249867Y-66219084D02*
X135619334Y-66588551D01*
%TO.C,C28*%
X139487208Y-73290152D02*
X139117741Y-73659619D01*
X138447761Y-72250705D02*
X138078294Y-72620172D01*
%TO.C,C27*%
X133460887Y-71685019D02*
X133830354Y-72054486D01*
X132421440Y-72724466D02*
X132790907Y-73093933D01*
%TO.C,C26*%
X139579132Y-70548349D02*
X139209665Y-70178882D01*
X140618579Y-69508902D02*
X140249112Y-69139435D01*
%TO.C,C25*%
X127047429Y-87502998D02*
X127416896Y-87872465D01*
X128086876Y-86463551D02*
X128456343Y-86833018D01*
%TO.C,C21*%
X146735053Y-53280801D02*
X146365586Y-52911334D01*
X145695606Y-54320248D02*
X145326139Y-53950781D01*
%TO.C,C18*%
X160896630Y-40779153D02*
X161266097Y-40409686D01*
X159857183Y-39739706D02*
X160226650Y-39370239D01*
%TO.C,C17*%
X171326455Y-41380194D02*
X171695922Y-41010727D01*
X170287008Y-40340747D02*
X170656475Y-39971280D01*
%TO.C,C16*%
X122714635Y-79781392D02*
X122345168Y-80150859D01*
X123754082Y-80820839D02*
X123384615Y-81190306D01*
%TO.C,C15*%
X119956919Y-84094743D02*
X119587452Y-84464210D01*
X120996366Y-85134190D02*
X120626899Y-85503657D01*
%TO.C,C14*%
X115217532Y-93670741D02*
X115586999Y-93301274D01*
X114178085Y-92631294D02*
X114547552Y-92261827D01*
%TO.C,C13*%
X115627654Y-98710641D02*
X115997121Y-99080108D01*
X116667101Y-97671194D02*
X117036568Y-98040661D01*
%TO.C,C12*%
X125896616Y-89185912D02*
X125527149Y-89555379D01*
X126936063Y-90225359D02*
X126566596Y-90594826D01*
%TO.C,C11*%
X128638419Y-85982718D02*
X129007886Y-86352185D01*
X129677866Y-84943271D02*
X130047333Y-85312738D01*
%TO.C,C10*%
X155184979Y-49992755D02*
X154815512Y-49623288D01*
X154145532Y-51032202D02*
X153776065Y-50662735D01*
%TO.C,C9*%
X158054061Y-51758750D02*
X158423528Y-52128217D01*
X159093508Y-50719303D02*
X159462975Y-51088770D01*
%TO.C,C8*%
X153240435Y-58442681D02*
X152870968Y-58073214D01*
X152200988Y-59482128D02*
X151831521Y-59112661D01*
%TO.C,C6*%
X138285127Y-63922758D02*
X137915660Y-63553291D01*
X137245680Y-64962205D02*
X136876213Y-64592738D01*
%TO.C,C5*%
X158174269Y-43501515D02*
X158543736Y-43132048D01*
X157134822Y-42462068D02*
X157504289Y-42092601D01*
%TO.C,C38*%
D14*
X168502449Y-35679522D02*
X168435105Y-35679522D01*
X168300418Y-35612178D01*
X168233075Y-35544835D01*
X168165731Y-35410148D01*
X168165731Y-35275461D01*
X168199403Y-35174446D01*
X168300418Y-35006087D01*
X168401433Y-34905072D01*
X168569792Y-34804056D01*
X168670807Y-34770385D01*
X168805494Y-34770385D01*
X168940181Y-34837728D01*
X169007525Y-34905072D01*
X169074868Y-35039759D01*
X169074868Y-35107102D01*
X169377914Y-35275461D02*
X169815647Y-35713194D01*
X169310571Y-35746865D01*
X169411586Y-35847881D01*
X169445258Y-35948896D01*
X169445258Y-36016240D01*
X169411586Y-36117255D01*
X169243227Y-36285614D01*
X169142212Y-36319285D01*
X169074868Y-36319285D01*
X168973853Y-36285614D01*
X168771823Y-36083583D01*
X168738151Y-35982568D01*
X168738151Y-35915224D01*
X169916662Y-36420301D02*
X169882991Y-36319285D01*
X169882991Y-36251942D01*
X169916662Y-36150927D01*
X169950334Y-36117255D01*
X170051349Y-36083583D01*
X170118693Y-36083583D01*
X170219708Y-36117255D01*
X170354395Y-36251942D01*
X170388067Y-36352957D01*
X170388067Y-36420301D01*
X170354395Y-36521316D01*
X170320723Y-36554988D01*
X170219708Y-36588659D01*
X170152365Y-36588659D01*
X170051349Y-36554988D01*
X169916662Y-36420301D01*
X169815647Y-36386629D01*
X169748304Y-36386629D01*
X169647288Y-36420301D01*
X169512601Y-36554988D01*
X169478930Y-36656003D01*
X169478930Y-36723346D01*
X169512601Y-36824362D01*
X169647288Y-36959049D01*
X169748304Y-36992720D01*
X169815647Y-36992720D01*
X169916662Y-36959049D01*
X170051349Y-36824362D01*
X170085021Y-36723346D01*
X170085021Y-36656003D01*
X170051349Y-36554988D01*
%TO.C,C37*%
X164118387Y-47276073D02*
X164051043Y-47276073D01*
X163916356Y-47208729D01*
X163849013Y-47141386D01*
X163781669Y-47006699D01*
X163781669Y-46872012D01*
X163815341Y-46770997D01*
X163916356Y-46602638D01*
X164017371Y-46501623D01*
X164185730Y-46400607D01*
X164286745Y-46366936D01*
X164421432Y-46366936D01*
X164556119Y-46434279D01*
X164623463Y-46501623D01*
X164690806Y-46636310D01*
X164690806Y-46703653D01*
X164993852Y-46872012D02*
X165431585Y-47309745D01*
X164926509Y-47343416D01*
X165027524Y-47444432D01*
X165061196Y-47545447D01*
X165061196Y-47612791D01*
X165027524Y-47713806D01*
X164859165Y-47882165D01*
X164758150Y-47915836D01*
X164690806Y-47915836D01*
X164589791Y-47882165D01*
X164387761Y-47680134D01*
X164354089Y-47579119D01*
X164354089Y-47511775D01*
X165667287Y-47545447D02*
X166138692Y-48016852D01*
X165128539Y-48420913D01*
%TO.C,R3*%
X167499031Y-37356375D02*
X167600046Y-36783955D01*
X167094970Y-36952314D02*
X167802076Y-36245207D01*
X168071451Y-36514581D01*
X168105122Y-36615596D01*
X168105122Y-36682940D01*
X168071451Y-36783955D01*
X167970435Y-36884970D01*
X167869420Y-36918642D01*
X167802076Y-36918642D01*
X167701061Y-36884970D01*
X167431687Y-36615596D01*
X168441840Y-36884970D02*
X168879573Y-37322703D01*
X168374496Y-37356375D01*
X168475512Y-37457390D01*
X168509183Y-37558406D01*
X168509183Y-37625749D01*
X168475512Y-37726764D01*
X168307153Y-37895123D01*
X168206138Y-37928795D01*
X168138794Y-37928795D01*
X168037779Y-37895123D01*
X167835748Y-37693093D01*
X167802076Y-37592077D01*
X167802076Y-37524734D01*
%TO.C,R2*%
X160951222Y-51116674D02*
X161052237Y-50544254D01*
X160547161Y-50712613D02*
X161254267Y-50005506D01*
X161523642Y-50274880D01*
X161557313Y-50375895D01*
X161557313Y-50443239D01*
X161523642Y-50544254D01*
X161422626Y-50645269D01*
X161321611Y-50678941D01*
X161254267Y-50678941D01*
X161153252Y-50645269D01*
X160883878Y-50375895D01*
X161860359Y-50746285D02*
X161927703Y-50746285D01*
X162028718Y-50779956D01*
X162197077Y-50948315D01*
X162230748Y-51049331D01*
X162230748Y-51116674D01*
X162197077Y-51217689D01*
X162129733Y-51285033D01*
X161995046Y-51352376D01*
X161186924Y-51352376D01*
X161624657Y-51790109D01*
%TO.C,R1*%
X165660554Y-46407342D02*
X165761569Y-45834922D01*
X165256493Y-46003281D02*
X165963599Y-45296174D01*
X166232974Y-45565548D01*
X166266645Y-45666563D01*
X166266645Y-45733907D01*
X166232974Y-45834922D01*
X166131958Y-45935937D01*
X166030943Y-45969609D01*
X165963599Y-45969609D01*
X165862584Y-45935937D01*
X165593210Y-45666563D01*
X166333989Y-47080777D02*
X165929928Y-46676716D01*
X166131958Y-46878747D02*
X166839065Y-46171640D01*
X166670706Y-46205312D01*
X166536019Y-46205312D01*
X166435004Y-46171640D01*
%TO.C,RV1*%
X156034136Y-56435463D02*
X155461716Y-56334448D01*
X155630075Y-56839524D02*
X154922968Y-56132417D01*
X155192342Y-55863043D01*
X155293358Y-55829372D01*
X155360701Y-55829372D01*
X155461716Y-55863043D01*
X155562732Y-55964059D01*
X155596403Y-56065074D01*
X155596403Y-56132417D01*
X155562732Y-56233433D01*
X155293358Y-56502807D01*
X155529060Y-55526326D02*
X156471869Y-55997730D01*
X156000464Y-55054921D01*
X157313663Y-55155936D02*
X156909602Y-55559997D01*
X157111632Y-55357967D02*
X156404526Y-54650860D01*
X156438197Y-54819219D01*
X156438197Y-54953906D01*
X156404526Y-55054921D01*
%TO.C,J1*%
X153079776Y-70611607D02*
X153584852Y-71116683D01*
X153652196Y-71251370D01*
X153652196Y-71386057D01*
X153584852Y-71520744D01*
X153517509Y-71588087D01*
X154493990Y-70611607D02*
X154089929Y-71015668D01*
X154291959Y-70813637D02*
X153584852Y-70106530D01*
X153618524Y-70274889D01*
X153618524Y-70409576D01*
X153584852Y-70510591D01*
%TO.C,C36*%
X127447830Y-74047136D02*
X127380486Y-74047136D01*
X127245799Y-73979792D01*
X127178456Y-73912449D01*
X127111112Y-73777762D01*
X127111112Y-73643075D01*
X127144784Y-73542060D01*
X127245799Y-73373701D01*
X127346814Y-73272686D01*
X127515173Y-73171670D01*
X127616188Y-73137999D01*
X127750875Y-73137999D01*
X127885562Y-73205342D01*
X127952906Y-73272686D01*
X128020249Y-73407373D01*
X128020249Y-73474716D01*
X128323295Y-73643075D02*
X128761028Y-74080808D01*
X128255952Y-74114479D01*
X128356967Y-74215495D01*
X128390639Y-74316510D01*
X128390639Y-74383854D01*
X128356967Y-74484869D01*
X128188608Y-74653228D01*
X128087593Y-74686899D01*
X128020249Y-74686899D01*
X127919234Y-74653228D01*
X127717204Y-74451197D01*
X127683532Y-74350182D01*
X127683532Y-74282838D01*
X129367120Y-74686899D02*
X129232433Y-74552212D01*
X129131417Y-74518541D01*
X129064074Y-74518541D01*
X128895715Y-74552212D01*
X128727356Y-74653228D01*
X128457982Y-74922602D01*
X128424311Y-75023617D01*
X128424311Y-75090960D01*
X128457982Y-75191976D01*
X128592669Y-75326663D01*
X128693685Y-75360334D01*
X128761028Y-75360334D01*
X128862043Y-75326663D01*
X129030402Y-75158304D01*
X129064074Y-75057289D01*
X129064074Y-74989945D01*
X129030402Y-74888930D01*
X128895715Y-74754243D01*
X128794700Y-74720571D01*
X128727356Y-74720571D01*
X128626341Y-74754243D01*
%TO.C,C35*%
X130636881Y-76019964D02*
X130569537Y-76019964D01*
X130434850Y-75952620D01*
X130367507Y-75885277D01*
X130300163Y-75750590D01*
X130300163Y-75615903D01*
X130333835Y-75514888D01*
X130434850Y-75346529D01*
X130535865Y-75245514D01*
X130704224Y-75144498D01*
X130805239Y-75110827D01*
X130939926Y-75110827D01*
X131074613Y-75178170D01*
X131141957Y-75245514D01*
X131209300Y-75380201D01*
X131209300Y-75447544D01*
X131512346Y-75615903D02*
X131950079Y-76053636D01*
X131445003Y-76087307D01*
X131546018Y-76188323D01*
X131579690Y-76289338D01*
X131579690Y-76356682D01*
X131546018Y-76457697D01*
X131377659Y-76626056D01*
X131276644Y-76659727D01*
X131209300Y-76659727D01*
X131108285Y-76626056D01*
X130906255Y-76424025D01*
X130872583Y-76323010D01*
X130872583Y-76255666D01*
X132589842Y-76693399D02*
X132253125Y-76356682D01*
X131882736Y-76659727D01*
X131950079Y-76659727D01*
X132051094Y-76693399D01*
X132219453Y-76861758D01*
X132253125Y-76962773D01*
X132253125Y-77030117D01*
X132219453Y-77131132D01*
X132051094Y-77299491D01*
X131950079Y-77333162D01*
X131882736Y-77333162D01*
X131781720Y-77299491D01*
X131613362Y-77131132D01*
X131579690Y-77030117D01*
X131579690Y-76962773D01*
%TO.C,C22*%
X170987424Y-45964895D02*
X170987424Y-46032239D01*
X170920080Y-46166926D01*
X170852737Y-46234269D01*
X170718050Y-46301613D01*
X170583363Y-46301613D01*
X170482348Y-46267941D01*
X170313989Y-46166926D01*
X170212974Y-46065911D01*
X170111958Y-45897552D01*
X170078287Y-45796537D01*
X170078287Y-45661850D01*
X170145630Y-45527163D01*
X170212974Y-45459819D01*
X170347661Y-45392476D01*
X170415004Y-45392476D01*
X170684378Y-45123101D02*
X170684378Y-45055758D01*
X170718050Y-44954743D01*
X170886409Y-44786384D01*
X170987424Y-44752712D01*
X171054767Y-44752712D01*
X171155783Y-44786384D01*
X171223126Y-44853727D01*
X171290470Y-44988414D01*
X171290470Y-45796537D01*
X171728203Y-45358804D01*
X171357813Y-44449666D02*
X171357813Y-44382323D01*
X171391485Y-44281308D01*
X171559844Y-44112949D01*
X171660859Y-44079277D01*
X171728203Y-44079277D01*
X171829218Y-44112949D01*
X171896561Y-44180292D01*
X171963905Y-44314979D01*
X171963905Y-45123101D01*
X172401638Y-44685369D01*
%TO.C,C7*%
X168630065Y-38832882D02*
X168630065Y-38900225D01*
X168562721Y-39034912D01*
X168495378Y-39102256D01*
X168360690Y-39169599D01*
X168226003Y-39169599D01*
X168124988Y-39135928D01*
X167956629Y-39034912D01*
X167855614Y-38933897D01*
X167754599Y-38765538D01*
X167720927Y-38664523D01*
X167720927Y-38529836D01*
X167788271Y-38395149D01*
X167855614Y-38327805D01*
X167990301Y-38260462D01*
X168057645Y-38260462D01*
X168226003Y-37957416D02*
X168697408Y-37486012D01*
X169101469Y-38496164D01*
%TO.C,C2*%
X161382220Y-40777425D02*
X161382220Y-40844768D01*
X161314876Y-40979455D01*
X161247533Y-41046799D01*
X161112845Y-41114142D01*
X160978158Y-41114142D01*
X160877143Y-41080471D01*
X160708784Y-40979455D01*
X160607769Y-40878440D01*
X160506754Y-40710081D01*
X160473082Y-40609066D01*
X160473082Y-40474379D01*
X160540426Y-40339692D01*
X160607769Y-40272348D01*
X160742456Y-40205005D01*
X160809800Y-40205005D01*
X161079174Y-39935631D02*
X161079174Y-39868287D01*
X161112845Y-39767272D01*
X161281204Y-39598913D01*
X161382220Y-39565242D01*
X161449563Y-39565242D01*
X161550578Y-39598913D01*
X161617922Y-39666257D01*
X161685265Y-39800944D01*
X161685265Y-40609066D01*
X162122998Y-40171333D01*
%TO.C,C1*%
X163811133Y-47272202D02*
X163811133Y-47339545D01*
X163743789Y-47474232D01*
X163676446Y-47541576D01*
X163541758Y-47608919D01*
X163407071Y-47608919D01*
X163306056Y-47575248D01*
X163137697Y-47474232D01*
X163036682Y-47373217D01*
X162935667Y-47204858D01*
X162901995Y-47103843D01*
X162901995Y-46969156D01*
X162969339Y-46834469D01*
X163036682Y-46767125D01*
X163171369Y-46699782D01*
X163238713Y-46699782D01*
X164551911Y-46666110D02*
X164147850Y-47070171D01*
X164349881Y-46868141D02*
X163642774Y-46161034D01*
X163676446Y-46329393D01*
X163676446Y-46464080D01*
X163642774Y-46565095D01*
%TO.C,L1*%
X116919683Y-84753743D02*
X116582965Y-84417025D01*
X117290072Y-83709919D01*
X117525774Y-85359835D02*
X117121713Y-84955774D01*
X117323744Y-85157804D02*
X118030851Y-84450697D01*
X117862492Y-84484369D01*
X117727805Y-84484369D01*
X117626790Y-84450697D01*
%TO.C,C20*%
X118227157Y-78883747D02*
X118159813Y-78883747D01*
X118025126Y-78816403D01*
X117957783Y-78749060D01*
X117890439Y-78614373D01*
X117890439Y-78479686D01*
X117924111Y-78378671D01*
X118025126Y-78210312D01*
X118126141Y-78109297D01*
X118294500Y-78008281D01*
X118395515Y-77974610D01*
X118530202Y-77974610D01*
X118664889Y-78041953D01*
X118732233Y-78109297D01*
X118799576Y-78243984D01*
X118799576Y-78311327D01*
X119068951Y-78580701D02*
X119136294Y-78580701D01*
X119237309Y-78614373D01*
X119405668Y-78782732D01*
X119439340Y-78883747D01*
X119439340Y-78951090D01*
X119405668Y-79052106D01*
X119338325Y-79119449D01*
X119203638Y-79186793D01*
X118395515Y-79186793D01*
X118833248Y-79624526D01*
X119978088Y-79355152D02*
X120045431Y-79422495D01*
X120079103Y-79523510D01*
X120079103Y-79590854D01*
X120045431Y-79691869D01*
X119944416Y-79860228D01*
X119776057Y-80028587D01*
X119607699Y-80129602D01*
X119506683Y-80163274D01*
X119439340Y-80163274D01*
X119338325Y-80129602D01*
X119270981Y-80062258D01*
X119237309Y-79961243D01*
X119237309Y-79893900D01*
X119270981Y-79792884D01*
X119371996Y-79624526D01*
X119540355Y-79456167D01*
X119708714Y-79355152D01*
X119809729Y-79321480D01*
X119877073Y-79321480D01*
X119978088Y-79355152D01*
%TO.C,C19*%
X119863603Y-85280032D02*
X119863603Y-85347376D01*
X119796259Y-85482063D01*
X119728916Y-85549406D01*
X119594229Y-85616750D01*
X119459542Y-85616750D01*
X119358527Y-85583078D01*
X119190168Y-85482063D01*
X119089153Y-85381048D01*
X118988137Y-85212689D01*
X118954466Y-85111674D01*
X118954466Y-84976987D01*
X119021809Y-84842300D01*
X119089153Y-84774956D01*
X119223840Y-84707613D01*
X119291183Y-84707613D01*
X120604382Y-84673941D02*
X120200321Y-85078002D01*
X120402351Y-84875971D02*
X119695244Y-84168864D01*
X119728916Y-84337223D01*
X119728916Y-84471910D01*
X119695244Y-84572926D01*
X120941099Y-84337223D02*
X121075786Y-84202536D01*
X121109458Y-84101521D01*
X121109458Y-84034177D01*
X121075786Y-83865819D01*
X120974771Y-83697460D01*
X120705397Y-83428086D01*
X120604382Y-83394414D01*
X120537038Y-83394414D01*
X120436023Y-83428086D01*
X120301336Y-83562773D01*
X120267664Y-83663788D01*
X120267664Y-83731132D01*
X120301336Y-83832147D01*
X120469695Y-84000506D01*
X120570710Y-84034177D01*
X120638053Y-84034177D01*
X120739069Y-84000506D01*
X120873756Y-83865819D01*
X120907427Y-83764803D01*
X120907427Y-83697460D01*
X120873756Y-83596445D01*
%TO.C,U5*%
X119077705Y-90337194D02*
X118350732Y-91064167D01*
X118307969Y-91192456D01*
X118307969Y-91277982D01*
X118350732Y-91406272D01*
X118521785Y-91577324D01*
X118650074Y-91620087D01*
X118735600Y-91620087D01*
X118863890Y-91577324D01*
X119590863Y-90850351D01*
X120446125Y-91705614D02*
X120018494Y-91277982D01*
X119548100Y-91662850D01*
X119633626Y-91662850D01*
X119761915Y-91705614D01*
X119975731Y-91919429D01*
X120018494Y-92047719D01*
X120018494Y-92133245D01*
X119975731Y-92261534D01*
X119761915Y-92475350D01*
X119633626Y-92518113D01*
X119548100Y-92518113D01*
X119419810Y-92475350D01*
X119205995Y-92261534D01*
X119163232Y-92133245D01*
X119163232Y-92047719D01*
X122060922Y-84018452D02*
X122146448Y-84189505D01*
X122360264Y-84403320D01*
X122488553Y-84446083D01*
X122574080Y-84446083D01*
X122702369Y-84403320D01*
X122787895Y-84317794D01*
X122830658Y-84189505D01*
X122830658Y-84103978D01*
X122787895Y-83975689D01*
X122659606Y-83761873D01*
X122616843Y-83633584D01*
X122616843Y-83548058D01*
X122659606Y-83419768D01*
X122745132Y-83334242D01*
X122873421Y-83291479D01*
X122958948Y-83291479D01*
X123087237Y-83334242D01*
X123301053Y-83548058D01*
X123386579Y-83719110D01*
X123514868Y-84702662D02*
X123087237Y-85130293D01*
X123685921Y-83932926D02*
X123514868Y-84702662D01*
X124284605Y-84531610D01*
X124968815Y-85215820D02*
X124797762Y-85044767D01*
X124669473Y-85002004D01*
X124583946Y-85002004D01*
X124370131Y-85044767D01*
X124156315Y-85173057D01*
X123814210Y-85515162D01*
X123771447Y-85643451D01*
X123771447Y-85728977D01*
X123814210Y-85857267D01*
X123985263Y-86028319D01*
X124113552Y-86071082D01*
X124199078Y-86071082D01*
X124327368Y-86028319D01*
X124541183Y-85814503D01*
X124583946Y-85686214D01*
X124583946Y-85600688D01*
X124541183Y-85472398D01*
X124370131Y-85301346D01*
X124241841Y-85258583D01*
X124156315Y-85258583D01*
X124028026Y-85301346D01*
X124583946Y-86627003D02*
X124754999Y-86798055D01*
X124883288Y-86840818D01*
X124968815Y-86840818D01*
X125182630Y-86798055D01*
X125396446Y-86669766D01*
X125738551Y-86327661D01*
X125781314Y-86199372D01*
X125781314Y-86113845D01*
X125738551Y-85985556D01*
X125567498Y-85814503D01*
X125439209Y-85771740D01*
X125353683Y-85771740D01*
X125225393Y-85814503D01*
X125011578Y-86028319D01*
X124968815Y-86156608D01*
X124968815Y-86242135D01*
X125011578Y-86370424D01*
X125182630Y-86541477D01*
X125310920Y-86584240D01*
X125396446Y-86584240D01*
X125524735Y-86541477D01*
X126166182Y-86584240D02*
X126251708Y-86584240D01*
X126379998Y-86627003D01*
X126593813Y-86840818D01*
X126636576Y-86969108D01*
X126636576Y-87054634D01*
X126593813Y-87182923D01*
X126508287Y-87268450D01*
X126337235Y-87353976D01*
X125310920Y-87353976D01*
X125866840Y-87909897D01*
X127534602Y-87781607D02*
X127363550Y-87610555D01*
X127235260Y-87567792D01*
X127149734Y-87567792D01*
X126935918Y-87610555D01*
X126722103Y-87738844D01*
X126379998Y-88080949D01*
X126337235Y-88209238D01*
X126337235Y-88294765D01*
X126379998Y-88423054D01*
X126551050Y-88594107D01*
X126679340Y-88636870D01*
X126764866Y-88636870D01*
X126893155Y-88594107D01*
X127106971Y-88380291D01*
X127149734Y-88252002D01*
X127149734Y-88166475D01*
X127106971Y-88038186D01*
X126935918Y-87867133D01*
X126807629Y-87824370D01*
X126722103Y-87824370D01*
X126593813Y-87867133D01*
%TO.C,R40*%
X130406733Y-74291761D02*
X129834314Y-74190746D01*
X130002672Y-74695822D02*
X129295566Y-73988715D01*
X129564940Y-73719341D01*
X129665955Y-73685669D01*
X129733298Y-73685669D01*
X129834314Y-73719341D01*
X129935329Y-73820356D01*
X129969001Y-73921372D01*
X129969001Y-73988715D01*
X129935329Y-74089730D01*
X129665955Y-74359104D01*
X130541421Y-73214265D02*
X131012825Y-73685669D01*
X130103688Y-73113249D02*
X130440405Y-73786685D01*
X130878138Y-73348952D01*
X130810795Y-72473486D02*
X130878138Y-72406143D01*
X130979153Y-72372471D01*
X131046497Y-72372471D01*
X131147512Y-72406143D01*
X131315871Y-72507158D01*
X131484230Y-72675517D01*
X131585245Y-72843875D01*
X131618917Y-72944891D01*
X131618917Y-73012234D01*
X131585245Y-73113249D01*
X131517901Y-73180593D01*
X131416886Y-73214265D01*
X131349543Y-73214265D01*
X131248527Y-73180593D01*
X131080169Y-73079578D01*
X130911810Y-72911219D01*
X130810795Y-72742860D01*
X130777123Y-72641845D01*
X130777123Y-72574501D01*
X130810795Y-72473486D01*
%TO.C,R32*%
X131520427Y-75440810D02*
X130948008Y-75339795D01*
X131116366Y-75844871D02*
X130409260Y-75137764D01*
X130678634Y-74868390D01*
X130779649Y-74834718D01*
X130846992Y-74834718D01*
X130948008Y-74868390D01*
X131049023Y-74969405D01*
X131082695Y-75070421D01*
X131082695Y-75137764D01*
X131049023Y-75238779D01*
X130779649Y-75508153D01*
X131049023Y-74498001D02*
X131486756Y-74060268D01*
X131520427Y-74565344D01*
X131621443Y-74464329D01*
X131722458Y-74430657D01*
X131789802Y-74430657D01*
X131890817Y-74464329D01*
X132059176Y-74632688D01*
X132092847Y-74733703D01*
X132092847Y-74801047D01*
X132059176Y-74902062D01*
X131857145Y-75104092D01*
X131756130Y-75137764D01*
X131688786Y-75137764D01*
X131823473Y-73858237D02*
X131823473Y-73790894D01*
X131857145Y-73689879D01*
X132025504Y-73521520D01*
X132126519Y-73487848D01*
X132193863Y-73487848D01*
X132294878Y-73521520D01*
X132362221Y-73588863D01*
X132429565Y-73723550D01*
X132429565Y-74531672D01*
X132867298Y-74093940D01*
%TO.C,BT1*%
X109149926Y-91597526D02*
X109284613Y-91530182D01*
X109351956Y-91530182D01*
X109452972Y-91563854D01*
X109553987Y-91664869D01*
X109587659Y-91765885D01*
X109587659Y-91833228D01*
X109553987Y-91934243D01*
X109284613Y-92203617D01*
X108577506Y-91496511D01*
X108813208Y-91260808D01*
X108914224Y-91227137D01*
X108981567Y-91227137D01*
X109082582Y-91260808D01*
X109149926Y-91328152D01*
X109183598Y-91429167D01*
X109183598Y-91496511D01*
X109149926Y-91597526D01*
X108914224Y-91833228D01*
X109183598Y-90890419D02*
X109587659Y-90486358D01*
X110092735Y-91395495D02*
X109385628Y-90688388D01*
X110900857Y-90587373D02*
X110496796Y-90991434D01*
X110698827Y-90789404D02*
X109991720Y-90082297D01*
X110025392Y-90250656D01*
X110025392Y-90385343D01*
X109991720Y-90486358D01*
%TO.C,R39*%
X126164093Y-78817245D02*
X125591674Y-78716230D01*
X125760032Y-79221306D02*
X125052926Y-78514199D01*
X125322300Y-78244825D01*
X125423315Y-78211153D01*
X125490658Y-78211153D01*
X125591674Y-78244825D01*
X125692689Y-78345840D01*
X125726361Y-78446856D01*
X125726361Y-78514199D01*
X125692689Y-78615214D01*
X125423315Y-78884588D01*
X125692689Y-77874436D02*
X126130422Y-77436703D01*
X126164093Y-77941779D01*
X126265109Y-77840764D01*
X126366124Y-77807092D01*
X126433468Y-77807092D01*
X126534483Y-77840764D01*
X126702842Y-78009123D01*
X126736513Y-78110138D01*
X126736513Y-78177482D01*
X126702842Y-78278497D01*
X126500811Y-78480527D01*
X126399796Y-78514199D01*
X126332452Y-78514199D01*
X127174246Y-77807092D02*
X127308933Y-77672405D01*
X127342605Y-77571390D01*
X127342605Y-77504046D01*
X127308933Y-77335688D01*
X127207918Y-77167329D01*
X126938544Y-76897955D01*
X126837529Y-76864283D01*
X126770185Y-76864283D01*
X126669170Y-76897955D01*
X126534483Y-77032642D01*
X126500811Y-77133657D01*
X126500811Y-77201001D01*
X126534483Y-77302016D01*
X126702842Y-77470375D01*
X126803857Y-77504046D01*
X126871200Y-77504046D01*
X126972216Y-77470375D01*
X127106903Y-77335688D01*
X127140574Y-77234672D01*
X127140574Y-77167329D01*
X127106903Y-77066314D01*
%TO.C,R31*%
X146631467Y-51787583D02*
X146732482Y-51215164D01*
X146227406Y-51383522D02*
X146934513Y-50676416D01*
X147203887Y-50945790D01*
X147237559Y-51046805D01*
X147237559Y-51114148D01*
X147203887Y-51215164D01*
X147102872Y-51316179D01*
X147001856Y-51349851D01*
X146934513Y-51349851D01*
X146833498Y-51316179D01*
X146564124Y-51046805D01*
X147574276Y-51316179D02*
X148012009Y-51753912D01*
X147506933Y-51787583D01*
X147607948Y-51888599D01*
X147641620Y-51989614D01*
X147641620Y-52056958D01*
X147607948Y-52157973D01*
X147439589Y-52326332D01*
X147338574Y-52360003D01*
X147271230Y-52360003D01*
X147170215Y-52326332D01*
X146968185Y-52124301D01*
X146934513Y-52023286D01*
X146934513Y-51955942D01*
X147978337Y-53134454D02*
X147574276Y-52730393D01*
X147776307Y-52932423D02*
X148483414Y-52225316D01*
X148315055Y-52258988D01*
X148180368Y-52258988D01*
X148079353Y-52225316D01*
%TO.C,R30*%
X126075704Y-91209291D02*
X125503285Y-91108276D01*
X125671643Y-91613352D02*
X124964537Y-90906245D01*
X125233911Y-90636871D01*
X125334926Y-90603199D01*
X125402269Y-90603199D01*
X125503285Y-90636871D01*
X125604300Y-90737886D01*
X125637972Y-90838902D01*
X125637972Y-90906245D01*
X125604300Y-91007260D01*
X125334926Y-91276634D01*
X125604300Y-90266482D02*
X126042033Y-89828749D01*
X126075704Y-90333825D01*
X126176720Y-90232810D01*
X126277735Y-90199138D01*
X126345079Y-90199138D01*
X126446094Y-90232810D01*
X126614453Y-90401169D01*
X126648124Y-90502184D01*
X126648124Y-90569528D01*
X126614453Y-90670543D01*
X126412422Y-90872573D01*
X126311407Y-90906245D01*
X126244063Y-90906245D01*
X126479766Y-89391016D02*
X126547109Y-89323673D01*
X126648124Y-89290001D01*
X126715468Y-89290001D01*
X126816483Y-89323673D01*
X126984842Y-89424688D01*
X127153201Y-89593047D01*
X127254216Y-89761405D01*
X127287888Y-89862421D01*
X127287888Y-89929764D01*
X127254216Y-90030779D01*
X127186872Y-90098123D01*
X127085857Y-90131795D01*
X127018514Y-90131795D01*
X126917498Y-90098123D01*
X126749140Y-89997108D01*
X126580781Y-89828749D01*
X126479766Y-89660390D01*
X126446094Y-89559375D01*
X126446094Y-89492031D01*
X126479766Y-89391016D01*
%TO.C,R23*%
X119471328Y-93655881D02*
X118898909Y-93554866D01*
X119067267Y-94059942D02*
X118360161Y-93352835D01*
X118629535Y-93083461D01*
X118730550Y-93049789D01*
X118797893Y-93049789D01*
X118898909Y-93083461D01*
X118999924Y-93184476D01*
X119033596Y-93285492D01*
X119033596Y-93352835D01*
X118999924Y-93453850D01*
X118730550Y-93723224D01*
X119100939Y-92746743D02*
X119100939Y-92679400D01*
X119134611Y-92578385D01*
X119302970Y-92410026D01*
X119403985Y-92376354D01*
X119471328Y-92376354D01*
X119572344Y-92410026D01*
X119639687Y-92477369D01*
X119707031Y-92612056D01*
X119707031Y-93420179D01*
X120144764Y-92982446D01*
X119673359Y-92039637D02*
X120111092Y-91601904D01*
X120144764Y-92106980D01*
X120245779Y-92005965D01*
X120346794Y-91972293D01*
X120414138Y-91972293D01*
X120515153Y-92005965D01*
X120683512Y-92174324D01*
X120717183Y-92275339D01*
X120717183Y-92342682D01*
X120683512Y-92443698D01*
X120481481Y-92645728D01*
X120380466Y-92679400D01*
X120313122Y-92679400D01*
%TO.C,R22*%
X118339957Y-92524510D02*
X117767538Y-92423495D01*
X117935896Y-92928571D02*
X117228790Y-92221464D01*
X117498164Y-91952090D01*
X117599179Y-91918418D01*
X117666522Y-91918418D01*
X117767538Y-91952090D01*
X117868553Y-92053105D01*
X117902225Y-92154121D01*
X117902225Y-92221464D01*
X117868553Y-92322479D01*
X117599179Y-92591853D01*
X117969568Y-91615372D02*
X117969568Y-91548029D01*
X118003240Y-91447014D01*
X118171599Y-91278655D01*
X118272614Y-91244983D01*
X118339957Y-91244983D01*
X118440973Y-91278655D01*
X118508316Y-91345998D01*
X118575660Y-91480685D01*
X118575660Y-92288808D01*
X119013393Y-91851075D01*
X118643003Y-90941937D02*
X118643003Y-90874594D01*
X118676675Y-90773579D01*
X118845034Y-90605220D01*
X118946049Y-90571548D01*
X119013393Y-90571548D01*
X119114408Y-90605220D01*
X119181751Y-90672563D01*
X119249095Y-90807250D01*
X119249095Y-91615372D01*
X119686828Y-91177640D01*
%TO.C,R15*%
X176350997Y-28234361D02*
X175778578Y-28133346D01*
X175946936Y-28638422D02*
X175239830Y-27931315D01*
X175509204Y-27661941D01*
X175610219Y-27628269D01*
X175677562Y-27628269D01*
X175778578Y-27661941D01*
X175879593Y-27762956D01*
X175913265Y-27863972D01*
X175913265Y-27931315D01*
X175879593Y-28032330D01*
X175610219Y-28301704D01*
X177024433Y-27560926D02*
X176620372Y-27964987D01*
X176822402Y-27762956D02*
X176115295Y-27055849D01*
X176148967Y-27224208D01*
X176148967Y-27358895D01*
X176115295Y-27459911D01*
X176957089Y-26214056D02*
X176620372Y-26550773D01*
X176923417Y-26921162D01*
X176923417Y-26853819D01*
X176957089Y-26752804D01*
X177125448Y-26584445D01*
X177226463Y-26550773D01*
X177293807Y-26550773D01*
X177394822Y-26584445D01*
X177563181Y-26752804D01*
X177596852Y-26853819D01*
X177596852Y-26921162D01*
X177563181Y-27022178D01*
X177394822Y-27190536D01*
X177293807Y-27224208D01*
X177226463Y-27224208D01*
%TO.C,R14*%
X179144068Y-31027433D02*
X178571649Y-30926418D01*
X178740007Y-31431494D02*
X178032901Y-30724387D01*
X178302275Y-30455013D01*
X178403290Y-30421341D01*
X178470633Y-30421341D01*
X178571649Y-30455013D01*
X178672664Y-30556028D01*
X178706336Y-30657044D01*
X178706336Y-30724387D01*
X178672664Y-30825402D01*
X178403290Y-31094776D01*
X179817504Y-30353998D02*
X179413443Y-30758059D01*
X179615473Y-30556028D02*
X178908366Y-29848921D01*
X178942038Y-30017280D01*
X178942038Y-30151967D01*
X178908366Y-30252983D01*
X179952191Y-29276502D02*
X180423595Y-29747906D01*
X179514458Y-29175486D02*
X179851175Y-29848921D01*
X180288908Y-29411189D01*
%TO.C,P1*%
X132453640Y-78771451D02*
X131746533Y-78064345D01*
X132015907Y-77794970D01*
X132116922Y-77761299D01*
X132184266Y-77761299D01*
X132285281Y-77794970D01*
X132386296Y-77895986D01*
X132419968Y-77997001D01*
X132419968Y-78064345D01*
X132386296Y-78165360D01*
X132116922Y-78434734D01*
X133531136Y-77693955D02*
X133127075Y-78098016D01*
X133329106Y-77895986D02*
X132621999Y-77188879D01*
X132655671Y-77357238D01*
X132655671Y-77491925D01*
X132621999Y-77592940D01*
%TO.C,C24*%
X152090500Y-57960457D02*
X152023156Y-57960457D01*
X151888469Y-57893113D01*
X151821126Y-57825770D01*
X151753782Y-57691083D01*
X151753782Y-57556396D01*
X151787454Y-57455381D01*
X151888469Y-57287022D01*
X151989484Y-57186007D01*
X152157843Y-57084991D01*
X152258858Y-57051320D01*
X152393545Y-57051320D01*
X152528232Y-57118663D01*
X152595576Y-57186007D01*
X152662919Y-57320694D01*
X152662919Y-57388037D01*
X152932294Y-57657411D02*
X152999637Y-57657411D01*
X153100652Y-57691083D01*
X153269011Y-57859442D01*
X153302683Y-57960457D01*
X153302683Y-58027800D01*
X153269011Y-58128816D01*
X153201668Y-58196159D01*
X153066981Y-58263503D01*
X152258858Y-58263503D01*
X152696591Y-58701236D01*
X153774087Y-58835923D02*
X153302683Y-59307327D01*
X153875103Y-58398190D02*
X153201668Y-58734907D01*
X153639400Y-59172640D01*
%TO.C,C23*%
X145514407Y-52869288D02*
X145447063Y-52869288D01*
X145312376Y-52801944D01*
X145245033Y-52734601D01*
X145177689Y-52599914D01*
X145177689Y-52465227D01*
X145211361Y-52364212D01*
X145312376Y-52195853D01*
X145413391Y-52094838D01*
X145581750Y-51993822D01*
X145682765Y-51960151D01*
X145817452Y-51960151D01*
X145952139Y-52027494D01*
X146019483Y-52094838D01*
X146086826Y-52229525D01*
X146086826Y-52296868D01*
X146356201Y-52566242D02*
X146423544Y-52566242D01*
X146524559Y-52599914D01*
X146692918Y-52768273D01*
X146726590Y-52869288D01*
X146726590Y-52936631D01*
X146692918Y-53037647D01*
X146625575Y-53104990D01*
X146490888Y-53172334D01*
X145682765Y-53172334D01*
X146120498Y-53610067D01*
X147063307Y-53138662D02*
X147501040Y-53576395D01*
X146995964Y-53610067D01*
X147096979Y-53711082D01*
X147130651Y-53812097D01*
X147130651Y-53879441D01*
X147096979Y-53980456D01*
X146928620Y-54148815D01*
X146827605Y-54182486D01*
X146760262Y-54182486D01*
X146659246Y-54148815D01*
X146457216Y-53946784D01*
X146423544Y-53845769D01*
X146423544Y-53778425D01*
%TO.C,C4*%
X174428341Y-29994047D02*
X174428341Y-30061390D01*
X174360997Y-30196077D01*
X174293654Y-30263421D01*
X174158966Y-30330764D01*
X174024279Y-30330764D01*
X173923264Y-30297093D01*
X173754905Y-30196077D01*
X173653890Y-30095062D01*
X173552875Y-29926703D01*
X173519203Y-29825688D01*
X173519203Y-29691001D01*
X173586547Y-29556314D01*
X173653890Y-29488970D01*
X173788577Y-29421627D01*
X173855921Y-29421627D01*
X174630371Y-28983894D02*
X175101776Y-29455299D01*
X174192638Y-28882879D02*
X174529356Y-29556314D01*
X174967089Y-29118581D01*
%TO.C,C3*%
X177256768Y-32822474D02*
X177256768Y-32889817D01*
X177189424Y-33024504D01*
X177122081Y-33091848D01*
X176987393Y-33159191D01*
X176852706Y-33159191D01*
X176751691Y-33125520D01*
X176583332Y-33024504D01*
X176482317Y-32923489D01*
X176381302Y-32755130D01*
X176347630Y-32654115D01*
X176347630Y-32519428D01*
X176414974Y-32384741D01*
X176482317Y-32317397D01*
X176617004Y-32250054D01*
X176684348Y-32250054D01*
X176852706Y-31947008D02*
X177290439Y-31509275D01*
X177324111Y-32014352D01*
X177425126Y-31913336D01*
X177526142Y-31879665D01*
X177593485Y-31879665D01*
X177694500Y-31913336D01*
X177862859Y-32081695D01*
X177896531Y-32182710D01*
X177896531Y-32250054D01*
X177862859Y-32351069D01*
X177660829Y-32553100D01*
X177559813Y-32586772D01*
X177492470Y-32586772D01*
%TO.C,U4*%
X122406494Y-75121938D02*
X122978914Y-75694358D01*
X123079929Y-75728030D01*
X123147273Y-75728030D01*
X123248288Y-75694358D01*
X123382975Y-75559671D01*
X123416647Y-75458656D01*
X123416647Y-75391312D01*
X123382975Y-75290297D01*
X122810555Y-74717877D01*
X123686021Y-74313816D02*
X124157425Y-74785221D01*
X123248288Y-74212801D02*
X123585006Y-74886236D01*
X124022738Y-74448503D01*
%TO.C,U3*%
X137467869Y-73000618D02*
X138040289Y-73573038D01*
X138141304Y-73606710D01*
X138208648Y-73606710D01*
X138309663Y-73573038D01*
X138444350Y-73438351D01*
X138478022Y-73337336D01*
X138478022Y-73269992D01*
X138444350Y-73168977D01*
X137871930Y-72596557D01*
X138141304Y-72327183D02*
X138579037Y-71889451D01*
X138612709Y-72394527D01*
X138713724Y-72293512D01*
X138814739Y-72259840D01*
X138882083Y-72259840D01*
X138983098Y-72293512D01*
X139151457Y-72461870D01*
X139185129Y-72562886D01*
X139185129Y-72630229D01*
X139151457Y-72731244D01*
X138949426Y-72933275D01*
X138848411Y-72966947D01*
X138781068Y-72966947D01*
%TO.C,U2*%
X148919632Y-55093981D02*
X148347212Y-55666401D01*
X148313540Y-55767416D01*
X148313540Y-55834760D01*
X148347212Y-55935775D01*
X148481899Y-56070462D01*
X148582914Y-56104134D01*
X148650258Y-56104134D01*
X148751273Y-56070462D01*
X149323693Y-55498042D01*
X149559395Y-55868432D02*
X149626738Y-55868432D01*
X149727754Y-55902103D01*
X149896112Y-56070462D01*
X149929784Y-56171477D01*
X149929784Y-56238821D01*
X149896112Y-56339836D01*
X149828769Y-56407180D01*
X149694082Y-56474523D01*
X148885960Y-56474523D01*
X149323693Y-56912256D01*
%TO.C,U1*%
X163719376Y-44254034D02*
X163146956Y-44826454D01*
X163113284Y-44927469D01*
X163113284Y-44994813D01*
X163146956Y-45095828D01*
X163281643Y-45230515D01*
X163382658Y-45264187D01*
X163450002Y-45264187D01*
X163551017Y-45230515D01*
X164123437Y-44658095D01*
X164123437Y-46072309D02*
X163719376Y-45668248D01*
X163921406Y-45870278D02*
X164628513Y-45163172D01*
X164460154Y-45196843D01*
X164325467Y-45196843D01*
X164224452Y-45163172D01*
%TO.C,TH1*%
X108244156Y-95452942D02*
X108648217Y-95857003D01*
X107739080Y-96362079D02*
X108446187Y-95654973D01*
X108176813Y-96799812D02*
X108883920Y-96092705D01*
X108547202Y-96429423D02*
X108951263Y-96833484D01*
X108580874Y-97203873D02*
X109287981Y-96496766D01*
X109287981Y-97910980D02*
X108883920Y-97506919D01*
X109085950Y-97708949D02*
X109793057Y-97001843D01*
X109624698Y-97035514D01*
X109490011Y-97035514D01*
X109388996Y-97001843D01*
%TO.C,R38*%
X111565874Y-91195149D02*
X110993455Y-91094134D01*
X111161813Y-91599210D02*
X110454707Y-90892103D01*
X110724081Y-90622729D01*
X110825096Y-90589057D01*
X110892439Y-90589057D01*
X110993455Y-90622729D01*
X111094470Y-90723744D01*
X111128142Y-90824760D01*
X111128142Y-90892103D01*
X111094470Y-90993118D01*
X110825096Y-91262492D01*
X111094470Y-90252340D02*
X111532203Y-89814607D01*
X111565874Y-90319683D01*
X111666890Y-90218668D01*
X111767905Y-90184996D01*
X111835249Y-90184996D01*
X111936264Y-90218668D01*
X112104623Y-90387027D01*
X112138294Y-90488042D01*
X112138294Y-90555386D01*
X112104623Y-90656401D01*
X111902592Y-90858431D01*
X111801577Y-90892103D01*
X111734233Y-90892103D01*
X112239310Y-89713592D02*
X112138294Y-89747263D01*
X112070951Y-89747263D01*
X111969936Y-89713592D01*
X111936264Y-89679920D01*
X111902592Y-89578905D01*
X111902592Y-89511561D01*
X111936264Y-89410546D01*
X112070951Y-89275859D01*
X112171966Y-89242187D01*
X112239310Y-89242187D01*
X112340325Y-89275859D01*
X112373997Y-89309531D01*
X112407668Y-89410546D01*
X112407668Y-89477889D01*
X112373997Y-89578905D01*
X112239310Y-89713592D01*
X112205638Y-89814607D01*
X112205638Y-89881950D01*
X112239310Y-89982966D01*
X112373997Y-90117653D01*
X112475012Y-90151324D01*
X112542355Y-90151324D01*
X112643371Y-90117653D01*
X112778058Y-89982966D01*
X112811729Y-89881950D01*
X112811729Y-89814607D01*
X112778058Y-89713592D01*
X112643371Y-89578905D01*
X112542355Y-89545233D01*
X112475012Y-89545233D01*
X112373997Y-89578905D01*
%TO.C,R37*%
X119061205Y-102579568D02*
X118488786Y-102478553D01*
X118657144Y-102983629D02*
X117950038Y-102276522D01*
X118219412Y-102007148D01*
X118320427Y-101973476D01*
X118387770Y-101973476D01*
X118488786Y-102007148D01*
X118589801Y-102108163D01*
X118623473Y-102209179D01*
X118623473Y-102276522D01*
X118589801Y-102377537D01*
X118320427Y-102646911D01*
X118589801Y-101636759D02*
X119027534Y-101199026D01*
X119061205Y-101704102D01*
X119162221Y-101603087D01*
X119263236Y-101569415D01*
X119330580Y-101569415D01*
X119431595Y-101603087D01*
X119599954Y-101771446D01*
X119633625Y-101872461D01*
X119633625Y-101939805D01*
X119599954Y-102040820D01*
X119397923Y-102242850D01*
X119296908Y-102276522D01*
X119229564Y-102276522D01*
X119263236Y-100963324D02*
X119734641Y-100491919D01*
X120138702Y-101502072D01*
%TO.C,R36*%
X131753772Y-72209332D02*
X131181353Y-72108317D01*
X131349711Y-72613393D02*
X130642605Y-71906286D01*
X130911979Y-71636912D01*
X131012994Y-71603240D01*
X131080337Y-71603240D01*
X131181353Y-71636912D01*
X131282368Y-71737927D01*
X131316040Y-71838943D01*
X131316040Y-71906286D01*
X131282368Y-72007301D01*
X131012994Y-72276675D01*
X131282368Y-71266523D02*
X131720101Y-70828790D01*
X131753772Y-71333866D01*
X131854788Y-71232851D01*
X131955803Y-71199179D01*
X132023147Y-71199179D01*
X132124162Y-71232851D01*
X132292521Y-71401210D01*
X132326192Y-71502225D01*
X132326192Y-71569569D01*
X132292521Y-71670584D01*
X132090490Y-71872614D01*
X131989475Y-71906286D01*
X131922131Y-71906286D01*
X132326192Y-70222698D02*
X132191505Y-70357385D01*
X132157834Y-70458401D01*
X132157834Y-70525744D01*
X132191505Y-70694103D01*
X132292521Y-70862462D01*
X132561895Y-71131836D01*
X132662910Y-71165507D01*
X132730253Y-71165507D01*
X132831269Y-71131836D01*
X132965956Y-70997149D01*
X132999627Y-70896133D01*
X132999627Y-70828790D01*
X132965956Y-70727775D01*
X132797597Y-70559416D01*
X132696582Y-70525744D01*
X132629238Y-70525744D01*
X132528223Y-70559416D01*
X132393536Y-70694103D01*
X132359864Y-70795118D01*
X132359864Y-70862462D01*
X132393536Y-70963477D01*
%TO.C,R35*%
X134299356Y-69663748D02*
X133726937Y-69562733D01*
X133895295Y-70067809D02*
X133188189Y-69360702D01*
X133457563Y-69091328D01*
X133558578Y-69057656D01*
X133625921Y-69057656D01*
X133726937Y-69091328D01*
X133827952Y-69192343D01*
X133861624Y-69293359D01*
X133861624Y-69360702D01*
X133827952Y-69461717D01*
X133558578Y-69731091D01*
X133827952Y-68720939D02*
X134265685Y-68283206D01*
X134299356Y-68788282D01*
X134400372Y-68687267D01*
X134501387Y-68653595D01*
X134568731Y-68653595D01*
X134669746Y-68687267D01*
X134838105Y-68855626D01*
X134871776Y-68956641D01*
X134871776Y-69023985D01*
X134838105Y-69125000D01*
X134636074Y-69327030D01*
X134535059Y-69360702D01*
X134467715Y-69360702D01*
X134905448Y-67643443D02*
X134568731Y-67980160D01*
X134871776Y-68350549D01*
X134871776Y-68283206D01*
X134905448Y-68182191D01*
X135073807Y-68013832D01*
X135174822Y-67980160D01*
X135242166Y-67980160D01*
X135343181Y-68013832D01*
X135511540Y-68182191D01*
X135545211Y-68283206D01*
X135545211Y-68350549D01*
X135511540Y-68451565D01*
X135343181Y-68619923D01*
X135242166Y-68653595D01*
X135174822Y-68653595D01*
%TO.C,R34*%
X139531947Y-69239483D02*
X138959528Y-69138468D01*
X139127886Y-69643544D02*
X138420780Y-68936437D01*
X138690154Y-68667063D01*
X138791169Y-68633391D01*
X138858512Y-68633391D01*
X138959528Y-68667063D01*
X139060543Y-68768078D01*
X139094215Y-68869094D01*
X139094215Y-68936437D01*
X139060543Y-69037452D01*
X138791169Y-69306826D01*
X139060543Y-68296674D02*
X139498276Y-67858941D01*
X139531947Y-68364017D01*
X139632963Y-68263002D01*
X139733978Y-68229330D01*
X139801322Y-68229330D01*
X139902337Y-68263002D01*
X140070696Y-68431361D01*
X140104367Y-68532376D01*
X140104367Y-68599720D01*
X140070696Y-68700735D01*
X139868665Y-68902765D01*
X139767650Y-68936437D01*
X139700306Y-68936437D01*
X140340070Y-67488552D02*
X140811474Y-67959956D01*
X139902337Y-67387536D02*
X140239054Y-68060971D01*
X140676787Y-67623239D01*
%TO.C,R33*%
X139528580Y-69320295D02*
X139629595Y-68747876D01*
X139124519Y-68916234D02*
X139831626Y-68209128D01*
X140101000Y-68478502D01*
X140134672Y-68579517D01*
X140134672Y-68646860D01*
X140101000Y-68747876D01*
X139999985Y-68848891D01*
X139898969Y-68882563D01*
X139831626Y-68882563D01*
X139730611Y-68848891D01*
X139461237Y-68579517D01*
X140471389Y-68848891D02*
X140909122Y-69286624D01*
X140404046Y-69320295D01*
X140505061Y-69421311D01*
X140538733Y-69522326D01*
X140538733Y-69589670D01*
X140505061Y-69690685D01*
X140336702Y-69859044D01*
X140235687Y-69892715D01*
X140168343Y-69892715D01*
X140067328Y-69859044D01*
X139865298Y-69657013D01*
X139831626Y-69555998D01*
X139831626Y-69488654D01*
X141144824Y-69522326D02*
X141582557Y-69960059D01*
X141077481Y-69993731D01*
X141178496Y-70094746D01*
X141212168Y-70195761D01*
X141212168Y-70263105D01*
X141178496Y-70364120D01*
X141010137Y-70532479D01*
X140909122Y-70566150D01*
X140841779Y-70566150D01*
X140740763Y-70532479D01*
X140538733Y-70330448D01*
X140505061Y-70229433D01*
X140505061Y-70162089D01*
%TO.C,R29*%
X129809228Y-94659972D02*
X129236809Y-94558957D01*
X129405167Y-95064033D02*
X128698061Y-94356926D01*
X128967435Y-94087552D01*
X129068450Y-94053880D01*
X129135793Y-94053880D01*
X129236809Y-94087552D01*
X129337824Y-94188567D01*
X129371496Y-94289583D01*
X129371496Y-94356926D01*
X129337824Y-94457941D01*
X129068450Y-94727315D01*
X129438839Y-93750834D02*
X129438839Y-93683491D01*
X129472511Y-93582476D01*
X129640870Y-93414117D01*
X129741885Y-93380445D01*
X129809228Y-93380445D01*
X129910244Y-93414117D01*
X129977587Y-93481460D01*
X130044931Y-93616147D01*
X130044931Y-94424270D01*
X130482664Y-93986537D01*
X130819381Y-93649819D02*
X130954068Y-93515132D01*
X130987740Y-93414117D01*
X130987740Y-93346773D01*
X130954068Y-93178415D01*
X130853053Y-93010056D01*
X130583679Y-92740682D01*
X130482664Y-92707010D01*
X130415320Y-92707010D01*
X130314305Y-92740682D01*
X130179618Y-92875369D01*
X130145946Y-92976384D01*
X130145946Y-93043728D01*
X130179618Y-93144743D01*
X130347977Y-93313102D01*
X130448992Y-93346773D01*
X130516335Y-93346773D01*
X130617351Y-93313102D01*
X130752038Y-93178415D01*
X130785709Y-93077399D01*
X130785709Y-93010056D01*
X130752038Y-92909041D01*
%TO.C,R28*%
X111562507Y-96579261D02*
X111663522Y-96006842D01*
X111158446Y-96175200D02*
X111865553Y-95468094D01*
X112134927Y-95737468D01*
X112168599Y-95838483D01*
X112168599Y-95905826D01*
X112134927Y-96006842D01*
X112033912Y-96107857D01*
X111932896Y-96141529D01*
X111865553Y-96141529D01*
X111764538Y-96107857D01*
X111495164Y-95838483D01*
X112471645Y-96208872D02*
X112538988Y-96208872D01*
X112640003Y-96242544D01*
X112808362Y-96410903D01*
X112842034Y-96511918D01*
X112842034Y-96579261D01*
X112808362Y-96680277D01*
X112741019Y-96747620D01*
X112606332Y-96814964D01*
X111798209Y-96814964D01*
X112235942Y-97252697D01*
X113044064Y-97252697D02*
X113010393Y-97151681D01*
X113010393Y-97084338D01*
X113044064Y-96983323D01*
X113077736Y-96949651D01*
X113178751Y-96915979D01*
X113246095Y-96915979D01*
X113347110Y-96949651D01*
X113481797Y-97084338D01*
X113515469Y-97185353D01*
X113515469Y-97252697D01*
X113481797Y-97353712D01*
X113448125Y-97387384D01*
X113347110Y-97421055D01*
X113279767Y-97421055D01*
X113178751Y-97387384D01*
X113044064Y-97252697D01*
X112943049Y-97219025D01*
X112875706Y-97219025D01*
X112774690Y-97252697D01*
X112640003Y-97387384D01*
X112606332Y-97488399D01*
X112606332Y-97555742D01*
X112640003Y-97656758D01*
X112774690Y-97791445D01*
X112875706Y-97825116D01*
X112943049Y-97825116D01*
X113044064Y-97791445D01*
X113178751Y-97656758D01*
X113212423Y-97555742D01*
X113212423Y-97488399D01*
X113178751Y-97387384D01*
%TO.C,R27*%
X117364149Y-96357029D02*
X116791730Y-96256014D01*
X116960088Y-96761090D02*
X116252982Y-96053983D01*
X116522356Y-95784609D01*
X116623371Y-95750937D01*
X116690714Y-95750937D01*
X116791730Y-95784609D01*
X116892745Y-95885624D01*
X116926417Y-95986640D01*
X116926417Y-96053983D01*
X116892745Y-96154998D01*
X116623371Y-96424372D01*
X116993760Y-95447891D02*
X116993760Y-95380548D01*
X117027432Y-95279533D01*
X117195791Y-95111174D01*
X117296806Y-95077502D01*
X117364149Y-95077502D01*
X117465165Y-95111174D01*
X117532508Y-95178517D01*
X117599852Y-95313204D01*
X117599852Y-96121327D01*
X118037585Y-95683594D01*
X117566180Y-94740785D02*
X118037585Y-94269380D01*
X118441646Y-95279533D01*
%TO.C,R26*%
X123374557Y-93882155D02*
X122802138Y-93781140D01*
X122970496Y-94286216D02*
X122263390Y-93579109D01*
X122532764Y-93309735D01*
X122633779Y-93276063D01*
X122701122Y-93276063D01*
X122802138Y-93309735D01*
X122903153Y-93410750D01*
X122936825Y-93511766D01*
X122936825Y-93579109D01*
X122903153Y-93680124D01*
X122633779Y-93949498D01*
X123004168Y-92973017D02*
X123004168Y-92905674D01*
X123037840Y-92804659D01*
X123206199Y-92636300D01*
X123307214Y-92602628D01*
X123374557Y-92602628D01*
X123475573Y-92636300D01*
X123542916Y-92703643D01*
X123610260Y-92838330D01*
X123610260Y-93646453D01*
X124047993Y-93208720D01*
X123946977Y-91895521D02*
X123812290Y-92030208D01*
X123778619Y-92131224D01*
X123778619Y-92198567D01*
X123812290Y-92366926D01*
X123913306Y-92535285D01*
X124182680Y-92804659D01*
X124283695Y-92838330D01*
X124351038Y-92838330D01*
X124452054Y-92804659D01*
X124586741Y-92669972D01*
X124620412Y-92568956D01*
X124620412Y-92501613D01*
X124586741Y-92400598D01*
X124418382Y-92232239D01*
X124317367Y-92198567D01*
X124250023Y-92198567D01*
X124149008Y-92232239D01*
X124014321Y-92366926D01*
X123980649Y-92467941D01*
X123980649Y-92535285D01*
X124014321Y-92636300D01*
%TO.C,R25*%
X120967027Y-92831596D02*
X121068042Y-92259177D01*
X120562966Y-92427535D02*
X121270073Y-91720429D01*
X121539447Y-91989803D01*
X121573119Y-92090818D01*
X121573119Y-92158161D01*
X121539447Y-92259177D01*
X121438432Y-92360192D01*
X121337416Y-92393864D01*
X121270073Y-92393864D01*
X121169058Y-92360192D01*
X120899684Y-92090818D01*
X121876165Y-92461207D02*
X121943508Y-92461207D01*
X122044523Y-92494879D01*
X122212882Y-92663238D01*
X122246554Y-92764253D01*
X122246554Y-92831596D01*
X122212882Y-92932612D01*
X122145539Y-92999955D01*
X122010852Y-93067299D01*
X121202729Y-93067299D01*
X121640462Y-93505032D01*
X122987332Y-93437688D02*
X122650615Y-93100971D01*
X122280226Y-93404016D01*
X122347569Y-93404016D01*
X122448584Y-93437688D01*
X122616943Y-93606047D01*
X122650615Y-93707062D01*
X122650615Y-93774406D01*
X122616943Y-93875421D01*
X122448584Y-94043780D01*
X122347569Y-94077451D01*
X122280226Y-94077451D01*
X122179210Y-94043780D01*
X122010852Y-93875421D01*
X121977180Y-93774406D01*
X121977180Y-93707062D01*
%TO.C,R24*%
X127122223Y-97629821D02*
X126549804Y-97528806D01*
X126718162Y-98033882D02*
X126011056Y-97326775D01*
X126280430Y-97057401D01*
X126381445Y-97023729D01*
X126448788Y-97023729D01*
X126549804Y-97057401D01*
X126650819Y-97158416D01*
X126684491Y-97259432D01*
X126684491Y-97326775D01*
X126650819Y-97427790D01*
X126381445Y-97697164D01*
X126751834Y-96720683D02*
X126751834Y-96653340D01*
X126785506Y-96552325D01*
X126953865Y-96383966D01*
X127054880Y-96350294D01*
X127122223Y-96350294D01*
X127223239Y-96383966D01*
X127290582Y-96451309D01*
X127357926Y-96585996D01*
X127357926Y-97394119D01*
X127795659Y-96956386D01*
X127930346Y-95878890D02*
X128401750Y-96350294D01*
X127492613Y-95777874D02*
X127829330Y-96451309D01*
X128267063Y-96013577D01*
%TO.C,R21*%
X124293795Y-94801394D02*
X123721376Y-94700379D01*
X123889734Y-95205455D02*
X123182628Y-94498348D01*
X123452002Y-94228974D01*
X123553017Y-94195302D01*
X123620360Y-94195302D01*
X123721376Y-94228974D01*
X123822391Y-94329989D01*
X123856063Y-94431005D01*
X123856063Y-94498348D01*
X123822391Y-94599363D01*
X123553017Y-94868737D01*
X123923406Y-93892256D02*
X123923406Y-93824913D01*
X123957078Y-93723898D01*
X124125437Y-93555539D01*
X124226452Y-93521867D01*
X124293795Y-93521867D01*
X124394811Y-93555539D01*
X124462154Y-93622882D01*
X124529498Y-93757569D01*
X124529498Y-94565692D01*
X124967231Y-94127959D01*
X125640666Y-93454524D02*
X125236605Y-93858585D01*
X125438635Y-93656554D02*
X124731528Y-92949447D01*
X124765200Y-93117806D01*
X124765200Y-93252493D01*
X124731528Y-93353508D01*
%TO.C,R20*%
X119552813Y-94245809D02*
X119653828Y-93673390D01*
X119148752Y-93841748D02*
X119855859Y-93134642D01*
X120125233Y-93404016D01*
X120158905Y-93505031D01*
X120158905Y-93572374D01*
X120125233Y-93673390D01*
X120024218Y-93774405D01*
X119923202Y-93808077D01*
X119855859Y-93808077D01*
X119754844Y-93774405D01*
X119485470Y-93505031D01*
X120461951Y-93875420D02*
X120529294Y-93875420D01*
X120630309Y-93909092D01*
X120798668Y-94077451D01*
X120832340Y-94178466D01*
X120832340Y-94245809D01*
X120798668Y-94346825D01*
X120731325Y-94414168D01*
X120596638Y-94481512D01*
X119788515Y-94481512D01*
X120226248Y-94919245D01*
X121371088Y-94649871D02*
X121438431Y-94717214D01*
X121472103Y-94818229D01*
X121472103Y-94885573D01*
X121438431Y-94986588D01*
X121337416Y-95154947D01*
X121169057Y-95323306D01*
X121000699Y-95424321D01*
X120899683Y-95457993D01*
X120832340Y-95457993D01*
X120731325Y-95424321D01*
X120663981Y-95356977D01*
X120630309Y-95255962D01*
X120630309Y-95188619D01*
X120663981Y-95087603D01*
X120764996Y-94919245D01*
X120933355Y-94750886D01*
X121101714Y-94649871D01*
X121202729Y-94616199D01*
X121270073Y-94616199D01*
X121371088Y-94649871D01*
%TO.C,R19*%
X115805148Y-97993475D02*
X115906163Y-97421056D01*
X115401087Y-97589414D02*
X116108194Y-96882308D01*
X116377568Y-97151682D01*
X116411240Y-97252697D01*
X116411240Y-97320040D01*
X116377568Y-97421056D01*
X116276553Y-97522071D01*
X116175537Y-97555743D01*
X116108194Y-97555743D01*
X116007179Y-97522071D01*
X115737805Y-97252697D01*
X116478583Y-98666911D02*
X116074522Y-98262850D01*
X116276553Y-98464880D02*
X116983660Y-97757773D01*
X116815301Y-97791445D01*
X116680614Y-97791445D01*
X116579599Y-97757773D01*
X116815301Y-99003628D02*
X116949988Y-99138315D01*
X117051003Y-99171987D01*
X117118347Y-99171987D01*
X117286705Y-99138315D01*
X117455064Y-99037300D01*
X117724438Y-98767926D01*
X117758110Y-98666911D01*
X117758110Y-98599567D01*
X117724438Y-98498552D01*
X117589751Y-98363865D01*
X117488736Y-98330193D01*
X117421392Y-98330193D01*
X117320377Y-98363865D01*
X117152018Y-98532224D01*
X117118347Y-98633239D01*
X117118347Y-98700582D01*
X117152018Y-98801598D01*
X117286705Y-98936285D01*
X117387721Y-98969956D01*
X117455064Y-98969956D01*
X117556079Y-98936285D01*
%TO.C,R18*%
X153670716Y-55602423D02*
X153771731Y-55030004D01*
X153266655Y-55198362D02*
X153973762Y-54491256D01*
X154243136Y-54760630D01*
X154276808Y-54861645D01*
X154276808Y-54928988D01*
X154243136Y-55030004D01*
X154142121Y-55131019D01*
X154041105Y-55164691D01*
X153973762Y-55164691D01*
X153872747Y-55131019D01*
X153603373Y-54861645D01*
X154344151Y-56275859D02*
X153940090Y-55871798D01*
X154142121Y-56073828D02*
X154849228Y-55366721D01*
X154680869Y-55400393D01*
X154546182Y-55400393D01*
X154445167Y-55366721D01*
X155152273Y-56275859D02*
X155118602Y-56174843D01*
X155118602Y-56107500D01*
X155152273Y-56006485D01*
X155185945Y-55972813D01*
X155286960Y-55939141D01*
X155354304Y-55939141D01*
X155455319Y-55972813D01*
X155590006Y-56107500D01*
X155623678Y-56208515D01*
X155623678Y-56275859D01*
X155590006Y-56376874D01*
X155556334Y-56410546D01*
X155455319Y-56444217D01*
X155387976Y-56444217D01*
X155286960Y-56410546D01*
X155152273Y-56275859D01*
X155051258Y-56242187D01*
X154983915Y-56242187D01*
X154882899Y-56275859D01*
X154748212Y-56410546D01*
X154714541Y-56511561D01*
X154714541Y-56578904D01*
X154748212Y-56679920D01*
X154882899Y-56814607D01*
X154983915Y-56848278D01*
X155051258Y-56848278D01*
X155152273Y-56814607D01*
X155286960Y-56679920D01*
X155320632Y-56578904D01*
X155320632Y-56511561D01*
X155286960Y-56410546D01*
%TO.C,R13*%
X171666583Y-33929601D02*
X171767598Y-33357182D01*
X171262522Y-33525540D02*
X171969629Y-32818434D01*
X172239003Y-33087808D01*
X172272675Y-33188823D01*
X172272675Y-33256166D01*
X172239003Y-33357182D01*
X172137988Y-33458197D01*
X172036972Y-33491869D01*
X171969629Y-33491869D01*
X171868614Y-33458197D01*
X171599240Y-33188823D01*
X172340018Y-34603037D02*
X171935957Y-34198976D01*
X172137988Y-34401006D02*
X172845095Y-33693899D01*
X172676736Y-33727571D01*
X172542049Y-33727571D01*
X172441034Y-33693899D01*
X173282827Y-34131632D02*
X173720560Y-34569365D01*
X173215484Y-34603037D01*
X173316499Y-34704052D01*
X173350171Y-34805067D01*
X173350171Y-34872411D01*
X173316499Y-34973426D01*
X173148140Y-35141785D01*
X173047125Y-35175456D01*
X172979782Y-35175456D01*
X172878766Y-35141785D01*
X172676736Y-34939754D01*
X172643064Y-34838739D01*
X172643064Y-34771395D01*
%TO.C,R12*%
X174070746Y-36333764D02*
X174171761Y-35761345D01*
X173666685Y-35929703D02*
X174373792Y-35222597D01*
X174643166Y-35491971D01*
X174676838Y-35592986D01*
X174676838Y-35660329D01*
X174643166Y-35761345D01*
X174542151Y-35862360D01*
X174441135Y-35896032D01*
X174373792Y-35896032D01*
X174272777Y-35862360D01*
X174003403Y-35592986D01*
X174744181Y-37007200D02*
X174340120Y-36603139D01*
X174542151Y-36805169D02*
X175249258Y-36098062D01*
X175080899Y-36131734D01*
X174946212Y-36131734D01*
X174845197Y-36098062D01*
X175653319Y-36636810D02*
X175720662Y-36636810D01*
X175821677Y-36670482D01*
X175990036Y-36838841D01*
X176023708Y-36939856D01*
X176023708Y-37007200D01*
X175990036Y-37108215D01*
X175922693Y-37175558D01*
X175788006Y-37242902D01*
X174979884Y-37242902D01*
X175417616Y-37680635D01*
%TO.C,R11*%
X174710509Y-26989854D02*
X174138090Y-26888839D01*
X174306448Y-27393915D02*
X173599342Y-26686808D01*
X173868716Y-26417434D01*
X173969731Y-26383762D01*
X174037074Y-26383762D01*
X174138090Y-26417434D01*
X174239105Y-26518449D01*
X174272777Y-26619465D01*
X174272777Y-26686808D01*
X174239105Y-26787823D01*
X173969731Y-27057197D01*
X175383945Y-26316419D02*
X174979884Y-26720480D01*
X175181914Y-26518449D02*
X174474807Y-25811342D01*
X174508479Y-25979701D01*
X174508479Y-26114388D01*
X174474807Y-26215404D01*
X176057380Y-25642984D02*
X175653319Y-26047045D01*
X175855349Y-25845014D02*
X175148242Y-25137907D01*
X175181914Y-25306266D01*
X175181914Y-25440953D01*
X175148242Y-25541968D01*
%TO.C,R10*%
X180084521Y-32363865D02*
X179512102Y-32262850D01*
X179680460Y-32767926D02*
X178973354Y-32060819D01*
X179242728Y-31791445D01*
X179343743Y-31757773D01*
X179411086Y-31757773D01*
X179512102Y-31791445D01*
X179613117Y-31892460D01*
X179646789Y-31993476D01*
X179646789Y-32060819D01*
X179613117Y-32161834D01*
X179343743Y-32431208D01*
X180757957Y-31690430D02*
X180353896Y-32094491D01*
X180555926Y-31892460D02*
X179848819Y-31185353D01*
X179882491Y-31353712D01*
X179882491Y-31488399D01*
X179848819Y-31589415D01*
X180488583Y-30545590D02*
X180555926Y-30478247D01*
X180656941Y-30444575D01*
X180724285Y-30444575D01*
X180825300Y-30478247D01*
X180993659Y-30579262D01*
X181162018Y-30747621D01*
X181263033Y-30915979D01*
X181296705Y-31016995D01*
X181296705Y-31084338D01*
X181263033Y-31185353D01*
X181195689Y-31252697D01*
X181094674Y-31286369D01*
X181027331Y-31286369D01*
X180926315Y-31252697D01*
X180757957Y-31151682D01*
X180589598Y-30983323D01*
X180488583Y-30814964D01*
X180454911Y-30713949D01*
X180454911Y-30646605D01*
X180488583Y-30545590D01*
%TO.C,R9*%
X142658370Y-56540182D02*
X142759385Y-55967762D01*
X142254309Y-56136121D02*
X142961415Y-55429014D01*
X143230790Y-55698388D01*
X143264461Y-55799403D01*
X143264461Y-55866747D01*
X143230790Y-55967762D01*
X143129774Y-56068777D01*
X143028759Y-56102449D01*
X142961415Y-56102449D01*
X142860400Y-56068777D01*
X142591026Y-55799403D01*
X142995087Y-56876900D02*
X143129774Y-57011587D01*
X143230790Y-57045258D01*
X143298133Y-57045258D01*
X143466492Y-57011587D01*
X143634851Y-56910571D01*
X143904225Y-56641197D01*
X143937896Y-56540182D01*
X143937896Y-56472839D01*
X143904225Y-56371823D01*
X143769538Y-56237136D01*
X143668522Y-56203464D01*
X143601179Y-56203464D01*
X143500164Y-56237136D01*
X143331805Y-56405495D01*
X143298133Y-56506510D01*
X143298133Y-56573854D01*
X143331805Y-56674869D01*
X143466492Y-56809556D01*
X143567507Y-56843228D01*
X143634851Y-56843228D01*
X143735866Y-56809556D01*
%TO.C,R8*%
X149729437Y-55833076D02*
X149830452Y-55260656D01*
X149325376Y-55429015D02*
X150032482Y-54721908D01*
X150301857Y-54991282D01*
X150335528Y-55092297D01*
X150335528Y-55159641D01*
X150301857Y-55260656D01*
X150200841Y-55361671D01*
X150099826Y-55395343D01*
X150032482Y-55395343D01*
X149931467Y-55361671D01*
X149662093Y-55092297D01*
X150537559Y-55833076D02*
X150503887Y-55732061D01*
X150503887Y-55664717D01*
X150537559Y-55563702D01*
X150571231Y-55530030D01*
X150672246Y-55496358D01*
X150739589Y-55496358D01*
X150840605Y-55530030D01*
X150975292Y-55664717D01*
X151008963Y-55765733D01*
X151008963Y-55833076D01*
X150975292Y-55934091D01*
X150941620Y-55967763D01*
X150840605Y-56001435D01*
X150773261Y-56001435D01*
X150672246Y-55967763D01*
X150537559Y-55833076D01*
X150436544Y-55799404D01*
X150369200Y-55799404D01*
X150268185Y-55833076D01*
X150133498Y-55967763D01*
X150099826Y-56068778D01*
X150099826Y-56136122D01*
X150133498Y-56237137D01*
X150268185Y-56371824D01*
X150369200Y-56405496D01*
X150436544Y-56405496D01*
X150537559Y-56371824D01*
X150672246Y-56237137D01*
X150705918Y-56136122D01*
X150705918Y-56068778D01*
X150672246Y-55967763D01*
%TO.C,R7*%
X151320428Y-53252136D02*
X151421443Y-52679716D01*
X150916367Y-52848075D02*
X151623473Y-52140968D01*
X151892848Y-52410342D01*
X151926519Y-52511357D01*
X151926519Y-52578701D01*
X151892848Y-52679716D01*
X151791832Y-52780731D01*
X151690817Y-52814403D01*
X151623473Y-52814403D01*
X151522458Y-52780731D01*
X151253084Y-52511357D01*
X152263237Y-52780731D02*
X152734641Y-53252136D01*
X151724489Y-53656197D01*
%TO.C,R6*%
X156132121Y-48043116D02*
X155559701Y-47942101D01*
X155728060Y-48447177D02*
X155020953Y-47740071D01*
X155290327Y-47470696D01*
X155391342Y-47437025D01*
X155458686Y-47437025D01*
X155559701Y-47470696D01*
X155660716Y-47571712D01*
X155694388Y-47672727D01*
X155694388Y-47740071D01*
X155660716Y-47841086D01*
X155391342Y-48110460D01*
X156031106Y-46729918D02*
X155896419Y-46864605D01*
X155862747Y-46965620D01*
X155862747Y-47032964D01*
X155896419Y-47201322D01*
X155997434Y-47369681D01*
X156266808Y-47639055D01*
X156367823Y-47672727D01*
X156435167Y-47672727D01*
X156536182Y-47639055D01*
X156670869Y-47504368D01*
X156704541Y-47403353D01*
X156704541Y-47336009D01*
X156670869Y-47234994D01*
X156502510Y-47066635D01*
X156401495Y-47032964D01*
X156334152Y-47032964D01*
X156233136Y-47066635D01*
X156098449Y-47201322D01*
X156064778Y-47302338D01*
X156064778Y-47369681D01*
X156098449Y-47470696D01*
%TO.C,R5*%
X157896521Y-52050055D02*
X157997536Y-51477635D01*
X157492460Y-51645994D02*
X158199566Y-50938887D01*
X158468941Y-51208261D01*
X158502612Y-51309276D01*
X158502612Y-51376620D01*
X158468941Y-51477635D01*
X158367925Y-51578650D01*
X158266910Y-51612322D01*
X158199566Y-51612322D01*
X158098551Y-51578650D01*
X157829177Y-51309276D01*
X159243391Y-51982712D02*
X158906673Y-51645994D01*
X158536284Y-51949040D01*
X158603628Y-51949040D01*
X158704643Y-51982712D01*
X158873002Y-52151070D01*
X158906673Y-52252086D01*
X158906673Y-52319429D01*
X158873002Y-52420444D01*
X158704643Y-52588803D01*
X158603628Y-52622475D01*
X158536284Y-52622475D01*
X158435269Y-52588803D01*
X158266910Y-52420444D01*
X158233238Y-52319429D01*
X158233238Y-52252086D01*
%TO.C,R4*%
X150121713Y-48467380D02*
X149549293Y-48366365D01*
X149717652Y-48871441D02*
X149010545Y-48164335D01*
X149279919Y-47894960D01*
X149380934Y-47861289D01*
X149448278Y-47861289D01*
X149549293Y-47894960D01*
X149650308Y-47995976D01*
X149683980Y-48096991D01*
X149683980Y-48164335D01*
X149650308Y-48265350D01*
X149380934Y-48534724D01*
X150256400Y-47389884D02*
X150727805Y-47861289D01*
X149818667Y-47288869D02*
X150155385Y-47962304D01*
X150593118Y-47524571D01*
%TO.C,FB1*%
X124778670Y-75473809D02*
X124542968Y-75709511D01*
X124913357Y-76079900D02*
X124206250Y-75372793D01*
X124542968Y-75036076D01*
X125384762Y-74867717D02*
X125519449Y-74800373D01*
X125586792Y-74800373D01*
X125687808Y-74834045D01*
X125788823Y-74935061D01*
X125822495Y-75036076D01*
X125822495Y-75103419D01*
X125788823Y-75204435D01*
X125519449Y-75473809D01*
X124812342Y-74766702D01*
X125048044Y-74530999D01*
X125149059Y-74497328D01*
X125216403Y-74497328D01*
X125317418Y-74530999D01*
X125384762Y-74598343D01*
X125418433Y-74699358D01*
X125418434Y-74766702D01*
X125384762Y-74867717D01*
X125149059Y-75103419D01*
X126596945Y-74396312D02*
X126192884Y-74800373D01*
X126394914Y-74598343D02*
X125687808Y-73891236D01*
X125721479Y-74059595D01*
X125721479Y-74194282D01*
X125687808Y-74295297D01*
%TO.C,D3*%
X114535723Y-97714000D02*
X115242829Y-97006893D01*
X115411188Y-97175252D01*
X115478532Y-97309939D01*
X115478532Y-97444626D01*
X115444860Y-97545641D01*
X115343845Y-97714000D01*
X115242829Y-97815015D01*
X115074471Y-97916031D01*
X114973455Y-97949702D01*
X114838768Y-97949702D01*
X114704081Y-97882359D01*
X114535723Y-97714000D01*
X115882593Y-97646656D02*
X116320326Y-98084389D01*
X115815249Y-98118061D01*
X115916265Y-98219076D01*
X115949936Y-98320092D01*
X115949936Y-98387435D01*
X115916265Y-98488450D01*
X115747906Y-98656809D01*
X115646891Y-98690481D01*
X115579547Y-98690481D01*
X115478532Y-98656809D01*
X115276501Y-98454779D01*
X115242829Y-98353763D01*
X115242829Y-98286420D01*
%TO.C,D2*%
X174926009Y-32148365D02*
X174218902Y-31441259D01*
X174387261Y-31272900D01*
X174521948Y-31205556D01*
X174656635Y-31205556D01*
X174757650Y-31239228D01*
X174926009Y-31340243D01*
X175027024Y-31441259D01*
X175128040Y-31609617D01*
X175161711Y-31710633D01*
X175161711Y-31845320D01*
X175094368Y-31980007D01*
X174926009Y-32148365D01*
X174959681Y-30835167D02*
X174959681Y-30767823D01*
X174993352Y-30666808D01*
X175161711Y-30498449D01*
X175262727Y-30464778D01*
X175330070Y-30464778D01*
X175431085Y-30498449D01*
X175498429Y-30565793D01*
X175565772Y-30700480D01*
X175565772Y-31508602D01*
X176003505Y-31070869D01*
%TO.C,D1*%
X177400882Y-34623239D02*
X176693775Y-33916133D01*
X176862134Y-33747774D01*
X176996821Y-33680430D01*
X177131508Y-33680430D01*
X177232523Y-33714102D01*
X177400882Y-33815117D01*
X177501897Y-33916133D01*
X177602913Y-34084491D01*
X177636584Y-34185507D01*
X177636584Y-34320194D01*
X177569241Y-34454881D01*
X177400882Y-34623239D01*
X178478378Y-33545743D02*
X178074317Y-33949804D01*
X178276348Y-33747774D02*
X177569241Y-33040667D01*
X177602913Y-33209026D01*
X177602913Y-33343713D01*
X177569241Y-33444728D01*
%TO.C,CV4*%
X167949222Y-36017250D02*
X167881879Y-36017250D01*
X167747192Y-35949906D01*
X167679848Y-35882563D01*
X167612505Y-35747876D01*
X167612505Y-35613189D01*
X167646177Y-35512173D01*
X167747192Y-35343815D01*
X167848207Y-35242799D01*
X168016566Y-35141784D01*
X168117581Y-35108112D01*
X168252268Y-35108112D01*
X168386955Y-35175456D01*
X168454299Y-35242799D01*
X168521642Y-35377486D01*
X168521642Y-35444830D01*
X168791016Y-35579517D02*
X168319612Y-36522326D01*
X169262421Y-36050921D01*
X169565467Y-36825372D02*
X169094062Y-37296776D01*
X169666482Y-36387639D02*
X168993047Y-36724357D01*
X169430780Y-37162089D01*
%TO.C,CV3*%
X176080949Y-36087961D02*
X176013606Y-36087961D01*
X175878919Y-36020617D01*
X175811575Y-35953274D01*
X175744232Y-35818587D01*
X175744232Y-35683900D01*
X175777904Y-35582884D01*
X175878919Y-35414526D01*
X175979934Y-35313510D01*
X176148293Y-35212495D01*
X176249308Y-35178823D01*
X176383995Y-35178823D01*
X176518682Y-35246167D01*
X176586026Y-35313510D01*
X176653369Y-35448197D01*
X176653369Y-35515541D01*
X176922743Y-35650228D02*
X176451339Y-36593037D01*
X177394148Y-36121632D01*
X177562507Y-36289991D02*
X178000239Y-36727724D01*
X177495163Y-36761396D01*
X177596178Y-36862411D01*
X177629850Y-36963426D01*
X177629850Y-37030770D01*
X177596178Y-37131785D01*
X177427820Y-37300144D01*
X177326804Y-37333816D01*
X177259461Y-37333816D01*
X177158446Y-37300144D01*
X176956415Y-37098113D01*
X176922743Y-36997098D01*
X176922743Y-36929755D01*
%TO.C,C34*%
X122409188Y-80754548D02*
X122409188Y-80821892D01*
X122341844Y-80956579D01*
X122274501Y-81023922D01*
X122139814Y-81091266D01*
X122005127Y-81091266D01*
X121904112Y-81057594D01*
X121735753Y-80956579D01*
X121634738Y-80855564D01*
X121533722Y-80687205D01*
X121500051Y-80586190D01*
X121500051Y-80451503D01*
X121567394Y-80316816D01*
X121634738Y-80249472D01*
X121769425Y-80182129D01*
X121836768Y-80182129D01*
X122005127Y-79879083D02*
X122442860Y-79441350D01*
X122476531Y-79946426D01*
X122577547Y-79845411D01*
X122678562Y-79811739D01*
X122745906Y-79811739D01*
X122846921Y-79845411D01*
X123015280Y-80013770D01*
X123048951Y-80114785D01*
X123048951Y-80182129D01*
X123015280Y-80283144D01*
X122813249Y-80485174D01*
X122712234Y-80518846D01*
X122644890Y-80518846D01*
X123284654Y-79070961D02*
X123756058Y-79542365D01*
X122846921Y-78969945D02*
X123183638Y-79643380D01*
X123621371Y-79205648D01*
%TO.C,C33*%
X125680063Y-75814903D02*
X125612719Y-75814903D01*
X125478032Y-75747559D01*
X125410689Y-75680216D01*
X125343345Y-75545529D01*
X125343345Y-75410842D01*
X125377017Y-75309827D01*
X125478032Y-75141468D01*
X125579047Y-75040453D01*
X125747406Y-74939437D01*
X125848421Y-74905766D01*
X125983108Y-74905766D01*
X126117795Y-74973109D01*
X126185139Y-75040453D01*
X126252482Y-75175140D01*
X126252482Y-75242483D01*
X126555528Y-75410842D02*
X126993261Y-75848575D01*
X126488185Y-75882246D01*
X126589200Y-75983262D01*
X126622872Y-76084277D01*
X126622872Y-76151621D01*
X126589200Y-76252636D01*
X126420841Y-76420995D01*
X126319826Y-76454666D01*
X126252482Y-76454666D01*
X126151467Y-76420995D01*
X125949437Y-76218964D01*
X125915765Y-76117949D01*
X125915765Y-76050605D01*
X127228963Y-76084277D02*
X127666696Y-76522010D01*
X127161620Y-76555682D01*
X127262635Y-76656697D01*
X127296307Y-76757712D01*
X127296307Y-76825056D01*
X127262635Y-76926071D01*
X127094276Y-77094430D01*
X126993261Y-77128101D01*
X126925918Y-77128101D01*
X126824902Y-77094430D01*
X126622872Y-76892399D01*
X126589200Y-76791384D01*
X126589200Y-76724040D01*
%TO.C,C32*%
X121790976Y-84936580D02*
X121723632Y-84936580D01*
X121588945Y-84869236D01*
X121521602Y-84801893D01*
X121454258Y-84667206D01*
X121454258Y-84532519D01*
X121487930Y-84431504D01*
X121588945Y-84263145D01*
X121689960Y-84162130D01*
X121858319Y-84061114D01*
X121959334Y-84027443D01*
X122094021Y-84027443D01*
X122228708Y-84094786D01*
X122296052Y-84162130D01*
X122363395Y-84296817D01*
X122363395Y-84364160D01*
X122666441Y-84532519D02*
X123104174Y-84970252D01*
X122599098Y-85003923D01*
X122700113Y-85104939D01*
X122733785Y-85205954D01*
X122733785Y-85273298D01*
X122700113Y-85374313D01*
X122531754Y-85542672D01*
X122430739Y-85576343D01*
X122363395Y-85576343D01*
X122262380Y-85542672D01*
X122060350Y-85340641D01*
X122026678Y-85239626D01*
X122026678Y-85172282D01*
X123306205Y-85306969D02*
X123373548Y-85306969D01*
X123474563Y-85340641D01*
X123642922Y-85509000D01*
X123676594Y-85610015D01*
X123676594Y-85677359D01*
X123642922Y-85778374D01*
X123575579Y-85845717D01*
X123440892Y-85913061D01*
X122632770Y-85913061D01*
X123070502Y-86350794D01*
%TO.C,C31*%
X109992394Y-89621668D02*
X109992394Y-89689012D01*
X109925050Y-89823699D01*
X109857707Y-89891042D01*
X109723020Y-89958386D01*
X109588333Y-89958386D01*
X109487318Y-89924714D01*
X109318959Y-89823699D01*
X109217944Y-89722684D01*
X109116928Y-89554325D01*
X109083257Y-89453310D01*
X109083257Y-89318623D01*
X109150600Y-89183936D01*
X109217944Y-89116592D01*
X109352631Y-89049249D01*
X109419974Y-89049249D01*
X109588333Y-88746203D02*
X110026066Y-88308470D01*
X110059737Y-88813546D01*
X110160753Y-88712531D01*
X110261768Y-88678859D01*
X110329112Y-88678859D01*
X110430127Y-88712531D01*
X110598486Y-88880890D01*
X110632157Y-88981905D01*
X110632157Y-89049249D01*
X110598486Y-89150264D01*
X110396455Y-89352294D01*
X110295440Y-89385966D01*
X110228096Y-89385966D01*
X111406608Y-88342142D02*
X111002547Y-88746203D01*
X111204577Y-88544172D02*
X110497470Y-87837065D01*
X110531142Y-88005424D01*
X110531142Y-88140111D01*
X110497470Y-88241126D01*
%TO.C,C30*%
X116812943Y-80297960D02*
X116745599Y-80297960D01*
X116610912Y-80230616D01*
X116543569Y-80163273D01*
X116476225Y-80028586D01*
X116476225Y-79893899D01*
X116509897Y-79792884D01*
X116610912Y-79624525D01*
X116711927Y-79523510D01*
X116880286Y-79422494D01*
X116981301Y-79388823D01*
X117115988Y-79388823D01*
X117250675Y-79456166D01*
X117318019Y-79523510D01*
X117385362Y-79658197D01*
X117385362Y-79725540D01*
X117688408Y-79893899D02*
X118126141Y-80331632D01*
X117621065Y-80365303D01*
X117722080Y-80466319D01*
X117755752Y-80567334D01*
X117755752Y-80634678D01*
X117722080Y-80735693D01*
X117553721Y-80904052D01*
X117452706Y-80937723D01*
X117385362Y-80937723D01*
X117284347Y-80904052D01*
X117082317Y-80702021D01*
X117048645Y-80601006D01*
X117048645Y-80533662D01*
X118563874Y-80769365D02*
X118631217Y-80836708D01*
X118664889Y-80937723D01*
X118664889Y-81005067D01*
X118631217Y-81106082D01*
X118530202Y-81274441D01*
X118361843Y-81442800D01*
X118193485Y-81543815D01*
X118092469Y-81577487D01*
X118025126Y-81577487D01*
X117924111Y-81543815D01*
X117856767Y-81476471D01*
X117823095Y-81375456D01*
X117823095Y-81308113D01*
X117856767Y-81207097D01*
X117957782Y-81038739D01*
X118126141Y-80870380D01*
X118294500Y-80769365D01*
X118395515Y-80735693D01*
X118462859Y-80735693D01*
X118563874Y-80769365D01*
%TO.C,C29*%
X136435156Y-64494124D02*
X136367812Y-64494124D01*
X136233125Y-64426780D01*
X136165782Y-64359437D01*
X136098438Y-64224750D01*
X136098438Y-64090063D01*
X136132110Y-63989048D01*
X136233125Y-63820689D01*
X136334140Y-63719674D01*
X136502499Y-63618658D01*
X136603514Y-63584987D01*
X136738201Y-63584987D01*
X136872888Y-63652330D01*
X136940232Y-63719674D01*
X137007575Y-63854361D01*
X137007575Y-63921704D01*
X137276950Y-64191078D02*
X137344293Y-64191078D01*
X137445308Y-64224750D01*
X137613667Y-64393109D01*
X137647339Y-64494124D01*
X137647339Y-64561467D01*
X137613667Y-64662483D01*
X137546324Y-64729826D01*
X137411637Y-64797170D01*
X136603514Y-64797170D01*
X137041247Y-65234903D01*
X137377965Y-65571620D02*
X137512652Y-65706307D01*
X137613667Y-65739979D01*
X137681011Y-65739979D01*
X137849369Y-65706307D01*
X138017728Y-65605292D01*
X138287102Y-65335918D01*
X138320774Y-65234903D01*
X138320774Y-65167559D01*
X138287102Y-65066544D01*
X138152415Y-64931857D01*
X138051400Y-64898185D01*
X137984056Y-64898185D01*
X137883041Y-64931857D01*
X137714682Y-65100216D01*
X137681011Y-65201231D01*
X137681011Y-65268574D01*
X137714682Y-65369590D01*
X137849369Y-65504277D01*
X137950385Y-65537948D01*
X138017728Y-65537948D01*
X138118743Y-65504277D01*
%TO.C,C28*%
X139768659Y-74850207D02*
X139768659Y-74917551D01*
X139701315Y-75052238D01*
X139633972Y-75119581D01*
X139499285Y-75186925D01*
X139364598Y-75186925D01*
X139263583Y-75153253D01*
X139095224Y-75052238D01*
X138994209Y-74951223D01*
X138893193Y-74782864D01*
X138859522Y-74681849D01*
X138859522Y-74547162D01*
X138926865Y-74412475D01*
X138994209Y-74345131D01*
X139128896Y-74277788D01*
X139196239Y-74277788D01*
X139465613Y-74008413D02*
X139465613Y-73941070D01*
X139499285Y-73840055D01*
X139667644Y-73671696D01*
X139768659Y-73638024D01*
X139836002Y-73638024D01*
X139937018Y-73671696D01*
X140004361Y-73739039D01*
X140071705Y-73873726D01*
X140071705Y-74681849D01*
X140509438Y-74244116D01*
X140509438Y-73435994D02*
X140408422Y-73469665D01*
X140341079Y-73469665D01*
X140240064Y-73435994D01*
X140206392Y-73402322D01*
X140172720Y-73301307D01*
X140172720Y-73233963D01*
X140206392Y-73132948D01*
X140341079Y-72998261D01*
X140442094Y-72964589D01*
X140509438Y-72964589D01*
X140610453Y-72998261D01*
X140644125Y-73031933D01*
X140677796Y-73132948D01*
X140677796Y-73200291D01*
X140644125Y-73301307D01*
X140509438Y-73435994D01*
X140475766Y-73537009D01*
X140475766Y-73604352D01*
X140509438Y-73705368D01*
X140644125Y-73840055D01*
X140745140Y-73873726D01*
X140812483Y-73873726D01*
X140913499Y-73840055D01*
X141048186Y-73705368D01*
X141081857Y-73604352D01*
X141081857Y-73537009D01*
X141048186Y-73435994D01*
X140913499Y-73301307D01*
X140812483Y-73267635D01*
X140745140Y-73267635D01*
X140644125Y-73301307D01*
%TO.C,C27*%
X133606729Y-70999506D02*
X133539385Y-70999506D01*
X133404698Y-70932162D01*
X133337355Y-70864819D01*
X133270011Y-70730132D01*
X133270011Y-70595445D01*
X133303683Y-70494430D01*
X133404698Y-70326071D01*
X133505713Y-70225056D01*
X133674072Y-70124040D01*
X133775087Y-70090369D01*
X133909774Y-70090369D01*
X134044461Y-70157712D01*
X134111805Y-70225056D01*
X134179148Y-70359743D01*
X134179148Y-70427086D01*
X134448523Y-70696460D02*
X134515866Y-70696460D01*
X134616881Y-70730132D01*
X134785240Y-70898491D01*
X134818912Y-70999506D01*
X134818912Y-71066849D01*
X134785240Y-71167865D01*
X134717897Y-71235208D01*
X134583210Y-71302552D01*
X133775087Y-71302552D01*
X134212820Y-71740285D01*
X135155629Y-71268880D02*
X135627034Y-71740285D01*
X134616881Y-72144346D01*
%TO.C,C26*%
X138019076Y-70829800D02*
X137951732Y-70829800D01*
X137817045Y-70762456D01*
X137749702Y-70695113D01*
X137682358Y-70560426D01*
X137682358Y-70425739D01*
X137716030Y-70324724D01*
X137817045Y-70156365D01*
X137918060Y-70055350D01*
X138086419Y-69954334D01*
X138187434Y-69920663D01*
X138322121Y-69920663D01*
X138456808Y-69988006D01*
X138524152Y-70055350D01*
X138591495Y-70190037D01*
X138591495Y-70257380D01*
X138860870Y-70526754D02*
X138928213Y-70526754D01*
X139029228Y-70560426D01*
X139197587Y-70728785D01*
X139231259Y-70829800D01*
X139231259Y-70897143D01*
X139197587Y-70998159D01*
X139130244Y-71065502D01*
X138995557Y-71132846D01*
X138187434Y-71132846D01*
X138625167Y-71570579D01*
X139938366Y-71469563D02*
X139803679Y-71334876D01*
X139702663Y-71301205D01*
X139635320Y-71301205D01*
X139466961Y-71334876D01*
X139298602Y-71435892D01*
X139029228Y-71705266D01*
X138995557Y-71806281D01*
X138995557Y-71873624D01*
X139029228Y-71974640D01*
X139163915Y-72109327D01*
X139264931Y-72142998D01*
X139332274Y-72142998D01*
X139433289Y-72109327D01*
X139601648Y-71940968D01*
X139635320Y-71839953D01*
X139635320Y-71772609D01*
X139601648Y-71671594D01*
X139466961Y-71536907D01*
X139365946Y-71503235D01*
X139298602Y-71503235D01*
X139197587Y-71536907D01*
%TO.C,C25*%
X128232718Y-85778038D02*
X128165374Y-85778038D01*
X128030687Y-85710694D01*
X127963344Y-85643351D01*
X127896000Y-85508664D01*
X127896000Y-85373977D01*
X127929672Y-85272962D01*
X128030687Y-85104603D01*
X128131702Y-85003588D01*
X128300061Y-84902572D01*
X128401076Y-84868901D01*
X128535763Y-84868901D01*
X128670450Y-84936244D01*
X128737794Y-85003588D01*
X128805137Y-85138275D01*
X128805137Y-85205618D01*
X129074512Y-85474992D02*
X129141855Y-85474992D01*
X129242870Y-85508664D01*
X129411229Y-85677023D01*
X129444901Y-85778038D01*
X129444901Y-85845381D01*
X129411229Y-85946397D01*
X129343886Y-86013740D01*
X129209199Y-86081084D01*
X128401076Y-86081084D01*
X128838809Y-86518817D01*
X130185679Y-86451473D02*
X129848962Y-86114756D01*
X129478573Y-86417801D01*
X129545916Y-86417801D01*
X129646931Y-86451473D01*
X129815290Y-86619832D01*
X129848962Y-86720847D01*
X129848962Y-86788191D01*
X129815290Y-86889206D01*
X129646931Y-87057565D01*
X129545916Y-87091236D01*
X129478573Y-87091236D01*
X129377557Y-87057565D01*
X129209199Y-86889206D01*
X129175527Y-86788191D01*
X129175527Y-86720847D01*
%TO.C,C21*%
X144135550Y-54601699D02*
X144068206Y-54601699D01*
X143933519Y-54534355D01*
X143866176Y-54467012D01*
X143798832Y-54332325D01*
X143798832Y-54197638D01*
X143832504Y-54096623D01*
X143933519Y-53928264D01*
X144034534Y-53827249D01*
X144202893Y-53726233D01*
X144303908Y-53692562D01*
X144438595Y-53692562D01*
X144573282Y-53759905D01*
X144640626Y-53827249D01*
X144707969Y-53961936D01*
X144707969Y-54029279D01*
X144977344Y-54298653D02*
X145044687Y-54298653D01*
X145145702Y-54332325D01*
X145314061Y-54500684D01*
X145347733Y-54601699D01*
X145347733Y-54669042D01*
X145314061Y-54770058D01*
X145246718Y-54837401D01*
X145112031Y-54904745D01*
X144303908Y-54904745D01*
X144741641Y-55342478D01*
X145415076Y-56015913D02*
X145011015Y-55611852D01*
X145213046Y-55813882D02*
X145920153Y-55106775D01*
X145751794Y-55140447D01*
X145617107Y-55140447D01*
X145516092Y-55106775D01*
%TO.C,C18*%
X159171670Y-39593863D02*
X159171670Y-39661207D01*
X159104326Y-39795894D01*
X159036983Y-39863237D01*
X158902296Y-39930581D01*
X158767609Y-39930581D01*
X158666594Y-39896909D01*
X158498235Y-39795894D01*
X158397220Y-39694879D01*
X158296204Y-39526520D01*
X158262533Y-39425505D01*
X158262533Y-39290818D01*
X158329876Y-39156131D01*
X158397220Y-39088787D01*
X158531907Y-39021444D01*
X158599250Y-39021444D01*
X159912449Y-38987772D02*
X159508388Y-39391833D01*
X159710418Y-39189802D02*
X159003311Y-38482695D01*
X159036983Y-38651054D01*
X159036983Y-38785741D01*
X159003311Y-38886757D01*
X159912449Y-38179650D02*
X159811433Y-38213321D01*
X159744090Y-38213321D01*
X159643075Y-38179650D01*
X159609403Y-38145978D01*
X159575731Y-38044963D01*
X159575731Y-37977619D01*
X159609403Y-37876604D01*
X159744090Y-37741917D01*
X159845105Y-37708245D01*
X159912449Y-37708245D01*
X160013464Y-37741917D01*
X160047136Y-37775589D01*
X160080807Y-37876604D01*
X160080807Y-37943947D01*
X160047136Y-38044963D01*
X159912449Y-38179650D01*
X159878777Y-38280665D01*
X159878777Y-38348008D01*
X159912449Y-38449024D01*
X160047136Y-38583711D01*
X160148151Y-38617382D01*
X160215494Y-38617382D01*
X160316510Y-38583711D01*
X160451197Y-38449024D01*
X160484868Y-38348008D01*
X160484868Y-38280665D01*
X160451197Y-38179650D01*
X160316510Y-38044963D01*
X160215494Y-38011291D01*
X160148151Y-38011291D01*
X160047136Y-38044963D01*
%TO.C,C17*%
X169601495Y-40194904D02*
X169601495Y-40262248D01*
X169534151Y-40396935D01*
X169466808Y-40464278D01*
X169332121Y-40531622D01*
X169197434Y-40531622D01*
X169096419Y-40497950D01*
X168928060Y-40396935D01*
X168827045Y-40295920D01*
X168726029Y-40127561D01*
X168692358Y-40026546D01*
X168692358Y-39891859D01*
X168759701Y-39757172D01*
X168827045Y-39689828D01*
X168961732Y-39622485D01*
X169029075Y-39622485D01*
X170342274Y-39588813D02*
X169938213Y-39992874D01*
X170140243Y-39790843D02*
X169433136Y-39083736D01*
X169466808Y-39252095D01*
X169466808Y-39386782D01*
X169433136Y-39487798D01*
X169870869Y-38646004D02*
X170342274Y-38174599D01*
X170746335Y-39184752D01*
%TO.C,C16*%
X124035533Y-82380894D02*
X124035533Y-82448238D01*
X123968189Y-82582925D01*
X123900846Y-82650268D01*
X123766159Y-82717612D01*
X123631472Y-82717612D01*
X123530457Y-82683940D01*
X123362098Y-82582925D01*
X123261083Y-82481910D01*
X123160067Y-82313551D01*
X123126396Y-82212536D01*
X123126396Y-82077849D01*
X123193739Y-81943162D01*
X123261083Y-81875818D01*
X123395770Y-81808475D01*
X123463113Y-81808475D01*
X124776312Y-81774803D02*
X124372251Y-82178864D01*
X124574281Y-81976833D02*
X123867174Y-81269726D01*
X123900846Y-81438085D01*
X123900846Y-81572772D01*
X123867174Y-81673788D01*
X124675296Y-80461604D02*
X124540609Y-80596291D01*
X124506938Y-80697307D01*
X124506938Y-80764650D01*
X124540609Y-80933009D01*
X124641625Y-81101368D01*
X124910999Y-81370742D01*
X125012014Y-81404413D01*
X125079357Y-81404413D01*
X125180373Y-81370742D01*
X125315060Y-81236055D01*
X125348731Y-81135039D01*
X125348731Y-81067696D01*
X125315060Y-80966681D01*
X125146701Y-80798322D01*
X125045686Y-80764650D01*
X124978342Y-80764650D01*
X124877327Y-80798322D01*
X124742640Y-80933009D01*
X124708968Y-81034024D01*
X124708968Y-81101368D01*
X124742640Y-81202383D01*
%TO.C,C15*%
X121277817Y-86694245D02*
X121277817Y-86761589D01*
X121210473Y-86896276D01*
X121143130Y-86963619D01*
X121008443Y-87030963D01*
X120873756Y-87030963D01*
X120772741Y-86997291D01*
X120604382Y-86896276D01*
X120503367Y-86795261D01*
X120402351Y-86626902D01*
X120368680Y-86525887D01*
X120368680Y-86391200D01*
X120436023Y-86256513D01*
X120503367Y-86189169D01*
X120638054Y-86121826D01*
X120705397Y-86121826D01*
X122018596Y-86088154D02*
X121614535Y-86492215D01*
X121816565Y-86290184D02*
X121109458Y-85583077D01*
X121143130Y-85751436D01*
X121143130Y-85886123D01*
X121109458Y-85987139D01*
X121951252Y-84741284D02*
X121614535Y-85078001D01*
X121917580Y-85448390D01*
X121917580Y-85381047D01*
X121951252Y-85280032D01*
X122119611Y-85111673D01*
X122220626Y-85078001D01*
X122287970Y-85078001D01*
X122388985Y-85111673D01*
X122557344Y-85280032D01*
X122591015Y-85381047D01*
X122591015Y-85448390D01*
X122557344Y-85549406D01*
X122388985Y-85717764D01*
X122287970Y-85751436D01*
X122220626Y-85751436D01*
%TO.C,C14*%
X113492572Y-92485451D02*
X113492572Y-92552795D01*
X113425228Y-92687482D01*
X113357885Y-92754825D01*
X113223198Y-92822169D01*
X113088511Y-92822169D01*
X112987496Y-92788497D01*
X112819137Y-92687482D01*
X112718122Y-92586467D01*
X112617106Y-92418108D01*
X112583435Y-92317093D01*
X112583435Y-92182406D01*
X112650778Y-92047719D01*
X112718122Y-91980375D01*
X112852809Y-91913032D01*
X112920152Y-91913032D01*
X114233351Y-91879360D02*
X113829290Y-92283421D01*
X114031320Y-92081390D02*
X113324213Y-91374283D01*
X113357885Y-91542642D01*
X113357885Y-91677329D01*
X113324213Y-91778345D01*
X114368038Y-90801864D02*
X114839442Y-91273268D01*
X113930305Y-90700848D02*
X114267022Y-91374283D01*
X114704755Y-90936551D01*
%TO.C,C13*%
X116812943Y-96985681D02*
X116745599Y-96985681D01*
X116610912Y-96918337D01*
X116543569Y-96850994D01*
X116476225Y-96716307D01*
X116476225Y-96581620D01*
X116509897Y-96480605D01*
X116610912Y-96312246D01*
X116711927Y-96211231D01*
X116880286Y-96110215D01*
X116981301Y-96076544D01*
X117115988Y-96076544D01*
X117250675Y-96143887D01*
X117318019Y-96211231D01*
X117385362Y-96345918D01*
X117385362Y-96413261D01*
X117419034Y-97726460D02*
X117014973Y-97322399D01*
X117217004Y-97524429D02*
X117924111Y-96817322D01*
X117755752Y-96850994D01*
X117621065Y-96850994D01*
X117520050Y-96817322D01*
X118361843Y-97255055D02*
X118799576Y-97692788D01*
X118294500Y-97726460D01*
X118395515Y-97827475D01*
X118429187Y-97928490D01*
X118429187Y-97995834D01*
X118395515Y-98096849D01*
X118227156Y-98265208D01*
X118126141Y-98298879D01*
X118058798Y-98298879D01*
X117957782Y-98265208D01*
X117755752Y-98063177D01*
X117722080Y-97962162D01*
X117722080Y-97894818D01*
%TO.C,C12*%
X127217514Y-91785414D02*
X127217514Y-91852758D01*
X127150170Y-91987445D01*
X127082827Y-92054788D01*
X126948140Y-92122132D01*
X126813453Y-92122132D01*
X126712438Y-92088460D01*
X126544079Y-91987445D01*
X126443064Y-91886430D01*
X126342048Y-91718071D01*
X126308377Y-91617056D01*
X126308377Y-91482369D01*
X126375720Y-91347682D01*
X126443064Y-91280338D01*
X126577751Y-91212995D01*
X126645094Y-91212995D01*
X127958293Y-91179323D02*
X127554232Y-91583384D01*
X127756262Y-91381353D02*
X127049155Y-90674246D01*
X127082827Y-90842605D01*
X127082827Y-90977292D01*
X127049155Y-91078308D01*
X127587903Y-90270185D02*
X127587903Y-90202842D01*
X127621575Y-90101827D01*
X127789934Y-89933468D01*
X127890949Y-89899796D01*
X127958293Y-89899796D01*
X128059308Y-89933468D01*
X128126651Y-90000811D01*
X128193995Y-90135498D01*
X128193995Y-90943620D01*
X128631728Y-90505888D01*
%TO.C,C11*%
X129823708Y-84257758D02*
X129756364Y-84257758D01*
X129621677Y-84190414D01*
X129554334Y-84123071D01*
X129486990Y-83988384D01*
X129486990Y-83853697D01*
X129520662Y-83752682D01*
X129621677Y-83584323D01*
X129722692Y-83483308D01*
X129891051Y-83382292D01*
X129992066Y-83348621D01*
X130126753Y-83348621D01*
X130261440Y-83415964D01*
X130328784Y-83483308D01*
X130396127Y-83617995D01*
X130396127Y-83685338D01*
X130429799Y-84998537D02*
X130025738Y-84594476D01*
X130227769Y-84796506D02*
X130934876Y-84089399D01*
X130766517Y-84123071D01*
X130631830Y-84123071D01*
X130530815Y-84089399D01*
X131103234Y-85671972D02*
X130699173Y-85267911D01*
X130901204Y-85469941D02*
X131608311Y-84762834D01*
X131439952Y-84796506D01*
X131305265Y-84796506D01*
X131204250Y-84762834D01*
%TO.C,C10*%
X152585476Y-51313653D02*
X152518132Y-51313653D01*
X152383445Y-51246309D01*
X152316102Y-51178966D01*
X152248758Y-51044279D01*
X152248758Y-50909592D01*
X152282430Y-50808577D01*
X152383445Y-50640218D01*
X152484460Y-50539203D01*
X152652819Y-50438187D01*
X152753834Y-50404516D01*
X152888521Y-50404516D01*
X153023208Y-50471859D01*
X153090552Y-50539203D01*
X153157895Y-50673890D01*
X153157895Y-50741233D01*
X153191567Y-52054432D02*
X152787506Y-51650371D01*
X152989537Y-51852401D02*
X153696644Y-51145294D01*
X153528285Y-51178966D01*
X153393598Y-51178966D01*
X153292583Y-51145294D01*
X154336407Y-51785058D02*
X154403750Y-51852401D01*
X154437422Y-51953416D01*
X154437422Y-52020760D01*
X154403750Y-52121775D01*
X154302735Y-52290134D01*
X154134376Y-52458493D01*
X153966018Y-52559508D01*
X153865002Y-52593180D01*
X153797659Y-52593180D01*
X153696644Y-52559508D01*
X153629300Y-52492164D01*
X153595628Y-52391149D01*
X153595628Y-52323806D01*
X153629300Y-52222790D01*
X153730315Y-52054432D01*
X153898674Y-51886073D01*
X154067033Y-51785058D01*
X154168048Y-51751386D01*
X154235392Y-51751386D01*
X154336407Y-51785058D01*
%TO.C,C9*%
X159576067Y-50370508D02*
X159508724Y-50370508D01*
X159374037Y-50303164D01*
X159306693Y-50235821D01*
X159239350Y-50101133D01*
X159239350Y-49966446D01*
X159273021Y-49865431D01*
X159374037Y-49697072D01*
X159475052Y-49596057D01*
X159643411Y-49495042D01*
X159744426Y-49461370D01*
X159879113Y-49461370D01*
X160013800Y-49528714D01*
X160081144Y-49596057D01*
X160148487Y-49730744D01*
X160148487Y-49798088D01*
X159845441Y-50774569D02*
X159980128Y-50909256D01*
X160081144Y-50942927D01*
X160148487Y-50942927D01*
X160316846Y-50909256D01*
X160485205Y-50808240D01*
X160754579Y-50538866D01*
X160788250Y-50437851D01*
X160788250Y-50370508D01*
X160754579Y-50269492D01*
X160619892Y-50134805D01*
X160518876Y-50101133D01*
X160451533Y-50101133D01*
X160350518Y-50134805D01*
X160182159Y-50303164D01*
X160148487Y-50404179D01*
X160148487Y-50471523D01*
X160182159Y-50572538D01*
X160316846Y-50707225D01*
X160417861Y-50740897D01*
X160485205Y-50740897D01*
X160586220Y-50707225D01*
%TO.C,C8*%
X150977649Y-60100297D02*
X150910306Y-60100297D01*
X150775619Y-60032953D01*
X150708275Y-59965610D01*
X150640932Y-59830922D01*
X150640932Y-59696235D01*
X150674603Y-59595220D01*
X150775619Y-59426861D01*
X150876634Y-59325846D01*
X151044993Y-59224831D01*
X151146008Y-59191159D01*
X151280695Y-59191159D01*
X151415382Y-59258503D01*
X151482726Y-59325846D01*
X151550069Y-59460533D01*
X151550069Y-59527877D01*
X151718428Y-60167640D02*
X151684756Y-60066625D01*
X151684756Y-59999281D01*
X151718428Y-59898266D01*
X151752100Y-59864594D01*
X151853115Y-59830922D01*
X151920458Y-59830922D01*
X152021474Y-59864594D01*
X152156161Y-59999281D01*
X152189832Y-60100297D01*
X152189832Y-60167640D01*
X152156161Y-60268655D01*
X152122489Y-60302327D01*
X152021474Y-60335999D01*
X151954130Y-60335999D01*
X151853115Y-60302327D01*
X151718428Y-60167640D01*
X151617413Y-60133968D01*
X151550069Y-60133968D01*
X151449054Y-60167640D01*
X151314367Y-60302327D01*
X151280695Y-60403342D01*
X151280695Y-60470686D01*
X151314367Y-60571701D01*
X151449054Y-60706388D01*
X151550069Y-60740060D01*
X151617413Y-60740060D01*
X151718428Y-60706388D01*
X151853115Y-60571701D01*
X151886787Y-60470686D01*
X151886787Y-60403342D01*
X151853115Y-60302327D01*
%TO.C,C6*%
X136022341Y-65580374D02*
X135954998Y-65580374D01*
X135820311Y-65513030D01*
X135752967Y-65445687D01*
X135685624Y-65310999D01*
X135685624Y-65176312D01*
X135719295Y-65075297D01*
X135820311Y-64906938D01*
X135921326Y-64805923D01*
X136089685Y-64704908D01*
X136190700Y-64671236D01*
X136325387Y-64671236D01*
X136460074Y-64738580D01*
X136527418Y-64805923D01*
X136594761Y-64940610D01*
X136594761Y-65007954D01*
X137268196Y-65546702D02*
X137133509Y-65412015D01*
X137032494Y-65378343D01*
X136965150Y-65378343D01*
X136796792Y-65412015D01*
X136628433Y-65513030D01*
X136359059Y-65782404D01*
X136325387Y-65883419D01*
X136325387Y-65950763D01*
X136359059Y-66051778D01*
X136493746Y-66186465D01*
X136594761Y-66220137D01*
X136662105Y-66220137D01*
X136763120Y-66186465D01*
X136931479Y-66018106D01*
X136965150Y-65917091D01*
X136965150Y-65849748D01*
X136931479Y-65748732D01*
X136796792Y-65614045D01*
X136695776Y-65580374D01*
X136628433Y-65580374D01*
X136527418Y-65614045D01*
%TO.C,C5*%
X156786027Y-41979508D02*
X156786027Y-42046851D01*
X156718683Y-42181538D01*
X156651340Y-42248882D01*
X156516652Y-42316225D01*
X156381965Y-42316225D01*
X156280950Y-42282554D01*
X156112591Y-42181538D01*
X156011576Y-42080523D01*
X155910561Y-41912164D01*
X155876889Y-41811149D01*
X155876889Y-41676462D01*
X155944233Y-41541775D01*
X156011576Y-41474431D01*
X156146263Y-41407088D01*
X156213607Y-41407088D01*
X156786027Y-40699981D02*
X156449309Y-41036699D01*
X156752355Y-41407088D01*
X156752355Y-41339744D01*
X156786027Y-41238729D01*
X156954385Y-41070370D01*
X157055401Y-41036699D01*
X157122744Y-41036699D01*
X157223759Y-41070370D01*
X157392118Y-41238729D01*
X157425790Y-41339744D01*
X157425790Y-41407088D01*
X157392118Y-41508103D01*
X157223759Y-41676462D01*
X157122744Y-41710134D01*
X157055401Y-41710134D01*
%TD*%
M02*
