M48
; DRILL file {KiCad (5.1.9-16-g1737927814)-1} date 07/23/21 22:07:43
; FORMAT={-:-/ absolute / metric / decimal}
; #@! TF.CreationDate,2021-07-23T22:07:43+02:00
; #@! TF.GenerationSoftware,Kicad,Pcbnew,(5.1.9-16-g1737927814)-1
; #@! TF.FileFunction,Plated,1,4,PTH
FMAT,2
METRIC
T1C0.400
T2C0.600
T3C0.800
T4C1.500
%
G90
G05
T1
X109.579Y-90.845
X116.474Y-100.214
X116.898Y-83.951
X117.322Y-81.264
X117.393Y-91.835
X118.674Y-98.729
X119.443Y-84.234
X119.585Y-79.849
X119.868Y-81.264
X120.292Y-86.072
X120.999Y-95.971
X121.989Y-82.819
X121.989Y-85.931
X122.413Y-94.557
X122.979Y-95.406
X123.332Y-85.577
X123.898Y-78.506
X123.969Y-96.396
X125.383Y-86.072
X125.595Y-95.477
X126.09Y-90.032
X127.929Y-92.012
X128.353Y-90.315
X129.272Y-71.435
X129.343Y-88.193
X129.696Y-78.365
X130.757Y-87.062
X130.828Y-81.405
X131.535Y-80.274
X134.788Y-77.092
X136.025Y-76.279
X137.121Y-67.21
X137.51Y-65.672
X137.581Y-71.895
X137.722Y-72.672
X138.005Y-74.582
X141.328Y-69.773
X142.955Y-55.189
X144.687Y-53.616
X146.101Y-52.096
X146.985Y-52.661
X146.985Y-53.333
X148.647Y-58.99
X149.142Y-59.485
X149.601Y-59.944
X150.096Y-60.439
X152.783Y-57.081
X153.561Y-58.389
X154.481Y-56.904
X156.673Y-44.141
X157.521Y-60.439
X157.945Y-49.126
X159.147Y-46.227
X159.43Y-42.125
X159.961Y-57.858
X160.526Y-41.171
X161.057Y-51.601
X161.552Y-42.691
X161.834Y-45.802
X161.94Y-40.11
X162.542Y-44.954
X163.249Y-40.428
X165.653Y-38.307
X168.517Y-39.58
X169.312Y-43.257
X170.32Y-44.954
X170.355Y-39.615
X171.027Y-43.115
X171.38Y-39.085
T3
X107.465Y-90.555
X109.261Y-88.759
X109.303Y-94.458
X111.1Y-96.254
T4
X146.646Y-67.298
X150.238Y-63.706
X150.238Y-67.298
X150.238Y-70.89
X153.83Y-67.298
T2
G00X131.058Y-82.441
M15
G01X131.835Y-83.219
M16
G05
G00X134.19Y-85.573
M15
G01X134.614Y-85.998
M16
G05
G00X137.167Y-76.332
M15
G01X137.945Y-77.109
M16
G05
G00X140.299Y-79.464
M15
G01X140.724Y-79.888
M16
G05
T0
M30
