M48
; DRILL file {KiCad (5.1.9-16-g1737927814)-1} date 08/08/21 16:45:22
; FORMAT={-:-/ absolute / metric / decimal}
; #@! TF.CreationDate,2021-08-08T16:45:22+02:00
; #@! TF.GenerationSoftware,Kicad,Pcbnew,(5.1.9-16-g1737927814)-1
; #@! TF.FileFunction,Plated,1,4,PTH
FMAT,2
METRIC
T1C0.400
T2C0.600
T3C0.800
T4C0.900
T5C1.000
T6C1.500
T7C1.700
%
G90
G05
T1
X81.3Y-39.7
X81.3Y-41.2
X81.3Y-42.8
X81.3Y-44.3
X81.75Y-32.4
X82.5Y-44.9
X82.6Y-33.6
X83.6Y-47.4
X84.5Y-40.3
X84.5Y-44.0
X84.8Y-36.6
X85.1Y-54.5
X85.1Y-56.1
X85.2Y-51.9
X85.2Y-59.0
X85.5Y-49.0
X85.5Y-50.5
X86.5Y-54.0
X86.5Y-56.1
X86.5Y-58.4
X86.8Y-38.8
X86.8Y-49.7
X87.1Y-44.4
X87.1Y-45.4
X87.25Y-39.65
X87.4Y-37.2
X87.5Y-41.0
X87.5Y-42.2
X87.6Y-53.4
X88.1Y-56.1
X88.4Y-38.1
X88.95Y-48.15
X89.1Y-32.3
X89.2Y-36.2
X89.5Y-58.4
X89.6Y-52.8
X91.3Y-53.0
X91.944Y-48.544
X92.0Y-32.4
X92.4Y-37.9
X92.5Y-38.7
X92.5Y-58.4
X92.7Y-53.6
X92.9Y-52.4
X93.7Y-53.6
X94.3Y-36.9
X94.6Y-54.3
X94.7Y-53.4
X94.9Y-52.4
X95.5Y-58.4
X96.0Y-32.4
X98.5Y-58.4
X98.8Y-39.8
X99.4Y-40.65
X99.4Y-44.9
X99.6Y-42.9
X99.6Y-39.0
X100.0Y-32.4
X100.6Y-39.0
X100.6Y-40.0
X100.7Y-45.8
X100.7Y-51.8
X100.8Y-44.9
X101.0Y-42.7
X101.5Y-58.4
X101.55Y-47.1
X101.9Y-39.0
X101.9Y-40.0
X102.0Y-48.3
X102.25Y-53.5
X102.3Y-42.9
X102.4Y-45.4
X102.4Y-55.4
X102.8Y-50.9
X103.0Y-39.1
X103.0Y-48.5
X103.05Y-46.75
X103.7Y-41.7
X104.0Y-32.4
X104.0Y-48.5
X104.0Y-53.9
X104.5Y-58.4
X104.875Y-46.075
X104.95Y-43.75
X104.95Y-50.05
X105.0Y-48.5
X105.6Y-46.9
X106.0Y-42.1
X106.0Y-43.95
X106.0Y-53.9
X106.1Y-53.0
X106.5Y-48.8
X106.9Y-46.9
X107.5Y-54.9
X107.5Y-58.4
X108.0Y-32.4
X108.15Y-53.25
X109.1Y-34.6
X109.9Y-34.6
X110.5Y-54.9
X110.5Y-58.4
X110.7Y-34.6
X110.7Y-38.3
X111.3Y-51.6
X111.9Y-53.2
X112.0Y-32.4
X112.05Y-35.25
X112.2Y-34.4
X112.4Y-38.5
X112.5Y-51.6
X113.5Y-54.9
X113.5Y-58.4
X113.85Y-44.4
X114.0Y-34.4
X114.2Y-56.9
X115.2Y-46.95
X115.85Y-43.0
X116.0Y-32.4
X116.075Y-50.825
X116.5Y-54.9
X116.5Y-58.4
X117.1Y-57.1
X117.3Y-52.95
X117.8Y-53.7
X118.112Y-49.087
X118.65Y-55.2
X118.85Y-50.35
X119.1Y-52.0
X119.45Y-35.3
X119.475Y-48.925
X119.5Y-58.4
X119.8Y-50.5
X120.0Y-32.4
X120.212Y-43.387
X120.3Y-46.3
X121.0Y-41.8
X121.45Y-41.15
X122.5Y-33.9
X122.5Y-36.4
X122.5Y-58.4
X122.7Y-50.5
X122.7Y-51.4
X123.0Y-57.4
X123.4Y-38.9
X123.4Y-41.4
X123.438Y-54.037
X123.7Y-53.3
X123.75Y-32.4
X124.2Y-43.9
X124.25Y-55.4
X125.0Y-33.9
X125.0Y-36.4
X125.0Y-38.9
X125.0Y-41.4
X125.0Y-46.4
X125.5Y-58.4
X125.9Y-43.9
X127.2Y-52.8
X127.25Y-55.35
X127.5Y-32.4
X127.5Y-33.9
X127.5Y-36.4
X127.5Y-38.9
X127.5Y-41.4
X128.5Y-56.4
X128.5Y-58.4
X129.0Y-48.4
X130.0Y-55.4
X130.0Y-57.4
X131.3Y-33.8
X131.3Y-36.2
X131.3Y-38.9
X131.3Y-42.1
X131.3Y-45.4
X131.4Y-48.4
X131.4Y-50.6
X131.5Y-56.4
X131.5Y-58.4
X133.0Y-55.4
X133.0Y-57.4
X134.0Y-47.3
X134.0Y-49.3
X134.0Y-50.6
X134.3Y-42.3
X134.4Y-45.0
X134.4Y-45.9
X134.5Y-37.3
X134.5Y-52.2
X134.5Y-53.1
X134.5Y-56.4
X134.5Y-58.4
X135.6Y-40.8
X135.7Y-52.2
X135.8Y-39.2
X136.0Y-55.4
X136.0Y-57.4
X136.1Y-45.0
X136.1Y-45.9
X136.4Y-50.6
X136.6Y-33.7
X136.6Y-35.4
X136.6Y-42.3
X136.9Y-52.2
X136.9Y-53.1
X137.1Y-45.2
X137.1Y-48.6
X137.4Y-39.2
X137.4Y-41.0
X137.4Y-46.1
X137.4Y-47.3
X137.4Y-50.6
X137.5Y-56.4
X137.5Y-58.4
X138.1Y-48.6
X138.2Y-42.2
X138.5Y-37.4
X138.6Y-44.45
X139.0Y-55.4
X139.0Y-57.4
X139.225Y-52.625
X139.6Y-52.0
X139.8Y-44.4
X139.9Y-53.9
X140.5Y-42.2
X140.5Y-56.4
X140.5Y-58.4
X141.1Y-52.55
X141.1Y-53.4
X141.95Y-42.3
X142.0Y-33.7
X142.0Y-35.9
X142.0Y-37.9
X142.0Y-39.9
X142.0Y-55.4
X142.0Y-57.4
X143.0Y-54.8
X144.0Y-57.4
X144.5Y-33.7
X144.5Y-35.9
X144.5Y-37.9
X144.5Y-39.9
X145.8Y-41.6
X146.4Y-51.6
X146.8Y-54.55
X147.0Y-35.9
X147.0Y-37.9
X147.0Y-39.9
X147.0Y-41.9
X148.6Y-41.9
X148.95Y-51.85
X148.95Y-53.75
X149.5Y-35.9
X149.5Y-37.9
X149.775Y-39.875
X150.6Y-43.0
X151.0Y-41.5
X151.4Y-38.25
X151.95Y-37.1
X152.0Y-35.9
X152.25Y-43.7
X152.25Y-44.7
X152.45Y-41.55
X153.3Y-46.1
X153.35Y-44.6
X153.6Y-41.55
X153.8Y-43.7
X154.6Y-40.5
X155.0Y-36.95
X155.5Y-34.4
X155.55Y-38.15
X155.75Y-49.3
X156.35Y-40.75
X157.05Y-41.9
X157.2Y-38.1
X157.4Y-36.9
X158.475Y-50.025
X159.2Y-50.1
X159.338Y-48.188
X160.25Y-42.1
X160.5Y-36.9
X160.5Y-47.1
X160.606Y-45.212
X160.65Y-49.15
X161.375Y-45.025
X161.4Y-46.5
X162.0Y-34.4
X162.6Y-46.6
X162.8Y-48.9
X163.2Y-36.9
X164.5Y-34.4
X164.6Y-45.1
X164.6Y-46.3
X165.4Y-36.9
X165.5Y-42.4
X165.5Y-43.7
X165.5Y-45.7
X165.5Y-47.7
X165.5Y-49.0
X166.3Y-52.6
X166.6Y-42.4
X166.6Y-43.7
X166.6Y-47.7
X166.6Y-49.0
X167.0Y-34.4
X167.25Y-51.8
X167.3Y-36.5
X167.3Y-37.6
X167.7Y-42.4
X167.7Y-43.7
X167.7Y-47.7
X167.7Y-49.0
X168.3Y-45.7
X169.3Y-43.3
X169.3Y-48.1
T3
X108.55Y-56.5
X111.09Y-56.5
T4
X83.0Y-51.4
X83.0Y-53.4
X83.0Y-55.4
T5
X128.0Y-43.5
X128.0Y-46.0
X177.5Y-43.74
X177.5Y-47.7
T6
X83.0Y-49.3
X83.0Y-57.5
X136.6Y-37.3
T7
X134.06Y-34.76
X134.06Y-39.84
X139.14Y-34.76
X139.14Y-39.84
T2
G00X81.625Y-37.78
M15
G01X81.025Y-37.78
M16
G05
G00X81.625Y-46.42
M15
G01X81.025Y-46.42
M16
G05
G00X86.055Y-37.78
M15
G01X84.955Y-37.78
M16
G05
G00X86.055Y-46.42
M15
G01X84.955Y-46.42
M16
G05
T0
M30
