%TF.GenerationSoftware,KiCad,Pcbnew,(5.1.9-16-g1737927814)-1*%
%TF.CreationDate,2021-07-23T22:07:44+02:00*%
%TF.ProjectId,Diffprobe,44696666-7072-46f6-9265-2e6b69636164,rev?*%
%TF.SameCoordinates,Original*%
%TF.FileFunction,Copper,L4,Bot*%
%TF.FilePolarity,Positive*%
%FSLAX46Y46*%
G04 Gerber Fmt 4.6, Leading zero omitted, Abs format (unit mm)*
G04 Created by KiCad (PCBNEW (5.1.9-16-g1737927814)-1) date 2021-07-23 22:07:44*
%MOMM*%
%LPD*%
G01*
G04 APERTURE LIST*
%TA.AperFunction,ComponentPad*%
%ADD10C,2.250000*%
%TD*%
%TA.AperFunction,ComponentPad*%
%ADD11C,1.400000*%
%TD*%
%TA.AperFunction,ViaPad*%
%ADD12C,0.800000*%
%TD*%
%TA.AperFunction,Conductor*%
%ADD13C,0.400000*%
%TD*%
%TA.AperFunction,Conductor*%
%ADD14C,0.300000*%
%TD*%
%TA.AperFunction,Conductor*%
%ADD15C,0.130000*%
%TD*%
G04 APERTURE END LIST*
D10*
%TO.P,J1,2*%
%TO.N,GND*%
X153829983Y-67298307D03*
X150237881Y-70890409D03*
X146645779Y-67298307D03*
X150237881Y-63706205D03*
%TO.P,J1,1*%
%TO.N,/OUTPUT*%
X150237881Y-67298307D03*
%TD*%
D11*
%TO.P,BT1,2*%
%TO.N,GND*%
X107464992Y-90555049D03*
%TO.P,BT1,1*%
%TO.N,Net-(BT1-Pad1)*%
X109261043Y-88758998D03*
%TD*%
%TO.P,P1,S1*%
%TO.N,GND*%
%TA.AperFunction,ComponentPad*%
G36*
G01*
X140370206Y-80241896D02*
X139945942Y-79817632D01*
G75*
G02*
X139945942Y-79110526I353553J353553D01*
G01*
X139945942Y-79110526D01*
G75*
G02*
X140653048Y-79110526I353553J-353553D01*
G01*
X141077312Y-79534790D01*
G75*
G02*
X141077312Y-80241896I-353553J-353553D01*
G01*
X141077312Y-80241896D01*
G75*
G02*
X140370206Y-80241896I-353553J353553D01*
G01*
G37*
%TD.AperFunction*%
%TA.AperFunction,ComponentPad*%
G36*
G01*
X134260803Y-86351299D02*
X133836539Y-85927035D01*
G75*
G02*
X133836539Y-85219929I353553J353553D01*
G01*
X133836539Y-85219929D01*
G75*
G02*
X134543645Y-85219929I353553J-353553D01*
G01*
X134967909Y-85644193D01*
G75*
G02*
X134967909Y-86351299I-353553J-353553D01*
G01*
X134967909Y-86351299D01*
G75*
G02*
X134260803Y-86351299I-353553J353553D01*
G01*
G37*
%TD.AperFunction*%
%TA.AperFunction,ComponentPad*%
G36*
G01*
X137591277Y-77462967D02*
X136813459Y-76685149D01*
G75*
G02*
X136813459Y-75978043I353553J353553D01*
G01*
X136813459Y-75978043D01*
G75*
G02*
X137520565Y-75978043I353553J-353553D01*
G01*
X138298383Y-76755861D01*
G75*
G02*
X138298383Y-77462967I-353553J-353553D01*
G01*
X138298383Y-77462967D01*
G75*
G02*
X137591277Y-77462967I-353553J353553D01*
G01*
G37*
%TD.AperFunction*%
%TA.AperFunction,ComponentPad*%
G36*
G01*
X131481874Y-83572370D02*
X130704056Y-82794552D01*
G75*
G02*
X130704056Y-82087446I353553J353553D01*
G01*
X130704056Y-82087446D01*
G75*
G02*
X131411162Y-82087446I353553J-353553D01*
G01*
X132188980Y-82865264D01*
G75*
G02*
X132188980Y-83572370I-353553J-353553D01*
G01*
X132188980Y-83572370D01*
G75*
G02*
X131481874Y-83572370I-353553J353553D01*
G01*
G37*
%TD.AperFunction*%
%TD*%
%TO.P,TH1,2*%
%TO.N,GND*%
X109303470Y-94458279D03*
%TO.P,TH1,1*%
%TO.N,Net-(R28-Pad2)*%
X111099521Y-96254330D03*
%TD*%
D12*
%TO.N,GND*%
X128352926Y-90314633D03*
X129342876Y-88193313D03*
X130757089Y-87061942D03*
X116897796Y-83950672D03*
X119867645Y-81263666D03*
X119584802Y-79849453D03*
X119443381Y-84233515D03*
X122413229Y-94557274D03*
X120999016Y-95971487D03*
X123968864Y-96395752D03*
X122978915Y-95405802D03*
X116473532Y-100214128D03*
X109579241Y-90844963D03*
X126090185Y-90031791D03*
X121988965Y-82819301D03*
X117322061Y-81263666D03*
X120291909Y-86071993D03*
X123898154Y-78505950D03*
X136025035Y-76278564D03*
X130827800Y-81405088D03*
X129272165Y-71434882D03*
X129696429Y-78364529D03*
X138004934Y-74581507D03*
X161551590Y-42690992D03*
X161834432Y-45802261D03*
X170355069Y-39615077D03*
X171026821Y-43115256D03*
X171380374Y-39084747D03*
X160526285Y-41170712D03*
X157945345Y-49125663D03*
X154480522Y-56903838D03*
X153561283Y-58388762D03*
X159430269Y-42125306D03*
X137722091Y-72672319D03*
X137580670Y-71894502D03*
X137509959Y-65671962D03*
X137121050Y-67209919D03*
X146101307Y-52095512D03*
X144687093Y-53615791D03*
X142954681Y-55189104D03*
%TO.N,+5V*%
X157521081Y-60439372D03*
X162541539Y-44953733D03*
X168516591Y-39579722D03*
X146985190Y-52661197D03*
X141328336Y-69773181D03*
X156672553Y-44140560D03*
X146985190Y-53332949D03*
%TO.N,-5V*%
X163248646Y-40428250D03*
X170319714Y-44953733D03*
X152783466Y-57080615D03*
X159960599Y-57858432D03*
X148646891Y-58989803D03*
X149141866Y-59484778D03*
X149601485Y-59944397D03*
X150096460Y-60439372D03*
X161940498Y-40110052D03*
%TO.N,Net-(C11-Pad1)*%
X125383078Y-86071993D03*
X134787598Y-77091736D03*
X131534907Y-80273717D03*
X118674402Y-98729204D03*
%TO.N,/Battery management/BUS*%
X121988965Y-85930571D03*
X117392771Y-91834913D03*
X125595210Y-95476513D03*
%TO.N,VDC*%
X127928662Y-92011689D03*
X123332468Y-85577018D03*
%TO.N,Net-(C38-Pad2)*%
X169312087Y-43256677D03*
X161056612Y-51600534D03*
%TO.N,Net-(C38-Pad1)*%
X165652809Y-38306929D03*
X159147427Y-46226525D03*
%TD*%
D13*
%TO.N,/Battery management/BUS*%
X121988965Y-85930571D02*
X121988965Y-87627627D01*
X117746325Y-91870268D02*
X117463482Y-91870268D01*
D14*
X120009066Y-89890369D02*
X120009066Y-89607526D01*
X125595210Y-95476513D02*
X120009066Y-89890369D01*
D13*
X120009066Y-89607526D02*
X117746325Y-91870268D01*
X121988965Y-87627627D02*
X120009066Y-89607526D01*
D14*
%TO.N,VDC*%
X127928662Y-92011689D02*
X124958814Y-92011689D01*
X124958814Y-92011689D02*
X122978915Y-90031791D01*
X122978915Y-90031791D02*
X122766783Y-89819658D01*
X122766783Y-89819658D02*
X122766783Y-86142703D01*
X122766783Y-86142703D02*
X123332468Y-85577018D01*
X123332468Y-85577018D02*
X123332468Y-85577018D01*
D15*
%TO.N,Net-(C38-Pad2)*%
X161056612Y-51512151D02*
X161056612Y-51600534D01*
X169312087Y-43256677D02*
X161056612Y-51512151D01*
%TO.N,Net-(C38-Pad1)*%
X165652809Y-38306929D02*
X165652809Y-38872615D01*
X165652809Y-39426988D02*
X159147427Y-45932370D01*
X165652809Y-38872615D02*
X165652809Y-39426988D01*
X159147427Y-45932370D02*
X159147427Y-46226525D01*
X159147427Y-46226525D02*
X159147427Y-46226525D01*
%TD*%
M02*
