%TF.GenerationSoftware,KiCad,Pcbnew,(5.1.9-16-g1737927814)-1*%
%TF.CreationDate,2021-07-23T22:07:44+02:00*%
%TF.ProjectId,Diffprobe,44696666-7072-46f6-9265-2e6b69636164,rev?*%
%TF.SameCoordinates,Original*%
%TF.FileFunction,Copper,L2,Inr*%
%TF.FilePolarity,Positive*%
%FSLAX46Y46*%
G04 Gerber Fmt 4.6, Leading zero omitted, Abs format (unit mm)*
G04 Created by KiCad (PCBNEW (5.1.9-16-g1737927814)-1) date 2021-07-23 22:07:44*
%MOMM*%
%LPD*%
G01*
G04 APERTURE LIST*
%TA.AperFunction,ComponentPad*%
%ADD10C,2.250000*%
%TD*%
%TA.AperFunction,ComponentPad*%
%ADD11C,1.400000*%
%TD*%
%TA.AperFunction,ViaPad*%
%ADD12C,0.800000*%
%TD*%
%TA.AperFunction,Conductor*%
%ADD13C,0.254000*%
%TD*%
%TA.AperFunction,Conductor*%
%ADD14C,0.100000*%
%TD*%
G04 APERTURE END LIST*
D10*
%TO.N,GND*%
%TO.C,J1*%
X153829983Y-67298307D03*
X150237881Y-70890409D03*
X146645779Y-67298307D03*
X150237881Y-63706205D03*
%TO.N,/OUTPUT*%
X150237881Y-67298307D03*
%TD*%
D11*
%TO.N,GND*%
%TO.C,BT1*%
X107464992Y-90555049D03*
%TO.N,Net-(BT1-Pad1)*%
X109261043Y-88758998D03*
%TD*%
%TO.N,GND*%
%TO.C,P1*%
%TA.AperFunction,ComponentPad*%
G36*
G01*
X140370206Y-80241896D02*
X139945942Y-79817632D01*
G75*
G02*
X139945942Y-79110526I353553J353553D01*
G01*
X139945942Y-79110526D01*
G75*
G02*
X140653048Y-79110526I353553J-353553D01*
G01*
X141077312Y-79534790D01*
G75*
G02*
X141077312Y-80241896I-353553J-353553D01*
G01*
X141077312Y-80241896D01*
G75*
G02*
X140370206Y-80241896I-353553J353553D01*
G01*
G37*
%TD.AperFunction*%
%TA.AperFunction,ComponentPad*%
G36*
G01*
X134260803Y-86351299D02*
X133836539Y-85927035D01*
G75*
G02*
X133836539Y-85219929I353553J353553D01*
G01*
X133836539Y-85219929D01*
G75*
G02*
X134543645Y-85219929I353553J-353553D01*
G01*
X134967909Y-85644193D01*
G75*
G02*
X134967909Y-86351299I-353553J-353553D01*
G01*
X134967909Y-86351299D01*
G75*
G02*
X134260803Y-86351299I-353553J353553D01*
G01*
G37*
%TD.AperFunction*%
%TA.AperFunction,ComponentPad*%
G36*
G01*
X137591277Y-77462967D02*
X136813459Y-76685149D01*
G75*
G02*
X136813459Y-75978043I353553J353553D01*
G01*
X136813459Y-75978043D01*
G75*
G02*
X137520565Y-75978043I353553J-353553D01*
G01*
X138298383Y-76755861D01*
G75*
G02*
X138298383Y-77462967I-353553J-353553D01*
G01*
X138298383Y-77462967D01*
G75*
G02*
X137591277Y-77462967I-353553J353553D01*
G01*
G37*
%TD.AperFunction*%
%TA.AperFunction,ComponentPad*%
G36*
G01*
X131481874Y-83572370D02*
X130704056Y-82794552D01*
G75*
G02*
X130704056Y-82087446I353553J353553D01*
G01*
X130704056Y-82087446D01*
G75*
G02*
X131411162Y-82087446I353553J-353553D01*
G01*
X132188980Y-82865264D01*
G75*
G02*
X132188980Y-83572370I-353553J-353553D01*
G01*
X132188980Y-83572370D01*
G75*
G02*
X131481874Y-83572370I-353553J353553D01*
G01*
G37*
%TD.AperFunction*%
%TD*%
%TO.N,GND*%
%TO.C,TH1*%
X109303470Y-94458279D03*
%TO.N,Net-(R28-Pad2)*%
X111099521Y-96254330D03*
%TD*%
D12*
%TO.N,GND*%
X128352926Y-90314633D03*
X129342876Y-88193313D03*
X130757089Y-87061942D03*
X116897796Y-83950672D03*
X119867645Y-81263666D03*
X119584802Y-79849453D03*
X119443381Y-84233515D03*
X122413229Y-94557274D03*
X120999016Y-95971487D03*
X123968864Y-96395752D03*
X122978915Y-95405802D03*
X116473532Y-100214128D03*
X109579241Y-90844963D03*
X126090185Y-90031791D03*
X121988965Y-82819301D03*
X117322061Y-81263666D03*
X120291909Y-86071993D03*
X123898154Y-78505950D03*
X136025035Y-76278564D03*
X130827800Y-81405088D03*
X129272165Y-71434882D03*
X129696429Y-78364529D03*
X138004934Y-74581507D03*
X161551590Y-42690992D03*
X161834432Y-45802261D03*
X170355069Y-39615077D03*
X171026821Y-43115256D03*
X171380374Y-39084747D03*
X160526285Y-41170712D03*
X157945345Y-49125663D03*
X154480522Y-56903838D03*
X153561283Y-58388762D03*
X159430269Y-42125306D03*
X137722091Y-72672319D03*
X137580670Y-71894502D03*
X137509959Y-65671962D03*
X137121050Y-67209919D03*
X146101307Y-52095512D03*
X144687093Y-53615791D03*
X142954681Y-55189104D03*
%TO.N,+5V*%
X157521081Y-60439372D03*
X162541539Y-44953733D03*
X168516591Y-39579722D03*
X146985190Y-52661197D03*
X141328336Y-69773181D03*
X156672553Y-44140560D03*
X146985190Y-53332949D03*
%TO.N,-5V*%
X163248646Y-40428250D03*
X170319714Y-44953733D03*
X152783466Y-57080615D03*
X159960599Y-57858432D03*
X148646891Y-58989803D03*
X149141866Y-59484778D03*
X149601485Y-59944397D03*
X150096460Y-60439372D03*
X161940498Y-40110052D03*
%TO.N,Net-(C11-Pad1)*%
X125383078Y-86071993D03*
X134787598Y-77091736D03*
X131534907Y-80273717D03*
X118674402Y-98729204D03*
%TO.N,/Battery management/BUS*%
X121988965Y-85930571D03*
X117392771Y-91834913D03*
X125595210Y-95476513D03*
%TO.N,VDC*%
X127928662Y-92011689D03*
X123332468Y-85577018D03*
%TO.N,Net-(C38-Pad2)*%
X169312087Y-43256677D03*
X161056612Y-51600534D03*
%TO.N,Net-(C38-Pad1)*%
X165652809Y-38306929D03*
X159147427Y-46226525D03*
%TD*%
D13*
%TO.N,GND*%
X178212184Y-44624477D02*
X118170589Y-104666072D01*
X117230524Y-103726008D01*
X124952837Y-96003695D01*
X125068028Y-96118885D01*
X125203479Y-96209390D01*
X125353983Y-96271731D01*
X125513758Y-96303512D01*
X125676662Y-96303512D01*
X125836436Y-96271731D01*
X125986941Y-96209390D01*
X126122392Y-96118885D01*
X126237582Y-96003695D01*
X126328087Y-95868244D01*
X126390428Y-95717739D01*
X126422209Y-95557965D01*
X126422209Y-95395060D01*
X126390428Y-95235286D01*
X126328087Y-95084782D01*
X126237582Y-94949331D01*
X126122392Y-94834140D01*
X125986941Y-94743635D01*
X125836436Y-94681295D01*
X125676662Y-94649514D01*
X125513758Y-94649514D01*
X125353983Y-94681295D01*
X125203479Y-94743635D01*
X125068028Y-94834140D01*
X124952837Y-94949331D01*
X124862333Y-95084782D01*
X124799992Y-95235286D01*
X124768211Y-95395060D01*
X124768211Y-95557965D01*
X124799992Y-95717739D01*
X124862333Y-95868244D01*
X124952837Y-96003695D01*
X117230524Y-103726008D01*
X116664839Y-103160322D01*
X127286290Y-92538872D01*
X127401480Y-92654062D01*
X127536931Y-92744567D01*
X127687436Y-92806907D01*
X127847210Y-92838688D01*
X128010115Y-92838688D01*
X128169889Y-92806907D01*
X128320393Y-92744567D01*
X128455844Y-92654062D01*
X128571035Y-92538872D01*
X128661540Y-92403420D01*
X128723880Y-92252916D01*
X128755661Y-92093142D01*
X128755661Y-91930237D01*
X128723880Y-91770463D01*
X128661540Y-91619959D01*
X128637053Y-91583313D01*
X133763000Y-86457366D01*
X133975132Y-86669498D01*
X134118467Y-86781297D01*
X134280858Y-86862985D01*
X134456066Y-86911422D01*
X134637357Y-86924747D01*
X134817764Y-86902448D01*
X134990355Y-86845381D01*
X135140459Y-86760994D01*
X135177869Y-86593786D01*
X134402225Y-85818141D01*
X134434752Y-85785614D01*
X135210396Y-86561259D01*
X135377604Y-86523849D01*
X135461992Y-86373744D01*
X135519058Y-86201153D01*
X135541358Y-86020746D01*
X135528033Y-85839456D01*
X135479595Y-85664248D01*
X135397908Y-85501857D01*
X135286108Y-85358522D01*
X135073976Y-85146390D01*
X139872403Y-80347963D01*
X140084535Y-80560095D01*
X140227870Y-80671894D01*
X140390261Y-80753582D01*
X140565469Y-80802020D01*
X140746759Y-80815344D01*
X140927166Y-80793045D01*
X141099757Y-80735979D01*
X141249862Y-80651591D01*
X141287272Y-80484383D01*
X140511627Y-79708739D01*
X140544154Y-79676212D01*
X141319799Y-80451856D01*
X141487007Y-80414446D01*
X141571394Y-80264341D01*
X141628461Y-80091751D01*
X141650760Y-79911344D01*
X141637435Y-79730053D01*
X141588998Y-79554845D01*
X141507310Y-79392454D01*
X141395511Y-79249119D01*
X141183379Y-79036987D01*
X140544154Y-79676212D01*
X140511627Y-79708739D01*
X139872403Y-80347963D01*
X135073976Y-85146390D01*
X134434752Y-85785614D01*
X134402225Y-85818141D01*
X133763000Y-86457366D01*
X128637053Y-91583313D01*
X128571035Y-91484507D01*
X128455844Y-91369317D01*
X128399428Y-91331620D01*
X133518341Y-86212707D01*
X133730473Y-86424839D01*
X134369698Y-85785614D01*
X133594053Y-85009970D01*
X133626580Y-84977443D01*
X134402225Y-85753087D01*
X135041449Y-85113863D01*
X134829317Y-84901731D01*
X139627744Y-80103304D01*
X139839876Y-80315436D01*
X140479100Y-79676212D01*
X139703456Y-78900567D01*
X139735983Y-78868040D01*
X140511627Y-79643685D01*
X141150852Y-79004460D01*
X140938720Y-78792328D01*
X140795385Y-78680529D01*
X140632994Y-78598841D01*
X140457786Y-78550404D01*
X140276495Y-78537079D01*
X140096088Y-78559378D01*
X139923498Y-78616445D01*
X139773393Y-78700832D01*
X139735983Y-78868040D01*
X139703456Y-78900567D01*
X139536248Y-78937977D01*
X139451860Y-79088082D01*
X139394794Y-79260673D01*
X139372495Y-79441080D01*
X139385819Y-79622370D01*
X139434257Y-79797578D01*
X139515945Y-79959969D01*
X139627744Y-80103304D01*
X134829317Y-84901731D01*
X134685983Y-84789932D01*
X134523591Y-84708244D01*
X134348384Y-84659806D01*
X134167093Y-84646482D01*
X133986686Y-84668781D01*
X133814095Y-84725847D01*
X133663990Y-84810235D01*
X133626580Y-84977443D01*
X133594053Y-85009970D01*
X133426845Y-85047380D01*
X133342458Y-85197485D01*
X133285391Y-85370075D01*
X133263092Y-85550482D01*
X133276417Y-85731773D01*
X133324854Y-85906981D01*
X133406542Y-86069372D01*
X133518341Y-86212707D01*
X128399428Y-91331620D01*
X128320393Y-91278812D01*
X128169889Y-91216472D01*
X128010115Y-91184691D01*
X127847210Y-91184691D01*
X127687436Y-91216472D01*
X127536931Y-91278812D01*
X127401480Y-91369317D01*
X127286290Y-91484507D01*
X127195785Y-91619959D01*
X127133444Y-91770463D01*
X127101663Y-91930237D01*
X127101663Y-92093142D01*
X127133444Y-92252916D01*
X127195785Y-92403420D01*
X127286290Y-92538872D01*
X116664839Y-103160322D01*
X115396466Y-101891950D01*
X118032030Y-99256386D01*
X118147220Y-99371576D01*
X118282671Y-99462081D01*
X118433176Y-99524422D01*
X118592950Y-99556203D01*
X118755855Y-99556203D01*
X118915629Y-99524422D01*
X119066133Y-99462081D01*
X119201584Y-99371576D01*
X119316775Y-99256386D01*
X119407280Y-99120935D01*
X119469620Y-98970431D01*
X119501401Y-98810656D01*
X119501401Y-98647752D01*
X119469620Y-98487977D01*
X119436718Y-98408544D01*
X156878708Y-60966554D01*
X156993899Y-61081744D01*
X157129350Y-61172249D01*
X157279854Y-61234590D01*
X157439629Y-61266371D01*
X157602533Y-61266371D01*
X157762308Y-61234590D01*
X157912812Y-61172249D01*
X158048263Y-61081744D01*
X158163454Y-60966554D01*
X158253958Y-60831103D01*
X158316299Y-60680598D01*
X158348080Y-60520824D01*
X158348080Y-60357919D01*
X158316299Y-60198145D01*
X158253958Y-60047641D01*
X158163454Y-59912190D01*
X158048263Y-59796999D01*
X157963487Y-59740354D01*
X159318227Y-58385614D01*
X159433417Y-58500805D01*
X159568869Y-58591309D01*
X159719373Y-58653650D01*
X159879147Y-58685431D01*
X160042052Y-58685431D01*
X160201826Y-58653650D01*
X160352330Y-58591309D01*
X160487781Y-58500805D01*
X160602972Y-58385614D01*
X160693477Y-58250163D01*
X160755817Y-58099659D01*
X160787598Y-57939884D01*
X160787598Y-57776980D01*
X160755817Y-57617205D01*
X160693477Y-57466701D01*
X160602972Y-57331250D01*
X160487781Y-57216059D01*
X160352330Y-57125555D01*
X160201826Y-57063214D01*
X160042052Y-57031433D01*
X159879147Y-57031433D01*
X159719373Y-57063214D01*
X159568869Y-57125555D01*
X159433417Y-57216059D01*
X159318227Y-57331250D01*
X159227722Y-57466701D01*
X159165381Y-57617205D01*
X159133601Y-57776980D01*
X159133601Y-57939884D01*
X159165381Y-58099659D01*
X159227722Y-58250163D01*
X159318227Y-58385614D01*
X157963487Y-59740354D01*
X157912812Y-59706494D01*
X157762308Y-59644154D01*
X157602533Y-59612373D01*
X157439629Y-59612373D01*
X157279854Y-59644154D01*
X157129350Y-59706494D01*
X156993899Y-59796999D01*
X156878708Y-59912190D01*
X156788204Y-60047641D01*
X156725863Y-60198145D01*
X156694082Y-60357919D01*
X156694082Y-60520824D01*
X156725863Y-60680598D01*
X156788204Y-60831103D01*
X156878708Y-60966554D01*
X119436718Y-98408544D01*
X119407280Y-98337473D01*
X119316775Y-98202022D01*
X119201584Y-98086831D01*
X119066133Y-97996327D01*
X118915629Y-97933986D01*
X118755855Y-97902205D01*
X118592950Y-97902205D01*
X118433176Y-97933986D01*
X118282671Y-97996327D01*
X118147220Y-98086831D01*
X118032030Y-98202022D01*
X117941525Y-98337473D01*
X117879184Y-98487977D01*
X117847403Y-98647752D01*
X117847403Y-98810656D01*
X117879184Y-98970431D01*
X117941525Y-99120935D01*
X118032030Y-99256386D01*
X115396466Y-101891950D01*
X113906735Y-100402219D01*
X130807294Y-83501659D01*
X131196203Y-83890568D01*
X131339537Y-84002367D01*
X131501929Y-84084055D01*
X131677136Y-84132493D01*
X131858427Y-84145817D01*
X132038834Y-84123518D01*
X132211425Y-84066452D01*
X132361529Y-83982064D01*
X132398940Y-83814856D01*
X131446518Y-82862435D01*
X130807294Y-83501659D01*
X113906735Y-100402219D01*
X113485299Y-99980783D01*
X130385858Y-83080224D01*
X130774767Y-83469132D01*
X131413992Y-82829908D01*
X130461570Y-81877487D01*
X130494097Y-81844960D01*
X131446518Y-82797381D01*
X131460661Y-82783239D01*
X131493188Y-82815766D01*
X131479045Y-82829908D01*
X132431467Y-83782329D01*
X132598675Y-83744919D01*
X132683062Y-83594814D01*
X132740129Y-83422224D01*
X132762428Y-83241817D01*
X132749103Y-83060526D01*
X132709945Y-82918884D01*
X132737169Y-82924299D01*
X132885300Y-82924299D01*
X133030585Y-82895400D01*
X133167440Y-82838712D01*
X133290606Y-82756416D01*
X133395351Y-82651670D01*
X133477648Y-82528504D01*
X133534336Y-82391649D01*
X133563235Y-82246365D01*
X133563235Y-82098233D01*
X133534336Y-81952948D01*
X133477648Y-81816093D01*
X133395351Y-81692927D01*
X133290606Y-81588182D01*
X136314195Y-78564593D01*
X136418940Y-78669338D01*
X136542106Y-78751635D01*
X136678962Y-78808323D01*
X136824246Y-78837222D01*
X136972378Y-78837222D01*
X137117662Y-78808323D01*
X137254517Y-78751635D01*
X137377683Y-78669338D01*
X137482429Y-78564593D01*
X137564725Y-78441427D01*
X137621413Y-78304572D01*
X137650312Y-78159287D01*
X137650312Y-78011156D01*
X137644897Y-77983932D01*
X137786539Y-78023090D01*
X137967830Y-78036415D01*
X138148237Y-78014115D01*
X138320827Y-77957049D01*
X138470932Y-77872662D01*
X138508342Y-77705453D01*
X137555921Y-76753032D01*
X137588448Y-76720505D01*
X138540869Y-77672927D01*
X138708077Y-77635516D01*
X138792465Y-77485412D01*
X138849531Y-77312821D01*
X138871831Y-77132414D01*
X138858506Y-76951123D01*
X138810068Y-76775916D01*
X138728380Y-76613524D01*
X138647906Y-76510350D01*
X169677341Y-45480915D01*
X169792532Y-45596106D01*
X169927983Y-45686610D01*
X170078487Y-45748951D01*
X170238261Y-45780732D01*
X170401166Y-45780732D01*
X170560940Y-45748951D01*
X170711445Y-45686610D01*
X170846896Y-45596106D01*
X170962086Y-45480915D01*
X171052591Y-45345464D01*
X171114932Y-45194960D01*
X171146713Y-45035186D01*
X171146713Y-44872281D01*
X171114932Y-44712507D01*
X171052591Y-44562002D01*
X170962086Y-44426551D01*
X170846896Y-44311361D01*
X170711445Y-44220856D01*
X170560940Y-44158515D01*
X170401166Y-44126734D01*
X170238261Y-44126734D01*
X170078487Y-44158515D01*
X169927983Y-44220856D01*
X169792532Y-44311361D01*
X169677341Y-44426551D01*
X169586836Y-44562002D01*
X169524496Y-44712507D01*
X169492715Y-44872281D01*
X169492715Y-45035186D01*
X169524496Y-45194960D01*
X169586836Y-45345464D01*
X169677341Y-45480915D01*
X138647906Y-76510350D01*
X138616581Y-76470190D01*
X138227672Y-76081281D01*
X137588448Y-76720505D01*
X137555921Y-76753032D01*
X137541779Y-76767174D01*
X137509252Y-76734647D01*
X137523394Y-76720505D01*
X136570973Y-75768084D01*
X136603500Y-75735557D01*
X137555921Y-76687978D01*
X138195146Y-76048754D01*
X137806237Y-75659845D01*
X137662902Y-75548046D01*
X137500511Y-75466358D01*
X137325303Y-75417921D01*
X137144012Y-75404596D01*
X137136422Y-75405534D01*
X160414240Y-52127716D01*
X160529430Y-52242907D01*
X160664881Y-52333411D01*
X160815385Y-52395752D01*
X160975160Y-52427533D01*
X161138064Y-52427533D01*
X161297839Y-52395752D01*
X161448343Y-52333411D01*
X161583794Y-52242907D01*
X161698985Y-52127716D01*
X161789489Y-51992265D01*
X161851830Y-51841761D01*
X161883611Y-51681986D01*
X161883611Y-51519082D01*
X161851830Y-51359307D01*
X161789489Y-51208803D01*
X161698985Y-51073352D01*
X161583794Y-50958162D01*
X161448343Y-50867657D01*
X161297839Y-50805316D01*
X161138064Y-50773535D01*
X160975160Y-50773535D01*
X160815385Y-50805316D01*
X160664881Y-50867657D01*
X160529430Y-50958162D01*
X160414240Y-51073352D01*
X160323735Y-51208803D01*
X160261394Y-51359307D01*
X160229613Y-51519082D01*
X160229613Y-51681986D01*
X160261394Y-51841761D01*
X160323735Y-51992265D01*
X160414240Y-52127716D01*
X137136422Y-75405534D01*
X136963605Y-75426895D01*
X136791015Y-75483962D01*
X136640910Y-75568349D01*
X136603500Y-75735557D01*
X136570973Y-75768084D01*
X136403765Y-75805494D01*
X136319377Y-75955599D01*
X136262311Y-76128190D01*
X136240012Y-76308597D01*
X136253336Y-76489887D01*
X136301774Y-76665095D01*
X136383462Y-76827486D01*
X136495261Y-76970821D01*
X136857661Y-77333221D01*
X136824246Y-77333221D01*
X136678962Y-77362120D01*
X136542106Y-77418808D01*
X136418940Y-77501105D01*
X136314195Y-77605850D01*
X136231898Y-77729016D01*
X136175210Y-77865871D01*
X136146311Y-78011156D01*
X136146311Y-78159287D01*
X136175210Y-78304572D01*
X136231898Y-78441427D01*
X136314195Y-78564593D01*
X133290606Y-81588182D01*
X133167440Y-81505885D01*
X133030585Y-81449197D01*
X132885300Y-81420298D01*
X132737169Y-81420298D01*
X132591884Y-81449197D01*
X132455029Y-81505885D01*
X132331863Y-81588182D01*
X132227118Y-81692927D01*
X132144821Y-81816093D01*
X132088133Y-81952948D01*
X132059234Y-82098233D01*
X132059234Y-82131648D01*
X131696834Y-81769248D01*
X131553499Y-81657449D01*
X131391108Y-81575761D01*
X131215901Y-81527323D01*
X131034610Y-81513998D01*
X130854203Y-81536298D01*
X130681612Y-81593364D01*
X130531507Y-81677752D01*
X130494097Y-81844960D01*
X130461570Y-81877487D01*
X130294362Y-81914897D01*
X130209975Y-82065002D01*
X130152908Y-82237592D01*
X130130609Y-82417999D01*
X130143934Y-82599290D01*
X130192371Y-82774498D01*
X130274059Y-82936889D01*
X130385858Y-83080224D01*
X113485299Y-99980783D01*
X112422198Y-98917682D01*
X124740705Y-86599175D01*
X124855896Y-86714365D01*
X124991347Y-86804870D01*
X125141851Y-86867210D01*
X125301625Y-86898991D01*
X125464530Y-86898991D01*
X125624304Y-86867210D01*
X125774809Y-86804870D01*
X125910260Y-86714365D01*
X126025450Y-86599175D01*
X126115955Y-86463723D01*
X126178296Y-86313219D01*
X126210077Y-86153445D01*
X126210077Y-85990540D01*
X126178296Y-85830766D01*
X126115955Y-85680262D01*
X126074786Y-85618647D01*
X130892534Y-80800899D01*
X131007725Y-80916089D01*
X131143176Y-81006594D01*
X131293680Y-81068935D01*
X131453454Y-81100716D01*
X131616359Y-81100716D01*
X131776133Y-81068935D01*
X131926638Y-81006594D01*
X132062089Y-80916089D01*
X132177279Y-80800899D01*
X132267784Y-80665448D01*
X132330125Y-80514944D01*
X132361906Y-80355169D01*
X132361906Y-80192265D01*
X132330125Y-80032490D01*
X132267784Y-79881986D01*
X132177279Y-79746535D01*
X132097444Y-79666700D01*
X134145225Y-77618918D01*
X134260416Y-77734109D01*
X134395867Y-77824614D01*
X134546371Y-77886954D01*
X134706146Y-77918735D01*
X134869050Y-77918735D01*
X135028825Y-77886954D01*
X135179329Y-77824614D01*
X135314780Y-77734109D01*
X135429971Y-77618918D01*
X135520475Y-77483467D01*
X135582816Y-77332963D01*
X135614597Y-77173189D01*
X135614597Y-77010284D01*
X135582816Y-76850510D01*
X135520475Y-76700006D01*
X135429971Y-76564554D01*
X135314780Y-76449364D01*
X135179329Y-76358859D01*
X135028825Y-76296518D01*
X134869050Y-76264738D01*
X134721589Y-76264738D01*
X140685963Y-70300363D01*
X140801154Y-70415554D01*
X140936605Y-70506059D01*
X141087109Y-70568399D01*
X141246883Y-70600180D01*
X141409788Y-70600180D01*
X141569562Y-70568399D01*
X141720067Y-70506059D01*
X141855518Y-70415554D01*
X141970708Y-70300363D01*
X142061213Y-70164912D01*
X142123554Y-70014408D01*
X142155335Y-69854634D01*
X142155335Y-69691729D01*
X142123554Y-69531955D01*
X142061213Y-69381450D01*
X141970708Y-69245999D01*
X141855518Y-69130809D01*
X141720067Y-69040304D01*
X141569562Y-68977963D01*
X141409788Y-68946182D01*
X141246883Y-68946182D01*
X141087109Y-68977963D01*
X140936605Y-69040304D01*
X140801154Y-69130809D01*
X140685963Y-69245999D01*
X140595458Y-69381450D01*
X140533118Y-69531955D01*
X140501337Y-69691729D01*
X140501337Y-69854634D01*
X140533118Y-70014408D01*
X140595458Y-70164912D01*
X140685963Y-70300363D01*
X134721589Y-76264738D01*
X134706146Y-76264738D01*
X134546371Y-76296518D01*
X134395867Y-76358859D01*
X134260416Y-76449364D01*
X134145225Y-76564554D01*
X134054721Y-76700006D01*
X133992380Y-76850510D01*
X133960599Y-77010284D01*
X133960599Y-77173189D01*
X133992380Y-77332963D01*
X134054721Y-77483467D01*
X134145225Y-77618918D01*
X132097444Y-79666700D01*
X132062089Y-79631344D01*
X131926638Y-79540840D01*
X131776133Y-79478499D01*
X131616359Y-79446718D01*
X131453454Y-79446718D01*
X131293680Y-79478499D01*
X131143176Y-79540840D01*
X131007725Y-79631344D01*
X130892534Y-79746535D01*
X130802030Y-79881986D01*
X130739689Y-80032490D01*
X130707908Y-80192265D01*
X130707908Y-80355169D01*
X130739689Y-80514944D01*
X130802030Y-80665448D01*
X130892534Y-80800899D01*
X126074786Y-85618647D01*
X126025450Y-85544810D01*
X125910260Y-85429620D01*
X125774809Y-85339115D01*
X125624304Y-85276775D01*
X125464530Y-85244994D01*
X125301625Y-85244994D01*
X125141851Y-85276775D01*
X124991347Y-85339115D01*
X124855896Y-85429620D01*
X124740705Y-85544810D01*
X124650201Y-85680262D01*
X124587860Y-85830766D01*
X124556079Y-85990540D01*
X124556079Y-86153445D01*
X124587860Y-86313219D01*
X124650201Y-86463723D01*
X124740705Y-86599175D01*
X112422198Y-98917682D01*
X111308505Y-97803989D01*
X116750399Y-92362095D01*
X116865589Y-92477285D01*
X117001040Y-92567790D01*
X117151545Y-92630131D01*
X117311319Y-92661912D01*
X117474224Y-92661912D01*
X117633998Y-92630131D01*
X117784502Y-92567790D01*
X117919953Y-92477285D01*
X118035144Y-92362095D01*
X118125648Y-92226644D01*
X118187989Y-92076139D01*
X118219770Y-91916365D01*
X118219770Y-91753460D01*
X118187989Y-91593686D01*
X118125648Y-91443182D01*
X118035144Y-91307731D01*
X117919953Y-91192540D01*
X117784502Y-91102036D01*
X117633998Y-91039695D01*
X117474224Y-91007914D01*
X117311319Y-91007914D01*
X117151545Y-91039695D01*
X117001040Y-91102036D01*
X116865589Y-91192540D01*
X116750399Y-91307731D01*
X116659894Y-91443182D01*
X116597553Y-91593686D01*
X116565772Y-91753460D01*
X116565772Y-91916365D01*
X116597553Y-92076139D01*
X116659894Y-92226644D01*
X116750399Y-92362095D01*
X111308505Y-97803989D01*
X110860352Y-97355836D01*
X110988521Y-97381330D01*
X111210520Y-97381330D01*
X111428254Y-97338020D01*
X111633355Y-97253065D01*
X111817941Y-97129728D01*
X111974919Y-96972751D01*
X112098255Y-96788165D01*
X112183211Y-96583063D01*
X112226521Y-96365330D01*
X112226521Y-96143331D01*
X112183211Y-95925597D01*
X112098255Y-95720496D01*
X112092485Y-95711860D01*
X121346593Y-86457753D01*
X121461783Y-86572944D01*
X121597234Y-86663448D01*
X121747739Y-86725789D01*
X121907513Y-86757570D01*
X122070418Y-86757570D01*
X122230192Y-86725789D01*
X122380696Y-86663448D01*
X122516147Y-86572944D01*
X122631338Y-86457753D01*
X122721843Y-86322302D01*
X122776425Y-86190529D01*
X122805286Y-86219390D01*
X122940737Y-86309895D01*
X123091241Y-86372236D01*
X123251016Y-86404017D01*
X123413920Y-86404017D01*
X123573695Y-86372236D01*
X123724199Y-86309895D01*
X123859650Y-86219390D01*
X123974841Y-86104200D01*
X124065345Y-85968749D01*
X124127686Y-85818244D01*
X124159467Y-85658470D01*
X124159467Y-85495565D01*
X124127686Y-85335791D01*
X124065345Y-85185287D01*
X123974841Y-85049836D01*
X123859650Y-84934645D01*
X123724199Y-84844140D01*
X123573695Y-84781800D01*
X123413920Y-84750019D01*
X123251016Y-84750019D01*
X123091241Y-84781800D01*
X122940737Y-84844140D01*
X122805286Y-84934645D01*
X122690096Y-85049836D01*
X122599591Y-85185287D01*
X122545009Y-85317060D01*
X122516147Y-85288199D01*
X122380696Y-85197694D01*
X122340472Y-85181032D01*
X148004518Y-59516985D01*
X148119709Y-59632175D01*
X148255160Y-59722680D01*
X148363933Y-59767736D01*
X148408988Y-59876508D01*
X148499493Y-60011960D01*
X148614684Y-60127150D01*
X148750135Y-60217655D01*
X148833908Y-60252355D01*
X148868608Y-60336128D01*
X148959112Y-60471579D01*
X149074303Y-60586770D01*
X149209754Y-60677274D01*
X149318527Y-60722330D01*
X149363583Y-60831103D01*
X149454087Y-60966554D01*
X149569278Y-61081744D01*
X149704729Y-61172249D01*
X149855233Y-61234590D01*
X150015007Y-61266371D01*
X150177912Y-61266371D01*
X150337686Y-61234590D01*
X150488191Y-61172249D01*
X150623642Y-61081744D01*
X150738832Y-60966554D01*
X150829337Y-60831103D01*
X150891678Y-60680598D01*
X150923459Y-60520824D01*
X150923459Y-60357919D01*
X150891678Y-60198145D01*
X150829337Y-60047641D01*
X150738832Y-59912190D01*
X150623642Y-59796999D01*
X150488191Y-59706494D01*
X150379418Y-59661439D01*
X150334362Y-59552666D01*
X150279032Y-59469858D01*
X152141093Y-57607797D01*
X152256284Y-57722987D01*
X152391735Y-57813492D01*
X152542239Y-57875832D01*
X152702013Y-57907613D01*
X152864918Y-57907613D01*
X153024692Y-57875832D01*
X153175196Y-57813492D01*
X153310648Y-57722987D01*
X153425838Y-57607797D01*
X153516343Y-57472345D01*
X153578684Y-57321841D01*
X153610464Y-57162067D01*
X153610464Y-56999162D01*
X153578684Y-56839388D01*
X153516343Y-56688884D01*
X153507150Y-56675128D01*
X164997321Y-45184957D01*
X165280164Y-45467800D01*
X165299408Y-45483594D01*
X165321365Y-45495330D01*
X165345189Y-45502557D01*
X165369966Y-45504998D01*
X165394743Y-45502557D01*
X165418567Y-45495330D01*
X165440524Y-45483594D01*
X165459769Y-45467800D01*
X166218494Y-44709074D01*
X166977220Y-45467800D01*
X166996465Y-45483594D01*
X167018422Y-45495330D01*
X167042246Y-45502557D01*
X167067023Y-45504998D01*
X167091800Y-45502557D01*
X167115623Y-45495330D01*
X167137581Y-45483594D01*
X167156825Y-45467800D01*
X167934643Y-44689982D01*
X167950437Y-44670738D01*
X167962173Y-44648781D01*
X167969400Y-44624957D01*
X167971841Y-44600180D01*
X167969400Y-44575403D01*
X167962173Y-44551579D01*
X167950437Y-44529622D01*
X167938498Y-44515075D01*
X168669714Y-43783859D01*
X168784905Y-43899049D01*
X168920356Y-43989554D01*
X169070860Y-44051895D01*
X169230634Y-44083676D01*
X169393539Y-44083676D01*
X169553313Y-44051895D01*
X169703817Y-43989554D01*
X169839269Y-43899049D01*
X169954459Y-43783859D01*
X170044964Y-43648408D01*
X170107305Y-43497904D01*
X170139085Y-43338129D01*
X170139085Y-43175225D01*
X170107305Y-43015450D01*
X170044964Y-42864946D01*
X169954459Y-42729495D01*
X169839269Y-42614304D01*
X169703817Y-42523800D01*
X169553313Y-42461459D01*
X169393539Y-42429678D01*
X169230634Y-42429678D01*
X169070860Y-42461459D01*
X168920356Y-42523800D01*
X168784905Y-42614304D01*
X168669714Y-42729495D01*
X168579209Y-42864946D01*
X168516869Y-43015450D01*
X168485088Y-43175225D01*
X168485088Y-43338129D01*
X168516869Y-43497904D01*
X168579209Y-43648408D01*
X168669714Y-43783859D01*
X167938498Y-44515075D01*
X167934643Y-44510377D01*
X167227536Y-43803270D01*
X167208291Y-43787477D01*
X167186334Y-43775740D01*
X167162510Y-43768513D01*
X167137733Y-43766072D01*
X167112956Y-43768513D01*
X167089132Y-43775740D01*
X167067175Y-43787477D01*
X167047931Y-43803270D01*
X166430626Y-44420575D01*
X166308297Y-44298245D01*
X166289052Y-44282451D01*
X166267095Y-44270715D01*
X166243271Y-44263488D01*
X166218494Y-44261047D01*
X166193717Y-44263488D01*
X166169894Y-44270715D01*
X166147936Y-44282451D01*
X166128692Y-44298245D01*
X166006362Y-44420575D01*
X165884033Y-44298245D01*
X167684327Y-42497951D01*
X167967169Y-42780794D01*
X167986414Y-42796588D01*
X168008371Y-42808325D01*
X168032195Y-42815551D01*
X168056972Y-42817992D01*
X168081749Y-42815551D01*
X168105573Y-42808325D01*
X168127530Y-42796588D01*
X168146775Y-42780794D01*
X168853881Y-42073687D01*
X168869675Y-42054443D01*
X168881412Y-42032486D01*
X168888639Y-42008662D01*
X168891079Y-41983885D01*
X168888639Y-41959108D01*
X168881412Y-41935284D01*
X168869675Y-41913327D01*
X168853881Y-41894082D01*
X168571039Y-41611239D01*
X168551794Y-41595446D01*
X168529837Y-41583709D01*
X168506013Y-41576482D01*
X168481236Y-41574041D01*
X168456459Y-41576482D01*
X168432635Y-41583709D01*
X168410678Y-41595446D01*
X168391434Y-41611239D01*
X167684327Y-42318346D01*
X167668533Y-42337591D01*
X167656796Y-42359548D01*
X167649570Y-42383372D01*
X167647129Y-42408149D01*
X167649570Y-42432926D01*
X167656796Y-42456750D01*
X167668533Y-42478707D01*
X167684327Y-42497951D01*
X165884033Y-44298245D01*
X165864788Y-44282451D01*
X165842831Y-44270715D01*
X165819007Y-44263488D01*
X165794230Y-44261047D01*
X165769453Y-44263488D01*
X165745629Y-44270715D01*
X165723672Y-44282451D01*
X165704428Y-44298245D01*
X164997321Y-45005352D01*
X164981527Y-45024597D01*
X164969791Y-45046554D01*
X164962564Y-45070378D01*
X164960123Y-45095155D01*
X164962564Y-45119932D01*
X164969791Y-45143755D01*
X164981527Y-45165713D01*
X164997321Y-45184957D01*
X153507150Y-56675128D01*
X153425838Y-56553432D01*
X153310648Y-56438242D01*
X153175196Y-56347737D01*
X153024692Y-56285397D01*
X152864918Y-56253616D01*
X152702013Y-56253616D01*
X152542239Y-56285397D01*
X152391735Y-56347737D01*
X152256284Y-56438242D01*
X152141093Y-56553432D01*
X152050588Y-56688884D01*
X151988248Y-56839388D01*
X151956467Y-56999162D01*
X151956467Y-57162067D01*
X151988248Y-57321841D01*
X152050588Y-57472345D01*
X152141093Y-57607797D01*
X150279032Y-59469858D01*
X150243858Y-59417215D01*
X150128667Y-59302024D01*
X149993216Y-59211520D01*
X149909443Y-59176820D01*
X149874743Y-59093047D01*
X149784238Y-58957596D01*
X149669048Y-58842405D01*
X149533596Y-58751900D01*
X149424824Y-58706845D01*
X149379768Y-58598072D01*
X149289263Y-58462621D01*
X149174073Y-58347430D01*
X149089297Y-58290785D01*
X161899167Y-45480915D01*
X162014357Y-45596106D01*
X162149808Y-45686610D01*
X162300313Y-45748951D01*
X162460087Y-45780732D01*
X162622992Y-45780732D01*
X162782766Y-45748951D01*
X162933270Y-45686610D01*
X163068721Y-45596106D01*
X163183912Y-45480915D01*
X163274416Y-45345464D01*
X163336757Y-45194960D01*
X163368538Y-45035186D01*
X163368538Y-44872281D01*
X163336757Y-44712507D01*
X163274416Y-44562002D01*
X163183912Y-44426551D01*
X163068721Y-44311361D01*
X163052997Y-44300854D01*
X163583107Y-43770744D01*
X163865950Y-44053586D01*
X163885195Y-44069380D01*
X163907152Y-44081117D01*
X163930976Y-44088343D01*
X163955753Y-44090784D01*
X163980530Y-44088343D01*
X164004354Y-44081117D01*
X164026311Y-44069380D01*
X164045555Y-44053586D01*
X164752662Y-43346479D01*
X164768456Y-43327235D01*
X164780193Y-43305278D01*
X164787419Y-43281454D01*
X164789860Y-43256677D01*
X164787419Y-43231900D01*
X164780193Y-43208076D01*
X164768456Y-43186119D01*
X164752662Y-43166874D01*
X164469819Y-42884032D01*
X164450575Y-42868238D01*
X164428618Y-42856501D01*
X164404794Y-42849275D01*
X164380017Y-42846834D01*
X164355240Y-42849275D01*
X164331416Y-42856501D01*
X164309459Y-42868238D01*
X164290214Y-42884032D01*
X163583107Y-43591138D01*
X163567314Y-43610383D01*
X163555577Y-43632340D01*
X163548350Y-43656164D01*
X163545909Y-43680941D01*
X163548350Y-43705718D01*
X163555577Y-43729542D01*
X163567314Y-43751499D01*
X163583107Y-43770744D01*
X163052997Y-44300854D01*
X162933270Y-44220856D01*
X162782766Y-44158515D01*
X162622992Y-44126734D01*
X162460087Y-44126734D01*
X162300313Y-44158515D01*
X162149808Y-44220856D01*
X162014357Y-44311361D01*
X161899167Y-44426551D01*
X161808662Y-44562002D01*
X161746321Y-44712507D01*
X161714540Y-44872281D01*
X161714540Y-45035186D01*
X161746321Y-45194960D01*
X161808662Y-45345464D01*
X161899167Y-45480915D01*
X149089297Y-58290785D01*
X149038622Y-58256926D01*
X148888118Y-58194585D01*
X148728343Y-58162804D01*
X148565439Y-58162804D01*
X148405664Y-58194585D01*
X148255160Y-58256926D01*
X148119709Y-58347430D01*
X148004518Y-58462621D01*
X147914014Y-58598072D01*
X147851673Y-58748576D01*
X147819892Y-58908350D01*
X147819892Y-59071255D01*
X147851673Y-59231029D01*
X147914014Y-59381534D01*
X148004518Y-59516985D01*
X122340472Y-85181032D01*
X122230192Y-85135353D01*
X122070418Y-85103572D01*
X121907513Y-85103572D01*
X121747739Y-85135353D01*
X121597234Y-85197694D01*
X121461783Y-85288199D01*
X121346593Y-85403389D01*
X121256088Y-85538840D01*
X121193747Y-85689345D01*
X121161966Y-85849119D01*
X121161966Y-86012024D01*
X121193747Y-86171798D01*
X121256088Y-86322302D01*
X121346593Y-86457753D01*
X112092485Y-95711860D01*
X111974919Y-95535910D01*
X111817941Y-95378932D01*
X111633355Y-95255596D01*
X111428254Y-95170640D01*
X111210520Y-95127330D01*
X110988521Y-95127330D01*
X110770788Y-95170640D01*
X110565686Y-95255596D01*
X110381100Y-95378932D01*
X110224123Y-95535910D01*
X110100786Y-95720496D01*
X110015831Y-95925597D01*
X109972521Y-96143331D01*
X109972521Y-96365330D01*
X109998015Y-96493499D01*
X109157355Y-95652839D01*
X109326470Y-95483725D01*
X109503304Y-95572961D01*
X109716929Y-95512557D01*
X109914664Y-95411636D01*
X110088910Y-95274080D01*
X110232973Y-95105173D01*
X110333657Y-94925104D01*
X158505054Y-46753707D01*
X158620245Y-46868898D01*
X158755696Y-46959403D01*
X158906200Y-47021743D01*
X159065974Y-47053524D01*
X159228879Y-47053524D01*
X159388653Y-47021743D01*
X159539157Y-46959403D01*
X159674609Y-46868898D01*
X159789799Y-46753707D01*
X159880304Y-46618256D01*
X159942645Y-46467752D01*
X159974425Y-46307978D01*
X159974425Y-46145073D01*
X159942645Y-45985299D01*
X159880304Y-45834795D01*
X159856950Y-45799844D01*
X164502346Y-41154448D01*
X165209453Y-41861555D01*
X165228698Y-41877349D01*
X165250655Y-41889086D01*
X165274479Y-41896312D01*
X165299256Y-41898753D01*
X165324033Y-41896312D01*
X165347856Y-41889086D01*
X165369814Y-41877349D01*
X165389058Y-41861555D01*
X166006362Y-41244251D01*
X166057981Y-41295870D01*
X166077226Y-41311664D01*
X166099183Y-41323400D01*
X166123007Y-41330627D01*
X166147784Y-41333068D01*
X166172561Y-41330627D01*
X166196385Y-41323400D01*
X166218342Y-41311664D01*
X166218494Y-41311538D01*
X166218647Y-41311664D01*
X166240604Y-41323400D01*
X166264428Y-41330627D01*
X166289205Y-41333068D01*
X166313982Y-41330627D01*
X166337806Y-41323400D01*
X166359763Y-41311664D01*
X166379008Y-41295870D01*
X166430626Y-41244251D01*
X166552956Y-41366581D01*
X166572201Y-41382374D01*
X166594158Y-41394111D01*
X166617981Y-41401338D01*
X166642758Y-41403779D01*
X166667536Y-41401338D01*
X166691359Y-41394111D01*
X166713316Y-41382374D01*
X166732561Y-41366581D01*
X167439668Y-40659474D01*
X167455462Y-40640229D01*
X167467198Y-40618272D01*
X167474425Y-40594448D01*
X167476866Y-40569671D01*
X167474425Y-40544894D01*
X167467198Y-40521070D01*
X167464709Y-40516414D01*
X167874219Y-40106904D01*
X167989409Y-40222094D01*
X168124861Y-40312599D01*
X168275365Y-40374940D01*
X168435139Y-40406721D01*
X168598044Y-40406721D01*
X168757818Y-40374940D01*
X168908322Y-40312599D01*
X169043774Y-40222094D01*
X169158964Y-40106904D01*
X169249469Y-39971452D01*
X169311809Y-39820948D01*
X169343590Y-39661174D01*
X169343590Y-39498269D01*
X169311809Y-39338495D01*
X169249469Y-39187991D01*
X169158964Y-39052540D01*
X169043774Y-38937349D01*
X168908322Y-38846844D01*
X168757818Y-38784504D01*
X168598044Y-38752723D01*
X168435139Y-38752723D01*
X168275365Y-38784504D01*
X168124861Y-38846844D01*
X167989409Y-38937349D01*
X167874219Y-39052540D01*
X167783714Y-39187991D01*
X167721374Y-39338495D01*
X167689593Y-39498269D01*
X167689593Y-39661174D01*
X167721374Y-39820948D01*
X167783714Y-39971452D01*
X167874219Y-40106904D01*
X167464709Y-40516414D01*
X167455462Y-40499113D01*
X167439668Y-40479869D01*
X167156825Y-40197026D01*
X167137581Y-40181232D01*
X167115623Y-40169495D01*
X167091800Y-40162269D01*
X167067023Y-40159828D01*
X167042246Y-40162269D01*
X167018422Y-40169495D01*
X166996465Y-40181232D01*
X166977220Y-40197026D01*
X166287002Y-40887243D01*
X166267095Y-40876602D01*
X166243271Y-40869376D01*
X166218494Y-40866935D01*
X166193717Y-40869376D01*
X166169894Y-40876602D01*
X166149986Y-40887243D01*
X165459769Y-40197026D01*
X165440524Y-40181232D01*
X165418567Y-40169495D01*
X165394743Y-40162269D01*
X165369966Y-40159828D01*
X165345189Y-40162269D01*
X165321365Y-40169495D01*
X165299408Y-40181232D01*
X165280164Y-40197026D01*
X164502346Y-40974843D01*
X164486552Y-40994088D01*
X164474816Y-41016045D01*
X164467589Y-41039869D01*
X164465148Y-41064646D01*
X164467589Y-41089423D01*
X164474816Y-41113247D01*
X164486552Y-41135204D01*
X164502346Y-41154448D01*
X159856950Y-45799844D01*
X159789799Y-45699343D01*
X159674609Y-45584153D01*
X159539157Y-45493648D01*
X159388653Y-45431307D01*
X159228879Y-45399527D01*
X159065974Y-45399527D01*
X158906200Y-45431307D01*
X158755696Y-45493648D01*
X158620245Y-45584153D01*
X158505054Y-45699343D01*
X158414549Y-45834795D01*
X158352209Y-45985299D01*
X158320428Y-46145073D01*
X158320428Y-46307978D01*
X158352209Y-46467752D01*
X158414549Y-46618256D01*
X158505054Y-46753707D01*
X110333657Y-94925104D01*
X110341316Y-94911406D01*
X110409776Y-94700225D01*
X110418152Y-94658114D01*
X110328915Y-94481279D01*
X109326470Y-94481279D01*
X109326470Y-95483725D01*
X109157355Y-95652839D01*
X109070983Y-95566467D01*
X109103635Y-95572961D01*
X109280470Y-95483725D01*
X109280470Y-94481279D01*
X109326470Y-94435279D01*
X110328915Y-94435279D01*
X110418152Y-94258444D01*
X110357747Y-94044819D01*
X110256827Y-93847085D01*
X110119271Y-93672838D01*
X109950364Y-93528775D01*
X109756597Y-93420432D01*
X109545415Y-93351973D01*
X109503304Y-93343597D01*
X109326470Y-93432833D01*
X109326470Y-94435279D01*
X109280470Y-94481279D01*
X108278024Y-94481279D01*
X108188787Y-94658114D01*
X108199100Y-94694583D01*
X108108910Y-94604393D01*
X108278024Y-94435279D01*
X109280470Y-94435279D01*
X109280470Y-93432833D01*
X109103635Y-93343597D01*
X108890010Y-93404001D01*
X108692275Y-93504922D01*
X108518029Y-93642478D01*
X108373966Y-93811384D01*
X108265623Y-94005151D01*
X108197164Y-94216333D01*
X108188787Y-94258444D01*
X108278024Y-94435279D01*
X108108910Y-94604393D01*
X106853732Y-93349216D01*
X146342817Y-53860131D01*
X146458008Y-53975321D01*
X146593459Y-54065826D01*
X146743963Y-54128167D01*
X146903738Y-54159947D01*
X147066642Y-54159947D01*
X147226417Y-54128167D01*
X147376921Y-54065826D01*
X147512372Y-53975321D01*
X147627563Y-53860131D01*
X147718067Y-53724679D01*
X147780408Y-53574175D01*
X147812189Y-53414401D01*
X147812189Y-53251496D01*
X147780408Y-53091722D01*
X147741203Y-52997073D01*
X147769736Y-52928186D01*
X156030180Y-44667742D01*
X156145371Y-44782933D01*
X156280822Y-44873438D01*
X156431326Y-44935778D01*
X156591101Y-44967559D01*
X156754005Y-44967559D01*
X156913780Y-44935778D01*
X157064284Y-44873438D01*
X157199735Y-44782933D01*
X157314925Y-44667742D01*
X157405430Y-44532291D01*
X157407100Y-44528260D01*
X161298126Y-40637234D01*
X161413316Y-40752424D01*
X161548768Y-40842929D01*
X161699272Y-40905270D01*
X161859046Y-40937051D01*
X162021951Y-40937051D01*
X162181725Y-40905270D01*
X162332229Y-40842929D01*
X162467680Y-40752424D01*
X162481898Y-40738207D01*
X162515769Y-40819981D01*
X162606273Y-40955432D01*
X162721464Y-41070622D01*
X162856915Y-41161127D01*
X163007419Y-41223468D01*
X163167194Y-41255249D01*
X163330098Y-41255249D01*
X163489873Y-41223468D01*
X163640377Y-41161127D01*
X163775828Y-41070622D01*
X163891019Y-40955432D01*
X163981523Y-40819981D01*
X164043864Y-40669476D01*
X164075645Y-40509702D01*
X164075645Y-40346797D01*
X164043864Y-40187023D01*
X163981523Y-40036519D01*
X163912031Y-39932517D01*
X165010436Y-38834112D01*
X165125627Y-38949302D01*
X165261078Y-39039807D01*
X165411582Y-39102147D01*
X165571357Y-39133928D01*
X165734261Y-39133928D01*
X165894036Y-39102147D01*
X166044540Y-39039807D01*
X166179991Y-38949302D01*
X166295182Y-38834112D01*
X166385686Y-38698660D01*
X166448027Y-38548156D01*
X166479808Y-38388382D01*
X166479808Y-38225477D01*
X166448027Y-38065703D01*
X166385686Y-37915199D01*
X166295182Y-37779747D01*
X166179991Y-37664557D01*
X166044540Y-37574052D01*
X165894036Y-37511712D01*
X165734261Y-37479931D01*
X165571357Y-37479931D01*
X165411582Y-37511712D01*
X165261078Y-37574052D01*
X165125627Y-37664557D01*
X165010436Y-37779747D01*
X164919932Y-37915199D01*
X164857591Y-38065703D01*
X164825810Y-38225477D01*
X164825810Y-38388382D01*
X164857591Y-38548156D01*
X164919932Y-38698660D01*
X165010436Y-38834112D01*
X163912031Y-39932517D01*
X163891019Y-39901068D01*
X163775828Y-39785877D01*
X163640377Y-39695373D01*
X163489873Y-39633032D01*
X163330098Y-39601251D01*
X163167194Y-39601251D01*
X163007419Y-39633032D01*
X162856915Y-39695373D01*
X162721464Y-39785877D01*
X162707247Y-39800094D01*
X162673376Y-39718321D01*
X162582871Y-39582870D01*
X162467680Y-39467679D01*
X162332229Y-39377174D01*
X162181725Y-39314834D01*
X162021951Y-39283053D01*
X161859046Y-39283053D01*
X161699272Y-39314834D01*
X161548768Y-39377174D01*
X161413316Y-39467679D01*
X161298126Y-39582870D01*
X161207621Y-39718321D01*
X161145280Y-39868825D01*
X161113500Y-40028599D01*
X161113500Y-40191504D01*
X161145280Y-40351278D01*
X161207621Y-40501783D01*
X161298126Y-40637234D01*
X157407100Y-44528260D01*
X157467771Y-44381787D01*
X157499552Y-44222013D01*
X157499552Y-44059108D01*
X157467771Y-43899334D01*
X157405430Y-43748830D01*
X157314925Y-43613378D01*
X157199735Y-43498188D01*
X157064284Y-43407683D01*
X156913780Y-43345342D01*
X156754005Y-43313562D01*
X156591101Y-43313562D01*
X156431326Y-43345342D01*
X156280822Y-43407683D01*
X156145371Y-43498188D01*
X156030180Y-43613378D01*
X155939676Y-43748830D01*
X155877335Y-43899334D01*
X155845554Y-44059108D01*
X155845554Y-44222013D01*
X155877335Y-44381787D01*
X155939676Y-44532291D01*
X156030180Y-44667742D01*
X147769736Y-52928186D01*
X147780408Y-52902424D01*
X147812189Y-52742649D01*
X147812189Y-52579745D01*
X147780408Y-52419970D01*
X147718067Y-52269466D01*
X147627563Y-52134015D01*
X147512372Y-52018825D01*
X147376921Y-51928320D01*
X147226417Y-51865979D01*
X147066642Y-51834198D01*
X146903738Y-51834198D01*
X146743963Y-51865979D01*
X146593459Y-51928320D01*
X146458008Y-52018825D01*
X146342817Y-52134015D01*
X146252313Y-52269466D01*
X146189972Y-52419970D01*
X146158191Y-52579745D01*
X146158191Y-52742649D01*
X146189972Y-52902424D01*
X146229177Y-52997073D01*
X146189972Y-53091722D01*
X146158191Y-53251496D01*
X146158191Y-53414401D01*
X146189972Y-53574175D01*
X146252313Y-53724679D01*
X146342817Y-53860131D01*
X106853732Y-93349216D01*
X106286502Y-92781985D01*
X107487992Y-91580495D01*
X107664827Y-91669732D01*
X107878451Y-91609327D01*
X108076186Y-91508407D01*
X108250433Y-91370851D01*
X108394496Y-91201944D01*
X108502839Y-91008177D01*
X108571298Y-90796995D01*
X108579674Y-90754884D01*
X108490438Y-90578050D01*
X107487992Y-90578050D01*
X107487992Y-91580495D01*
X106286502Y-92781985D01*
X105747099Y-92242582D01*
X106649191Y-91340490D01*
X106818097Y-91484553D01*
X107011865Y-91592896D01*
X107223046Y-91661356D01*
X107265157Y-91669732D01*
X107441992Y-91580495D01*
X107441992Y-90578050D01*
X107487992Y-90532049D01*
X108490438Y-90532049D01*
X108579674Y-90355215D01*
X108519270Y-90141590D01*
X108418349Y-89943855D01*
X108280793Y-89769609D01*
X108179689Y-89683375D01*
X108385645Y-89477419D01*
X108542623Y-89634396D01*
X108727209Y-89757733D01*
X108932310Y-89842688D01*
X109150044Y-89885999D01*
X109372043Y-89885999D01*
X109589776Y-89842688D01*
X109794878Y-89757733D01*
X109979464Y-89634396D01*
X110136441Y-89477419D01*
X110259778Y-89292833D01*
X110344733Y-89087732D01*
X110388043Y-88869998D01*
X110388043Y-88647999D01*
X110344733Y-88430265D01*
X110259778Y-88225164D01*
X110136441Y-88040578D01*
X109979464Y-87883600D01*
X109794878Y-87760264D01*
X109589776Y-87675308D01*
X109372043Y-87631998D01*
X109150044Y-87631998D01*
X108932310Y-87675308D01*
X108727209Y-87760264D01*
X108542623Y-87883600D01*
X108385645Y-88040578D01*
X108262309Y-88225164D01*
X108177353Y-88430265D01*
X108134043Y-88647999D01*
X108134043Y-88869998D01*
X108177353Y-89087732D01*
X108262309Y-89292833D01*
X108385645Y-89477419D01*
X108179689Y-89683375D01*
X108111886Y-89625546D01*
X107918119Y-89517203D01*
X107706938Y-89448743D01*
X107664827Y-89440367D01*
X107487992Y-89529604D01*
X107487992Y-90532049D01*
X107441992Y-90578050D01*
X106439546Y-90578050D01*
X106350310Y-90754884D01*
X106410714Y-90968509D01*
X106511635Y-91166244D01*
X106649191Y-91340490D01*
X105747099Y-92242582D01*
X105238056Y-91733540D01*
X106439546Y-90532049D01*
X107441992Y-90532049D01*
X107441992Y-89529604D01*
X107265157Y-89440367D01*
X107051533Y-89500772D01*
X106853798Y-89601692D01*
X106679551Y-89739248D01*
X106535488Y-89908155D01*
X106427145Y-90101922D01*
X106358686Y-90313104D01*
X106350310Y-90355215D01*
X106439546Y-90532049D01*
X105238056Y-91733540D01*
X104667678Y-91163161D01*
X165905103Y-29925736D01*
X178212184Y-44624477D01*
%TA.AperFunction,Conductor*%
D14*
G36*
X178212184Y-44624477D02*
G01*
X118170589Y-104666072D01*
X117230524Y-103726008D01*
X124952837Y-96003695D01*
X125068028Y-96118885D01*
X125203479Y-96209390D01*
X125353983Y-96271731D01*
X125513758Y-96303512D01*
X125676662Y-96303512D01*
X125836436Y-96271731D01*
X125986941Y-96209390D01*
X126122392Y-96118885D01*
X126237582Y-96003695D01*
X126328087Y-95868244D01*
X126390428Y-95717739D01*
X126422209Y-95557965D01*
X126422209Y-95395060D01*
X126390428Y-95235286D01*
X126328087Y-95084782D01*
X126237582Y-94949331D01*
X126122392Y-94834140D01*
X125986941Y-94743635D01*
X125836436Y-94681295D01*
X125676662Y-94649514D01*
X125513758Y-94649514D01*
X125353983Y-94681295D01*
X125203479Y-94743635D01*
X125068028Y-94834140D01*
X124952837Y-94949331D01*
X124862333Y-95084782D01*
X124799992Y-95235286D01*
X124768211Y-95395060D01*
X124768211Y-95557965D01*
X124799992Y-95717739D01*
X124862333Y-95868244D01*
X124952837Y-96003695D01*
X117230524Y-103726008D01*
X116664839Y-103160322D01*
X127286290Y-92538872D01*
X127401480Y-92654062D01*
X127536931Y-92744567D01*
X127687436Y-92806907D01*
X127847210Y-92838688D01*
X128010115Y-92838688D01*
X128169889Y-92806907D01*
X128320393Y-92744567D01*
X128455844Y-92654062D01*
X128571035Y-92538872D01*
X128661540Y-92403420D01*
X128723880Y-92252916D01*
X128755661Y-92093142D01*
X128755661Y-91930237D01*
X128723880Y-91770463D01*
X128661540Y-91619959D01*
X128637053Y-91583313D01*
X133763000Y-86457366D01*
X133975132Y-86669498D01*
X134118467Y-86781297D01*
X134280858Y-86862985D01*
X134456066Y-86911422D01*
X134637357Y-86924747D01*
X134817764Y-86902448D01*
X134990355Y-86845381D01*
X135140459Y-86760994D01*
X135177869Y-86593786D01*
X134402225Y-85818141D01*
X134434752Y-85785614D01*
X135210396Y-86561259D01*
X135377604Y-86523849D01*
X135461992Y-86373744D01*
X135519058Y-86201153D01*
X135541358Y-86020746D01*
X135528033Y-85839456D01*
X135479595Y-85664248D01*
X135397908Y-85501857D01*
X135286108Y-85358522D01*
X135073976Y-85146390D01*
X139872403Y-80347963D01*
X140084535Y-80560095D01*
X140227870Y-80671894D01*
X140390261Y-80753582D01*
X140565469Y-80802020D01*
X140746759Y-80815344D01*
X140927166Y-80793045D01*
X141099757Y-80735979D01*
X141249862Y-80651591D01*
X141287272Y-80484383D01*
X140511627Y-79708739D01*
X140544154Y-79676212D01*
X141319799Y-80451856D01*
X141487007Y-80414446D01*
X141571394Y-80264341D01*
X141628461Y-80091751D01*
X141650760Y-79911344D01*
X141637435Y-79730053D01*
X141588998Y-79554845D01*
X141507310Y-79392454D01*
X141395511Y-79249119D01*
X141183379Y-79036987D01*
X140544154Y-79676212D01*
X140511627Y-79708739D01*
X139872403Y-80347963D01*
X135073976Y-85146390D01*
X134434752Y-85785614D01*
X134402225Y-85818141D01*
X133763000Y-86457366D01*
X128637053Y-91583313D01*
X128571035Y-91484507D01*
X128455844Y-91369317D01*
X128399428Y-91331620D01*
X133518341Y-86212707D01*
X133730473Y-86424839D01*
X134369698Y-85785614D01*
X133594053Y-85009970D01*
X133626580Y-84977443D01*
X134402225Y-85753087D01*
X135041449Y-85113863D01*
X134829317Y-84901731D01*
X139627744Y-80103304D01*
X139839876Y-80315436D01*
X140479100Y-79676212D01*
X139703456Y-78900567D01*
X139735983Y-78868040D01*
X140511627Y-79643685D01*
X141150852Y-79004460D01*
X140938720Y-78792328D01*
X140795385Y-78680529D01*
X140632994Y-78598841D01*
X140457786Y-78550404D01*
X140276495Y-78537079D01*
X140096088Y-78559378D01*
X139923498Y-78616445D01*
X139773393Y-78700832D01*
X139735983Y-78868040D01*
X139703456Y-78900567D01*
X139536248Y-78937977D01*
X139451860Y-79088082D01*
X139394794Y-79260673D01*
X139372495Y-79441080D01*
X139385819Y-79622370D01*
X139434257Y-79797578D01*
X139515945Y-79959969D01*
X139627744Y-80103304D01*
X134829317Y-84901731D01*
X134685983Y-84789932D01*
X134523591Y-84708244D01*
X134348384Y-84659806D01*
X134167093Y-84646482D01*
X133986686Y-84668781D01*
X133814095Y-84725847D01*
X133663990Y-84810235D01*
X133626580Y-84977443D01*
X133594053Y-85009970D01*
X133426845Y-85047380D01*
X133342458Y-85197485D01*
X133285391Y-85370075D01*
X133263092Y-85550482D01*
X133276417Y-85731773D01*
X133324854Y-85906981D01*
X133406542Y-86069372D01*
X133518341Y-86212707D01*
X128399428Y-91331620D01*
X128320393Y-91278812D01*
X128169889Y-91216472D01*
X128010115Y-91184691D01*
X127847210Y-91184691D01*
X127687436Y-91216472D01*
X127536931Y-91278812D01*
X127401480Y-91369317D01*
X127286290Y-91484507D01*
X127195785Y-91619959D01*
X127133444Y-91770463D01*
X127101663Y-91930237D01*
X127101663Y-92093142D01*
X127133444Y-92252916D01*
X127195785Y-92403420D01*
X127286290Y-92538872D01*
X116664839Y-103160322D01*
X115396466Y-101891950D01*
X118032030Y-99256386D01*
X118147220Y-99371576D01*
X118282671Y-99462081D01*
X118433176Y-99524422D01*
X118592950Y-99556203D01*
X118755855Y-99556203D01*
X118915629Y-99524422D01*
X119066133Y-99462081D01*
X119201584Y-99371576D01*
X119316775Y-99256386D01*
X119407280Y-99120935D01*
X119469620Y-98970431D01*
X119501401Y-98810656D01*
X119501401Y-98647752D01*
X119469620Y-98487977D01*
X119436718Y-98408544D01*
X156878708Y-60966554D01*
X156993899Y-61081744D01*
X157129350Y-61172249D01*
X157279854Y-61234590D01*
X157439629Y-61266371D01*
X157602533Y-61266371D01*
X157762308Y-61234590D01*
X157912812Y-61172249D01*
X158048263Y-61081744D01*
X158163454Y-60966554D01*
X158253958Y-60831103D01*
X158316299Y-60680598D01*
X158348080Y-60520824D01*
X158348080Y-60357919D01*
X158316299Y-60198145D01*
X158253958Y-60047641D01*
X158163454Y-59912190D01*
X158048263Y-59796999D01*
X157963487Y-59740354D01*
X159318227Y-58385614D01*
X159433417Y-58500805D01*
X159568869Y-58591309D01*
X159719373Y-58653650D01*
X159879147Y-58685431D01*
X160042052Y-58685431D01*
X160201826Y-58653650D01*
X160352330Y-58591309D01*
X160487781Y-58500805D01*
X160602972Y-58385614D01*
X160693477Y-58250163D01*
X160755817Y-58099659D01*
X160787598Y-57939884D01*
X160787598Y-57776980D01*
X160755817Y-57617205D01*
X160693477Y-57466701D01*
X160602972Y-57331250D01*
X160487781Y-57216059D01*
X160352330Y-57125555D01*
X160201826Y-57063214D01*
X160042052Y-57031433D01*
X159879147Y-57031433D01*
X159719373Y-57063214D01*
X159568869Y-57125555D01*
X159433417Y-57216059D01*
X159318227Y-57331250D01*
X159227722Y-57466701D01*
X159165381Y-57617205D01*
X159133601Y-57776980D01*
X159133601Y-57939884D01*
X159165381Y-58099659D01*
X159227722Y-58250163D01*
X159318227Y-58385614D01*
X157963487Y-59740354D01*
X157912812Y-59706494D01*
X157762308Y-59644154D01*
X157602533Y-59612373D01*
X157439629Y-59612373D01*
X157279854Y-59644154D01*
X157129350Y-59706494D01*
X156993899Y-59796999D01*
X156878708Y-59912190D01*
X156788204Y-60047641D01*
X156725863Y-60198145D01*
X156694082Y-60357919D01*
X156694082Y-60520824D01*
X156725863Y-60680598D01*
X156788204Y-60831103D01*
X156878708Y-60966554D01*
X119436718Y-98408544D01*
X119407280Y-98337473D01*
X119316775Y-98202022D01*
X119201584Y-98086831D01*
X119066133Y-97996327D01*
X118915629Y-97933986D01*
X118755855Y-97902205D01*
X118592950Y-97902205D01*
X118433176Y-97933986D01*
X118282671Y-97996327D01*
X118147220Y-98086831D01*
X118032030Y-98202022D01*
X117941525Y-98337473D01*
X117879184Y-98487977D01*
X117847403Y-98647752D01*
X117847403Y-98810656D01*
X117879184Y-98970431D01*
X117941525Y-99120935D01*
X118032030Y-99256386D01*
X115396466Y-101891950D01*
X113906735Y-100402219D01*
X130807294Y-83501659D01*
X131196203Y-83890568D01*
X131339537Y-84002367D01*
X131501929Y-84084055D01*
X131677136Y-84132493D01*
X131858427Y-84145817D01*
X132038834Y-84123518D01*
X132211425Y-84066452D01*
X132361529Y-83982064D01*
X132398940Y-83814856D01*
X131446518Y-82862435D01*
X130807294Y-83501659D01*
X113906735Y-100402219D01*
X113485299Y-99980783D01*
X130385858Y-83080224D01*
X130774767Y-83469132D01*
X131413992Y-82829908D01*
X130461570Y-81877487D01*
X130494097Y-81844960D01*
X131446518Y-82797381D01*
X131460661Y-82783239D01*
X131493188Y-82815766D01*
X131479045Y-82829908D01*
X132431467Y-83782329D01*
X132598675Y-83744919D01*
X132683062Y-83594814D01*
X132740129Y-83422224D01*
X132762428Y-83241817D01*
X132749103Y-83060526D01*
X132709945Y-82918884D01*
X132737169Y-82924299D01*
X132885300Y-82924299D01*
X133030585Y-82895400D01*
X133167440Y-82838712D01*
X133290606Y-82756416D01*
X133395351Y-82651670D01*
X133477648Y-82528504D01*
X133534336Y-82391649D01*
X133563235Y-82246365D01*
X133563235Y-82098233D01*
X133534336Y-81952948D01*
X133477648Y-81816093D01*
X133395351Y-81692927D01*
X133290606Y-81588182D01*
X136314195Y-78564593D01*
X136418940Y-78669338D01*
X136542106Y-78751635D01*
X136678962Y-78808323D01*
X136824246Y-78837222D01*
X136972378Y-78837222D01*
X137117662Y-78808323D01*
X137254517Y-78751635D01*
X137377683Y-78669338D01*
X137482429Y-78564593D01*
X137564725Y-78441427D01*
X137621413Y-78304572D01*
X137650312Y-78159287D01*
X137650312Y-78011156D01*
X137644897Y-77983932D01*
X137786539Y-78023090D01*
X137967830Y-78036415D01*
X138148237Y-78014115D01*
X138320827Y-77957049D01*
X138470932Y-77872662D01*
X138508342Y-77705453D01*
X137555921Y-76753032D01*
X137588448Y-76720505D01*
X138540869Y-77672927D01*
X138708077Y-77635516D01*
X138792465Y-77485412D01*
X138849531Y-77312821D01*
X138871831Y-77132414D01*
X138858506Y-76951123D01*
X138810068Y-76775916D01*
X138728380Y-76613524D01*
X138647906Y-76510350D01*
X169677341Y-45480915D01*
X169792532Y-45596106D01*
X169927983Y-45686610D01*
X170078487Y-45748951D01*
X170238261Y-45780732D01*
X170401166Y-45780732D01*
X170560940Y-45748951D01*
X170711445Y-45686610D01*
X170846896Y-45596106D01*
X170962086Y-45480915D01*
X171052591Y-45345464D01*
X171114932Y-45194960D01*
X171146713Y-45035186D01*
X171146713Y-44872281D01*
X171114932Y-44712507D01*
X171052591Y-44562002D01*
X170962086Y-44426551D01*
X170846896Y-44311361D01*
X170711445Y-44220856D01*
X170560940Y-44158515D01*
X170401166Y-44126734D01*
X170238261Y-44126734D01*
X170078487Y-44158515D01*
X169927983Y-44220856D01*
X169792532Y-44311361D01*
X169677341Y-44426551D01*
X169586836Y-44562002D01*
X169524496Y-44712507D01*
X169492715Y-44872281D01*
X169492715Y-45035186D01*
X169524496Y-45194960D01*
X169586836Y-45345464D01*
X169677341Y-45480915D01*
X138647906Y-76510350D01*
X138616581Y-76470190D01*
X138227672Y-76081281D01*
X137588448Y-76720505D01*
X137555921Y-76753032D01*
X137541779Y-76767174D01*
X137509252Y-76734647D01*
X137523394Y-76720505D01*
X136570973Y-75768084D01*
X136603500Y-75735557D01*
X137555921Y-76687978D01*
X138195146Y-76048754D01*
X137806237Y-75659845D01*
X137662902Y-75548046D01*
X137500511Y-75466358D01*
X137325303Y-75417921D01*
X137144012Y-75404596D01*
X137136422Y-75405534D01*
X160414240Y-52127716D01*
X160529430Y-52242907D01*
X160664881Y-52333411D01*
X160815385Y-52395752D01*
X160975160Y-52427533D01*
X161138064Y-52427533D01*
X161297839Y-52395752D01*
X161448343Y-52333411D01*
X161583794Y-52242907D01*
X161698985Y-52127716D01*
X161789489Y-51992265D01*
X161851830Y-51841761D01*
X161883611Y-51681986D01*
X161883611Y-51519082D01*
X161851830Y-51359307D01*
X161789489Y-51208803D01*
X161698985Y-51073352D01*
X161583794Y-50958162D01*
X161448343Y-50867657D01*
X161297839Y-50805316D01*
X161138064Y-50773535D01*
X160975160Y-50773535D01*
X160815385Y-50805316D01*
X160664881Y-50867657D01*
X160529430Y-50958162D01*
X160414240Y-51073352D01*
X160323735Y-51208803D01*
X160261394Y-51359307D01*
X160229613Y-51519082D01*
X160229613Y-51681986D01*
X160261394Y-51841761D01*
X160323735Y-51992265D01*
X160414240Y-52127716D01*
X137136422Y-75405534D01*
X136963605Y-75426895D01*
X136791015Y-75483962D01*
X136640910Y-75568349D01*
X136603500Y-75735557D01*
X136570973Y-75768084D01*
X136403765Y-75805494D01*
X136319377Y-75955599D01*
X136262311Y-76128190D01*
X136240012Y-76308597D01*
X136253336Y-76489887D01*
X136301774Y-76665095D01*
X136383462Y-76827486D01*
X136495261Y-76970821D01*
X136857661Y-77333221D01*
X136824246Y-77333221D01*
X136678962Y-77362120D01*
X136542106Y-77418808D01*
X136418940Y-77501105D01*
X136314195Y-77605850D01*
X136231898Y-77729016D01*
X136175210Y-77865871D01*
X136146311Y-78011156D01*
X136146311Y-78159287D01*
X136175210Y-78304572D01*
X136231898Y-78441427D01*
X136314195Y-78564593D01*
X133290606Y-81588182D01*
X133167440Y-81505885D01*
X133030585Y-81449197D01*
X132885300Y-81420298D01*
X132737169Y-81420298D01*
X132591884Y-81449197D01*
X132455029Y-81505885D01*
X132331863Y-81588182D01*
X132227118Y-81692927D01*
X132144821Y-81816093D01*
X132088133Y-81952948D01*
X132059234Y-82098233D01*
X132059234Y-82131648D01*
X131696834Y-81769248D01*
X131553499Y-81657449D01*
X131391108Y-81575761D01*
X131215901Y-81527323D01*
X131034610Y-81513998D01*
X130854203Y-81536298D01*
X130681612Y-81593364D01*
X130531507Y-81677752D01*
X130494097Y-81844960D01*
X130461570Y-81877487D01*
X130294362Y-81914897D01*
X130209975Y-82065002D01*
X130152908Y-82237592D01*
X130130609Y-82417999D01*
X130143934Y-82599290D01*
X130192371Y-82774498D01*
X130274059Y-82936889D01*
X130385858Y-83080224D01*
X113485299Y-99980783D01*
X112422198Y-98917682D01*
X124740705Y-86599175D01*
X124855896Y-86714365D01*
X124991347Y-86804870D01*
X125141851Y-86867210D01*
X125301625Y-86898991D01*
X125464530Y-86898991D01*
X125624304Y-86867210D01*
X125774809Y-86804870D01*
X125910260Y-86714365D01*
X126025450Y-86599175D01*
X126115955Y-86463723D01*
X126178296Y-86313219D01*
X126210077Y-86153445D01*
X126210077Y-85990540D01*
X126178296Y-85830766D01*
X126115955Y-85680262D01*
X126074786Y-85618647D01*
X130892534Y-80800899D01*
X131007725Y-80916089D01*
X131143176Y-81006594D01*
X131293680Y-81068935D01*
X131453454Y-81100716D01*
X131616359Y-81100716D01*
X131776133Y-81068935D01*
X131926638Y-81006594D01*
X132062089Y-80916089D01*
X132177279Y-80800899D01*
X132267784Y-80665448D01*
X132330125Y-80514944D01*
X132361906Y-80355169D01*
X132361906Y-80192265D01*
X132330125Y-80032490D01*
X132267784Y-79881986D01*
X132177279Y-79746535D01*
X132097444Y-79666700D01*
X134145225Y-77618918D01*
X134260416Y-77734109D01*
X134395867Y-77824614D01*
X134546371Y-77886954D01*
X134706146Y-77918735D01*
X134869050Y-77918735D01*
X135028825Y-77886954D01*
X135179329Y-77824614D01*
X135314780Y-77734109D01*
X135429971Y-77618918D01*
X135520475Y-77483467D01*
X135582816Y-77332963D01*
X135614597Y-77173189D01*
X135614597Y-77010284D01*
X135582816Y-76850510D01*
X135520475Y-76700006D01*
X135429971Y-76564554D01*
X135314780Y-76449364D01*
X135179329Y-76358859D01*
X135028825Y-76296518D01*
X134869050Y-76264738D01*
X134721589Y-76264738D01*
X140685963Y-70300363D01*
X140801154Y-70415554D01*
X140936605Y-70506059D01*
X141087109Y-70568399D01*
X141246883Y-70600180D01*
X141409788Y-70600180D01*
X141569562Y-70568399D01*
X141720067Y-70506059D01*
X141855518Y-70415554D01*
X141970708Y-70300363D01*
X142061213Y-70164912D01*
X142123554Y-70014408D01*
X142155335Y-69854634D01*
X142155335Y-69691729D01*
X142123554Y-69531955D01*
X142061213Y-69381450D01*
X141970708Y-69245999D01*
X141855518Y-69130809D01*
X141720067Y-69040304D01*
X141569562Y-68977963D01*
X141409788Y-68946182D01*
X141246883Y-68946182D01*
X141087109Y-68977963D01*
X140936605Y-69040304D01*
X140801154Y-69130809D01*
X140685963Y-69245999D01*
X140595458Y-69381450D01*
X140533118Y-69531955D01*
X140501337Y-69691729D01*
X140501337Y-69854634D01*
X140533118Y-70014408D01*
X140595458Y-70164912D01*
X140685963Y-70300363D01*
X134721589Y-76264738D01*
X134706146Y-76264738D01*
X134546371Y-76296518D01*
X134395867Y-76358859D01*
X134260416Y-76449364D01*
X134145225Y-76564554D01*
X134054721Y-76700006D01*
X133992380Y-76850510D01*
X133960599Y-77010284D01*
X133960599Y-77173189D01*
X133992380Y-77332963D01*
X134054721Y-77483467D01*
X134145225Y-77618918D01*
X132097444Y-79666700D01*
X132062089Y-79631344D01*
X131926638Y-79540840D01*
X131776133Y-79478499D01*
X131616359Y-79446718D01*
X131453454Y-79446718D01*
X131293680Y-79478499D01*
X131143176Y-79540840D01*
X131007725Y-79631344D01*
X130892534Y-79746535D01*
X130802030Y-79881986D01*
X130739689Y-80032490D01*
X130707908Y-80192265D01*
X130707908Y-80355169D01*
X130739689Y-80514944D01*
X130802030Y-80665448D01*
X130892534Y-80800899D01*
X126074786Y-85618647D01*
X126025450Y-85544810D01*
X125910260Y-85429620D01*
X125774809Y-85339115D01*
X125624304Y-85276775D01*
X125464530Y-85244994D01*
X125301625Y-85244994D01*
X125141851Y-85276775D01*
X124991347Y-85339115D01*
X124855896Y-85429620D01*
X124740705Y-85544810D01*
X124650201Y-85680262D01*
X124587860Y-85830766D01*
X124556079Y-85990540D01*
X124556079Y-86153445D01*
X124587860Y-86313219D01*
X124650201Y-86463723D01*
X124740705Y-86599175D01*
X112422198Y-98917682D01*
X111308505Y-97803989D01*
X116750399Y-92362095D01*
X116865589Y-92477285D01*
X117001040Y-92567790D01*
X117151545Y-92630131D01*
X117311319Y-92661912D01*
X117474224Y-92661912D01*
X117633998Y-92630131D01*
X117784502Y-92567790D01*
X117919953Y-92477285D01*
X118035144Y-92362095D01*
X118125648Y-92226644D01*
X118187989Y-92076139D01*
X118219770Y-91916365D01*
X118219770Y-91753460D01*
X118187989Y-91593686D01*
X118125648Y-91443182D01*
X118035144Y-91307731D01*
X117919953Y-91192540D01*
X117784502Y-91102036D01*
X117633998Y-91039695D01*
X117474224Y-91007914D01*
X117311319Y-91007914D01*
X117151545Y-91039695D01*
X117001040Y-91102036D01*
X116865589Y-91192540D01*
X116750399Y-91307731D01*
X116659894Y-91443182D01*
X116597553Y-91593686D01*
X116565772Y-91753460D01*
X116565772Y-91916365D01*
X116597553Y-92076139D01*
X116659894Y-92226644D01*
X116750399Y-92362095D01*
X111308505Y-97803989D01*
X110860352Y-97355836D01*
X110988521Y-97381330D01*
X111210520Y-97381330D01*
X111428254Y-97338020D01*
X111633355Y-97253065D01*
X111817941Y-97129728D01*
X111974919Y-96972751D01*
X112098255Y-96788165D01*
X112183211Y-96583063D01*
X112226521Y-96365330D01*
X112226521Y-96143331D01*
X112183211Y-95925597D01*
X112098255Y-95720496D01*
X112092485Y-95711860D01*
X121346593Y-86457753D01*
X121461783Y-86572944D01*
X121597234Y-86663448D01*
X121747739Y-86725789D01*
X121907513Y-86757570D01*
X122070418Y-86757570D01*
X122230192Y-86725789D01*
X122380696Y-86663448D01*
X122516147Y-86572944D01*
X122631338Y-86457753D01*
X122721843Y-86322302D01*
X122776425Y-86190529D01*
X122805286Y-86219390D01*
X122940737Y-86309895D01*
X123091241Y-86372236D01*
X123251016Y-86404017D01*
X123413920Y-86404017D01*
X123573695Y-86372236D01*
X123724199Y-86309895D01*
X123859650Y-86219390D01*
X123974841Y-86104200D01*
X124065345Y-85968749D01*
X124127686Y-85818244D01*
X124159467Y-85658470D01*
X124159467Y-85495565D01*
X124127686Y-85335791D01*
X124065345Y-85185287D01*
X123974841Y-85049836D01*
X123859650Y-84934645D01*
X123724199Y-84844140D01*
X123573695Y-84781800D01*
X123413920Y-84750019D01*
X123251016Y-84750019D01*
X123091241Y-84781800D01*
X122940737Y-84844140D01*
X122805286Y-84934645D01*
X122690096Y-85049836D01*
X122599591Y-85185287D01*
X122545009Y-85317060D01*
X122516147Y-85288199D01*
X122380696Y-85197694D01*
X122340472Y-85181032D01*
X148004518Y-59516985D01*
X148119709Y-59632175D01*
X148255160Y-59722680D01*
X148363933Y-59767736D01*
X148408988Y-59876508D01*
X148499493Y-60011960D01*
X148614684Y-60127150D01*
X148750135Y-60217655D01*
X148833908Y-60252355D01*
X148868608Y-60336128D01*
X148959112Y-60471579D01*
X149074303Y-60586770D01*
X149209754Y-60677274D01*
X149318527Y-60722330D01*
X149363583Y-60831103D01*
X149454087Y-60966554D01*
X149569278Y-61081744D01*
X149704729Y-61172249D01*
X149855233Y-61234590D01*
X150015007Y-61266371D01*
X150177912Y-61266371D01*
X150337686Y-61234590D01*
X150488191Y-61172249D01*
X150623642Y-61081744D01*
X150738832Y-60966554D01*
X150829337Y-60831103D01*
X150891678Y-60680598D01*
X150923459Y-60520824D01*
X150923459Y-60357919D01*
X150891678Y-60198145D01*
X150829337Y-60047641D01*
X150738832Y-59912190D01*
X150623642Y-59796999D01*
X150488191Y-59706494D01*
X150379418Y-59661439D01*
X150334362Y-59552666D01*
X150279032Y-59469858D01*
X152141093Y-57607797D01*
X152256284Y-57722987D01*
X152391735Y-57813492D01*
X152542239Y-57875832D01*
X152702013Y-57907613D01*
X152864918Y-57907613D01*
X153024692Y-57875832D01*
X153175196Y-57813492D01*
X153310648Y-57722987D01*
X153425838Y-57607797D01*
X153516343Y-57472345D01*
X153578684Y-57321841D01*
X153610464Y-57162067D01*
X153610464Y-56999162D01*
X153578684Y-56839388D01*
X153516343Y-56688884D01*
X153507150Y-56675128D01*
X164997321Y-45184957D01*
X165280164Y-45467800D01*
X165299408Y-45483594D01*
X165321365Y-45495330D01*
X165345189Y-45502557D01*
X165369966Y-45504998D01*
X165394743Y-45502557D01*
X165418567Y-45495330D01*
X165440524Y-45483594D01*
X165459769Y-45467800D01*
X166218494Y-44709074D01*
X166977220Y-45467800D01*
X166996465Y-45483594D01*
X167018422Y-45495330D01*
X167042246Y-45502557D01*
X167067023Y-45504998D01*
X167091800Y-45502557D01*
X167115623Y-45495330D01*
X167137581Y-45483594D01*
X167156825Y-45467800D01*
X167934643Y-44689982D01*
X167950437Y-44670738D01*
X167962173Y-44648781D01*
X167969400Y-44624957D01*
X167971841Y-44600180D01*
X167969400Y-44575403D01*
X167962173Y-44551579D01*
X167950437Y-44529622D01*
X167938498Y-44515075D01*
X168669714Y-43783859D01*
X168784905Y-43899049D01*
X168920356Y-43989554D01*
X169070860Y-44051895D01*
X169230634Y-44083676D01*
X169393539Y-44083676D01*
X169553313Y-44051895D01*
X169703817Y-43989554D01*
X169839269Y-43899049D01*
X169954459Y-43783859D01*
X170044964Y-43648408D01*
X170107305Y-43497904D01*
X170139085Y-43338129D01*
X170139085Y-43175225D01*
X170107305Y-43015450D01*
X170044964Y-42864946D01*
X169954459Y-42729495D01*
X169839269Y-42614304D01*
X169703817Y-42523800D01*
X169553313Y-42461459D01*
X169393539Y-42429678D01*
X169230634Y-42429678D01*
X169070860Y-42461459D01*
X168920356Y-42523800D01*
X168784905Y-42614304D01*
X168669714Y-42729495D01*
X168579209Y-42864946D01*
X168516869Y-43015450D01*
X168485088Y-43175225D01*
X168485088Y-43338129D01*
X168516869Y-43497904D01*
X168579209Y-43648408D01*
X168669714Y-43783859D01*
X167938498Y-44515075D01*
X167934643Y-44510377D01*
X167227536Y-43803270D01*
X167208291Y-43787477D01*
X167186334Y-43775740D01*
X167162510Y-43768513D01*
X167137733Y-43766072D01*
X167112956Y-43768513D01*
X167089132Y-43775740D01*
X167067175Y-43787477D01*
X167047931Y-43803270D01*
X166430626Y-44420575D01*
X166308297Y-44298245D01*
X166289052Y-44282451D01*
X166267095Y-44270715D01*
X166243271Y-44263488D01*
X166218494Y-44261047D01*
X166193717Y-44263488D01*
X166169894Y-44270715D01*
X166147936Y-44282451D01*
X166128692Y-44298245D01*
X166006362Y-44420575D01*
X165884033Y-44298245D01*
X167684327Y-42497951D01*
X167967169Y-42780794D01*
X167986414Y-42796588D01*
X168008371Y-42808325D01*
X168032195Y-42815551D01*
X168056972Y-42817992D01*
X168081749Y-42815551D01*
X168105573Y-42808325D01*
X168127530Y-42796588D01*
X168146775Y-42780794D01*
X168853881Y-42073687D01*
X168869675Y-42054443D01*
X168881412Y-42032486D01*
X168888639Y-42008662D01*
X168891079Y-41983885D01*
X168888639Y-41959108D01*
X168881412Y-41935284D01*
X168869675Y-41913327D01*
X168853881Y-41894082D01*
X168571039Y-41611239D01*
X168551794Y-41595446D01*
X168529837Y-41583709D01*
X168506013Y-41576482D01*
X168481236Y-41574041D01*
X168456459Y-41576482D01*
X168432635Y-41583709D01*
X168410678Y-41595446D01*
X168391434Y-41611239D01*
X167684327Y-42318346D01*
X167668533Y-42337591D01*
X167656796Y-42359548D01*
X167649570Y-42383372D01*
X167647129Y-42408149D01*
X167649570Y-42432926D01*
X167656796Y-42456750D01*
X167668533Y-42478707D01*
X167684327Y-42497951D01*
X165884033Y-44298245D01*
X165864788Y-44282451D01*
X165842831Y-44270715D01*
X165819007Y-44263488D01*
X165794230Y-44261047D01*
X165769453Y-44263488D01*
X165745629Y-44270715D01*
X165723672Y-44282451D01*
X165704428Y-44298245D01*
X164997321Y-45005352D01*
X164981527Y-45024597D01*
X164969791Y-45046554D01*
X164962564Y-45070378D01*
X164960123Y-45095155D01*
X164962564Y-45119932D01*
X164969791Y-45143755D01*
X164981527Y-45165713D01*
X164997321Y-45184957D01*
X153507150Y-56675128D01*
X153425838Y-56553432D01*
X153310648Y-56438242D01*
X153175196Y-56347737D01*
X153024692Y-56285397D01*
X152864918Y-56253616D01*
X152702013Y-56253616D01*
X152542239Y-56285397D01*
X152391735Y-56347737D01*
X152256284Y-56438242D01*
X152141093Y-56553432D01*
X152050588Y-56688884D01*
X151988248Y-56839388D01*
X151956467Y-56999162D01*
X151956467Y-57162067D01*
X151988248Y-57321841D01*
X152050588Y-57472345D01*
X152141093Y-57607797D01*
X150279032Y-59469858D01*
X150243858Y-59417215D01*
X150128667Y-59302024D01*
X149993216Y-59211520D01*
X149909443Y-59176820D01*
X149874743Y-59093047D01*
X149784238Y-58957596D01*
X149669048Y-58842405D01*
X149533596Y-58751900D01*
X149424824Y-58706845D01*
X149379768Y-58598072D01*
X149289263Y-58462621D01*
X149174073Y-58347430D01*
X149089297Y-58290785D01*
X161899167Y-45480915D01*
X162014357Y-45596106D01*
X162149808Y-45686610D01*
X162300313Y-45748951D01*
X162460087Y-45780732D01*
X162622992Y-45780732D01*
X162782766Y-45748951D01*
X162933270Y-45686610D01*
X163068721Y-45596106D01*
X163183912Y-45480915D01*
X163274416Y-45345464D01*
X163336757Y-45194960D01*
X163368538Y-45035186D01*
X163368538Y-44872281D01*
X163336757Y-44712507D01*
X163274416Y-44562002D01*
X163183912Y-44426551D01*
X163068721Y-44311361D01*
X163052997Y-44300854D01*
X163583107Y-43770744D01*
X163865950Y-44053586D01*
X163885195Y-44069380D01*
X163907152Y-44081117D01*
X163930976Y-44088343D01*
X163955753Y-44090784D01*
X163980530Y-44088343D01*
X164004354Y-44081117D01*
X164026311Y-44069380D01*
X164045555Y-44053586D01*
X164752662Y-43346479D01*
X164768456Y-43327235D01*
X164780193Y-43305278D01*
X164787419Y-43281454D01*
X164789860Y-43256677D01*
X164787419Y-43231900D01*
X164780193Y-43208076D01*
X164768456Y-43186119D01*
X164752662Y-43166874D01*
X164469819Y-42884032D01*
X164450575Y-42868238D01*
X164428618Y-42856501D01*
X164404794Y-42849275D01*
X164380017Y-42846834D01*
X164355240Y-42849275D01*
X164331416Y-42856501D01*
X164309459Y-42868238D01*
X164290214Y-42884032D01*
X163583107Y-43591138D01*
X163567314Y-43610383D01*
X163555577Y-43632340D01*
X163548350Y-43656164D01*
X163545909Y-43680941D01*
X163548350Y-43705718D01*
X163555577Y-43729542D01*
X163567314Y-43751499D01*
X163583107Y-43770744D01*
X163052997Y-44300854D01*
X162933270Y-44220856D01*
X162782766Y-44158515D01*
X162622992Y-44126734D01*
X162460087Y-44126734D01*
X162300313Y-44158515D01*
X162149808Y-44220856D01*
X162014357Y-44311361D01*
X161899167Y-44426551D01*
X161808662Y-44562002D01*
X161746321Y-44712507D01*
X161714540Y-44872281D01*
X161714540Y-45035186D01*
X161746321Y-45194960D01*
X161808662Y-45345464D01*
X161899167Y-45480915D01*
X149089297Y-58290785D01*
X149038622Y-58256926D01*
X148888118Y-58194585D01*
X148728343Y-58162804D01*
X148565439Y-58162804D01*
X148405664Y-58194585D01*
X148255160Y-58256926D01*
X148119709Y-58347430D01*
X148004518Y-58462621D01*
X147914014Y-58598072D01*
X147851673Y-58748576D01*
X147819892Y-58908350D01*
X147819892Y-59071255D01*
X147851673Y-59231029D01*
X147914014Y-59381534D01*
X148004518Y-59516985D01*
X122340472Y-85181032D01*
X122230192Y-85135353D01*
X122070418Y-85103572D01*
X121907513Y-85103572D01*
X121747739Y-85135353D01*
X121597234Y-85197694D01*
X121461783Y-85288199D01*
X121346593Y-85403389D01*
X121256088Y-85538840D01*
X121193747Y-85689345D01*
X121161966Y-85849119D01*
X121161966Y-86012024D01*
X121193747Y-86171798D01*
X121256088Y-86322302D01*
X121346593Y-86457753D01*
X112092485Y-95711860D01*
X111974919Y-95535910D01*
X111817941Y-95378932D01*
X111633355Y-95255596D01*
X111428254Y-95170640D01*
X111210520Y-95127330D01*
X110988521Y-95127330D01*
X110770788Y-95170640D01*
X110565686Y-95255596D01*
X110381100Y-95378932D01*
X110224123Y-95535910D01*
X110100786Y-95720496D01*
X110015831Y-95925597D01*
X109972521Y-96143331D01*
X109972521Y-96365330D01*
X109998015Y-96493499D01*
X109157355Y-95652839D01*
X109326470Y-95483725D01*
X109503304Y-95572961D01*
X109716929Y-95512557D01*
X109914664Y-95411636D01*
X110088910Y-95274080D01*
X110232973Y-95105173D01*
X110333657Y-94925104D01*
X158505054Y-46753707D01*
X158620245Y-46868898D01*
X158755696Y-46959403D01*
X158906200Y-47021743D01*
X159065974Y-47053524D01*
X159228879Y-47053524D01*
X159388653Y-47021743D01*
X159539157Y-46959403D01*
X159674609Y-46868898D01*
X159789799Y-46753707D01*
X159880304Y-46618256D01*
X159942645Y-46467752D01*
X159974425Y-46307978D01*
X159974425Y-46145073D01*
X159942645Y-45985299D01*
X159880304Y-45834795D01*
X159856950Y-45799844D01*
X164502346Y-41154448D01*
X165209453Y-41861555D01*
X165228698Y-41877349D01*
X165250655Y-41889086D01*
X165274479Y-41896312D01*
X165299256Y-41898753D01*
X165324033Y-41896312D01*
X165347856Y-41889086D01*
X165369814Y-41877349D01*
X165389058Y-41861555D01*
X166006362Y-41244251D01*
X166057981Y-41295870D01*
X166077226Y-41311664D01*
X166099183Y-41323400D01*
X166123007Y-41330627D01*
X166147784Y-41333068D01*
X166172561Y-41330627D01*
X166196385Y-41323400D01*
X166218342Y-41311664D01*
X166218494Y-41311538D01*
X166218647Y-41311664D01*
X166240604Y-41323400D01*
X166264428Y-41330627D01*
X166289205Y-41333068D01*
X166313982Y-41330627D01*
X166337806Y-41323400D01*
X166359763Y-41311664D01*
X166379008Y-41295870D01*
X166430626Y-41244251D01*
X166552956Y-41366581D01*
X166572201Y-41382374D01*
X166594158Y-41394111D01*
X166617981Y-41401338D01*
X166642758Y-41403779D01*
X166667536Y-41401338D01*
X166691359Y-41394111D01*
X166713316Y-41382374D01*
X166732561Y-41366581D01*
X167439668Y-40659474D01*
X167455462Y-40640229D01*
X167467198Y-40618272D01*
X167474425Y-40594448D01*
X167476866Y-40569671D01*
X167474425Y-40544894D01*
X167467198Y-40521070D01*
X167464709Y-40516414D01*
X167874219Y-40106904D01*
X167989409Y-40222094D01*
X168124861Y-40312599D01*
X168275365Y-40374940D01*
X168435139Y-40406721D01*
X168598044Y-40406721D01*
X168757818Y-40374940D01*
X168908322Y-40312599D01*
X169043774Y-40222094D01*
X169158964Y-40106904D01*
X169249469Y-39971452D01*
X169311809Y-39820948D01*
X169343590Y-39661174D01*
X169343590Y-39498269D01*
X169311809Y-39338495D01*
X169249469Y-39187991D01*
X169158964Y-39052540D01*
X169043774Y-38937349D01*
X168908322Y-38846844D01*
X168757818Y-38784504D01*
X168598044Y-38752723D01*
X168435139Y-38752723D01*
X168275365Y-38784504D01*
X168124861Y-38846844D01*
X167989409Y-38937349D01*
X167874219Y-39052540D01*
X167783714Y-39187991D01*
X167721374Y-39338495D01*
X167689593Y-39498269D01*
X167689593Y-39661174D01*
X167721374Y-39820948D01*
X167783714Y-39971452D01*
X167874219Y-40106904D01*
X167464709Y-40516414D01*
X167455462Y-40499113D01*
X167439668Y-40479869D01*
X167156825Y-40197026D01*
X167137581Y-40181232D01*
X167115623Y-40169495D01*
X167091800Y-40162269D01*
X167067023Y-40159828D01*
X167042246Y-40162269D01*
X167018422Y-40169495D01*
X166996465Y-40181232D01*
X166977220Y-40197026D01*
X166287002Y-40887243D01*
X166267095Y-40876602D01*
X166243271Y-40869376D01*
X166218494Y-40866935D01*
X166193717Y-40869376D01*
X166169894Y-40876602D01*
X166149986Y-40887243D01*
X165459769Y-40197026D01*
X165440524Y-40181232D01*
X165418567Y-40169495D01*
X165394743Y-40162269D01*
X165369966Y-40159828D01*
X165345189Y-40162269D01*
X165321365Y-40169495D01*
X165299408Y-40181232D01*
X165280164Y-40197026D01*
X164502346Y-40974843D01*
X164486552Y-40994088D01*
X164474816Y-41016045D01*
X164467589Y-41039869D01*
X164465148Y-41064646D01*
X164467589Y-41089423D01*
X164474816Y-41113247D01*
X164486552Y-41135204D01*
X164502346Y-41154448D01*
X159856950Y-45799844D01*
X159789799Y-45699343D01*
X159674609Y-45584153D01*
X159539157Y-45493648D01*
X159388653Y-45431307D01*
X159228879Y-45399527D01*
X159065974Y-45399527D01*
X158906200Y-45431307D01*
X158755696Y-45493648D01*
X158620245Y-45584153D01*
X158505054Y-45699343D01*
X158414549Y-45834795D01*
X158352209Y-45985299D01*
X158320428Y-46145073D01*
X158320428Y-46307978D01*
X158352209Y-46467752D01*
X158414549Y-46618256D01*
X158505054Y-46753707D01*
X110333657Y-94925104D01*
X110341316Y-94911406D01*
X110409776Y-94700225D01*
X110418152Y-94658114D01*
X110328915Y-94481279D01*
X109326470Y-94481279D01*
X109326470Y-95483725D01*
X109157355Y-95652839D01*
X109070983Y-95566467D01*
X109103635Y-95572961D01*
X109280470Y-95483725D01*
X109280470Y-94481279D01*
X109326470Y-94435279D01*
X110328915Y-94435279D01*
X110418152Y-94258444D01*
X110357747Y-94044819D01*
X110256827Y-93847085D01*
X110119271Y-93672838D01*
X109950364Y-93528775D01*
X109756597Y-93420432D01*
X109545415Y-93351973D01*
X109503304Y-93343597D01*
X109326470Y-93432833D01*
X109326470Y-94435279D01*
X109280470Y-94481279D01*
X108278024Y-94481279D01*
X108188787Y-94658114D01*
X108199100Y-94694583D01*
X108108910Y-94604393D01*
X108278024Y-94435279D01*
X109280470Y-94435279D01*
X109280470Y-93432833D01*
X109103635Y-93343597D01*
X108890010Y-93404001D01*
X108692275Y-93504922D01*
X108518029Y-93642478D01*
X108373966Y-93811384D01*
X108265623Y-94005151D01*
X108197164Y-94216333D01*
X108188787Y-94258444D01*
X108278024Y-94435279D01*
X108108910Y-94604393D01*
X106853732Y-93349216D01*
X146342817Y-53860131D01*
X146458008Y-53975321D01*
X146593459Y-54065826D01*
X146743963Y-54128167D01*
X146903738Y-54159947D01*
X147066642Y-54159947D01*
X147226417Y-54128167D01*
X147376921Y-54065826D01*
X147512372Y-53975321D01*
X147627563Y-53860131D01*
X147718067Y-53724679D01*
X147780408Y-53574175D01*
X147812189Y-53414401D01*
X147812189Y-53251496D01*
X147780408Y-53091722D01*
X147741203Y-52997073D01*
X147769736Y-52928186D01*
X156030180Y-44667742D01*
X156145371Y-44782933D01*
X156280822Y-44873438D01*
X156431326Y-44935778D01*
X156591101Y-44967559D01*
X156754005Y-44967559D01*
X156913780Y-44935778D01*
X157064284Y-44873438D01*
X157199735Y-44782933D01*
X157314925Y-44667742D01*
X157405430Y-44532291D01*
X157407100Y-44528260D01*
X161298126Y-40637234D01*
X161413316Y-40752424D01*
X161548768Y-40842929D01*
X161699272Y-40905270D01*
X161859046Y-40937051D01*
X162021951Y-40937051D01*
X162181725Y-40905270D01*
X162332229Y-40842929D01*
X162467680Y-40752424D01*
X162481898Y-40738207D01*
X162515769Y-40819981D01*
X162606273Y-40955432D01*
X162721464Y-41070622D01*
X162856915Y-41161127D01*
X163007419Y-41223468D01*
X163167194Y-41255249D01*
X163330098Y-41255249D01*
X163489873Y-41223468D01*
X163640377Y-41161127D01*
X163775828Y-41070622D01*
X163891019Y-40955432D01*
X163981523Y-40819981D01*
X164043864Y-40669476D01*
X164075645Y-40509702D01*
X164075645Y-40346797D01*
X164043864Y-40187023D01*
X163981523Y-40036519D01*
X163912031Y-39932517D01*
X165010436Y-38834112D01*
X165125627Y-38949302D01*
X165261078Y-39039807D01*
X165411582Y-39102147D01*
X165571357Y-39133928D01*
X165734261Y-39133928D01*
X165894036Y-39102147D01*
X166044540Y-39039807D01*
X166179991Y-38949302D01*
X166295182Y-38834112D01*
X166385686Y-38698660D01*
X166448027Y-38548156D01*
X166479808Y-38388382D01*
X166479808Y-38225477D01*
X166448027Y-38065703D01*
X166385686Y-37915199D01*
X166295182Y-37779747D01*
X166179991Y-37664557D01*
X166044540Y-37574052D01*
X165894036Y-37511712D01*
X165734261Y-37479931D01*
X165571357Y-37479931D01*
X165411582Y-37511712D01*
X165261078Y-37574052D01*
X165125627Y-37664557D01*
X165010436Y-37779747D01*
X164919932Y-37915199D01*
X164857591Y-38065703D01*
X164825810Y-38225477D01*
X164825810Y-38388382D01*
X164857591Y-38548156D01*
X164919932Y-38698660D01*
X165010436Y-38834112D01*
X163912031Y-39932517D01*
X163891019Y-39901068D01*
X163775828Y-39785877D01*
X163640377Y-39695373D01*
X163489873Y-39633032D01*
X163330098Y-39601251D01*
X163167194Y-39601251D01*
X163007419Y-39633032D01*
X162856915Y-39695373D01*
X162721464Y-39785877D01*
X162707247Y-39800094D01*
X162673376Y-39718321D01*
X162582871Y-39582870D01*
X162467680Y-39467679D01*
X162332229Y-39377174D01*
X162181725Y-39314834D01*
X162021951Y-39283053D01*
X161859046Y-39283053D01*
X161699272Y-39314834D01*
X161548768Y-39377174D01*
X161413316Y-39467679D01*
X161298126Y-39582870D01*
X161207621Y-39718321D01*
X161145280Y-39868825D01*
X161113500Y-40028599D01*
X161113500Y-40191504D01*
X161145280Y-40351278D01*
X161207621Y-40501783D01*
X161298126Y-40637234D01*
X157407100Y-44528260D01*
X157467771Y-44381787D01*
X157499552Y-44222013D01*
X157499552Y-44059108D01*
X157467771Y-43899334D01*
X157405430Y-43748830D01*
X157314925Y-43613378D01*
X157199735Y-43498188D01*
X157064284Y-43407683D01*
X156913780Y-43345342D01*
X156754005Y-43313562D01*
X156591101Y-43313562D01*
X156431326Y-43345342D01*
X156280822Y-43407683D01*
X156145371Y-43498188D01*
X156030180Y-43613378D01*
X155939676Y-43748830D01*
X155877335Y-43899334D01*
X155845554Y-44059108D01*
X155845554Y-44222013D01*
X155877335Y-44381787D01*
X155939676Y-44532291D01*
X156030180Y-44667742D01*
X147769736Y-52928186D01*
X147780408Y-52902424D01*
X147812189Y-52742649D01*
X147812189Y-52579745D01*
X147780408Y-52419970D01*
X147718067Y-52269466D01*
X147627563Y-52134015D01*
X147512372Y-52018825D01*
X147376921Y-51928320D01*
X147226417Y-51865979D01*
X147066642Y-51834198D01*
X146903738Y-51834198D01*
X146743963Y-51865979D01*
X146593459Y-51928320D01*
X146458008Y-52018825D01*
X146342817Y-52134015D01*
X146252313Y-52269466D01*
X146189972Y-52419970D01*
X146158191Y-52579745D01*
X146158191Y-52742649D01*
X146189972Y-52902424D01*
X146229177Y-52997073D01*
X146189972Y-53091722D01*
X146158191Y-53251496D01*
X146158191Y-53414401D01*
X146189972Y-53574175D01*
X146252313Y-53724679D01*
X146342817Y-53860131D01*
X106853732Y-93349216D01*
X106286502Y-92781985D01*
X107487992Y-91580495D01*
X107664827Y-91669732D01*
X107878451Y-91609327D01*
X108076186Y-91508407D01*
X108250433Y-91370851D01*
X108394496Y-91201944D01*
X108502839Y-91008177D01*
X108571298Y-90796995D01*
X108579674Y-90754884D01*
X108490438Y-90578050D01*
X107487992Y-90578050D01*
X107487992Y-91580495D01*
X106286502Y-92781985D01*
X105747099Y-92242582D01*
X106649191Y-91340490D01*
X106818097Y-91484553D01*
X107011865Y-91592896D01*
X107223046Y-91661356D01*
X107265157Y-91669732D01*
X107441992Y-91580495D01*
X107441992Y-90578050D01*
X107487992Y-90532049D01*
X108490438Y-90532049D01*
X108579674Y-90355215D01*
X108519270Y-90141590D01*
X108418349Y-89943855D01*
X108280793Y-89769609D01*
X108179689Y-89683375D01*
X108385645Y-89477419D01*
X108542623Y-89634396D01*
X108727209Y-89757733D01*
X108932310Y-89842688D01*
X109150044Y-89885999D01*
X109372043Y-89885999D01*
X109589776Y-89842688D01*
X109794878Y-89757733D01*
X109979464Y-89634396D01*
X110136441Y-89477419D01*
X110259778Y-89292833D01*
X110344733Y-89087732D01*
X110388043Y-88869998D01*
X110388043Y-88647999D01*
X110344733Y-88430265D01*
X110259778Y-88225164D01*
X110136441Y-88040578D01*
X109979464Y-87883600D01*
X109794878Y-87760264D01*
X109589776Y-87675308D01*
X109372043Y-87631998D01*
X109150044Y-87631998D01*
X108932310Y-87675308D01*
X108727209Y-87760264D01*
X108542623Y-87883600D01*
X108385645Y-88040578D01*
X108262309Y-88225164D01*
X108177353Y-88430265D01*
X108134043Y-88647999D01*
X108134043Y-88869998D01*
X108177353Y-89087732D01*
X108262309Y-89292833D01*
X108385645Y-89477419D01*
X108179689Y-89683375D01*
X108111886Y-89625546D01*
X107918119Y-89517203D01*
X107706938Y-89448743D01*
X107664827Y-89440367D01*
X107487992Y-89529604D01*
X107487992Y-90532049D01*
X107441992Y-90578050D01*
X106439546Y-90578050D01*
X106350310Y-90754884D01*
X106410714Y-90968509D01*
X106511635Y-91166244D01*
X106649191Y-91340490D01*
X105747099Y-92242582D01*
X105238056Y-91733540D01*
X106439546Y-90532049D01*
X107441992Y-90532049D01*
X107441992Y-89529604D01*
X107265157Y-89440367D01*
X107051533Y-89500772D01*
X106853798Y-89601692D01*
X106679551Y-89739248D01*
X106535488Y-89908155D01*
X106427145Y-90101922D01*
X106358686Y-90313104D01*
X106350310Y-90355215D01*
X106439546Y-90532049D01*
X105238056Y-91733540D01*
X104667678Y-91163161D01*
X165905103Y-29925736D01*
X178212184Y-44624477D01*
G37*
%TD.AperFunction*%
%TD*%
M02*
