%TF.GenerationSoftware,KiCad,Pcbnew,(5.1.9-16-g1737927814)-1*%
%TF.CreationDate,2021-08-08T16:45:24+02:00*%
%TF.ProjectId,Diffprobe,44696666-7072-46f6-9265-2e6b69636164,rev?*%
%TF.SameCoordinates,Original*%
%TF.FileFunction,Legend,Bot*%
%TF.FilePolarity,Positive*%
%FSLAX46Y46*%
G04 Gerber Fmt 4.6, Leading zero omitted, Abs format (unit mm)*
G04 Created by KiCad (PCBNEW (5.1.9-16-g1737927814)-1) date 2021-08-08 16:45:24*
%MOMM*%
%LPD*%
G01*
G04 APERTURE LIST*
%ADD10C,0.150000*%
G04 APERTURE END LIST*
D10*
X87761904Y-41700000D02*
X87857142Y-41652380D01*
X88000000Y-41652380D01*
X88142857Y-41700000D01*
X88238095Y-41795238D01*
X88285714Y-41890476D01*
X88333333Y-42080952D01*
X88333333Y-42223809D01*
X88285714Y-42414285D01*
X88238095Y-42509523D01*
X88142857Y-42604761D01*
X88000000Y-42652380D01*
X87904761Y-42652380D01*
X87761904Y-42604761D01*
X87714285Y-42557142D01*
X87714285Y-42223809D01*
X87904761Y-42223809D01*
X87285714Y-42652380D02*
X87285714Y-41652380D01*
X86714285Y-42652380D01*
X86714285Y-41652380D01*
X86238095Y-42652380D02*
X86238095Y-41652380D01*
X86000000Y-41652380D01*
X85857142Y-41700000D01*
X85761904Y-41795238D01*
X85714285Y-41890476D01*
X85666666Y-42080952D01*
X85666666Y-42223809D01*
X85714285Y-42414285D01*
X85761904Y-42509523D01*
X85857142Y-42604761D01*
X86000000Y-42652380D01*
X86238095Y-42652380D01*
X89233333Y-34052380D02*
X88900000Y-35052380D01*
X88566666Y-34052380D01*
X88233333Y-34052380D02*
X88233333Y-34861904D01*
X88185714Y-34957142D01*
X88138095Y-35004761D01*
X88042857Y-35052380D01*
X87852380Y-35052380D01*
X87757142Y-35004761D01*
X87709523Y-34957142D01*
X87661904Y-34861904D01*
X87661904Y-34052380D01*
X87233333Y-35004761D02*
X87090476Y-35052380D01*
X86852380Y-35052380D01*
X86757142Y-35004761D01*
X86709523Y-34957142D01*
X86661904Y-34861904D01*
X86661904Y-34766666D01*
X86709523Y-34671428D01*
X86757142Y-34623809D01*
X86852380Y-34576190D01*
X87042857Y-34528571D01*
X87138095Y-34480952D01*
X87185714Y-34433333D01*
X87233333Y-34338095D01*
X87233333Y-34242857D01*
X87185714Y-34147619D01*
X87138095Y-34100000D01*
X87042857Y-34052380D01*
X86804761Y-34052380D01*
X86661904Y-34100000D01*
X85900000Y-34528571D02*
X85757142Y-34576190D01*
X85709523Y-34623809D01*
X85661904Y-34719047D01*
X85661904Y-34861904D01*
X85709523Y-34957142D01*
X85757142Y-35004761D01*
X85852380Y-35052380D01*
X86233333Y-35052380D01*
X86233333Y-34052380D01*
X85900000Y-34052380D01*
X85804761Y-34100000D01*
X85757142Y-34147619D01*
X85709523Y-34242857D01*
X85709523Y-34338095D01*
X85757142Y-34433333D01*
X85804761Y-34480952D01*
X85900000Y-34528571D01*
X86233333Y-34528571D01*
M02*
