%TF.GenerationSoftware,KiCad,Pcbnew,(5.1.9-16-g1737927814)-1*%
%TF.CreationDate,2021-08-08T16:45:24+02:00*%
%TF.ProjectId,Diffprobe,44696666-7072-46f6-9265-2e6b69636164,rev?*%
%TF.SameCoordinates,Original*%
%TF.FileFunction,Soldermask,Bot*%
%TF.FilePolarity,Negative*%
%FSLAX46Y46*%
G04 Gerber Fmt 4.6, Leading zero omitted, Abs format (unit mm)*
G04 Created by KiCad (PCBNEW (5.1.9-16-g1737927814)-1) date 2021-08-08 16:45:24*
%MOMM*%
%LPD*%
G01*
G04 APERTURE LIST*
%ADD10C,0.100000*%
%ADD11O,2.000000X1.524000*%
%ADD12O,2.000000X1.700000*%
%ADD13O,3.500000X2.200000*%
%ADD14O,2.500000X1.500000*%
%ADD15R,2.500000X1.500000*%
%ADD16C,2.050000*%
%ADD17C,2.250000*%
%ADD18C,0.650000*%
%ADD19O,1.600000X1.000000*%
%ADD20O,2.100000X1.000000*%
%ADD21C,1.400000*%
G04 APERTURE END LIST*
D10*
G36*
X85000000Y-35900000D02*
G01*
X81000000Y-35900000D01*
X81000000Y-33400000D01*
X85000000Y-33400000D01*
X85000000Y-35900000D01*
G37*
X85000000Y-35900000D02*
X81000000Y-35900000D01*
X81000000Y-33400000D01*
X85000000Y-33400000D01*
X85000000Y-35900000D01*
G36*
X85000000Y-43400000D02*
G01*
X81000000Y-43400000D01*
X81000000Y-40900000D01*
X85000000Y-40900000D01*
X85000000Y-43400000D01*
G37*
X85000000Y-43400000D02*
X81000000Y-43400000D01*
X81000000Y-40900000D01*
X85000000Y-40900000D01*
X85000000Y-43400000D01*
G36*
X180000000Y-32800000D02*
G01*
X80000000Y-32800000D01*
X80000000Y-31400000D01*
X180000000Y-31400000D01*
X180000000Y-32800000D01*
G37*
X180000000Y-32800000D02*
X80000000Y-32800000D01*
X80000000Y-31400000D01*
X180000000Y-31400000D01*
X180000000Y-32800000D01*
G36*
X180100000Y-60000000D02*
G01*
X80000000Y-60000000D01*
X80000000Y-58600000D01*
X180100000Y-58600000D01*
X180100000Y-60000000D01*
G37*
X180100000Y-60000000D02*
X80000000Y-60000000D01*
X80000000Y-58600000D01*
X180100000Y-58600000D01*
X180100000Y-60000000D01*
D11*
%TO.C,J2*%
X177500000Y-43740000D03*
X177500000Y-47700000D03*
%TD*%
D12*
%TO.C,BT1*%
X128000000Y-46000000D03*
G36*
G01*
X127250000Y-42650000D02*
X128750000Y-42650000D01*
G75*
G02*
X129000000Y-42900000I0J-250000D01*
G01*
X129000000Y-44100000D01*
G75*
G02*
X128750000Y-44350000I-250000J0D01*
G01*
X127250000Y-44350000D01*
G75*
G02*
X127000000Y-44100000I0J250000D01*
G01*
X127000000Y-42900000D01*
G75*
G02*
X127250000Y-42650000I250000J0D01*
G01*
G37*
%TD*%
D13*
%TO.C,SW1*%
X83000000Y-57500000D03*
X83000000Y-49300000D03*
D14*
X83000000Y-55400000D03*
X83000000Y-53400000D03*
D15*
X83000000Y-51400000D03*
%TD*%
D16*
%TO.C,J1*%
X136600000Y-37300000D03*
D17*
X139140000Y-34760000D03*
X134060000Y-34760000D03*
X134060000Y-39840000D03*
X139140000Y-39840000D03*
%TD*%
D18*
%TO.C,P1*%
X85005000Y-39210000D03*
X85005000Y-44990000D03*
D19*
X81325000Y-46420000D03*
X81325000Y-37780000D03*
D20*
X85505000Y-46420000D03*
X85505000Y-37780000D03*
%TD*%
D21*
%TO.C,TH1*%
X111090000Y-56500000D03*
X108550000Y-56500000D03*
%TD*%
M02*
